<svg xmlns="http://www.w3.org/2000/svg" width="273.92" height="453.68" shape-rendering="geometricPrecision" text-rendering="geometricPrecision" image-rendering="optimizeQuality" fill-rule="evenodd" clip-rule="evenodd"><path fill="none" pointer-events="none" d="M0 0h273.92v453.68H0z"/><linearGradient id="a" gradientUnits="userSpaceOnUse" x1="501.999" y1="362.948" x2="928.285" y2="362.948"><stop offset="0" stop-color="#ada981"/><stop offset=".18" stop-color="#ccc89b"/><stop offset=".393" stop-color="#ebe8b7"/><stop offset=".527" stop-color="#f7f4c1"/><stop offset=".724" stop-color="#dad7a8"/><stop offset="1" stop-color="#ada981"/></linearGradient><linearGradient id="b" gradientUnits="userSpaceOnUse" x1="584.772" y1="274.454" x2="845.504" y2="274.454"><stop offset="0" stop-color="#c3bd8f"/><stop offset=".11" stop-color="#d6d2a2"/><stop offset=".244" stop-color="#e9e5b3"/><stop offset=".382" stop-color="#f3f0be"/><stop offset=".527" stop-color="#f7f4c1"/><stop offset=".655" stop-color="#edeab8"/><stop offset=".871" stop-color="#d4cfa0"/><stop offset="1" stop-color="#c3bd8f"/></linearGradient><linearGradient id="c" gradientUnits="userSpaceOnUse" x1="584.78" y1="350.583" x2="845.511" y2="350.583"><stop offset="0"/><stop offset=".505" stop-color="#3c3c3b"/><stop offset="1"/></linearGradient><linearGradient id="d" gradientUnits="userSpaceOnUse" x1="763.181" y1="248.123" x2="829.691" y2="185.706"><stop offset=".005" stop-color="#c3bd8f"/><stop offset=".207" stop-color="#d6d2a2"/><stop offset=".453" stop-color="#e9e5b3"/><stop offset=".706" stop-color="#f3f0be"/><stop offset=".973" stop-color="#f7f4c1"/></linearGradient><linearGradient id="e" gradientUnits="userSpaceOnUse" x1="605.368" y1="223.977" x2="678.275" y2="223.977"><stop offset="0" stop-color="#f7f4c1"/><stop offset=".275" stop-color="#f3f0be"/><stop offset=".534" stop-color="#e9e5b3"/><stop offset=".788" stop-color="#d6d2a2"/><stop offset=".995" stop-color="#c3bd8f"/></linearGradient><path class="cls-1" d="M254.49 416.905l-.213 1.737c-.471-.18-.943-.4-1.422-.55-3.278-1.022-4.771-4.48-7.86-5.73-1.101-.44-2.359-1.902-3.255.228-1.95.48-1.069 1.226-.15 1.902a9.189 9.189 0 0 1 3.334 5.204c-6.092-.228-12.38.314-17.057-4.937-.535-.605-1.73-.574-2.563-.959-4.032-1.855-8.646-1.894-12.576-3.93-8.27-4.252-15.54-10.014-22.795-15.815-1.219-.982-1.439-1.572.282-2.217 6.006-2.358 11.83-5.156 18.276-6.186 5.502 3.294 11.122 6.517 16.609 9.897a54.787 54.787 0 0 0 7.561 3.993c5.7 2.358 11.335 4.952 17.002 7.451-.518.88-1.242 1.824-.204 2.736 2.264 2.012 3.474 4.708 5.03 7.176z" fill="#602c0b"/><path class="cls-2" d="M92.409 390.282c2.61-1.91 5.754-2.507 8.756-3.254 11.335-2.814 21.844-7.86 32.582-12.2 6.673-2.703 13.645-4.59 20.138-7.86 8.371-4.181 13.52-11.216 17.843-19.022 1.886-3.403 3.081-7.184 4.645-10.769.393-.903.786-2.177 2.162-1.572 1.045.488.786 1.47.464 2.43-3.058 8.394-5.015 17.174-9.04 25.231-1.698 3.404-4.346 5.958-7.074 8.505-3.325 3.144-3.144 4.991 1.093 6.94 4.967 2.296 10.344 3.326 15.634 4.638a35.372 35.372 0 0 0 17.984-.165.904.904 0 0 1 1.062.417 38.154 38.154 0 0 1-22.654 3.93c-1.957-1.926-4.716-1.934-7.074-2.728a104.456 104.456 0 0 0-11.563-3.19c-8.434-1.77-16.97-1.211-25.31.29-8.647 1.572-17.191 4.087-25.782 6.186a1.91 1.91 0 0 0-1.517 1.376 28.297 28.297 0 0 0-3.333.44c-2.964.794-5.958 1.391-9.016.377z" fill="#966c38"/><path class="cls-1" d="M85.547 391.178c1.446-.456 2.916-.173 4.37-.094-.15 2.617 2.012 2.79 3.679 3.325 2.845.904 5.746 1.627 8.748 2.46a30.9 30.9 0 0 1-8.489 5.935 124.713 124.713 0 0 0-18.967 10.745c-3.01 2.083-6.862 3.851-8.528 6.783-2.43 4.276-4.795 8.246-8.945 11.005-.889-.943-.48-2.5-1.572-3.34a8.49 8.49 0 0 1 1.76-5.15c.59-.715.833-1.454.142-2.2-.833-.896-1.698-.535-2.43.149a5.762 5.762 0 0 0-1.571 1.831 13.363 13.363 0 0 1-5.502 6.753c-1.258-3.145.683-5.825 1.43-8.647 1.187-3.003.472-3.694-3.411-3.317 2.727-2.13 5.447-4.26 8.182-6.383 3.145-2.428 6.446-4.676 9.433-7.31 4.276-3.812 9.07-6.995 13.174-11.004 1.572-1.572 3.75-.236 5.644-.362.943-.141 2.476.818 2.853-1.179z" fill="#602c0b"/><path class="cls-3" d="M176.028 387.57a38.154 38.154 0 0 0 22.653-3.93 2.358 2.358 0 0 0 1.863-.44c.4 0 .935.173 1.195 0 3.6-2.76 5.046.196 6.76 2.484-6.438 1.03-12.27 3.86-18.276 6.186-1.713.668-1.501 1.234-.283 2.217 7.224 5.8 14.495 11.562 22.795 15.815 3.93 2.012 8.553 2.043 12.577 3.93.833.385 2.028.353 2.563.959 4.676 5.258 10.965 4.716 17.056 4.936a6.83 6.83 0 0 1 1.455 5.11l-.071.054c-2.02-1.815-4.575-1.886-7.012-1.808-5.8.189-10.54-2.106-14.934-5.635-2.909-2.359-6.744-2.862-9.967-4.717-5.345-3.05-10.659-6.178-16.436-8.45a66.97 66.97 0 0 0-15.98-4.354c-3.27-.409-6.446-.605-9.433-2.146a9.59 9.59 0 0 1-4.37-4.166 4.913 4.913 0 0 1-.055-4.716c.88-1.722 2.657-1.022 4.15-1.195 1.258-.157 2.602 2.028 3.75-.134zM57.391 431.313c4.142-2.727 6.516-6.705 8.945-11.004 1.667-2.932 5.502-4.717 8.529-6.784a124.713 124.713 0 0 1 18.99-10.721 30.9 30.9 0 0 0 8.513-5.943c-3.01-.833-5.91-1.572-8.749-2.46-1.666-.527-3.828-.7-3.678-3.325.707-.652 1.643-.59 2.492-.786 3.057 1.022 6.052.424 9.055-.33a28.297 28.297 0 0 1 3.332-.44c2.146.786 4.245.424 6.36-.165 1.344-.378 2.696-.527 3.529.966a3.466 3.466 0 0 1-.252 4.056c-1.336 1.8-3.246 2.846-5.18 3.797-9.668 4.755-19.603 9.07-28.51 15.194-4.77 3.286-9.683 6.595-12.41 12.168-1.88 3.836-5.417 6.154-9.166 7.9-2.004.911-1.745-.944-1.8-2.123z" fill="#2f1302"/><path class="cls-1" d="M59.167 309.163c4.23-3.144 8.765-4.716 14-2.751 2.358 3.404 5.557 6.202 7.286 10.046.613 1.367 1.47 2.688 1.4 4.3-2.107-1.133-3.718-3.02-6.352-3.412-1.619-.244-1.973.102-2.153 1.509a26.82 26.82 0 0 0 .959 11.79c-3.883-1.69-4.599-5.352-5.463-8.89-.205-.833.29-1.917-1.062-2.161-2.145-1.32-1.847.605-2.043 1.62-.637 3.143.338 6.287.471 9.432a9.032 9.032 0 0 1-3.694-8.238 5.982 5.982 0 0 0-.4-2.68c-.087-.96-.252-2.044-1.573-1.628a2.452 2.452 0 0 0-1.572 2.98c.527 3.214.92 6.43.322 9.676-2.468-1.926-2.932-4.921-2.877-7.523.079-3.773-.746-7.915 2.162-11.217.739-.81-.424-2.067.59-2.853zM201.48 295.132c4.511-1.792 8.85-4.574 14.03-2.303 4.198 6.925 5.628 14.149 2.209 21.813-.59 1.328-.07 3.238-1.926 3.93.15-2.036.409-4.064.417-6.1s-.087-4.284-1.36-6.139c-.322-.463-.739-1.124-1.454-.644-.495.33-.338.927-.134 1.391a5.872 5.872 0 0 1 .574 3.852c-1.934 0-1.934 1.407-2.02 2.735-.118 1.777-.456 3.42-2.17 4.402-.346-3.459-.66-6.917-1.06-10.376-.15-1.312.99-3.545-.873-3.718s-1.824 2.264-2.264 3.75c-1.1 1.501-.448 4.024-2.798 4.795-.165-4.63-1.572-9.268.267-13.898.416-1.021-.558-1.635-1.572-1.823z" fill="#602c0b"/><path class="cls-4" d="M188.966 289.905c-2.123 1.352-4.213.676-5.503-1.973a29.57 29.57 0 0 1-2.358-8.906c-1.297-10.037-4.3-19.517-7.774-29.02-2.035-5.565-3.82-11.79-2.79-18.079.283-1.76.535-3.53 2.759-3.93a46.966 46.966 0 0 0 3.93 24.045c2.555 5.714 5.054 11.578 5.982 17.82a66.09 66.09 0 0 0 2.963 13.181c.88 2.311 1.855 4.575 2.79 6.862z" fill="#996c3a"/><path class="cls-3" d="M48.163 429.356a13.363 13.363 0 0 0 5.502-6.752 5.762 5.762 0 0 1 1.572-1.832c.74-.683 1.572-1.045 2.43-.149.69.747.447 1.486-.142 2.201a8.49 8.49 0 0 0-1.761 5.149c-1.784.51-2.515 2.358-4.025 3.199-.943.534-1.572 2.146-2.743 1.572s-.872-2.154-.833-3.388zM74.299 330.67a26.82 26.82 0 0 1-.96-11.791c.19-1.407.535-1.753 2.154-1.51 2.626.401 4.245 2.28 6.352 3.412-.165.959.4 2.264-.74 2.774s-1.791-.786-2.562-1.344a16.711 16.711 0 0 1-2.303-2.452c-.487-.542-.652-1.894-1.705-1.156-.865.606-.063 1.572.361 2.162 1.957 2.68.692 5.801 1.297 8.646.26 1.282-.865 1.423-1.894 1.258zM201.354 296.83c1.021.189 1.988.786 1.572 1.824-1.879 4.63-.433 9.267-.268 13.897-1.462 1.863-2.2.786-2.711-.731-1.769-5.196-1.855-10.258 1.407-14.99z" fill="#2f1302"/><path class="cls-4" d="M197.785 298.394c-3.2-1.155-3.93-4.621-6.147-6.65-.73-.66-.88-1.925-2.138-2.027 1.156-1.572-.393-3.435.786-5.173 2.924 3.428 4.992 7.539 8.544 10.486 1.376 1.164-.605 2.24-1.045 3.364z" fill="#996c3a"/><path class="cls-3" d="M241.724 412.59c.936-2.138 2.162-.668 3.255-.228 3.097 1.25 4.598 4.716 7.86 5.73.487.15.951.362 1.423.55.322.857.904 1.855.188 2.594s-1.697-.18-2.468-.471c-2.814-1.054-5.282-2.492-6.72-5.424a6.288 6.288 0 0 0-3.538-2.751zM46.19 417.369c3.883-.377 4.598.322 3.411 3.317-.338-1.753-1.155-1.124-1.745-.252a10.163 10.163 0 0 0-1.823 5.44c0 1.124-.157 2.24-.291 3.364-.102.888-.621 1.76-1.407 1.76-1.391.064-.983-1.218-1.116-2.05.18-4.08 1.768-7.79 2.963-11.61zM205.472 307.756c.449-1.493.3-3.93 2.264-3.75s.716 2.406.873 3.719c.4 3.45.715 6.917 1.06 10.375-.91.967-1.697 1.84-1.98-.448-.346-2.79-1.674-5.44-1.124-8.363a1.203 1.203 0 0 0-1.093-1.533zM254.49 416.905c-1.572-2.468-2.767-5.164-5.03-7.145-1.039-.904-.315-1.855.203-2.735 3.79.896 5.73 3.45 6.784 7.074.597 2.067.228 2.932-1.957 2.806zM213.852 310.955a5.872 5.872 0 0 0-.574-3.851c-.205-.472-.37-1.061.133-1.392.716-.48 1.132.181 1.455.645 1.28 1.847 1.367 4.017 1.36 6.139s-.268 4.064-.417 6.1l-1.391 2.13-.566-.15q-.008-4.81 0-9.62zM59.27 330.78c.597-3.247.204-6.462-.323-9.677a2.452 2.452 0 0 1 1.572-2.98c1.297-.416 1.463.67 1.573 1.628-1.368 2.225-1.274 4.646-.55 6.964a5.84 5.84 0 0 1-.472 4.379c-.668 1.509-1.4 1.116-1.8-.315zM66.21 330.677c-.141-3.144-1.108-6.288-.471-9.432.204-1.014-.095-2.94 2.043-1.62-.479 3.372.912 6.603.621 10.022-.212 2.445-.77 2.146-2.193 1.03z" fill="#2f1302"/><path class="cls-1" d="M46.15 417.361c-1.194 3.82-2.782 7.53-2.963 11.61-2.782-3.474-1.17-9.928 2.964-11.61z" fill="#602c0b"/><path class="cls-5" d="M218.261 319.342a.047.047 0 0 0-.078 0 13.174 13.174 0 0 1-4.465 4.111c-1.116.731-2.067.786-2.06-.872 0-2.696-.715-3.207-2.743-1.195a5.95 5.95 0 0 1-1.925.951c-.66.275-1.384.653-2.036.087s-.173-1.313 0-1.99c.471-1.87.66-3.725-.503-5.682a.055.055 0 0 0-.087 0 12.647 12.647 0 0 0-1.053 1.179c-1.384 2.004-2.185 2.452-3.67-.252a21.86 21.86 0 0 1-1.864-17.245.047.047 0 0 0 0-.063c-3.144-1.171-3.867-4.614-6.1-6.634-.73-.66-.88-1.926-2.137-2.028a1.195 1.195 0 0 1-.55.196c-2.123 1.352-4.214.676-5.503-1.973a29.57 29.57 0 0 1-2.358-8.906c-1.297-10.037-4.3-19.517-7.774-29.02-2.036-5.565-3.82-11.79-2.79-18.079a4.284 4.284 0 0 1 3.089-3.293c.298-.338-.268-1.242 0-1.572.361-1.525.691-3.066 1.1-4.583a.912.912 0 0 1 1.156-.747.959.959 0 0 1 .51 1.297c-.518 1.156-.298 2.516-.785 3.679l-.197 5.722.047.134a.464.464 0 0 1 0 .141V235.134a15.666 15.666 0 0 0 .283 2.54 11.46 11.46 0 0 0 .786 2.42 10.108 10.108 0 0 0 .488.951c.251.44.786 2.9.99 3.364a8.646 8.646 0 0 0 .542 1.093c.346.629.833-.134 1.305.417a12.018 12.018 0 0 0 1.572 1.572 13.229 13.229 0 0 0 1.855 1.25 13.819 13.819 0 0 0 2.036.927 13.52 13.52 0 0 0 1.792.51c2.964.63 5.848-.785 8.827-.706.786 0 1.69-.44 2.154.526s-.094 1.572-.739 2.154a46.007 46.007 0 0 1-3.521 3.388c-3.71 2.767-5.628 6.61-6.202 11.24-.354 2.798.275 5.762-1.226 8.395a9.212 9.212 0 0 0 1.124 4.457.055.055 0 0 0 .102 0c.244-1.91.362-3.247.621-4.551.126-.63.18-1.62 1.179-1.447.786.134.637.975.629 1.572 0 3.333 1.43 6.155 2.924 9 2.177 4.166 5.636 7.303 8.49 10.926a.047.047 0 0 0 .054 0c4.48-1.784 8.796-4.535 13.937-2.31a.055.055 0 0 0 .07 0c.621-2.956.338-6.053.967-8.946 1.95-9.016.393-17.607-2.413-26.135-.244-.731-1.132-1.478-.4-2.256s1.383.51 2.16.377a.063.063 0 0 0 .048-.055 2.358 2.358 0 0 0-.621-1.894c-1.046-1.203-2.735-2.43-2.838-3.742-.188-2.405 2.862-.157 3.624-1.8a.055.055 0 0 0 0-.07c-2.138-.96-4.182-2.194-6.556-2.532a1.997 1.997 0 0 1-1.666-1.218c-1.831-4.536-4.583-8.74-4.3-13.992a34.405 34.405 0 0 0-4.928-19.808c-.943-1.572-2.358-2.9-2.594-4.857-.086-.637-1.163-1.234-.354-1.871s1.572.141 2.083.723c1.761 1.879 3.482 3.789 5.353 5.84a.055.055 0 0 0 .087 0c.629-1.745-.323-2.743-.983-3.655a47.948 47.948 0 0 0-5.062-6.24c-3.883-3.821-7.31-8.647-13.936-7.46a1.43 1.43 0 0 1-1.667-1.085c-.251-1.022.653-1.124 1.305-1.36 1.038-.385 2.437-.189 2.9-1.73a.055.055 0 0 0 0-.07c-2.413-.872-4.983-.723-7.074-2.107a18.653 18.653 0 0 1-3.34.307c-2.877-.236-5.18.849-7.326 2.641s-3.718 3.93-6.351 4.818c-1.132.393-.645 1.274-.787 2.02-.746 3.231-.66 6.792-4.071 8.906-4.78 2.972-11.476 2.453-16.593-1.532-3.058-2.359-10.463-2.264-13.497.243s-6.17 4.198-9.998 4.292c-6.013.157-9.77-2.971-11.98-9.597-1.249-3.734-6.052-6.745-10.068-6.603-1.738.063-3.577.464-5.275-.385l-2.122-.205c-5.369 1.572-11.248-.495-16.562 2.162a.055.055 0 0 0 0 .079c.731 1.273 1.918 1.729 2.932 2.358 2.162 1.273 1.682 1.933-.26 3.034-9.557 5.384-14.203 13.944-15.115 24.61-.613 7.185-.786 14.409-1.265 21.6-.126 1.785.063 3.758-1.258 5.307-.668 2.2-1.423 4.283-3.144 6.028a14.479 14.479 0 0 0-3.356 5.55l.518.527c1.376-.449 2.233-1.573 3.278-2.484a1.266 1.266 0 0 1 1.085-.181.731.731 0 0 1 .251 1.053c-.408.786-.786 1.627-1.304 2.358-1.722 2.775-3.294 5.589-3.145 9a.055.055 0 0 0 .048.055c.84.126 1.242-.518 1.69-1.045s.786-1.8 1.784-1.156.141 1.573-.275 2.359a.047.047 0 0 0 0 .047.912.912 0 0 1-.283 1.179l-.315 3.828v1.203c.692 9.518 3.019 18.73 5.22 27.967.204.864.385 1.855 1.572 2.004h.039c4.205-3.144 8.701-4.716 13.897-2.775a.047.047 0 0 0 .063-.063 3.246 3.246 0 0 1 .346-2.562c2.995-5.416 3.93-11.343 4.402-17.419a116.954 116.954 0 0 0-.071-12.89c0-.787-.063-1.793.959-2.02s1.328.715 1.65 1.461c.205.472.354.96.527 1.439 1.533.361 1.18-.873 1.116-1.517-.573-5.668.786-10.918 2.579-16.28 2.405-7.34 2.256-14.934.644-22.543-1.21-1.312-.267-2.743-.18-4.11a1.886 1.886 0 0 1 1.532-1.746c.833-.173 1.29.543 1.706 1.117a20.909 20.909 0 0 1 4.158 11.46 49.45 49.45 0 0 1-3.42 20.209c-1.791 4.598-1.131 9.535-.683 14.345.424 4.496-.472 8.804-1.572 13.103a2.358 2.358 0 0 1-.74 1.329c-5.446 3.505-4.063 9.998-6.5 14.817-.456.903.59 1.682 1.172 2.358 3.725 4.378 5.628 9.534 6.382 15.147.535 3.985-1.195 6.39-5.007 6.815-1.281.141-1.423.786-1.572 1.768-.786 4.237-2.861 5.762-6.98 5.125a3.506 3.506 0 0 0-1.76.212c-10.078 3.333-11.893 3.42-18.41-3.757-.738-.786-1.108-2.562-2.153-2.358-1.36.314-2.052 1.91-2.57 3.254a8.93 8.93 0 0 0-.323 2.044.047.047 0 0 0 .07.047c2.233-.865 2.618.228 2.359 2.217-.448 3.254-1.36 6.469-1.14 9.778a87.07 87.07 0 0 0 5.235 24.705c4.716 12.694 18.645 18.936 31.292 19.384a16.68 16.68 0 0 0 5.66-.786 29.87 29.87 0 0 0 2.735-1.384c3.27-1.485 6.713-2.177 10.156-3.097a100.455 100.455 0 0 0 9.652-3.278c6.54-2.483 12.915-5.345 19.392-7.97 6.673-2.704 13.645-4.59 20.138-7.86 8.371-4.182 13.52-11.217 17.843-19.022 1.887-3.404 3.081-7.185 4.646-10.77.393-.903.786-2.176 2.161-1.571 1.046.487.786 1.47.464 2.429-3.058 8.395-5.015 17.175-9.04 25.231-1.697 3.404-4.346 5.959-7.074 8.505-3.325 3.144-3.144 4.992 1.093 6.941 4.967 2.295 10.344 3.325 15.634 4.638a35.372 35.372 0 0 0 17.984-.165.904.904 0 0 1 1.062.416 2.358 2.358 0 0 0 1.847-.416.055.055 0 0 0 0-.04c0-.707.464-1.077.935-1.477 4.072-3.506 8.05-7.075 10.792-11.791 3.884-6.697 7.987-13.292 8.034-21.427 0-.786 0-1.871 1.171-1.753.912.086.786 1.077.92 1.753.314 1.509-.59 3.254.786 4.59a.055.055 0 0 0 .086 0c2.932-4.48-.432-27.55-5.243-33.674zM69.78 261.86c-.283.786-.998.472-1.423.417-2.209-.7-4.268-1.32-6.288-2.012-.582-.197-1.124-.621-.888-1.384a.888.888 0 0 1 1.257-.518c2.138.707 4.276 1.422 6.39 2.185.543.196 1.22.542.952 1.312z" fill="#dcae74"/><path class="cls-2" d="M87.15 322.054c-.786-5.62-2.656-10.769-6.382-15.147-.59-.692-1.627-1.47-1.171-2.358 2.436-4.818 1.053-11.319 6.5-14.817a2.31 2.31 0 0 0 .739-1.328c1.077-4.3 1.973-8.646 1.572-13.103-.456-4.81-1.108-9.747.684-14.345a49.45 49.45 0 0 0 3.42-20.21 20.909 20.909 0 0 0-4.159-11.483c-.417-.574-.872-1.29-1.706-1.117a1.886 1.886 0 0 0-1.532 1.745c-.087 1.368-1.03 2.806.188 4.12 2.028-.15 2.358 1.335 2.523 2.79.7 6.673.786 13.449-1.438 19.776a47.822 47.822 0 0 0-2.751 19.573c0 1.878.73 3.592 1.226 5.36.212.786.456 1.769-.707 1.989-.944.18-1.117-.747-1.305-1.407-.283-.983-.472-1.989-.7-2.987l-.48-.707-1.328.566c-.786 7.349 0 15.029-3.23 21.86-1.714 3.654-1.093 5.934 1.525 8.34a11.555 11.555 0 0 1 1.218 1.398c3.144 4.001 4.583 8.49 3.584 13.56-.314 1.571-.644 3.843-3.207 1.784a1.572 1.572 0 0 0-1.996-.189c-.66.527-.409 1.297-.315 2.012.834 6.289.598 6.477-5.4 4.418-.37-.126-.73-.432-1.226 0 .59 2.971-.935 2.94-3.058 1.957-1.03-.472-2.028-.998-3.057-1.47s-1.848-.456-2.288.983c-.896 2.884-1.572 2.916-3.726.66-4.04-4.19-5.502-9.165-5.156-14.935.173-2.61 1.14-5.007 1.384-7.57 1.36-1.351.55-2.593-.056-4.016 0 0-.534.786-.581.928a7.939 7.939 0 0 0-.283 1.077c-.26.935-.731 1.847-1.077 2.759q-1.077 2.845-1.965 5.753c-.44 1.454-.849 2.916-1.4 4.331-.785 1.926-1.398 3.93-2.318 5.762-1.368 2.751-2.87 5.502-3.144 8.646a12.262 12.262 0 0 0 0 2.602c1.918-1.273 2.68-2.963 3.773-4.37a9.841 9.841 0 0 1 .338-2.13c.526-1.344 1.218-2.94 2.57-3.255 1.046-.243 1.423 1.51 2.154 2.359 6.508 7.168 8.332 7.074 18.409 3.757a3.506 3.506 0 0 1 1.76-.212c4.12.636 6.202-.889 6.98-5.125.181-.99.315-1.627 1.573-1.769 3.82-.424 5.549-2.822 5.022-6.815z" fill="#966c38"/><path class="cls-6" d="M50.034 273.398c-.252.04-.708.166-.723.118-.173-.424-.118-.786.471-.786z" fill="#deb075"/><path class="cls-3" d="M246.346 424.813l.22.33-.29-.267z" fill="#2f1302"/><path class="cls-5" d="M184.399 171.363q-.228.126-.448.267l-.574.346-.487.134c.07-3.09 1.045-6.147.37-9.268-1.101-2.31-2.493-1.996-2.894.15-.786 4.284-3.993 6.602-6.767 9.29-2.06 1.997-4.268 3.844-6.383 5.786a2.468 2.468 0 0 1-1.847.927c-2.453-.102-4.63.983-6.791 1.863a5.777 5.777 0 0 1-4.858 0c-4.638-1.847-8.458.936-11.9 3.365-2.532 1.784-4.481 3.655-7.735 1.808a3.207 3.207 0 0 0-2.696.11c-3.318 1.917-5.361-.173-7.413-2.186-4.205-4.103-8.984-4.96-14.33-2.263a2.955 2.955 0 0 1-3.143 0c-3.813-2.359-8.592-3.145-11.327-7.177-.275-.409-.692-.857-1.29-.574-.722.346-.55.967-.4 1.572.33 1.352 1.73 2.256 1.73 4.324-6.918-3.53-13.49-6.776-18.245-12.758-.896-1.124-.786-2.539-1.423-3.686-.267-2.358-.573-4.662-.786-6.996-.078-.912-.227-1.659-1.312-1.698s-1.447.574-1.73 1.439a28.675 28.675 0 0 0-1.399 9.966c0 .857.786 1.793-.283 2.54-2.86-4.292-5.502-8.686-5.298-14.15.181-4.385.747-8.709 2.508-12.804 1.077-2.507 2.2-5.046 1.769-7.907.204-.684.369-1.376.613-2.036.37-1.006.668-2.052-.44-2.728s-2.005.173-2.65.912c-1.14 1.297-2.02 2.814-3.144 4.103-1.446 1.62-1.808 4.072-3.977 5.117-.196-4.158 1.423-7.577 4.135-10.635s5.659-6.21 7.962-9.802c3.09-4.826 4.143-10.179 5.015-15.642 1.572.488 3.301 1.085 4.48-.55a4.928 4.928 0 0 0 .41-5.69l-.543-1.84c2.523-1.572 2.264-4.89 4.182-6.666 3.144-2.892 1.815-5.848.723-8.913-.488-1.352-.983-2.704-1.572-4.01-.511-1.131-.307-3.073.463-3.143 1.47 1.76 2.924 5.628 3.49 7.86.786 2.971.472 6.87 5.81 5.14 1.406-.455 2.68-.29 3.143-1.964 2.028-.118 2.413-1.345 1.855-2.987s0-2.579 1.431-3.498c3.34-2.123 7.027-3.144 11.004-4.45l-.369 4.536c3.404-6.351 6.123-13.103 13.119-16.507.959 1.573-.283 2.932-.66 4.276a9.66 9.66 0 0 0 .385 6.572c.7 1.698 1.572 1.729 2.602.267 1.666-1.47 1.705-3.812 3.042-5.502s2.877-3.435 5.022-4.402c5.338-2.405 11.414-5.117 17.332-5.62-1.477 5.156-3.812 10.721-8.607 13.928-1.91 1.282-4.095 1.91-6.178 2.767-.888.37-1.792.731-1.572 1.926.165.99.983 1.21 1.847 1.313.716.086 1.423.196 2.138.298.503 1.572 1.69 1.085 2.476.59 4.496-2.846 10.062-3.333 14.353-6.587-.786 2.955-3.144 4.716-5.203 6.658-.74.683-2.068.99-1.47 2.28.471 1.005 1.399 1.768 2.735 1.186 2.61-.314 4.882-1.148 6.289-3.663s3.419-1.195 5.101-.48c1.517.645.04 1.573-.228 2.233-.786 2.06-.535 3.05 1.918 2.429 1.666 2.429 2.476 5.8 6.375 5.738.935.975 1.902.998 2.256-.362s1.037-2.759.66-4.401c-.448-1.973.07-3.82 2.146-4.827a7.546 7.546 0 0 1-.063 1.84c-1.698 5.942.935 10.91 3.49 15.909.503.982 1.1 1.73 2.358 1.674-1.572 1.997-2.798 4.017-.448 6.289.456 2.138 2.036 2.067 3.679 1.87 1.037 7.813 3.851 15.06 7.019 22.198 3.443 7.766 5.958 15.72 4.787 24.367-1.163-2.02-1.258-4.551-2.853-6.335-1.164-1.297-2.43-3.593-4.284-2.634-2.075 1.07-1.124 3.349-.275 5.149-.08 8.49-.496 16.868-5.927 24.03zm-42.556-21.223l.078.04c-.927-4.85-6.704-8.977-10.855-7.735s-7.9 6.288-8.064 10.611c-.228 3.97.377 4.473 3.993 3.144 1.705-.613 2.931-.353 3.835 1.384 1.038 2.004 2.5 2.2 4.245.692 1.25-1.077 2.452-1.997 4.418-1.148 2.696 1.171 4.071-.055 3.662-3.034a22.528 22.528 0 0 0-.935-3.246zm6.147-31.103c-3.687 3.851-4.717 8.591-4.866 13.74s1.525 7.2 6.901 7.545c3.49.315 6.933.504 10.408-.432 5.966-1.572 11.64-3.678 15.225-9.134 2.421-3.67 3.71-7.986 2.256-12.089-3.026-8.528-18.488-11.79-25.153-5.667a29.807 29.807 0 0 0-4.764 6.06zm-38.312 23.793a51.187 51.187 0 0 0 5.557-.165 9.637 9.637 0 0 0 7.122-4.441c2.704-4.567 0-16.586-4.252-19.895a78.085 78.085 0 0 0-8.065-5.675c-9.433-5.644-21.53.613-22.795 11.523-.692 5.958 3.191 9.55 6.823 12.71a25.09 25.09 0 0 0 15.618 5.967zm21.365 34.373c4.41-.07 8.253-1.477 11.303-4.802.471-.52.652-1.352 1.47-1.502 4.716-.849 8.002-4.056 11.468-6.972.55-.464 1.376-.707.935-1.627s-1.344-.707-2.145-.472c-1.769.527-2.838 2.005-4.15 3.145-4.921 4.228-11.312 3.765-14.857-1.462-1.753-2.579-2.492-1.777-3.93.086-4.166 5.392-9.487 5.903-14.73 1.643a41.613 41.613 0 0 0-4.103-2.767 4.26 4.26 0 0 0-3.294-.385 1.148 1.148 0 0 0-1.038.982c-.055.63.44.944.92 1.07 5.133 1.344 8.05 6.83 13.661 7.317.456.04.787.928 1.282 1.29 2.248 1.713 3.906 4.425 7.216 4.48zm-14.267-66.86c1.352.558 2.736.786 3.56-.959.732-1.525.127-2.838-.848-3.93a13.418 13.418 0 0 0-2.311-2.028c-4.323-3.144-9.024-4.26-14.306-2.916-4.307 1.1-8.646 2.051-11.98 5.305-.785.731-1.76 1.753-1.257 2.61.637 1.085 2.02.535 3.097.197a4.025 4.025 0 0 0 .566-.244c5.652-2.79 11.28-2.578 16.963 0 2.051.888 4.032 2.13 6.524 1.989zm44.018-9.487c-2.782-.456-6.17-.095-9.495.526a9.338 9.338 0 0 0-7.169 5.683c-.385.889-1.265 1.808-.299 2.814s2.194.668 3.412.22c2.012-.746 3.75-2.114 5.982-2.358 6.422-.786 12.828-1.95 19.218.189.66.22 1.47.424 1.879-.456a1.8 1.8 0 0 0-.291-2.272 13.3 13.3 0 0 0-2.531-1.697c-3.128-1.612-6.548-2.256-10.667-2.642zm-29.398 82.188c2.932.29 5.117-.04 7.02-1.494a1.218 1.218 0 0 0 .503-1.572c-.362-.7-.951-.637-1.572-.354-2.877 1.329-5.738 2.264-8.71.181a1.022 1.022 0 0 0-1.572.346c-.338.707.252 1.1.684 1.533a5.447 5.447 0 0 0 3.687 1.383z" fill="#dcae74"/><path class="cls-7" d="M138.266 193.616c-3.144 3.93-4.158 4.22-8.426 2.24-1.234-.574-1.957-.385-2.617.566-2.256 3.278-5.888 4.378-9.268 5.856-4.182 1.823-5.919-.142-7.192-3.427a22.198 22.198 0 0 1-1.383-10.588c.503-4.34 4.142-6.697 8.394-5.235a22.009 22.009 0 0 1 8.725 5.667c1.156 1.187 2.201 2.358 3.978.346a3.93 3.93 0 0 1 5.628-.11c1.878 1.84 2.358.786 3.765-.409 2.869-2.46 6.02-4.661 9.833-5.55 3.01-.707 4.89.119 5.699 3.066 1.077 3.93 1.462 7.86-.346 11.79a6.218 6.218 0 0 1-7.074 3.57 12.82 12.82 0 0 1-9.716-7.782z" fill="#654c90"/><path class="cls-1" d="M81.397 96.894a4.928 4.928 0 0 1-.41 5.69c-1.178 1.636-2.892 1.038-4.48.551-1.383-3.93-4.928-6.461-6.437-10.336-2.303-5.88-5.723-11.414-5.864-17.97-.102-4.715.857-9.101 5.023-12.222 2.979-2.224 6.194-1.698 9.432-1.368-.11 1.03.079 1.73 1.305 2.028a7.955 7.955 0 0 1 3.93 2.358c2.17 2.359 4.661 4.952 6.288 7.696s3.145 5.58 3.671 8.379c.181.935.598 2.012 1.572 1.926.558-.047.88-1.109 1.635-.37a1.776 1.776 0 0 1-.959 1.73 14.88 14.88 0 0 1-3.82 1.25c-.786.094-1.289-.378-2.468-1.093-.849-.52-.896-1.462-1.132-2.43-1.187-4.975-2.688-9.895-7.506-12.505a12.726 12.726 0 0 0-5.636-1.501 8.497 8.497 0 0 0-3.027.267c-.786.299-1.108.92-1.572 1.627a8.646 8.646 0 0 0-1.399 3.56c-1.179 9.166 3.702 15.973 8.717 22.757 1.164 1.587 2.099.463 3.137-.024z" fill="#602c0b"/><path class="cls-2" d="M178.598 186.8a18.865 18.865 0 0 1-3.364.307c-2.877-.235-5.18.85-7.326 2.641s-3.718 3.93-6.351 4.819c-1.132.393-.645 1.273-.786 2.02-.747 3.23-.66 6.791-4.072 8.906-4.78 2.971-11.476 2.452-16.593-1.533-3.058-2.358-10.462-2.264-13.497.244s-6.17 4.197-9.998 4.291c-6.013.158-9.77-2.97-11.98-9.597-1.249-3.734-6.052-6.744-10.068-6.603-1.745.063-3.585.472-5.29-.4 1.957-1.109 3.93-2.257 5.871-3.318a3.569 3.569 0 0 1 3.561.142 13.795 13.795 0 0 0 6.996 2.13c1.195 0 1.572.55 1.62 1.698a39.923 39.923 0 0 0 .785 4.229c1.494 8.245 5.738 9.613 13.433 7.074 2.146-.715 3.624-2.358 5.26-3.718a4.488 4.488 0 0 1 4.44-1.155c1.926.455 4.198 1.422 6.1-.566.904-.944 1.423.188 1.95.715a15.72 15.72 0 0 0 10.776 4.645c4.425.205 7.664-2.358 7.797-6.815.102-3.592.786-6.406 4.654-7.506a3.789 3.789 0 0 0 2.586-2.5c.723-3.388 2.97-2.971 5.408-2.704a22.874 22.874 0 0 1 8.088 2.555z" fill="#966c38"/><path class="cls-1" d="M171.807 86.597c-3.93.063-4.717-3.31-6.375-5.738.84-3.207 3.034-5.605 5.109-7.978 3.474-3.93 7.452-7.358 12.726-8.78 8.937-2.406 12.687-.173 14.604 8.842a59.865 59.865 0 0 1 1.25 6.132c.338 1.257.52.683-.298 3.702.11.464.062 1.572-.676.566-2.044 2.664-3.93 5.463-6.752 7.42-4.324 3.018-8.097 6.453-9.205 11.948-2.358-2.272-1.148-4.3.448-6.289 1.03-.487 1.572-1.446 2.256-2.295 5.125-6.178 9.487-12.67 8.96-21.223 1.573-3.985-2.294-9.079-6.806-8.363-11.162 1.737-17.207 10.446-15.241 22.056z" fill="#602c0b"/><path class="cls-2" d="M139.445 76.213c-.715-.102-1.422-.22-2.138-.298-.864-.103-1.682-.323-1.847-1.313-.204-1.195.7-1.572 1.572-1.926 2.091-.857 4.276-1.493 6.179-2.767 4.794-3.207 6.445-8.253 7.923-13.41l.723-.558a2.688 2.688 0 0 1 .857-.314c1.084 0 2.358-1.187 3.144-.196.95 1.155-.354 2.232-.857 3.293-2.358 4.897-5.086 9.55-9.346 13.048-1.902 1.643-4.087 2.98-6.21 4.441z" fill="#966c38"/><path class="cls-3" d="M96.756 83.178c-1.989 1.084-2.924.37-3.545-1.714a39.632 39.632 0 0 0-9.33-15.791 7.955 7.955 0 0 0-3.93-2.359c-1.227-.298-1.416-.998-1.306-2.027 8.262 1.98 16.861 11.004 18.182 19.195a13.45 13.45 0 0 1-.071 2.696zM182.174 102.719c1.117-5.503 4.882-8.93 9.205-11.948 2.806-1.957 4.716-4.764 6.752-7.42-.07 2.672-1.297 4.716-2.846 6.917-3.317 4.645-6.854 9.18-9.432 14.321-1.604.205-3.223.268-3.679-1.87z" fill="#2f1302"/><path class="cls-2" d="M70.046 168.667c1.03-.739.307-1.674.283-2.539a28.675 28.675 0 0 1 1.391-9.99c.283-.865.787-1.47 1.73-1.439s1.234.786 1.312 1.698c.213 2.358.511 4.669.786 6.996-2.94 1.226-1.226 3.93-1.752 5.863-.165.63.235 1.392.259 2.1a1.281 1.281 0 0 1-.409 1.021 1.14 1.14 0 0 1-1.022-.338c-.888-1.1-2.083-2.004-2.578-3.372zM190.255 147.35c-.85-1.8-1.8-4.072.275-5.149 1.855-.959 3.144 1.336 4.284 2.633 1.572 1.777 1.69 4.316 2.853 6.336l-1.706 7.318a27.268 27.268 0 0 0-3.222-9.315c-.566-1.1-1.116-1.933-2.484-1.823zM59.403 139.214c2.17-1.045 2.531-3.498 3.978-5.117 1.147-1.289 2.028-2.806 3.144-4.103.644-.731 1.517-1.572 2.649-.912s.786 1.714.44 2.728c-.244.668-.417 1.36-.613 2.036-1.745-.559-2.429.66-3.05 1.878-1.572 3.05-3.757 5.573-6.194 8.324-.15-1.839-.77-3.285-.354-4.834zM126.476 71.513c-1.03 1.454-1.902 1.423-2.602-.267a9.66 9.66 0 0 1-.385-6.54c.377-1.344 1.62-2.688.66-4.276 2.728-1.1 5.078-3.31 8.34-2.877a17.843 17.843 0 0 0-6.218 9.927c-.361 1.297-.974 2.728.205 4.033z" fill="#966c38"/><path class="cls-7" d="M104.86 188.986a20.437 20.437 0 0 1-5.833-2.586c-2.145-1.478-.51-3.144-.322-4.716.094-.786.377-.786 2.79.29a37.863 37.863 0 0 0 4.819 2.005c1.572.424 1.721 1.29 1.281 2.5s-.51 3.08-2.735 2.507z" fill="#654c90"/><path class="cls-2" d="M152.376 80.332c-1.337.582-2.264-.188-2.736-1.187-.605-1.281.731-1.572 1.47-2.28 2.083-1.925 4.41-3.71 5.204-6.657.51-1.65 1.886-2.602 3.01-3.812.574 4.834-1.234 8.858-5.235 11.35-1.06.653-1.863 1.242-1.713 2.586z" fill="#966c38"/><path class="cls-7" d="M157.524 184.875c.338-2.287 2.123-2.57 3.93-2.547s1.84 1.36 1.698 2.68c-.188 1.746-2.9 4.34-4.41 4.269-.652-.024-1.39-2.783-1.218-4.402z" fill="#654c90"/><path class="cls-2" d="M183.26 162.85c.667 3.144-.3 6.179-.37 9.268-1.282 1.698-2.956 2.884-4.952 4.291.456-5.431 4.425-8.882 5.321-13.559z" fill="#966c38"/><path class="cls-4" d="M132.481 57.521l.26-.243c0 .055 0 .125-.056.15a.857.857 0 0 1-.22.078z" fill="#996c3a"/><path class="cls-5" d="M151.904 55.973l-.723.558c.055-.472.37-.472.723-.558z" fill="#dcae74"/><path class="cls-6" d="M49.5 262.983c-.174.095-.44.315-.512.268-.353-.26-.157-.519.087-.747z" fill="#deb075"/><path class="cls-4" d="M141.953 232.312c1.265.275 2.523.936 2.908 2.06 2.256 6.555 4.858 13.127 1.698 20.138a5.204 5.204 0 0 1-.983 1.124l-.691-.11c.644-3.93 1.195-7.86-.118-11.79a10.1 10.1 0 0 0-.44-4.52c-.653-2.366-2.115-4.418-2.374-6.902z" fill="#996c3a"/><path class="cls-2" d="M142.228 251.617c1.148 1.124.409 3.538 2.665 3.93l.691.11c-2.035.787-2.051 2.822-2.625 4.497-.134.385-.157.786-.299 1.187-.644 1.642-1.022 4.44-2.908 4-2.358-.542.283-2.727-.118-4.189a3.396 3.396 0 0 1 0-.92c2.547-2.381 1.438-5.84 2.594-8.615z" fill="#966c38"/><path class="cls-8" d="M68.356 262.268c-2.209-.7-4.268-1.32-6.288-2.012-.582-.197-1.124-.621-.888-1.383a.888.888 0 0 1 1.257-.52c2.138.708 4.276 1.423 6.39 2.186.559.204 1.235.55.968 1.313s-1.014.48-1.439.416zM144.767 243.726a10.1 10.1 0 0 0-.44-4.52c-.653-2.358-2.115-4.418-2.358-6.902-.134-.7-.283-1.399-.393-2.098s0-1.627-.928-1.65-1.281.982-1.25 1.768a8.93 8.93 0 0 0 .63 2.649 69.368 69.368 0 0 1 3.143 10.902c-.126 1.51.126 2.806 0 4.645-1.045-1.477-1.831-2.656-2.688-3.773-.37-.479-.951-.95-1.572-.62s-.37 1.037-.15 1.572c.574 1.517 1.14 3.042 1.714 4.559-.196 1.179-.354 2.358-.597 3.529-.433 2.114-1.203 4.213-.213 6.382 2.555-2.358 1.447-5.816 2.602-8.59 1.148 1.123.409 3.536 2.665 3.93.605-3.923 1.148-7.861-.165-11.783zm-4.056 6.484a2.61 2.61 0 0 0 .322-.338 2.602 2.602 0 0 1-.322.338z" fill="#300"/><path class="cls-9" d="M151.197 56.5zM49.766 272.785z" fill="#731931"/><path class="cls-10" d="M81.672 278.43l.48.707z" fill="#853244"/><path class="cls-8" d="M109.686 142.854a25.09 25.09 0 0 1-15.626-5.935c-3.632-3.144-7.515-6.76-6.823-12.71 1.273-10.91 13.362-17.167 22.795-11.524a78.085 78.085 0 0 1 8.073 5.668c4.22 3.317 6.956 15.327 4.252 19.894a9.637 9.637 0 0 1-7.122 4.441 51.187 51.187 0 0 1-5.549.166zm9.519-10.706c0-.676-.07-1.32-.134-1.903a19.934 19.934 0 0 0-12.002-16.019c-5.503-2.358-11.146-.212-15.116 3.977-3.01 3.145-3.521 7.727-1.572 10.738 4.677 7.16 11.665 10.493 19.895 11.271 2.46.228 5.698.37 7.443-1.745 1.29-1.58 1.557-4.103 1.486-6.32zM131.05 177.227c-3.309-.063-4.951-2.767-7.215-4.45-.488-.36-.786-1.249-1.282-1.288-5.612-.488-8.528-5.974-13.66-7.318-.48-.126-.976-.44-.92-1.07a1.148 1.148 0 0 1 1.037-.982 4.26 4.26 0 0 1 3.294.385 41.613 41.613 0 0 1 4.103 2.767c5.243 4.253 10.564 3.75 14.73-1.643 1.438-1.862 2.177-2.664 3.93-.086 3.545 5.22 9.936 5.69 14.856 1.462 1.32-1.132 2.358-2.61 4.15-3.144.787-.244 1.667-.542 2.146.472s-.385 1.163-.935 1.627c-3.466 2.916-6.736 6.123-11.468 6.972-.786.15-.999.982-1.47 1.501-3.042 3.317-6.886 4.732-11.295 4.795zm1.478-3.372c1.517.173 2.854-.425 4.221-.833 1.234-.362 2.413-.99 2.72-2.248.377-1.573-1.462-1.345-2.138-2.115-2.696-3.089-5.36-3.553-8.23-.102-.715.865-2.845.786-2.767 2.036.102 1.517 1.973 1.84 3.278 2.358.943.37 1.973.613 2.908.912z" fill="#300"/><path class="cls-1" d="M116.784 110.367c-2.492.141-4.473-1.109-6.516-2.028-5.683-2.563-11.311-2.783-16.963 0a4.025 4.025 0 0 1-.566.243c-1.077.338-2.46.896-3.097-.196-.503-.857.511-1.879 1.258-2.61 3.333-3.254 7.672-4.205 11.979-5.306 5.274-1.344 9.983-.204 14.306 2.917a13.418 13.418 0 0 1 2.31 2.028c.975 1.131 1.573 2.444.85 3.93-.833 1.792-2.209 1.588-3.561 1.022z" fill="#602c0b"/><path class="cls-8" d="M142.22 150.903a22.528 22.528 0 0 1 .935 3.246c.41 2.979-.966 4.197-3.662 3.034-1.966-.849-3.145.07-4.418 1.148-1.745 1.509-3.207 1.312-4.245-.692-.904-1.737-2.13-1.997-3.835-1.384-3.616 1.297-4.221.786-3.993-3.144 6.24-8.607 10.407-9.236 18.92-2.877h-.08z" fill="#300"/><path class="cls-1" d="M160.833 100.863c4.12.362 7.546 1.007 10.706 2.618a13.3 13.3 0 0 1 2.531 1.698 1.8 1.8 0 0 1 .291 2.271c-.409.88-1.218.676-1.878.456-6.391-2.146-12.797-.966-19.22-.188-2.231.267-3.93 1.635-5.98 2.358-1.22.448-2.359.872-3.412-.22s-.095-1.926.298-2.814a9.338 9.338 0 0 1 7.17-5.683c3.324-.566 6.712-.936 9.494-.496z" fill="#602c0b"/><path class="cls-2" d="M184.87 94.127c-.668.849-1.218 1.8-2.255 2.295-1.219.063-1.824-.684-2.359-1.674-2.562-5-8.787-4.873-8.292-11.004.047-.621 4.527-7.303 4.26-6.493a13.881 13.881 0 0 1 11.877-8.945c2.358-.102 3.89.574 3.537 3.317-4.897.409-9.134 3.56-10.423 7.75-1.202 3.923.912 12.475 3.655 14.754z" fill="#966c38"/><path class="cls-3" d="M191.638 71.623c.346-2.743-1.187-3.42-3.537-3.317a12.844 12.844 0 0 0-11.232 8.693c.062-.345-1.455 3.184-1.007 5.165.378 1.642-1.43 2.649-1.8 4.063s-1.328 1.337-2.255.362c-1.966-11.61 4.08-20.295 15.225-22.064 4.52-.715 8.419 4.386 6.807 8.363-.7-.471-1.816-.235-2.2-1.265z" fill="#2f1302"/><path class="cls-2" d="M87.905 79.35a31.677 31.677 0 0 0-1.69-4.426c-2.052-3.93-6.288-6.115-10.58-6.469a18.448 18.448 0 0 0-2.673.322 2.955 2.955 0 0 0-1.477 1.054c-.087.094-.951 1.116-.74 1.179a13.253 13.253 0 0 0 1.809.314c4.818.425 7.294 3.537 9.188 7.625 1.832 3.93-.149 6.98-1.847 10.132a2.594 2.594 0 0 1-2.358 1.312c1.14 1.525 1.722 3.443 3.286 4.67 2.523-1.573 2.42-4.355 4.873-5.275 1.572-.597 4.771-2.193 5.29-3.93a61.83 61.83 0 0 1-2.869-5.84q-.102-.33-.212-.668z" fill="#966c38"/><path class="cls-3" d="M77.569 90.393c1.14 1.525 1.721 3.443 3.285 4.67l.543 1.839c-1.03.487-1.965 1.572-3.145.04-5.014-6.784-9.896-13.591-8.717-22.757a7.452 7.452 0 0 1 .967-3.19l2.052.33c-1.392 7.16 1.863 13.095 5.015 19.068z" fill="#2f1302"/><path class="cls-1" d="M141.93 150.203c-8.506-6.36-12.672-5.73-18.92 2.877.164-4.323 4.024-9.433 8.064-10.612s9.943 2.877 10.855 7.735z" fill="#602c0b"/><path class="cls-4" d="M147.997 119.06a36.401 36.401 0 0 0-2.279 13.496c0 3.294.322 6.619 4.315 7.79-5.376-.346-7.035-2.287-6.901-7.546s1.179-9.888 4.865-13.74z" fill="#996c3a"/><path class="cls-8" d="M131.436 183.067a5.447 5.447 0 0 1-3.655-1.391c-.433-.432-1.03-.786-.684-1.533a1.022 1.022 0 0 1 1.572-.346c2.971 2.083 5.832 1.148 8.71-.18.62-.291 1.21-.346 1.571.353a1.218 1.218 0 0 1-.503 1.572c-1.894 1.486-4.08 1.816-7.011 1.525z" fill="#300"/><path class="cls-1" d="M142.22 150.903l-.377-.747z" fill="#602c0b"/><path class="cls-5" d="M191.638 71.623c.385 1.03 1.502.786 2.201 1.273.527 8.56-3.836 15.06-8.969 21.223-2.743-2.287-4.857-10.831-3.655-14.754 1.29-4.181 5.526-7.333 10.423-7.742z" fill="#dcae74"/><path class="cls-8" d="M177.961 118.699c-3.026-8.529-18.487-11.79-25.153-5.668a29.807 29.807 0 0 0-4.787 6.03 36.401 36.401 0 0 0-2.28 13.495c0 3.294.323 6.619 4.316 7.79 3.49.314 6.933.503 10.407-.432 5.966-1.572 11.641-3.679 15.226-9.134 2.405-3.663 3.694-7.978 2.271-12.081zm-5.91 12.867c-4.403 4.716-11.917 7.538-17.294 6.87-2.31-.29-5.384-.535-6.201-3.144-.448-1.415-.244-2.971-.205-4.426.07-2.523-.212-5.1.511-7.57 1.116-3.803 3.75-7.86 7.42-9.652 3.325-1.572 7.342-1.116 10.855-.62 4.23.589 6.784 3.309 8.034 7.184 1.336 4.284-.22 8.23-3.152 11.358z" fill="#300"/><path class="cls-11" d="M132.52 173.863c-.974-.299-1.965-.535-2.908-.912-1.305-.511-3.144-.833-3.278-2.358-.086-1.242 2.044-1.171 2.767-2.036 2.861-3.45 5.502-2.987 8.23.102.676.786 2.515.535 2.138 2.115-.307 1.257-1.486 1.886-2.72 2.248-1.375.408-2.704 1.014-4.229.84z" fill="#f9f8f7"/><path class="cls-5" d="M77.569 90.393c-3.145-5.966-6.407-11.908-5.015-19.069 4.818.425 7.294 3.537 9.188 7.625 1.832 3.93-.149 6.98-1.847 10.132a2.594 2.594 0 0 1-2.326 1.312z" fill="#dcae74"/><path class="cls-2" d="M177.961 243.333c2.075 3.262 5.353 6.02 9.126 6.815 2.963.628 5.848-.787 8.827-.708.786 0 1.69-.44 2.154.527s-.094 1.572-.739 2.153a46.03 46.03 0 0 1-3.521 3.388c-3.71 2.767-5.628 6.61-6.202 11.24-.354 2.807.283 5.77-1.234 8.403-1.384-9.935-4.599-19.375-7.766-28.831a14.99 14.99 0 0 1-.645-2.987z" fill="#966c38"/><path class="cls-11" d="M172.019 131.566c-4.402 4.716-11.917 7.538-17.293 6.87-2.311-.29-5.384-.535-6.202-3.144-.448-1.415-.244-2.971-.204-4.426.07-2.523-.212-5.1.51-7.57 1.117-3.803 3.75-7.86 7.42-9.652 3.326-1.572 7.342-1.116 10.856-.62 4.229.589 6.784 3.309 8.033 7.184 1.368 4.284-.188 8.23-3.12 11.358zM119.205 132.148c0-.676-.07-1.32-.134-1.903a19.934 19.934 0 0 0-12.002-16.019c-5.503-2.358-11.146-.212-15.116 3.977-3.01 3.145-3.521 7.727-1.572 10.738 4.677 7.16 11.665 10.493 19.895 11.271 2.46.228 5.698.37 7.443-1.745 1.29-1.58 1.557-4.103 1.486-6.32z" fill="#f9f8f7"/><path d="M165.872 126.15a8.71 8.71 0 0 1-8.71 8.71 8.71 8.71 0 0 1-8.709-8.71 8.71 8.71 0 0 1 8.71-8.709 8.71 8.71 0 0 1 8.709 8.71z" class="cls-12" fill="#9aba4e"/><path d="M162.877 126.15a5.714 5.714 0 0 1-5.714 5.715 5.714 5.714 0 0 1-5.715-5.715 5.714 5.714 0 0 1 5.715-5.714 5.714 5.714 0 0 1 5.714 5.714z"/><path d="M161.331 119.657a2.822 2.822 0 0 1 1.92 3.498 2.822 2.822 0 0 1-3.498 1.92 2.822 2.822 0 0 1-1.92-3.498 2.822 2.822 0 0 1 3.498-1.92z" class="cls-13" fill="#f6f6f5"/><path d="M117.42 126.693a8.71 8.71 0 0 1-8.709 8.709 8.71 8.71 0 0 1-8.709-8.71 8.71 8.71 0 0 1 8.71-8.709 8.71 8.71 0 0 1 8.709 8.71z" class="cls-12" fill="#9aba4e"/><path d="M114.426 126.693a5.714 5.714 0 0 1-5.715 5.714 5.714 5.714 0 0 1-5.714-5.714 5.714 5.714 0 0 1 5.714-5.715 5.714 5.714 0 0 1 5.715 5.715z"/><path d="M112.89 120.204a2.822 2.822 0 0 1 1.92 3.498 2.822 2.822 0 0 1-3.498 1.92 2.822 2.822 0 0 1-1.92-3.498 2.822 2.822 0 0 1 3.499-1.92z" class="cls-13" fill="#f6f6f5"/><path class="cls-14" d="M111.745 200.855a3.812 3.812 0 0 0 3.82 2.06 5.848 5.848 0 0 1-2.538-.912 6.288 6.288 0 0 1-1.282-1.148zM148.147 201.39a6.288 6.288 0 0 0 4.449-.786 7.86 7.86 0 0 1-2.453.786 9.102 9.102 0 0 1-1.996 0zM129.14 195.589l.166.047-.063-.063zM158.585 187.202c.865-.126 1.329-1.266 1.73-1.958a9.928 9.928 0 0 0 1.179-2.837v-.063h-.04c-1.768 0-3.56.26-3.93 2.547a8.466 8.466 0 0 0 .558 3.6.707.707 0 0 1 0-.15.739.739 0 0 1 .503-1.14zM132.088 194.677a4.04 4.04 0 0 0 5.25-3.144v-.605a.723.723 0 0 1 .166-.527c1.187-1.415 1.879 1.336 3.042 2.358a3.67 3.67 0 0 1 .786 1.776c.707 2.359 2.908 3.93 5.203 4.717 3.263 1.14 6.705-.213 7.79-3.632.377-1.202.48-2.657 1.533-3.356a1.014 1.014 0 0 1 .51-.181 22.221 22.221 0 0 0-.903-6.052c-.786-2.948-2.688-3.766-5.699-3.066-3.804.888-6.964 3.09-9.833 5.55-1.415 1.218-1.887 2.247-3.765.408a3.93 3.93 0 0 0-5.628.11 3.2 3.2 0 0 1-1.368 1.014 8.033 8.033 0 0 0 .951 3.93c.637.134 1.21.464 1.965.7z" fill="none"/><path class="cls-14" d="M106.487 181.684a2.955 2.955 0 0 0 3.144 0c5.345-2.689 10.124-1.84 14.33 2.264 2.051 2.004 4.095 4.103 7.412 2.185a3.207 3.207 0 0 1 2.696-.11c3.254 1.855 5.203 0 7.735-1.808 3.434-2.43 7.255-5.204 11.9-3.364a5.777 5.777 0 0 0 4.858 0c2.161-.889 4.347-1.966 6.791-1.863a2.468 2.468 0 0 0 1.847-.928c2.115-1.941 4.324-3.789 6.383-5.785 2.775-2.696 5.974-5.007 6.768-9.291.4-2.146 1.792-2.46 2.892-.15-.896 4.717-4.865 8.128-5.321 13.552a51.698 51.698 0 0 0 6.485-5.314c2.9-2.869 4.3-7.734 5.015-11.625.188-1.014 1.06-12.129.786-12.105 1.367-.118 1.918.723 2.484 1.823a27.275 27.275 0 0 1 3.222 9.315l1.706-7.318c1.163-8.646-1.344-16.617-4.787-24.367-3.144-7.137-5.982-14.385-7.02-22.198 2.579-5.14 6.116-9.676 9.433-14.321a17.434 17.434 0 0 0 3.325-10.022 34.586 34.586 0 0 0-1.336-9.645 12.388 12.388 0 0 0-2.767-5.337c-2.956-2.987-7.601-2.154-11.24-1.171-5.267 1.39-9.197 4.81-12.695 8.78-2.075 2.358-4.268 4.77-5.11 7.978-2.452.62-2.742-.37-1.917-2.429.267-.668 1.737-1.572.228-2.232-1.674-.716-3.694-2.091-5.101.48s-3.64 3.34-6.289 3.662c-.15-1.344.653-1.934 1.706-2.594 4.009-2.492 5.817-6.516 5.243-11.35-1.124 1.21-2.508 2.161-3.01 3.812-4.292 3.262-9.858 3.75-14.354 6.595-.786.503-1.98.959-2.476-.59 2.083-1.462 4.276-2.798 6.234-4.41 4.26-3.505 6.995-8.15 9.346-13.048.503-1.053 1.312-1.784.573-3.089-.236-.416-8.222 1.455-9.825 1.926a86.951 86.951 0 0 0-11.24 3.97c-2.146.966-3.6 2.594-5.023 4.401s-1.376 4.04-3.042 5.503c-1.171-1.297-.566-2.736-.22-4.08a17.843 17.843 0 0 1 6.202-9.912c-3.239-.416-5.581 1.785-8.301 2.877-6.988 3.42-9.708 10.171-13.119 16.507l.37-4.536c-3.994 1.282-7.68 2.359-11.005 4.45-1.446.92-1.989 1.839-1.43 3.497s.172 2.87-1.864 2.987a1.038 1.038 0 0 1-.33-.141 13.45 13.45 0 0 0 .11-2.736c-1.32-8.167-9.92-17.214-18.18-19.195-3.263-.33-6.478-.856-9.433 1.368-4.166 3.144-5.117 7.475-5.023 12.223.134 6.555 3.56 12.081 5.864 17.969 1.517 3.875 5.062 6.422 6.438 10.336-.873 5.502-1.918 10.824-5.015 15.642-2.303 3.592-5.172 6.65-7.963 9.802s-4.323 6.485-4.134 10.635c-.41 1.572.204 2.995.377 4.834 2.437-2.743 4.645-5.274 6.194-8.324.62-1.218 1.305-2.437 3.05-1.878.432 2.86-.692 5.392-1.769 7.907-1.76 4.095-2.358 8.419-2.507 12.805-.22 5.423 2.436 9.817 5.298 14.148.495 1.4 1.69 2.272 2.586 3.372a1.14 1.14 0 0 0 1.021.338 1.281 1.281 0 0 0 .41-1.022c0-.707-.433-1.47-.26-2.098.526-1.965-1.187-4.63 1.753-5.864.668 1.148.526 2.562 1.422 3.686 4.717 5.982 11.32 9.22 18.244 12.758 0-2.067-1.399-2.971-1.729-4.323-.157-.63-.33-1.242.4-1.572.59-.283 1.015.172 1.29.573 2.673 4.056 7.452 4.85 11.264 7.185zM99.523 184.293a8.796 8.796 0 0 0 4.472 3.372c1.203.393 1.832.614 2.358-.558a27.346 27.346 0 0 0 .85-2.601.786.786 0 0 1 .054-.103 2.877 2.877 0 0 0-.943-.416 37.887 37.887 0 0 1-4.818-2.005c-2.421-1.037-2.697-1.069-2.79-.29-.19 1.572-1.824 3.222.321 4.716l.33.212a11.846 11.846 0 0 1-1.241-1.493c-.614-.873.81-1.73 1.407-.834z" fill="none"/><path class="cls-14" d="M110.865 193.616c.605 2.633 1.368 5.211 4.19 6.288 2.224.865 5.007-.605 6.846-1.8 6.406-4.174 2.649-9.542-1.776-13.237a.7.7 0 0 1-.11-.975 20.775 20.775 0 0 0-2.24-.927c-4.253-1.462-7.861.896-8.395 5.235a21.805 21.805 0 0 0 0 5.133.841.841 0 0 1 1.485.283z" fill="none"/><path class="cls-15" d="M107.587 186.486c.33-.896.323-1.572-.338-2.083a.786.786 0 0 0-.055.103 27.346 27.346 0 0 1-.849 2.601c-.518 1.164-1.147.951-2.358.558a8.796 8.796 0 0 1-4.472-3.372c-.598-.856-2.02-.039-1.415.826a11.846 11.846 0 0 0 1.242 1.493 21.16 21.16 0 0 0 5.502 2.358c2.24.59 2.287-1.234 2.743-2.484zM155.056 197.79a13.52 13.52 0 0 0 1.25-5.715 1.014 1.014 0 0 0-.511.18c-1.045.7-1.148 2.155-1.533 3.357-1.085 3.42-4.527 4.772-7.79 3.632-2.287-.786-4.496-2.358-5.203-4.716a3.67 3.67 0 0 0-.786-1.777c-1.163-1.045-1.855-3.804-3.042-2.358a.723.723 0 0 0-.165.527v.605a4.04 4.04 0 0 1-5.25 3.144c-.787-.228-1.33-.558-2.02-.692a8.033 8.033 0 0 1-.952-3.93c-1.022.322-1.792-.51-2.61-1.36a22.654 22.654 0 0 0-6.484-4.716.7.7 0 0 0 .11.975c4.433 3.686 8.19 9.063 1.776 13.237-1.84 1.194-4.622 2.664-6.846 1.8-2.83-1.093-3.593-3.679-4.19-6.289a.841.841 0 0 0-1.47-.251 22.583 22.583 0 0 0 1.36 5.455 12.097 12.097 0 0 0 .983 2.028 6.288 6.288 0 0 0 1.28 1.148 5.848 5.848 0 0 0 2.54.911 7.813 7.813 0 0 0 2.358-.668c3.372-1.478 7.003-2.57 9.267-5.856a1.627 1.627 0 0 1 1.918-.786h.11l.063.063a4.221 4.221 0 0 1 .527.204c4.268 1.981 5.305 1.675 8.426-2.24.118.267.244.519.377.786a12.71 12.71 0 0 0 9.33 6.98h.181a9.102 9.102 0 0 0 1.989 0 7.86 7.86 0 0 0 2.452-.786 6.47 6.47 0 0 0 2.555-2.892zM158.727 189.277c1.51.07 4.22-2.523 4.41-4.268.141-1.29 0-2.594-1.573-2.673v.063a9.928 9.928 0 0 1-1.179 2.838c-.4.691-.864 1.839-1.729 1.957a.739.739 0 0 0-.48 1.132.707.707 0 0 0 0 .15c.134.479.339.793.55.8z" fill="#342856"/><path class="cls-8" d="M250.725 404.274a142.854 142.854 0 0 1-37.895-19.101 27.692 27.692 0 0 1-4.984-4.15c-.707-.786-.856-1.305.158-2.225 4.952-4.488 8.442-10.03 11.161-16.098.786-1.706 1.03-3.679 2.728-5.463.07 1.792.141 3.144.165 4.433 0 .74-.087 1.572.92 1.627.707 0 .966-.605 1.186-1.226a46.88 46.88 0 0 0 2.814-19.462 69.061 69.061 0 0 0-6.366-24.713 4.968 4.968 0 0 1-.283-3.828c1.823-6.194 2.405-12.49-.66-18.409-2.044-3.93-1.243-7.656-.732-11.657 1.1-8.591 1.698-17.23-2.594-25.302l-.448-2.932c-.786.188-1.43-1.203-2.208-.37s.157 1.525.4 2.256c2.807 8.529 4.363 17.12 2.414 26.136-.63 2.916-.338 6.037-.975 9.008 4.197 6.925 5.628 14.149 2.209 21.812-.59 1.329-.071 3.239-1.926 3.93l-1.391 2.13-.566-.149v-9.62c-1.934 0-1.934 1.406-2.028 2.735-.118 1.776-.456 3.419-2.17 4.401-.912.967-1.698 1.84-1.988-.448-.346-2.79-1.675-5.439-1.125-8.363a1.203 1.203 0 0 0-1.092-1.525c-1.1 1.501-.448 4.025-2.798 4.795-1.47 1.855-2.201.786-2.712-.731-1.769-5.196-1.855-10.258 1.407-14.998l.133-1.698c-2.853-3.639-6.327-6.775-8.512-10.949-1.494-2.853-2.94-5.675-2.924-9 0-.582.125-1.423-.63-1.572-.998-.173-1.06.786-1.178 1.446-.26 1.344-.378 2.72-.645 4.716a9.197 9.197 0 0 1-1.203-4.614c-1.241-8.937-4-17.552-6.846-26.088-.975-2.916-1.62-6.03-2.892-8.827-1.132-2.476-.92-5.063-1.132-7.704-.079-.982.37-1.847.29-2.83 0 0 .087-5.604.653-6.767a.888.888 0 0 0-.566-1.234.912.912 0 0 0-1.132.786c-.393 1.47-.715 2.955-1.061 4.433l-.393 1.1a46.966 46.966 0 0 0 3.93 24.045c2.555 5.715 5.054 11.579 5.982 17.82a66.09 66.09 0 0 0 2.963 13.182c.849 2.31 1.824 4.574 2.743 6.862a1.195 1.195 0 0 0 .55-.189c1.156-1.572-.392-3.435.787-5.172 2.924 3.427 4.991 7.538 8.544 10.486 1.407 1.17-.574 2.248-1.014 3.372a21.868 21.868 0 0 0 1.855 17.293c1.486 2.704 2.295 2.256 3.67.251a14.086 14.086 0 0 1 1.101-1.234c1.203 1.973 1.014 3.852.535 5.746-.173.676-.7 1.383 0 1.989s1.375.188 2.036-.087a5.95 5.95 0 0 0 1.925-.95c2.028-2.013 2.751-1.502 2.744 1.194 0 1.627.943 1.572 2.059.872 1.721-1.124 3.404-2.303 4.496-4.173 4.85 6.06 8.254 29.413 5.046 33.8-1.47-1.337-.542-3.145-.864-4.638-.142-.676 0-1.667-.92-1.753-1.202-.118-1.171 1.006-1.171 1.753-.047 8.135-4.15 14.73-8.033 21.427-2.744 4.716-6.72 8.316-10.793 11.79-.471.41-.982.786-.927 1.502.4 0 .935.173 1.195 0 3.592-2.76 5.046.196 6.76 2.484 5.541 3.293 11.122 6.516 16.609 9.896a54.787 54.787 0 0 0 7.561 3.993c5.707 2.358 11.335 4.952 17.002 7.452 3.789.896 5.73 3.45 6.784 7.074.597 2.067.228 2.932-1.958 2.806l-.212 1.737c.322.857.904 1.855.189 2.594s-1.698-.18-2.468-.472c-2.814-1.053-5.282-2.491-6.72-5.423a6.288 6.288 0 0 0-3.554-2.751c-1.95.48-1.069 1.226-.15 1.902a9.197 9.197 0 0 1 3.334 5.203 6.83 6.83 0 0 1 1.454 5.11l.22.33-.29-.267c-2.021-1.816-4.576-1.887-7.012-1.808-5.801.188-10.541-2.107-14.935-5.636-2.908-2.358-6.744-2.861-9.967-4.716-5.345-3.05-10.659-6.179-16.436-8.45a66.962 66.962 0 0 0-15.98-4.355c-3.27-.409-6.446-.605-9.433-2.146a9.59 9.59 0 0 1-4.37-4.166 4.913 4.913 0 0 1-.055-4.716c.88-1.721 2.657-1.022 4.15-1.195 1.266-.141 2.61 2.036 3.758-.118-1.958-1.926-4.717-1.933-7.075-2.727a104.464 104.464 0 0 0-11.562-3.192c-8.435-1.768-16.97-1.21-25.31.291-8.647 1.572-17.191 4.088-25.783 6.186a1.91 1.91 0 0 0-1.517 1.376c2.146.786 4.253.424 6.36-.165 1.343-.377 2.695-.527 3.529.967a3.466 3.466 0 0 1-.252 4.056c-1.336 1.8-3.246 2.845-5.18 3.796-9.668 4.756-19.604 9.071-28.51 15.194-4.77 3.286-9.683 6.595-12.411 12.168-1.879 3.836-5.416 6.155-9.165 7.9-1.981.927-1.722-.928-1.777-2.107-.888-.943-.48-2.5-1.572-3.34-1.784.51-2.515 2.358-4.024 3.199-.943.534-1.572 2.146-2.744 1.572s-.911-2.154-.864-3.388c-1.258-3.144.684-5.825 1.43-8.646-.338-1.753-1.155-1.124-1.745-.252a10.163 10.163 0 0 0-1.823 5.44c0 1.123-.157 2.24-.291 3.364-.102.92-.621 1.792-1.407 1.792-1.391.063-.983-1.219-1.116-2.052-2.814-3.45-1.203-9.904 2.932-11.586 2.727-2.13 5.447-4.26 8.182-6.383 3.145-2.428 6.446-4.676 9.433-7.31 4.276-3.812 9.07-6.995 13.174-11.004 1.572-1.572 3.75-.236 5.644-.362 1.084-.07 2.586.888 2.955-1.108-4.92-1.51-10.368-1.124-14.935-3.482-6.854-3.506-12.93-8.206-15.72-15.721a87.061 87.061 0 0 1-5.235-24.705c-.213-3.317.7-6.532 1.14-9.786.274-2.02-.126-3.144-2.43-2.185-1.092 1.407-1.855 3.097-3.765 4.37-.393-3.262.692-6.288 2.1-9.165s2.522-5.872 3.67-8.953c.283-.786.566-1.572.786-2.311.173-.535.322-1.07.48-1.572q.84-2.822 1.933-5.558c.307-.786.637-1.524.865-2.31a18.747 18.747 0 0 1 .896-1.918c.605 1.422 1.407 2.664.055 4.016-.236 2.563-1.21 4.96-1.384 7.57-.377 5.754 1.117 10.73 5.157 14.934 2.177 2.256 2.83 2.225 3.726-.66.448-1.438 1.17-1.509 2.287-.982s2.028.998 3.058 1.47c2.122.982 3.647 1.014 3.057-1.958.503-.463.857-.157 1.227 0 5.997 2.06 6.233 1.871 5.4-4.417-.095-.715-.346-1.486.314-2.012a1.572 1.572 0 0 1 1.997.188c2.57 2.052 2.892-.196 3.207-1.792 1.006-5.062-.44-9.55-3.585-13.56a11.547 11.547 0 0 0-1.218-1.398c-2.618-2.406-3.239-4.716-1.525-8.34 3.207-6.83 2.46-14.518 3.23-21.86l1.329-.566.48.708c.227.998.416 2.004.7 2.987.188.66.36 1.572 1.304 1.407 1.163-.22.92-1.234.707-1.989-.495-1.769-1.218-3.482-1.226-5.369a47.815 47.815 0 0 1 2.735-19.588c2.249-6.327 2.139-13.103 1.439-19.776-.15-1.462-.495-2.94-2.523-2.79 1.611 7.569 1.76 15.201-.637 22.55-1.753 5.361-3.144 10.612-2.578 16.28.063.644.416 1.878-1.116 1.516-.173-.479-.323-.974-.527-1.446-.322-.747-.582-1.706-1.65-1.462s-.991 1.21-.96 2.02a116.954 116.954 0 0 1 .071 12.891c-.448 6.076-1.407 11.995-4.402 17.419a3.238 3.238 0 0 0-.314 2.657c2.358 3.403 5.557 6.201 7.287 10.045.613 1.368 1.47 2.688 1.399 4.3-.165.959.4 2.264-.74 2.774s-1.791-.786-2.562-1.344a16.719 16.719 0 0 1-2.303-2.452c-.487-.542-.652-1.894-1.705-1.156-.865.606-.063 1.573.361 2.162 1.957 2.68.692 5.801 1.297 8.646.267 1.266-.857 1.407-1.879 1.242-3.883-1.69-4.598-5.352-5.463-8.89-.204-.833.291-1.918-1.06-2.161-.48 3.372.911 6.602.62 10.022-.212 2.452-.786 2.153-2.193 1.037a9.032 9.032 0 0 1-3.694-8.237 5.974 5.974 0 0 0-.401-2.68c-1.368 2.224-1.273 4.645-.55 6.964a5.84 5.84 0 0 1-.472 4.378c-.692 1.501-1.423 1.116-1.792-.323-2.468-1.925-2.932-4.92-2.877-7.522.079-3.773-.747-7.915 2.162-11.217.73-.833-.433-2.067.581-2.845-1.194-.142-1.367-1.14-1.572-2.012-1.446-6.084-2.947-12.152-4.009-18.315a121.742 121.742 0 0 1-.691-4.716c-.095-.723-.173-1.439-.252-2.162a9.338 9.338 0 0 1-.22-2.161 27.857 27.857 0 0 0 .07-3.302 11.971 11.971 0 0 1 .89-4.009c.188-.518.51-1.06.203-1.572a.865.865 0 0 0-1.131-.377c-.448.244-.621.865-.944 1.242-.44.519-.84 1.155-1.682 1.038h-.055c-.126-3.428 1.447-6.25 3.144-9.024.48-.786.889-1.572 1.305-2.358a.731.731 0 0 0-.251-1.054 1.266 1.266 0 0 0-1.085.181c-1.077.92-1.95 2.099-3.404 2.516-.173.094-.44.314-.51.267-.354-.26-.158-.519.086-.747a14.455 14.455 0 0 1 3.38-5.644c1.706-1.745 2.452-3.836 3.144-6.036 1.328-1.572 1.132-3.53 1.266-5.314.51-7.192.652-14.416 1.265-21.6.912-10.667 5.557-19.227 15.116-24.611 1.949-1.093 2.42-1.76.259-3.034-1.03-.605-2.24-1.061-2.963-2.358 5.423-2.744 11.436-.558 16.892-2.272l1.823.275c1.957-1.108 3.93-2.256 5.872-3.317a3.569 3.569 0 0 1 3.56.142 13.795 13.795 0 0 0 6.965 1.91c1.195 0 1.572.55 1.62 1.697a39.93 39.93 0 0 0 .785 4.23c1.494 8.245 5.738 9.613 13.433 7.074 2.146-.716 3.624-2.358 5.26-3.718a4.488 4.488 0 0 1 4.44-1.156c1.926.456 4.19 1.423 6.1-.566.904-.943 1.423.189 1.95.716a15.72 15.72 0 0 0 10.776 4.645c4.425.204 7.664-2.358 7.797-6.815.102-3.592.786-6.406 4.654-7.507a3.789 3.789 0 0 0 2.586-2.5c.723-3.387 2.97-2.97 5.408-2.703a22.866 22.866 0 0 1 8.135 2.555c2.114 1.399 4.716 1.241 7.145 2.13-.448 1.572-1.863 1.391-2.916 1.784-.653.244-1.572.346-1.305 1.36a1.43 1.43 0 0 0 1.666 1.085c6.627-1.203 10.054 3.631 13.937 7.46a47.948 47.948 0 0 1 5.062 6.24c.668.928 1.643 1.942.951 3.742-1.894-2.068-3.631-4.001-5.408-5.903-.55-.582-1.234-1.4-2.083-.724s.267 1.235.354 1.871c.267 1.95 1.65 3.278 2.594 4.858a34.405 34.405 0 0 1 4.928 19.808c-.283 5.25 2.46 9.432 4.3 13.991a1.997 1.997 0 0 0 1.666 1.219c2.358.346 4.441 1.572 6.603 2.554-.723 1.738-3.844-.573-3.647 1.848.102 1.32 1.792 2.546 2.837 3.741a2.358 2.358 0 0 1 .613 1.934l.448 2.932c.401-.967 1.046-.676 1.738-.378.786.346 1.501 1.942 2.5.669.785-.96.156-2.17-.598-3.058-.975-1.163-2.036-2.256-3.034-3.396-.472-.542-1.533-.912-.7-1.933l2.563.251 1.179.637c.59.464 1.391.959 1.902.33s-.228-1.352-.786-1.777c-2.908-2.358-5.636-4.999-9.433-6.005a4.52 4.52 0 0 1-2.9-2.358c-4.771-7.86-1.887-16.845-4.213-25.153 2.004.33 1.965 2.72 4.134 2.806-2.106-11.484-7.278-20.743-17.788-26.961a32.59 32.59 0 0 0 7.004-3.537c.613-.362 1.32-.88.857-1.722-.362-.652-1.054-.4-1.667-.212-5.88 1.84-11.303 0-16.766-1.957-3.993-1.454-7.86-3.584-12.403-2.806-.3.055-.708-.291-1.007-.519-.495-.37-.173-.652.165-.92l8.466-6.783c.542 1.776-.354 2.775-.865 3.867-.29.629-.982 1.297-.267 1.926s1.336-.055 1.942-.417a42.092 42.092 0 0 0 8.332-6.673.841.841 0 0 0 .37-.401c4.063-3.742 5.776-8.725 7.191-14.054a11.122 11.122 0 0 1 1.14 5.88c-.047.667-.424 1.571.456 1.917 1.053.377 1.36-.707 1.784-1.336a13.363 13.363 0 0 0 1.109-2.209 38.374 38.374 0 0 0 1.367-28.297c-2.892-8.788-7.412-16.97-9.432-26.097-.456-2.083-.385-3.804.786-5.502 2.09-3.065 3.93-6.288 6.288-9.165 6.17-7.475 6.666-15.658 3.467-24.367-2.02-5.502-5.856-8.434-10.761-8.16-8.796.496-15.674 4.489-20.618 11.791-.652.967-1.258 2.555-2.775 1.266-1.25-1.093-4.394-.582-3.553-3.647s.786-6.344 1.266-9.504c.15-.99.566-2.255-.841-3.144-2.83 4.827-5.715 9.55-10.502 12.68l-.676.258.173-.723c4.316-5.683 6.202-12.741 11.327-18.7-8.803 1.651-16.46 4.434-24.964 5.778 1.273-1.643 3.199-1.69 3.812-3.396-2.358-.786-4.465.126-6.47.519-8.787 1.737-16.404 5.502-21.151 13.598a4.378 4.378 0 0 1-2.767 2.115c-3.797 1.218-7.86 1.902-11.005 4.716-1.533 1.391-2.075 1.014-2.971-.723-3.734-7.287-8.646-13.268-17.387-14.77-4.127-.715-8.426-1.289-11.861 1.502-3.876 3.144-5.448 7.86-5.416 12.702.063 10.305 4.818 19.022 10.132 27.464.73 1.163 1.996 2.004 1.69 3.765-1.29 7.42-3.144 14.573-9.433 19.525a19.698 19.698 0 0 0-7.68 13.952c-.369 3.349.362 6.556.787 9.802.118.912-.244 2.445.959 2.712s1.218-1.407 1.941-2.051.645-2.17 1.785-1.737.864 1.729.644 2.758c-1.863 8.765 1.572 15.988 6.76 22.615 2.004 2.578 4.198 5.117 7.35 6.5.683.299 1.462.621 1.996 0s-.18-1.077-.464-1.611c-.927-1.769-2.232-3.435-1.823-6.202 4.936 5.086 10.737 8.08 16.71 10.808.928.425 2.359.495 2.037 2.217-.228 1.344-.393 2.358-1.934 3.097a52.908 52.908 0 0 0-6.045 3.733 100.738 100.738 0 0 0-12.938-.141c-3.144.189-5.722 1.501-8.206 3.215-.605.416-1.266.872-.951 1.721.244.66.927.708 1.572.731a6.194 6.194 0 0 1 4.252 1.478c-12.152 6.595-16.231 22.23-15.595 32.793l-.125 1.863-.095 3.758-.385 6.68c-.92 2.438-.581 5.016-.864 7.523-.669 2.602-2.72 4.284-4.198 6.351-2.106 2.94-5.038 6.194-3.679 9.66 1.274 3.247.456 6.148.787 9.174.133 1.438.581 2.64 2.271 1.265.582-.471.873-.235 1.258.134.244.236-.228 2.814-.244 3.207-.18 5.266.118 11.225 1.957 16.2 1.965 5.416 1.062 10.297-.786 15.304-2.067 5.503-3.788 11.138-6.327 16.397-1.32 2.728-2.594 5.282-2.956 8.316-.463 3.93.315 7.86.33 11.744 0 .746.11 1.572 1.093 1.572s.983-.904 1.069-1.62c.244-2.02.629-3.977 1.98-5.58.724.353.496.786.48 1.147a64.541 64.541 0 0 0 6.509 31.748c2.656 5.432 6.044 10.51 11.657 13.63 2.656 1.478 5.651 1.769 8.48 2.767-.494 1.572-1.713 2.248-2.687 3.144-8.199 7.444-17.293 13.74-26.325 20.06-5.997 4.174-6.862 12.058-2.405 17.914.786.998 1.494 1.815 2.751.723 1.07-.928 1.281-.055 1.73.684 1.98 3.301 2.004 3.285 3.93.322 1.847-2.806 3.45-2.736 5.038.196.487.904 1.022 1.793 1.533 2.689.574 1.022 1.336 1.501 2.028.235 1.753-3.183 4.865-4.676 7.758-6.437 1.8-1.1 3.144-2.28 3.875-4.504a13.135 13.135 0 0 1 4.56-6.509c7.569-5.761 15.854-10.36 24.217-14.816 5.266-2.799 10.934-4.85 15.58-8.788 2.177-1.847 3.073-3.93 1.996-6.516-.74-1.761 0-2.13 1.446-2.421 2.932-.59 5.88-1.132 8.764-1.91a66.554 66.554 0 0 1 35.12.117c2.201.59 3.93.85 2.359 3.813-.841 1.627.102 3.442.943 5.007 2.224 4.142 5.95 6.374 10.376 7.074 15.925 2.578 30.152 9.362 44.018 17.175 3.686 2.075 6.469 5.777 11.161 6.076 3.09.197 6.155.645 9.236.951a9.032 9.032 0 0 1 4.622 1.47c2.052 1.454 4.111.37 3.765-2.138-.456-3.278 1.242-1.965 2.563-1.493a4.89 4.89 0 0 1 1.768 1.202c1.407 1.439 2.406.739 3.192-.59.904-1.532-.456-4.425 2.774-4.613a4.795 4.795 0 0 0 .165-1.164c.606-5.612-3.576-12.474-8.96-14.258zM107.587 186.486c-.463 1.258-.51 3.082-2.735 2.5a21.16 21.16 0 0 1-5.502-2.358l-.33-.212c-2.146-1.478-.511-3.144-.323-4.717.095-.786.378-.746 2.79.291a37.887 37.887 0 0 0 4.82 2.005 2.877 2.877 0 0 1 .942.416c.66.472.668 1.18.338 2.075zm47.47 11.304a6.47 6.47 0 0 1-2.47 2.821 6.288 6.288 0 0 1-4.448.787h-.18a12.71 12.71 0 0 1-9.3-6.996c-.125-.252-.251-.511-.377-.786-3.144 3.93-4.158 4.22-8.426 2.24a4.221 4.221 0 0 0-.527-.204l-.165-.048a1.627 1.627 0 0 0-1.918.786c-2.256 3.278-5.887 4.379-9.267 5.856a7.813 7.813 0 0 1-2.358.669 3.812 3.812 0 0 1-3.82-2.06 12.097 12.097 0 0 1-.983-2.028 22.583 22.583 0 0 1-1.36-5.455 21.805 21.805 0 0 1 0-5.133c.503-4.339 4.143-6.697 8.395-5.235a20.775 20.775 0 0 1 2.24.928 22.654 22.654 0 0 1 6.485 4.716c.786.849 1.572 1.682 2.61 1.36a3.2 3.2 0 0 0 1.367-1.014 3.93 3.93 0 0 1 5.628-.11c1.879 1.84 2.358.786 3.765-.409 2.87-2.46 6.022-4.661 9.834-5.55 3.01-.707 4.889.119 5.699 3.066a22.221 22.221 0 0 1 .903 6.053 13.52 13.52 0 0 1-1.328 5.746zm8.072-12.773c-.189 1.745-2.9 4.338-4.41 4.268-.212 0-.432-.323-.629-.786a8.466 8.466 0 0 1-.558-3.6c.338-2.288 2.122-2.57 3.93-2.547h.095c1.572.063 1.713 1.368 1.572 2.657zm-67.969-10.51c-.275-.409-.692-.857-1.289-.574-.723.346-.55.967-.4 1.572.33 1.352 1.728 2.256 1.728 4.324-6.917-3.53-13.488-6.776-18.244-12.758-.896-1.124-.786-2.539-1.422-3.686-2.94 1.226-1.226 3.93-1.753 5.864-.165.628.236 1.39.26 2.098a1.281 1.281 0 0 1-.41 1.022 1.14 1.14 0 0 1-1.021-.338c-.889-1.1-2.091-1.973-2.586-3.372-2.862-4.292-5.503-8.686-5.298-14.149.18-4.386.747-8.709 2.507-12.804 1.077-2.508 2.201-5.046 1.769-7.908-1.745-.558-2.429.66-3.05 1.879-1.572 3.05-3.757 5.58-6.194 8.324-.173-1.84-.786-3.285-.377-4.834-.197-4.158 1.422-7.577 4.134-10.635s5.66-6.21 7.963-9.802c3.089-4.826 4.142-10.18 5.015-15.642-1.384-3.93-4.929-6.461-6.438-10.336-2.303-5.88-5.722-11.414-5.864-17.97-.102-4.715.857-9.102 5.023-12.222 2.98-2.225 6.194-1.698 9.432-1.368 8.262 1.981 16.861 11.005 18.182 19.195a13.45 13.45 0 0 1-.11 2.736 1.038 1.038 0 0 0 .33.141c2.028-.118 2.413-1.344 1.862-2.987s0-2.578 1.431-3.498c3.34-2.114 7.027-3.144 11.005-4.449l-.37 4.536c3.404-6.351 6.123-13.103 13.12-16.507 2.719-1.1 5.061-3.293 8.3-2.877a17.843 17.843 0 0 0-6.202 9.912c-.346 1.344-.943 2.783.22 4.08 1.666-1.47 1.706-3.813 3.042-5.503s2.877-3.435 5.023-4.402a86.951 86.951 0 0 1 11.264-4.016c1.572-.472 9.59-2.358 9.825-1.926.739 1.305-.063 2.036-.574 3.09-2.358 4.896-5.085 9.55-9.346 13.047-1.957 1.612-4.15 2.948-6.233 4.41.503 1.572 1.69 1.085 2.476.59 4.496-2.846 10.061-3.333 14.353-6.595.503-1.65 1.886-2.602 3.01-3.813.574 4.835-1.234 8.86-5.242 11.35-1.054.653-1.855 1.25-1.706 2.595 2.61-.315 4.881-1.148 6.288-3.663s3.42-1.195 5.102-.48c1.517.645.039 1.572-.228 2.233-.786 2.06-.535 3.05 1.918 2.429.84-3.208 3.034-5.605 5.109-7.979 3.474-3.93 7.451-7.357 12.726-8.78 3.64-.982 8.277-1.816 11.24 1.171a12.388 12.388 0 0 1 2.775 5.322 34.586 34.586 0 0 1 1.336 9.645 17.434 17.434 0 0 1-3.317 10.069c-3.317 4.645-6.854 9.18-9.432 14.321 1.037 7.813 3.851 15.06 7.019 22.198 3.443 7.766 5.958 15.72 4.787 24.367l-1.706 7.318a27.275 27.275 0 0 0-3.223-9.314c-.566-1.093-1.124-1.942-2.484-1.824.244 0-.636 11.09-.786 12.105-.715 3.93-2.114 8.764-5.014 11.625a51.698 51.698 0 0 1-6.454 5.338c.456-5.424 4.426-8.875 5.322-13.552-1.1-2.31-2.492-1.996-2.893.15-.786 4.284-3.993 6.602-6.768 9.29-2.06 1.997-4.268 3.844-6.382 5.786a2.468 2.468 0 0 1-1.848.927c-2.452-.102-4.63.983-6.79 1.863a5.777 5.777 0 0 1-4.859 0c-4.637-1.847-8.457.936-11.9 3.364-2.531 1.785-4.48 3.656-7.735 1.808a3.207 3.207 0 0 0-2.696.11c-3.317 1.918-5.36-.173-7.412-2.185-4.206-4.103-8.985-4.96-14.33-2.264a2.955 2.955 0 0 1-3.144 0c-3.851-2.35-8.63-3.144-11.366-7.192z" fill="#300"/><path d="M928.2 362.9a213.1 56.9 0 0 1-213.1 56.9A213.1 56.9 0 0 1 502 362.9 213.1 56.9 0 0 1 715.1 306a213.1 56.9 0 0 1 213.1 56.9z" fill="url(#a)" transform="rotate(-18.003 18.632 687.273) scale(.41637)"/><path opacity=".2" fill="none" stroke="#634E42" stroke-miterlimit="10" d="M125.17 112.033c-22.412 7.284-44.198 11.781-61.402 12.731-16.004.867-26.545-1.661-28.205-6.77-1.648-5.068 5.393-13.31 18.837-22.057 14.422-9.372 34.742-18.515 57.155-25.799 22.413-7.284 44.199-11.781 61.402-12.731 16.005-.867 26.546 1.661 28.206 6.77 1.647 5.068-5.393 13.31-18.837 22.057-14.423 9.372-34.743 18.515-57.156 25.8z" stroke-width=".41637"/><path opacity=".2" fill="none" stroke="#634E42" stroke-miterlimit="10" d="M112.057 71.682c21.423-6.962 42.326-11.347 58.897-12.355 15.083-.874 25.166 1.322 27.173 5.88 1.056 4.867-5.81 12.57-18.525 20.73-14.037 8.94-33.485 17.669-54.908 24.63-21.422 6.963-42.325 11.348-58.897 12.356-15.083.874-25.166-1.322-27.173-5.88-1.056-4.866 5.81-12.57 18.525-20.73 14.037-8.94 33.485-17.669 54.908-24.63z" stroke-width=".41637"/><path opacity=".2" fill="none" stroke="#634E42" stroke-miterlimit="10" d="M112.301 72.435c20.948-6.808 41.337-11.158 57.633-12.207 14.583-.93 24.495 1.146 26.675 5.428.754 4.746-6.004 12.24-18.388 20.074-13.799 8.73-32.85 17.199-53.797 24.006-20.948 6.808-41.337 11.158-57.632 12.207-14.583.93-24.496-1.146-26.676-5.428-.754-4.746 6.005-12.24 18.388-20.074 13.8-8.73 32.85-17.199 53.797-24.006z" stroke-width=".41637"/><path opacity=".2" fill="none" stroke="#634E42" stroke-miterlimit="10" d="M112.546 73.187c20.472-6.653 40.4-10.94 56.38-12.018 14.136-.96 23.786.982 26.139 4.99.452 4.624-6.212 11.869-18.212 19.402-13.6 8.536-32.24 16.783-52.673 23.423s-40.4 10.94-56.38 12.018c-14.136.96-23.786-.982-26.14-4.99-.452-4.624 6.213-11.869 18.212-19.402 13.56-8.523 32.241-16.783 52.674-23.423z" stroke-width=".41637"/><path opacity=".2" fill="none" stroke="#634E42" stroke-miterlimit="10" d="M112.803 73.979c19.998-6.499 39.464-10.724 55.168-11.843 13.648-.977 23.076.819 25.642 4.538.163 4.544-6.42 11.5-18.075 18.746-13.362 8.326-31.593 16.352-51.59 22.851s-39.464 10.724-55.168 11.843c-13.648.977-23.075-.819-25.641-4.538-.164-4.544 6.42-11.5 18.075-18.745 13.388-8.38 31.632-16.366 51.59-22.852z" stroke-width=".41637"/><path opacity=".2" fill="none" stroke="#634E42" stroke-miterlimit="10" d="M113.048 74.731c19.482-6.331 38.475-10.533 53.902-11.694 13.201-1.007 22.406.642 25.105 4.1-.138 4.423-6.628 11.128-17.898 18.075-13.163 8.13-30.957 15.883-50.48 22.228-19.482 6.331-38.474 10.533-53.902 11.694-13.2 1.007-22.405-.642-25.105-4.1.139-4.422 6.628-11.128 17.899-18.075 13.162-8.13 30.996-15.896 50.479-22.228z" stroke-width=".41637"/><path opacity=".2" fill="none" stroke="#634E42" stroke-miterlimit="10" d="M113.292 75.484c19.008-6.177 37.539-10.317 52.65-11.507 12.714-1.023 21.683.44 24.621 3.688-.44 4.302-6.822 10.798-17.749 17.458-12.937 7.882-30.348 15.466-49.355 21.643-19.007 6.178-37.538 10.317-52.65 11.507-12.714 1.024-21.683-.44-24.621-3.688.44-4.302 6.823-10.798 17.749-17.457C76.9 89.193 94.285 81.66 113.292 75.484z" stroke-width=".41637"/><path opacity=".2" fill="none" stroke="#634E42" stroke-miterlimit="10" d="M113.537 76.236c18.532-6.023 36.562-10.087 51.385-11.358 12.227-1.04 21.012.264 24.084 3.25-.742 4.18-7.03 10.427-17.573 16.787-12.738 7.686-29.712 14.997-48.244 21.02s-36.563 10.087-51.385 11.358c-12.227 1.04-21.013-.264-24.085-3.25.743-4.18 7.031-10.427 17.573-16.787 12.738-7.686 29.713-14.997 48.245-21.02z" stroke-width=".41637"/><path opacity=".2" fill="none" stroke="#634E42" stroke-miterlimit="10" d="M113.794 77.028c18.057-5.868 35.626-9.87 50.133-11.17 11.78-1.07 20.303.1 23.548 2.81-1.032 4.101-7.279 10.072-17.397 16.118-12.539 7.49-29.104 14.58-47.121 20.436s-35.626 9.87-50.133 11.17c-11.779 1.07-20.303-.1-23.548-2.81 1.032-4.1 7.279-10.071 17.397-16.118 12.539-7.49 29.104-14.58 47.121-20.436z" stroke-width=".41637"/><path opacity=".2" fill="none" stroke="#634E42" stroke-miterlimit="10" d="M111.812 70.93c21.938-7.13 43.263-11.564 60.15-12.543 15.57-.857 25.876 1.485 27.71 6.318 1.357 4.988-5.602 12.94-18.701 21.4-14.237 9.137-34.095 18.086-56.032 25.215-21.938 7.13-43.262 11.564-60.15 12.543-15.57.857-25.876-1.485-27.709-6.318-1.358-4.987 5.601-12.94 18.7-21.4 14.237-9.137 34.135-18.099 56.032-25.215z" stroke-width=".41637"/><path opacity=".2" fill="none" stroke="#634E42" stroke-miterlimit="10" d="M114.039 77.78c17.542-5.7 34.65-9.64 48.92-10.994 11.292-1.087 19.632-.076 23.05 2.359-1.333 3.98-7.486 9.7-17.26 15.46-12.3 7.28-28.455 14.151-46.037 19.865-17.542 5.7-34.65 9.64-48.92 10.995-11.292 1.086-19.632.076-23.05-2.36 1.333-3.98 7.486-9.7 17.26-15.46 12.34-7.293 28.495-14.164 46.037-19.865z" stroke-width=".41637"/><path fill="url(#b)" d="M845.5 363.5c-12.1 2.6-248.7 3-260.7 0 1.9-13.8 3.9-27.1 6-39.8 2.6-15.8 5.3-30.5 7.8-43.8 2.4-12.4 4.6-23.6 6.6-33.2.1-.3.1-.6.2-.9.8-3.6 1.7-7.1 2.8-10.6 3.9-11.9 8.6-21.7 14.2-29.6 12.6-17.6 18.3-24.9 39.5-21.7 1 .1 2.1.3 3.2.5 12.2 2.2 28 23.6 46.6 23.6 23 0 36.3-24.2 56.6-24.2h2c20.8.4 38.3 7.2 48.6 37.9 1.9 5.8 3.6 12.5 5.1 20.2.3 1.7.7 3.5 1.1 5.3 1.7 8.2 3.6 17.5 5.5 27.7 2.8 14.6 5.8 31 8.8 48.7 2.2 12.8 4.2 26.1 6.1 39.9z" transform="rotate(-18.003 18.632 687.273) scale(.41637)"/><path opacity=".2" fill="none" stroke="#634E42" stroke-miterlimit="10" d="M114.283 78.533c17.067-5.547 33.713-9.424 47.655-10.847 10.845-1.116 18.923-.239 22.514 1.921-1.635 3.86-7.694 9.33-17.083 14.79-12.115 7.045-27.86 13.695-44.927 19.241-17.067 5.547-33.713 9.424-47.654 10.847-10.845 1.116-18.923.239-22.515-1.921 1.635-3.859 7.694-9.33 17.084-14.79 12.114-7.045 27.86-13.695 44.926-19.241z" stroke-width=".41637"/><path opacity=".2" fill="none" stroke="#634E42" stroke-miterlimit="10" d="M114.528 79.285c16.592-5.392 32.776-9.207 46.402-10.658 10.37-1.094 18.213-.403 22.018 1.47-1.925 3.777-7.902 8.96-16.948 14.132-11.875 6.836-27.21 13.265-43.802 18.657-16.592 5.392-32.777 9.207-46.403 10.658-10.37 1.094-18.213.403-22.017-1.47 1.924-3.777 7.902-8.96 16.947-14.132 11.915-6.849 27.211-13.265 43.803-18.657z" stroke-width=".41637"/><path opacity=".2" fill="none" stroke="#634E42" stroke-miterlimit="10" d="M114.772 80.038c16.117-5.238 31.8-8.978 45.15-10.47 9.884-1.111 17.543-.58 21.481 1.03-2.226 3.657-8.11 8.59-16.77 13.462-11.677 6.64-26.563 12.836-42.68 18.073-16.116 5.238-31.8 8.978-45.15 10.47-9.884 1.111-17.543.58-21.48-1.03 2.226-3.657 8.109-8.59 16.77-13.462 11.677-6.64 26.602-12.849 42.68-18.073z" stroke-width=".41637"/><path opacity=".2" fill="none" stroke="#634E42" stroke-miterlimit="10" d="M115.03 80.83c15.601-5.07 30.864-8.761 43.885-10.322 9.436-1.14 16.833-.742 20.996.619-2.528 3.536-8.317 8.22-16.621 12.844-11.49 6.405-25.967 12.38-41.568 17.45-15.602 5.07-30.864 8.76-43.885 10.321-9.437 1.14-16.834.743-20.997-.619 2.528-3.536 8.317-8.219 16.621-12.844 11.49-6.405 25.967-12.38 41.569-17.45z" stroke-width=".41637"/><path opacity=".2" fill="none" stroke="#634E42" stroke-miterlimit="10" d="M115.274 81.582c15.127-4.916 29.888-8.531 42.672-10.147 8.95-1.157 16.15-.958 20.46.18-2.83 3.416-8.538 7.81-16.445 12.175-11.251 6.196-25.318 11.95-40.484 16.878-15.127 4.916-29.888 8.531-42.672 10.147-8.95 1.157-16.15.958-20.46-.18 2.83-3.416 8.538-7.81 16.445-12.175 11.291-6.209 25.358-11.962 40.484-16.878z" stroke-width=".41637"/><path opacity=".2" fill="none" stroke="#634E42" stroke-miterlimit="10" d="M115.519 82.334c14.651-4.761 28.951-8.314 41.407-9.998 8.475-1.134 15.44-1.121 19.963-.27-3.159 3.346-8.746 7.439-16.309 11.516-11.065 5.96-24.722 11.493-39.373 16.255-14.652 4.761-28.952 8.314-41.407 9.998-8.475 1.134-15.44 1.121-19.964.27 3.16-3.346 8.747-7.439 16.309-11.516 11.118-5.934 24.722-11.493 39.374-16.255z" stroke-width=".41637"/><path opacity=".2" fill="none" stroke="#634E42" stroke-miterlimit="10" d="M115.763 83.087c14.176-4.607 27.988-8.045 40.155-9.81 8.027-1.164 14.77-1.298 19.427-.71-3.461 3.226-8.954 7.07-16.133 10.847-10.88 5.725-24.074 11.063-38.25 15.67-14.176 4.607-27.988 8.045-40.154 9.81-8.028 1.164-14.77 1.298-19.427.71 3.46-3.226 8.954-7.07 16.132-10.847 10.88-5.725 24.114-11.076 38.25-15.67z" stroke-width=".41637"/><path opacity=".2" fill="none" stroke="#634E42" stroke-miterlimit="10" d="M116.02 83.879c13.662-4.44 27.052-7.829 38.903-9.622 7.553-1.142 14.06-1.461 18.93-1.161-3.763 3.105-9.202 6.712-15.996 10.19-10.693 5.488-23.465 10.646-37.126 15.086-13.662 4.44-27.052 7.828-38.903 9.622-7.553 1.14-14.06 1.46-18.93 1.16 3.763-3.105 9.202-6.711 15.996-10.189 10.68-5.529 23.465-10.647 37.127-15.086z" stroke-width=".41637"/><path opacity=".2" fill="none" stroke="#634E42" stroke-miterlimit="10" d="M116.265 84.631c13.186-4.285 26.088-7.559 37.637-9.473 7.067-1.159 13.35-1.625 18.394-1.6-4.052 3.024-9.423 6.302-15.82 9.52-10.455 5.28-22.83 10.177-36.016 14.462s-26.088 7.56-37.637 9.473c-7.066 1.159-13.35 1.625-18.393 1.6 4.052-3.024 9.422-6.302 15.82-9.52 10.454-5.28 22.829-10.177 36.015-14.462z" stroke-width=".41637"/><path opacity=".2" fill="none" stroke="#634E42" stroke-miterlimit="10" d="M116.51 85.383c12.71-4.13 25.112-7.329 36.385-9.285 6.631-1.148 12.68-1.8 17.87-1.999-4.355 2.904-9.631 5.932-15.631 8.89-10.27 5.044-22.22 9.76-34.892 13.878-12.711 4.13-25.113 7.33-36.385 9.285-6.632 1.149-12.68 1.8-17.87 1.999 4.354-2.904 9.63-5.932 15.63-8.889 10.27-5.045 22.182-9.748 34.893-13.879z" stroke-width=".41637"/><path opacity=".2" fill="none" stroke="#634E42" stroke-miterlimit="10" d="M119.984 96.075c-19.086 6.203-37.511 10.264-52.532 11.6 12.936-7.75 30.229-15.297 49.315-21.5s37.511-10.264 52.532-11.6c-12.949 7.711-30.228 15.297-49.315 21.5z" stroke-width=".41637"/><path fill="url(#c)" d="M845.5 363.5c-13.1 18.5-249.7 18.7-260.7 0 1.9-13.8 3.9-27.1 6-39.8 82.6 11.2 165.5 11.5 248.7 0 2.1 12.7 4.1 26 6 39.8z" transform="rotate(-18.003 18.632 687.273) scale(.41637)"/><path fill="url(#d)" d="M825.2 247.3c-22.7 17.1-51.4 17.6-65.7.6-14.1-16.7-9-44.5 11-64 20.8.4 38.3 7.2 48.6 37.9 1.9 5.8 3.6 12.5 5.1 20.2.3 1.7.6 3.5 1 5.3z" transform="rotate(-18.003 18.632 687.273) scale(.41637)"/><path fill="url(#e)" d="M661.9 259.5c-16.6 10.6-40.1 4.4-56.6-13.6.8-3.6 1.7-7.1 2.8-10.6 3.9-11.9 8.6-21.7 14.2-29.6 12.6-17.6 18.3-24.9 39.5-21.7 2.1 2.4 4 5.1 5.9 7.9 16.1 25 13.5 55.3-5.8 67.6z" transform="rotate(-18.003 18.632 687.273) scale(.41637)"/><g><path class="st6" d="M158.093 163.773c3.82 1.616 7.46 3.656 11.41 4.978 3.182 1.077 9.221 1.894 11.131-1.126-1.73 1.371-5.256.637-7.084.18-3.15-.8-5.94-2.726-8.618-4.49-3.134-2.056-6.284-3.753-9.973-4.57-3.852-.864-7.818-.424-11.54.784-2.611.849-4.994 2.22-7.491 3.33 7.1-2.187 15.408-1.959 22.165.914z" fill="#b17634"/><path class="st6" d="M162.06 160.345c5.386 2.922 10.315 7.95 16.975 6.725 4.945-.914-1.11-7.688-2.449-8.88-.31-.26-.62-.505-.946-.734.685.637 1.305 1.355 1.893 2.122 1.11 1.436 3.46 5.599.245 6.137-3.052.506-6.807-1.485-9.37-2.889-3.655-1.991-6.936-4.554-10.804-6.12-7.786-3.15-15.376-.082-21.48 4.733 7.785-4.832 17.725-5.55 25.936-1.094zM113.876 163.267c-4.782 1.175-9.042 3.672-13.547 5.598-3.411 1.453-8.014 3.004-11.72 1.747-2.399-.816-4.88-3.216-3.868-5.843.033-.817.278-1.649.67-2.416 1.762-3.395 4.717-6.17 8.275-7.46-.49.131-.93.278-1.273.409-1.584.62-3.15 1.452-4.407 2.628-2.171 2.04-4.032 4.864-4 7.981.099 8.276 9.615 7.753 15.262 5.762 6.088-2.138 11.164-6.137 17.595-7.427 2.906-.571 5.942-.963 8.994-1.077-4-.555-8.03-.881-11.98.098z" fill="#b17634"/><path class="st6" d="M111.624 158.746c-3.689.816-6.84 2.513-9.973 4.57-2.677 1.763-5.468 3.689-8.618 4.489-1.812.457-5.354 1.175-7.084-.18 1.91 3.02 7.949 2.203 11.132 1.126 3.95-1.322 7.59-3.362 11.409-4.978 6.757-2.873 15.065-3.101 22.166-.914-2.498-1.11-4.88-2.497-7.492-3.33-3.722-1.208-7.688-1.648-11.54-.783z" fill="#b17634"/><path class="st6" d="M87.565 167.07c6.66 1.224 11.589-3.803 16.975-6.725 8.194-4.456 18.134-3.738 25.952 1.127-6.104-4.832-13.694-7.884-21.48-4.734-3.868 1.567-7.165 4.13-10.805 6.12-2.563 1.405-6.333 3.396-9.369 2.89-3.215-.539-.865-4.7.245-6.137a18.26 18.26 0 0 1 1.893-2.122c-.326.228-.636.473-.946.734-1.355 1.16-7.41 7.933-2.465 8.847zM178.594 157.946c-1.257-1.175-2.824-2.024-4.407-2.628-.343-.13-.784-.277-1.273-.408 3.558 1.29 6.512 4.064 8.275 7.46.392.766.653 1.599.67 2.415 1.011 2.628-1.47 5.027-3.869 5.843-3.705 1.273-8.324-.294-11.72-1.746-4.504-1.91-8.764-4.424-13.547-5.599-3.95-.98-7.981-.653-11.98-.081 3.052.114 6.088.49 8.993 1.077 6.431 1.29 11.524 5.272 17.596 7.427 5.647 1.99 15.163 2.513 15.26-5.762.033-3.134-1.81-5.958-3.998-7.998z" fill="#b17634"/><path class="st14" d="M132.777 164.018c-.26-.114-.424-.474-.18-.767.23-.262.458-.539.686-.784-6.316-6.937-16.436-10.348-25.364-6.725-4.897 1.992-8.912 5.599-13.792 7.64-1.388.587-2.873.93-4.359 1.125-3.297.408.98-5.223 1.11-5.37.914-1.11 2.04-1.975 3.281-2.693.996-.571 2.106-.816 3.232-.914 1.371.278 1.257 1.077.571 2.22-.75.767-1.648 1.028-2.693.816-.571-.081-.816.702-.245.882 3.02.897 5.272-2.596 4.211-4.212-.49-1.746-2.823-2.007-4.52-1.713-3.33.555-6.203 2.138-8.505 4.602-3.9 4.13-4.93 11.622.604 14.788 5.909 3.395 14.38-.653 19.636-3.444 4.423-2.366 8.814-3.933 13.808-4.57 4.342-.555 8.716-.163 13.058-.538-.049 0-.114 0-.163-.017a.514.514 0 0 1-.376-.326zm-43.71-4.44c-1.11 1.436-3.46 5.599-.245 6.137 3.052.506 6.806-1.485 9.369-2.889 3.656-1.991 6.937-4.554 10.805-6.12 7.786-3.15 15.376-.082 21.48 4.733-7.802-4.864-17.759-5.582-25.952-1.126-5.387 2.921-10.316 7.949-16.975 6.724-4.946-.914 1.11-7.687 2.448-8.879.31-.261.62-.506.947-.734-.653.669-1.29 1.387-1.877 2.154zm27.796 4.685c-6.43 1.29-11.523 5.272-17.595 7.426-5.647 1.992-15.163 2.514-15.261-5.762-.033-3.1 1.812-5.924 3.999-7.981 1.256-1.175 2.823-2.024 4.407-2.628.342-.13.783-.277 1.273-.408-3.558 1.29-6.513 4.064-8.276 7.46-.391.766-.652 1.599-.669 2.415-1.012 2.628 1.47 5.027 3.869 5.843 3.705 1.273 8.324-.294 11.719-1.746 4.505-1.91 8.765-4.424 13.547-5.599 3.95-.98 7.982-.653 11.98-.081a54.178 54.178 0 0 0-8.993 1.06zm-8.373-.49c-3.82 1.616-7.46 3.656-11.41 4.978-3.182 1.077-9.221 1.894-11.13-1.126 1.73 1.371 5.255.637 7.083.18 3.15-.8 5.941-2.726 8.618-4.49 3.134-2.056 6.284-3.753 9.973-4.57 3.852-.864 7.818-.424 11.54.784 2.611.849 4.994 2.22 7.492 3.33-7.1-2.187-15.392-1.959-22.166.914z" fill="#644212"/><path class="st14" d="M171.87 153.506c-1.698-.294-4.032-.032-4.522 1.714-1.061 1.6 1.191 5.109 4.211 4.211.571-.163.326-.963-.245-.881-1.044.228-1.942-.05-2.693-.816-.702-1.143-.816-1.959.571-2.22 1.127.114 2.253.343 3.232.914 1.24.718 2.367 1.583 3.28 2.693.131.163 4.408 5.778 1.11 5.37-1.5-.18-2.97-.539-4.357-1.126-4.88-2.04-8.896-5.648-13.793-7.639-8.928-3.623-19.048-.212-25.364 6.725.228.261.473.522.685.783.245.294.082.653-.18.767-.048.147-.179.278-.342.294-.049 0-.114.017-.163.017 4.341.375 8.716-.017 13.058.538 4.994.637 9.368 2.22 13.808 4.57 5.256 2.808 13.727 6.84 19.636 3.444 5.533-3.182 4.488-10.658.604-14.788-2.35-2.432-5.207-4.015-8.537-4.57zm-14.283 3.216c3.869 1.567 7.166 4.13 10.806 6.12 2.562 1.404 6.333 3.396 9.368 2.89 3.216-.539.866-4.701-.244-6.138a18.26 18.26 0 0 0-1.894-2.121c.327.228.637.473.947.734 1.355 1.192 7.394 7.965 2.448 8.88-6.66 1.224-11.588-3.804-16.975-6.725-8.194-4.456-18.134-3.738-25.952 1.126 6.12-4.848 13.71-7.916 21.496-4.766zm-14.167 2.807c3.721-1.191 7.687-1.632 11.54-.783 3.688.816 6.838 2.513 9.972 4.57 2.677 1.763 5.468 3.689 8.618 4.489 1.812.457 5.354 1.175 7.084-.18-1.91 3.02-7.949 2.203-11.132 1.126-3.95-1.322-7.59-3.362-11.409-4.978-6.757-2.873-15.065-3.101-22.165-.914 2.497-1.11 4.88-2.497 7.492-3.33zm23.912 12.144c-6.089-2.138-11.165-6.137-17.596-7.427-2.905-.571-5.941-.963-8.993-1.077 3.999-.571 8.03-.898 11.98.082 4.783 1.175 9.043 3.672 13.548 5.598 3.411 1.453 8.014 3.003 11.719 1.747 2.4-.816 4.88-3.216 3.868-5.844-.032-.816-.277-1.648-.669-2.415-1.763-3.395-4.717-6.17-8.275-7.46.49.13.93.278 1.273.408 1.583.62 3.15 1.453 4.407 2.628 2.17 2.04 4.031 4.864 3.999 7.982-.098 8.292-9.614 7.77-15.261 5.778z" fill="#644212"/><path class="st6" d="M133.806 164.018c.26-.114.424-.474.18-.767-.23-.262-.458-.539-.686-.784-.229.261-.474.522-.686.784-.245.293-.081.653.18.767.049.147.18.277.343.294.049 0 .114.016.163.016s.114 0 .163-.016c.163-.017.294-.147.343-.294z" fill="#b17634"/></g></svg>