<svg id="Layer_1" xmlns="http://www.w3.org/2000/svg" viewBox="0 0 1923 217.9"><style>.st0{fill:#3e2e61}.st1{fill:#7d62a9}</style><path class="st0" d="M299.5 5.7h4.6v4.6h-4.6zM44.7 43.8h4.6v4.6h-4.6zM137.8 43.8h9.2v4.6h-9.2zM119.5 59.1h4.6v4.6h-4.6zM142.4 91.1h4.6v4.6h-4.6zM26.5 59.1h4.6v4.6h-4.6zM206.4 43.8h4.6v4.6h-4.6zM183.6 59.1h9.2v4.6h-9.2zM461.2 5.7h4.6v4.6h-4.6zM406.3 1.1v4.6h-4.6v4.6h4.6V5.7h4.6V1.1M568 1.1v4.6h4.6V1.1M563.4 5.7h4.6v4.6h-4.6zM629.7 12.8h4.6v4.6h-4.6zM611.5 28.1h4.6v4.6h-4.6zM258.8 84.6h4.6v4.6h-4.6zM240.5 29.6h4.6v4.6h-4.6zM300 34.2h-4.5v4.6h4.6v-4.6h4.5v-4.6H300zM339.6 84.6h-4.5v4.6h9.1v-4.6h-4.5zM403.7 41.8h4.6v4.6h-4.6zM385.5 57.1h4.6v4.6h-4.6zM499.8 91.6h4.6v4.6h-4.6zM481.5 36.6h4.6v4.6h-4.6zM541 41.2h-4.5v4.6h4.6v-4.6h4.5v-4.6H541zM580.6 91.6h-4.5v4.6h9.1v-4.6h-4.5zM644.7 48.8h4.6v4.6h-4.6zM626.5 64.1h4.6v4.6h-4.6zM719.8 38.6h4.6v4.6h-4.6zM800.7 43.2h4.5v-4.6h-9.1v4.6h4.5zM800.7 85.8h4.6v4.6h-4.6zM846.5 11.1h4.6v4.6h-4.6zM841.9 53.8h4.6v4.6h-4.6zM929.5 5.7h4.6v4.6h-4.6zM1091.2 5.7h4.6v4.6h-4.6zM1036.3 1.1v4.6h4.6V1.1M1031.7 5.7h4.6v4.6h-4.6zM1198 1.1v4.6h4.6V1.1M1193.4 5.7h4.6v4.6h-4.6zM897.3 89.5h4.6v4.6h-4.6zM901.8 66.6h4.6v4.6h-4.6zM961.3 71.2h-4.6v4.6h4.6v-4.6h4.6v-4.6h-4.6zM1059 89.5h4.6v4.6h-4.6zM1063.5 66.6h4.6v4.6h-4.6zM1123 71.2h-4.5v4.6h4.6v-4.6h4.5v-4.6h-4.6zM1130.4 22.1h4.6v4.6h-4.6zM1125.8 45h4.6v4.6h-4.6zM1009.9 32.8h4.6v4.6h-4.6zM1559.5 5.7h4.6v4.6h-4.6zM1189.3 74.5h4.6v4.6h-4.6zM1193.8 51.6h4.6v4.6h-4.6zM1253.3 56.2h-4.6v4.6h4.6v-4.6h4.6v-4.6h-4.6zM1292.3 27.5h4.6v4.6h-4.6zM1296.8 4.6h4.6v4.6h-4.6zM1356.3 9.2h-4.6v4.6h4.6V9.2h4.6V4.6h-4.6zM1721.2 5.7h4.6v4.6h-4.6zM1422.5 13.7h4.6v4.6h-4.6zM1666.3 1.1v4.6h4.6V1.1M1661.7 5.7h4.6v4.6h-4.6zM1507.3 45.1h4.6v4.6h-4.6zM1502.7 49.7h4.6v4.6h-4.6zM1828 1.1v4.6h4.6V1.1M1823.4 5.7h4.6v4.6h-4.6zM1368.3 85.1h4.6v4.6h-4.6zM1363.7 89.7h4.6v4.6h-4.6zM1568.8 71.6h4.6v4.6h-4.6zM1879.7 43.8h4.6v4.6h-4.6zM1706.8 84.6h4.6v4.6h-4.6zM1684 52.5h4.6v4.6h-4.6zM1743.5 34.2h4.6v4.6h-4.6zM1792.2 84.6h-9.1v4.6h9.1zM1851.7 41.8h4.6v4.6h-4.6zM1833.5 57.1h4.6v4.6h-4.6zM82.9 123.9h4.6v4.6h-4.6zM55.4 123.9h9.2v4.6h-9.2zM50.9 128.5h4.6v4.6h-4.6zM105.8 155.9h4.6v4.6h-4.6zM244.6 123.9h4.6v4.6h-4.6zM267.5 155.9h4.6v4.6h-4.6zM262.9 178.8h4.6v4.6h-4.6zM147 123.9h9.1v4.6H147zM73.7 187.9h4.6v4.6h-4.6zM55.4 187.9H60v4.6h-4.6zM429.2 155.9h4.6v4.6h-4.6zM424.6 178.8h4.6v4.6h-4.6zM369.7 174.2h4.6v4.6h-4.6zM365.1 178.8h4.6v4.6h-4.6zM313.3 123.9h-4.6v4.6h9.2v-4.6zM590.9 155.9h4.6v4.6h-4.6zM586.3 178.8h4.6v4.6h-4.6zM531.4 174.2h4.6v4.6h-4.6zM526.8 178.8h4.6v4.6h-4.6zM729.7 123.9h4.6v4.6h-4.6zM752.6 155.9h4.6v4.6h-4.6zM748 178.8h4.6v4.6H748zM693.1 174.2h4.6v4.6h-4.6zM688.5 178.8h4.6v4.6h-4.6zM891.4 123.9h4.6v4.6h-4.6zM914.3 155.9h4.6v4.6h-4.6zM909.7 178.8h4.6v4.6h-4.6zM798.4 123.9h4.6v4.6h-4.6zM793.8 123.9h4.6v4.6h-4.6zM1053.1 123.9h4.6v4.6h-4.6zM1030.3 123.9h4.6v4.6h-4.6zM1025.7 123.9h4.6v4.6h-4.6zM1021.1 128.5v4.6h9.2v-4.6h-4.6zM1016.5 174.2h4.6v4.6h-4.6zM1011.9 178.8h4.6v4.6h-4.6zM955.5 123.9v4.6h9.2v-4.6h-4.6zM1171.9 180.9h4.6v4.6h-4.6zM1112.4 199.2h4.6v4.6h-4.6zM1235.9 133.6h4.6v4.6h-4.6zM1338.2 138.2v-4.6h-9.2v4.6h4.6zM1310.7 148.9h4.6v4.6h-4.6zM1333.6 180.9h4.6v4.6h-4.6zM1274.1 199.2h4.6v4.6h-4.6zM1397.6 133.6h4.6v4.6h-4.6zM1495.3 133.6h-4.5v4.6h9.1v-4.6h-4.5zM1472.4 148.9h4.6v4.6h-4.6zM1495.3 180.9h4.6v4.6h-4.6zM1374.8 148.9v4.6h9.2v-4.6h-4.6zM1559.3 133.6h4.6v4.6h-4.6zM1634.1 148.9h4.6v4.6h-4.6zM1611.3 148.9h4.6v4.6h-4.6zM1606.7 148.9h4.6v4.6h-4.6zM1611.3 158.1v-4.6h-9.2v4.6h4.6zM1597.5 199.2h4.6v4.6h-4.6zM1536.5 148.9v4.6h9.2v-4.6h-4.6zM1752.9 205.9h4.6v4.6h-4.6zM1816.9 158.6h4.6v4.6h-4.6zM1794.1 126.5h4.6v4.6h-4.6zM1919.2 163.2v-4.6h-9.2v4.6h4.6zM1891.7 173.9h4.6v4.6h-4.6zM1914.6 205.9h4.6v4.6h-4.6z"/><path class="st1" d="M281.2 5.7h4.6v4.6h-4.6zM313.3 5.7h4.6v4.6h-4.6zM110.3 3.4h4.6V8h-4.6zM67.7 43.8h9.2v4.6h-9.2zM72.2 17.1h9.2v4.6h-9.2zM8.2 12.5h9.2v4.6H8.2zM63-1.1l.1 4.5h-4.6v-4.6M160.7 72.8v-4.6h-9.2v4.6h4.6zM110.4 82v4.6h-4.6v4.5h-9.2v-4.6h9.2V82zM169.8 12.5h9.2v4.6h-9.2zM220.2-1.2v4.6h4.6v-4.5M169.9 86.5v4.6h4.5v4.6h4.6v-4.6h-4.5v-4.6zM215.6 77.4h4.6V82h-4.6zM442.9 5.7h4.6v4.6h-4.6zM475 5.7h4.6v4.6H475zM357.5 2.7h-4.6v4.6h4.6v4.5h4.6V7.2h-4.6zM514.6 2.7h4.6v4.6h-4.6zM519.2 7.2h4.6v4.6h-4.6zM661.8 12.8h-9.1v4.6h9.1zM324.4 66.3h4.6v4.6h-4.6zM281.7 84.6h4.6v4.6h-4.6zM286.4 84.6h4.6v4.6h-4.6zM295.5 79.9h-9.1v4.6h9.1zM258.8 29.6h4.6v4.6h-4.6zM286.3 57h-9.2v4.6h-4.5v4.6h4.6v-4.6h9.1zM348.9 52.5h4.6v4.6h-4.6zM332 32.6h4.6v4.6H332zM431.3 46.4h4.5v-4.6h-9.1v4.6h4.5zM464.8 84.5h-9.2v4.6h9.2v-4.5h4.6V80h-4.6zM565.4 73.3h4.6v4.6h-4.6zM522.7 91.6h4.6v4.6h-4.6zM527.4 91.6h4.6v4.6h-4.6zM532 91.5h4.5v-4.6h-9.1v4.6h4.5zM499.8 36.6h4.6v4.6h-4.6zM518.2 68.6h9.1V64h-9.2v4.6h-4.5v4.6h4.6zM589.9 59.5h4.6v4.6h-4.6zM573 39.6h4.6v4.6H573zM676.8 48.8h-9.1v4.6h9.1zM696.6 91.5h4.6v4.6h-4.6z"/><path class="st1" d="M705.8 91.6h4.6V87h-4.6v4.5h-4.6v4.6h4.6zM785.4 20.3h4.6v4.6h-4.6zM742.7 38.6h4.6v4.6h-4.6zM747.4 38.6h4.6v4.6h-4.6zM751.9 33.9h-4.5v4.6h9.1v-4.6H752zM742.7 15.6h4.6V11h-9.2v4.6h-4.5v4.6h4.6v-4.6zM729 72.1h4.6v4.6H729zM724.5 95h4.6v4.6h-4.6zM780.9 76.7h4.6v4.6h-4.6zM780.9 81.3h-9.2v4.6h9.2zM809.9 6.5h4.6v4.6h-4.6zM809.8 63h4.6v4.6h-4.6zM814.4 63h4.6v4.6h-4.6zM828.1 81.3h4.6v4.6h-4.6zM832.7 85.8h4.6v4.6h-4.6zM869.3 52.3h4.6v4.6h-4.6zM916.6 38.5h4.6v4.6h-4.6z"/><path class="st1" d="M925.8 38.6h4.6V34h-4.6v4.5h-4.6v4.6h4.6zM911.2 5.7h4.6v4.6h-4.6zM943.3 5.7h4.6v4.6h-4.6zM1072.9 5.7h4.6v4.6h-4.6zM1105 5.7h4.6v4.6h-4.6zM992.1 11.8V7.2h-4.6V2.7h-4.6v4.6h4.6v4.5zM1149.2 2.7h-4.6v4.6h4.6v4.5h4.6V7.2h-4.6zM1031.5 65.1h4.6v4.6h-4.6zM1031.5 94h4.6v4.6h-4.6zM1026.9 89.5h4.6v4.6h-4.6zM990.4 80.3h4.6v4.6h-4.6zM920.1 66.6h4.6v4.6h-4.6zM888.1 66.6h4.6v4.6h-4.6zM1010.2 65.1h-4.6v4.6h4.5v4.5h4.6v-4.6h-4.5zM943 98.6h4.6V94h-9.2v4.6zM1081.8 66.6h4.6v4.6h-4.6zM1049.9 66.6h4.6v4.6h-4.6zM1104.7 98.6h4.6V94h-9.2v4.6zM873.8 92.3h4.6v4.6h-4.6zM1155 69.6h4.6v4.6h-4.6zM977.8 42h4.6v4.6h-4.6zM982.4 42h4.6v4.6h-4.6zM1037.3 31.3h4.6v4.6h-4.6zM1107.5 45h4.6v4.6h-4.6zM1139.5 45h4.6v4.6h-4.6zM1541.2 5.7h4.6v4.6h-4.6zM1573.3 5.7h4.6v4.6h-4.6zM1201.5 33.3h4.6v4.6h-4.6zM1277.7 88.3h4.6v4.6h-4.6zM1282.4 65.3h4.6v4.6h-4.6zM1212.1 51.6h4.6v4.6h-4.6zM1180.1 51.6h4.6v4.6h-4.6zM1235 79h-4.6v4.6h-4.5v4.6h4.6v-4.6h9.1V79zM1380.7 41.3h4.6v4.6h-4.6zM1385.4 18.3h4.6v4.6h-4.6zM1315.1 4.6h4.6v4.6h-4.6zM1283.1 4.6h4.6v4.6h-4.6zM1338 32h-4.6v4.6h-4.5v4.6h4.6v-4.6h9.1V32zM1702.9 5.7h4.6v4.6h-4.6zM1735 5.7h4.6v4.6h-4.6zM1622.1 11.8V7.2h-4.6V2.7h-4.6v4.6h4.6v4.5zM1404.2 13.7h4.6v4.6h-4.6zM1436.3 13.7h4.6v4.6h-4.6zM1495.7 0v4.6h4.6V0M1475.9 10.7v4.6h4.6v4.5h4.6v-4.6h-4.6v-4.5zM1473.7 36h4.6v4.6h-4.6zM1543.9 49.7h4.6v4.6h-4.6zM1463.1 55.8v-4.6h-4.6v-4.5h-4.6v4.6h4.6v4.5zM1530.2 26.9v-4.6h-9.2v4.6h4.6zM1783.8 11.8V7.2h-4.6V2.7h-4.6v4.6h4.6v4.5zM1439.2 66.9h-4.6v4.6h9.2v-4.6zM1404.9 89.7h4.6v4.6h-4.6zM1391.2 66.9v-4.6h-9.2v4.6h4.6zM1515.6 94.2h4.6v4.6h-4.6zM1591.7 71.6h4.6v4.6h-4.6zM1596.4 71.6h4.6v4.6h-4.6zM1600.9 66.9h-4.5v4.6h9.1v-4.6h-4.5zM1536.9 62.4h4.6V67h-4.6zM1532.2 62.4h4.6V67h-4.6zM1332.8 74.1h4.5v-4.6h-9.1v4.6h4.5zM1888.8 21v4.6h9.2V21h-4.6zM1911.7 43.8v-4.5h-4.6v4.6h4.6v4.5h4.6v-4.6zM1656.5 57h4.6v4.6h-4.6zM1651.9 52.5h4.6v4.6h-4.6zM1635.1 32.6h4.6v4.6h-4.6zM1772.4 66.3h4.6v4.6h-4.6zM1729.7 84.6h4.6v4.6h-4.6zM1734.4 84.6h4.6v4.6h-4.6zM1734.4 84.5h9.1v-4.6h-9.1zM1674.9 75.4h4.6V80h-4.6zM1670.2 75.4h4.6V80h-4.6zM1734.3 57h-9.2v4.6h-4.5v4.6h4.6v-4.6h9.1zM1796.9 52.5h4.6v4.6h-4.6zM1780 32.6h4.6v4.6h-4.6zM17.3 142.2h4.6v4.6h-4.6zM12.7 165.1h4.6v4.6h-4.6z"/><path class="st0" d="M114.9 133h9.2v4.6h-9.2z"/><path class="st1" d="M-2.5 180.3h4.6v4.6h-4.6zM73.8 146.8v4.6h-4.6v4.5H60v-4.6h9.2v-4.5zM133.2 151.3h4.6v4.6h-4.6zM137.8 155.9h4.6v4.6h-4.6zM174.4 165.1h4.6v4.6h-4.6zM244.6 178.8h4.6v4.6h-4.6zM276.6 133v4.6h9.2V133h-4.6zM276.6 178.8h4.6v4.6h-4.6zM230.9 151.3h-9.2v4.6h9.2v-4.5h4.6v-4.6h-4.6zM294.9 151.3h4.6v4.6h-4.6zM299.5 155.9h4.6v4.6h-4.6zM340.7 142.2h4.6v4.6h-4.6zM336.1 165.1h4.6v4.6h-4.6zM406.3 178.8h4.6v4.6h-4.6zM438.3 178.8h4.6v4.6h-4.6zM316.3 175.7h4.6v4.6h-4.6zM320.9 180.3h4.6v4.6h-4.6zM392.6 151.4h4.6v-4.6h-4.6v4.5h-9.2v4.6h9.2zM461.3 151.3h-4.6v4.6h4.5v4.6h4.6v-4.6h-4.5zM497.8 165.1h4.6v4.6h-4.6zM568 178.8h4.6v4.6H568zM600.1 178.8h4.6v4.6h-4.6zM478 175.7h4.6v4.6H478zM482.6 180.3h4.6v4.6h-4.6zM545.1 151.3h4.6v4.6h-4.6zM549.7 151.3h4.6v4.6h-4.6zM601.7 131.3h4.6v4.6h-4.6zM622.9 160.5h4.6v-4.6H623v-4.6h-4.6v4.6h4.5zM664.1 142.2h4.6v4.6h-4.6zM659.5 165.1h4.6v4.6h-4.6zM729.7 178.8h4.6v4.6h-4.6zM766.3 133h-4.5v4.6h9.1V133h-4.5zM761.8 178.8h4.6v4.6h-4.6zM639.7 175.7h4.6v4.6h-4.6zM644.3 180.3h4.6v4.6h-4.6zM716 151.3h-4.6v4.6h4.6v-4.5h4.6v-4.6H716zM706.8 151.3h4.6v4.6h-4.6zM156.1 200.1h4.6v4.6h-4.6zM110.3 209.3h4.6v4.6h-4.6zM58.5 204.8h4.6v4.6h-4.6zM72.3 204.7H63v-4.6h9.2zM272 209.3h4.6v4.6H272zM310.2 204.7h4.6v4.6h-4.6zM305.6 200.1h4.6v4.6h-4.6zM220.2 204.8h4.6v4.6h-4.6zM229.4 200.1h4.6v4.6h-4.6zM224.7 200.1h4.6v4.6h-4.6zM433.7 209.3h4.6v4.6h-4.6zM595.4 209.3h4.6v4.6h-4.6zM543.6 204.8h4.6v4.6h-4.6zM557.3 200.1h-9.2v4.6h9.2zM784.6 160.5h4.6v-4.6h-4.5v-4.6h-4.6v4.6h4.5zM825.8 142.2h4.6v4.6h-4.6zM821.3 165.1h4.6v4.6h-4.6zM891.4 178.8h4.6v4.6h-4.6zM928 133h-4.5v4.6h9.1V133h-4.5zM923.5 178.8h4.6v4.6h-4.6zM801.4 175.7h4.6v4.6h-4.6zM806 180.3h4.6v4.6H806zM877.7 146.8h4.6v4.6h-4.6zM877.7 155.9v-4.6h-9.2v4.6h4.6zM941.8 151.3h4.6v4.6h-4.6zM946.4 155.9h4.6v4.6h-4.6zM987.5 142.2h4.6v4.6h-4.6zM983 165.1h4.6v4.6H983zM1053.1 178.8h4.6v4.6h-4.6zM963.1 175.7h4.6v4.6h-4.6zM967.7 180.3h4.6v4.6h-4.6zM1039.4 151.3h-9.1v4.6h9.1v-4.5h4.6v-4.6h-4.6zM1139.8 115.3h4.6v4.6h-4.6zM1106.3 133.7h4.6v-4.6h-9.2v4.6zM1088 110.8h4.6v4.6h-4.6zM1078.8 190.1h4.6v4.6h-4.6zM1126.1 176.3v4.6h9.2v-4.6h-4.6zM1182.7 156.3h4.6v4.6h-4.6zM1301.5 115.3h4.6v4.6h-4.6zM1258.8 133.6h4.6v4.6h-4.6zM1272.6 129.1h-9.2v9.1h4.6v-4.5h4.6zM1203.9 124.4h4.6v4.6h-4.6zM1199.3 124.4h4.6v4.6h-4.6zM1249.7 110.8h4.6v4.6h-4.6zM1204 176.3h-4.6v4.6h4.5v4.6h4.6v-4.6h-4.5zM1245.1 167.2h4.6v4.6h-4.6zM1240.5 190.1h4.6v4.6h-4.6zM1347.3 158h-4.5v4.6h9.1V158h-4.5zM1220.7 200.7h4.6v4.6h-4.6zM1297 176.3h-9.2v4.6h9.2v-4.5h4.6v-4.6h-4.6zM1463.2 115.3h4.6v4.6h-4.6zM1420.5 133.6h4.6v4.6h-4.6zM1434.3 129.1h-9.1v9.1h4.6v-4.5h4.5zM1365.7 124.4h4.6v4.6h-4.6zM1361 124.4h4.6v4.6h-4.6zM1411.4 110.8h4.6v4.6h-4.6zM1365.7 176.3h-4.6v4.6h4.5v4.6h4.6v-4.6h-4.5zM1406.8 167.2h4.6v4.6h-4.6zM1402.3 190.1h4.6v4.6h-4.6zM1509 158h-4.5v4.6h9.1V158h-4.5zM1382.4 200.7h4.6v4.6h-4.6zM1458.7 176.3h-9.2v4.6h9.2v-4.5h4.6v-4.6h-4.6zM1624.9 115.3h4.6v4.6h-4.6zM1582.2 133.6h4.6v4.6h-4.6zM1596 129.1h-9.1v9.1h4.6v-4.5h4.5zM1527.3 129h4.6v-4.6h-9.2v4.6zM1573.1 110.8h4.6v4.6h-4.6zM1522.8 176.3h4.6v4.6h-4.6zM1527.4 180.9h4.6v4.6h-4.6zM1568.5 167.2h4.6v4.6h-4.6zM1564 190.1h4.6v4.6h-4.6zM1544.1 200.7h4.6v4.6h-4.6zM1620.4 176.3h-9.1v4.6h9.1v-4.5h4.6v-4.6h-4.6zM1766.6 131.1h4.6v4.6h-4.6zM1762 126.5h4.6v4.6h-4.6zM1720.8 140.3h4.6v4.6h-4.6zM1682.7 158.7h9.2v-4.6h-9.2zM1725.5 117.4h4.6v4.6h-4.6zM1669 135.8h4.6v4.6h-4.6zM1678.2 131.1h4.6v4.6h-4.6zM1673.5 131.1h4.6v4.6h-4.6zM1664.4 219.7v-4.6h-4.6v4.6M1716.3 201.3h-9.2v4.6h9.2zM1763.7 181.3h4.6v4.6h-4.6zM1882.5 140.3h4.6v4.6h-4.6zM1839.8 158.6h4.6v4.6h-4.6zM1849 158.7h4.6v-4.6h-9.2v9.1h4.6zM1887.2 117.4h4.6v4.6h-4.6zM1784.9 149.4h4.6v4.6h-4.6zM1780.3 149.4h4.6v4.6h-4.6zM1830.7 135.8h4.6v4.6h-4.6zM1844.4 131.1h-9.2v4.6h9.2zM1785 201.3h-4.6v4.6h4.5v4.6h4.6v-4.6h-4.5zM1826.1 192.2h4.6v4.6h-4.6zM1826.1 219.7v-4.6h-4.6v4.6M1882.6 196.8h-4.6v4.5h-9.2v4.6h9.2v-4.5h4.6z"/></svg>