<?xml version="1.0" encoding="utf-8"?>
<!-- Generator: Adobe Illustrator 16.0.3, SVG Export Plug-In . SVG Version: 6.00 Build 0)  -->
<!DOCTYPE svg PUBLIC "-//W3C//DTD SVG 1.1//EN" "http://www.w3.org/Graphics/SVG/1.1/DTD/svg11.dtd">
<svg version="1.1" id="Layer_1" xmlns="http://www.w3.org/2000/svg" xmlns:xlink="http://www.w3.org/1999/xlink" x="0px" y="0px"
	 width="150px" height="150px" viewBox="0 0 150 150" enable-background="new 0 0 150 150" xml:space="preserve">
<g>
	<g>
		<polygon fill="#9BBF43" points="94.827,42.313 94.827,57.564 91.775,57.564 91.775,63.665 88.727,63.665 88.727,66.716 
			82.626,66.716 82.626,69.766 67.374,69.766 67.374,66.716 61.273,66.716 61.273,63.665 58.224,63.665 58.224,57.564 
			55.174,57.564 55.174,42.313 58.224,42.313 58.224,36.212 61.273,36.212 61.273,33.163 67.374,33.163 67.374,30.113 
			82.626,30.113 82.626,33.163 88.727,33.163 88.727,36.212 91.775,36.212 91.775,42.313 		"/>
		<g>
			<polygon fill="#FAF5AB" points="79.576,48.414 79.576,51.463 76.527,51.463 76.527,54.518 73.473,54.518 73.473,51.463 
				70.423,51.463 70.423,48.414 73.473,48.414 73.473,45.365 76.527,45.365 76.527,48.414 			"/>
			<g>
				<rect x="79.575" y="54.515" fill="#3E2F61" width="3.051" height="3.05"/>
				<rect x="79.575" y="42.313" fill="#3E2F61" width="3.051" height="3.051"/>
				<polygon fill="#3E2F61" points="73.475,60.615 73.475,63.666 76.525,63.666 76.525,60.615 76.525,57.564 73.475,57.564 				"/>
				<rect x="67.374" y="54.515" fill="#3E2F61" width="3.05" height="3.05"/>
				<rect x="67.374" y="42.313" fill="#3E2F61" width="3.05" height="3.051"/>
				<polygon fill="#3E2F61" points="67.374,51.465 67.374,48.415 64.324,48.415 61.273,48.415 61.273,51.465 64.324,51.465 				"/>
				<polygon fill="#3E2F61" points="85.676,48.415 82.626,48.415 82.626,51.465 85.676,51.465 88.727,51.465 88.727,48.415 				"/>
				<rect x="82.626" y="57.564" fill="#3E2F61" width="3.05" height="3.051"/>
				<rect x="82.626" y="39.264" fill="#3E2F61" width="3.05" height="3.05"/>
				<polygon fill="#3E2F61" points="73.475,39.264 73.475,42.313 76.525,42.313 76.525,39.264 76.525,36.214 73.475,36.214 				"/>
				<rect x="64.324" y="57.564" fill="#3E2F61" width="3.05" height="3.051"/>
				<rect x="64.324" y="39.264" fill="#3E2F61" width="3.05" height="3.05"/>
			</g>
		</g>
	</g>
	<g>
		<path fill="#9BBF43" d="M51.205,115.238c-0.408,1.401-1.834,2.405-3.285,2.405c-1.921,0-3.495-1.551-3.495-3.483
			c0-1.835,1.45-3.508,3.335-3.508c0.743,0,1.4,0.297,1.896,0.83v-0.633h1.302v2.207h-1.413c-0.186-0.273-0.434-0.496-0.706-0.658
			c-0.285-0.16-0.607-0.247-0.942-0.247c-1.128,0-1.958,0.905-1.958,2.009c0,1.128,0.892,1.996,1.995,1.996
			c0.645,0,1.302-0.335,1.587-0.918H51.205z"/>
		<path fill="#9BBF43" d="M52.853,114.135c0-1.934,1.573-3.482,3.495-3.482c1.909,0,3.446,1.586,3.446,3.47
			c0,1.935-1.537,3.521-3.483,3.521C54.377,117.644,52.853,116.044,52.853,114.135z M58.307,114.16c0-1.078-0.855-2.021-1.959-2.021
			c-1.091,0-2.008,0.881-2.008,1.983c0,1.092,0.843,2.034,1.971,2.034C57.413,116.156,58.307,115.263,58.307,114.16z"/>
		<path fill="#9BBF43" d="M62.234,112.264h-0.856v-1.414h2.232v0.992c0.421-0.694,1.066-1.154,1.909-1.154
			c0.917,0,1.686,0.559,2.058,1.389c0.359-0.842,1.252-1.389,2.169-1.389c0.719,0,1.426,0.299,1.909,0.844
			c0.521,0.607,0.521,1.265,0.521,2.021v2.505h0.855v1.413h-3.223v-1.413h0.854v-2.133c0-0.434,0-0.818-0.198-1.203
			c-0.247-0.358-0.656-0.545-1.078-0.545c-0.409,0-0.855,0.174-1.116,0.496c-0.309,0.396-0.309,0.77-0.309,1.252v2.133h0.854v1.413
			h-3.223v-1.413h0.855v-2.033c0-0.396,0-0.894-0.198-1.24c-0.211-0.396-0.645-0.607-1.092-0.607c-0.421,0-0.78,0.149-1.054,0.484
			c-0.334,0.408-0.359,0.842-0.359,1.351v2.046h0.855v1.413h-3.224v-1.413h0.856V112.264z"/>
		<path fill="#9BBF43" d="M75.569,112.264h-0.843v-1.414h2.367v1.041c0.483-0.757,1.277-1.116,2.17-1.116
			c1.872,0,3.372,1.538,3.372,3.411c0,1.809-1.463,3.383-3.298,3.383c-0.867,0-1.71-0.334-2.244-1.028v1.933h0.855v1.414h-3.223
			v-1.414h0.843V112.264z M81.073,114.186c0-1.08-0.855-2.021-1.959-2.021c-1.115,0-2.032,0.868-2.032,2.008
			c0,1.104,0.893,1.996,1.996,1.996C80.169,116.168,81.073,115.275,81.073,114.186z"/>
		<path fill="#9BBF43" d="M90.753,116.057h0.855v1.413h-2.244v-0.818c-0.434,0.644-1.228,0.992-1.996,0.992
			c-0.706,0-1.375-0.298-1.834-0.843c-0.483-0.57-0.583-1.203-0.583-1.922v-2.615h-0.855v-1.414h2.368v3.582
			c0,0.422,0.013,0.881,0.26,1.24c0.248,0.385,0.67,0.57,1.116,0.57c0.421,0,0.855-0.211,1.115-0.545
			c0.285-0.397,0.285-0.844,0.285-1.303v-2.131h-0.854v-1.414h2.367V116.057z"/>
		<path fill="#9BBF43" d="M95.809,116.057h1.202v1.413h-2.715v-5.206h-1.041v-1.414h1.041v-2.231h1.513v2.231h1.128v1.414h-1.128
			V116.057z"/>
		<path fill="#9BBF43" d="M105.327,115.522c-0.521,1.265-1.748,2.121-3.124,2.121c-1.934,0-3.483-1.513-3.483-3.458
			c0-1.96,1.476-3.533,3.446-3.533c0.917,0,1.835,0.408,2.479,1.064c0.657,0.694,0.93,1.537,0.93,2.48l-0.05,0.533h-5.355
			c0.198,0.917,1.041,1.586,1.983,1.586c0.657,0,1.228-0.248,1.6-0.794H105.327z M104.174,113.564
			c-0.26-0.955-1.103-1.562-2.082-1.562c-0.893,0-1.748,0.695-1.934,1.562H104.174z"/>
	</g>
	<g>
		<polygon fill="#3E2F61" points="58.853,100.817 55.916,100.817 55.916,97.881 52.98,97.881 52.98,94.945 50.045,94.945 
			50.045,92.01 47.108,92.01 47.108,89.074 47.108,86.138 50.045,86.138 50.045,83.202 52.98,83.202 52.98,80.266 55.916,80.266 
			55.916,77.33 58.853,77.33 58.853,74.394 55.916,74.394 55.916,74.394 50.045,74.394 50.045,77.33 47.108,77.33 47.108,80.266 
			44.173,80.266 44.173,83.202 41.237,83.202 41.237,80.266 41.237,74.394 41.237,68.521 41.237,68.521 35.365,68.521 
			35.365,68.521 35.365,74.394 35.365,80.266 35.365,86.138 35.365,92.01 35.365,97.881 35.365,103.754 41.237,103.754 
			41.237,97.881 41.237,94.945 44.173,94.945 44.173,97.881 47.108,97.881 47.108,100.817 50.045,100.817 50.045,103.754 
			55.916,103.754 58.853,103.754 		"/>
		<polygon fill="#3E2F61" points="70.596,100.817 67.659,100.817 67.659,97.881 67.659,92.01 67.659,86.138 67.659,83.202 
			64.724,83.202 61.788,83.202 61.788,86.138 61.788,92.01 61.788,97.881 58.853,97.881 58.853,100.927 61.788,100.817 
			61.788,103.754 67.659,103.754 67.659,103.754 70.596,103.754 70.596,100.817 73.531,100.817 73.531,97.881 70.596,97.881 		"/>
		<polygon fill="#3E2F61" points="102.892,83.202 99.956,83.202 97.02,83.202 97.02,86.138 97.02,92.01 97.02,97.881 94.083,97.881 
			91.147,97.881 91.147,92.01 91.147,86.138 91.147,83.202 88.211,83.202 85.275,83.202 85.275,86.138 85.275,92.01 85.275,97.881 
			82.34,97.881 79.404,97.881 79.404,92.01 79.404,86.138 79.404,83.202 76.468,83.202 73.531,83.202 73.531,86.138 73.531,92.01 
			73.531,97.881 76.468,97.881 76.468,100.817 79.404,100.817 79.404,103.754 82.34,103.754 85.275,103.754 85.275,100.817 
			88.211,100.817 91.147,100.817 91.147,103.754 94.083,103.754 97.02,103.754 97.02,100.817 99.956,100.817 99.956,97.881 
			102.892,97.881 102.892,92.01 102.892,89.074 105.827,89.074 105.827,86.138 102.892,86.138 		"/>
		<rect x="61.788" y="74.394" fill="#3E2F61" width="5.871" height="5.872"/>
		<polygon fill="#3E2F61" points="108.763,83.202 105.827,83.202 105.827,86.138 108.763,86.138 108.763,92.01 108.763,97.881 
			108.763,103.754 114.635,103.754 114.635,97.881 114.635,92.01 114.635,86.138 114.635,83.202 111.698,83.202 		"/>
		<rect x="108.763" y="74.394" fill="#3E2F61" width="5.872" height="5.872"/>
	</g>
</g>
</svg>
