<?xml version="1.0" encoding="utf-8"?>
<svg id="master-artboard" viewBox="0 0 1400 980" version="1.1" xmlns="http://www.w3.org/2000/svg" x="0px" y="0px" style="enable-background:new 0 0 336 235.2;" width="1400px" height="980px"><g transform="matrix(6.53333330154419, 0, 0, 6.53333330154419, 210.00003051757824, 0.000004155192101507055)">
		<path d="M 94.8270034790039 42.3129997253418 L 94.8270034790039 57.56399917602539 L 91.7750015258789 57.56399917602539 L 91.7750015258789 63.665000915527344 L 88.72699737548828 63.665000915527344 L 88.72699737548828 66.71600341796875 L 82.6259994506836 66.71600341796875 L 82.6259994506836 69.76599884033203 L 67.3740005493164 69.76599884033203 L 67.3740005493164 66.71600341796875 L 61.27299880981445 66.71600341796875 L 61.27299880981445 63.665000915527344 L 58.2239990234375 63.665000915527344 L 58.2239990234375 57.56399917602539 L 55.17399978637695 57.56399917602539 L 55.17399978637695 42.3129997253418 L 58.2239990234375 42.3129997253418 L 58.2239990234375 36.21200180053711 L 61.27299880981445 36.21200180053711 L 61.27299880981445 33.16299819946289 L 67.3740005493164 33.16299819946289 L 67.3740005493164 30.113000869750977 L 82.6259994506836 30.113000869750977 L 82.6259994506836 33.16299819946289 L 88.72699737548828 33.16299819946289 L 88.72699737548828 36.21200180053711 L 91.7750015258789 36.21200180053711 L 91.7750015258789 42.3129997253418 Z" fill="#9BBF43"/>
		<g>
			<path d="M 79.57599639892578 48.41400146484375 L 79.57599639892578 51.4630012512207 L 76.5270004272461 51.4630012512207 L 76.5270004272461 54.518001556396484 L 73.4729995727539 54.518001556396484 L 73.4729995727539 51.4630012512207 L 70.4229965209961 51.4630012512207 L 70.4229965209961 48.41400146484375 L 73.4729995727539 48.41400146484375 L 73.4729995727539 45.3650016784668 L 76.5270004272461 45.3650016784668 L 76.5270004272461 48.41400146484375 Z" fill="#FAF5AB"/>
			<g>
				<path d="M 79.574997 54.514999 H 82.625997 V 57.564999 H 79.574997 V 54.514999 Z" fill="#3E2F61"/>
				<path d="M 79.574997 42.313 H 82.625997 V 45.364 H 79.574997 V 42.313 Z" fill="#3E2F61"/>
				<path d="M 73.4749984741211 60.6150016784668 L 73.4749984741211 63.66600036621094 L 76.5250015258789 63.66600036621094 L 76.5250015258789 60.6150016784668 L 76.5250015258789 57.56399917602539 L 73.4749984741211 57.56399917602539 Z" fill="#3E2F61"/>
				<path d="M 67.374001 54.514999 H 70.424001 V 57.564999 H 67.374001 V 54.514999 Z" fill="#3E2F61"/>
				<path d="M 67.374001 42.313 H 70.424001 V 45.364 H 67.374001 V 42.313 Z" fill="#3E2F61"/>
				<path d="M 67.3740005493164 51.46500015258789 L 67.3740005493164 48.415000915527344 L 64.3239974975586 48.415000915527344 L 61.27299880981445 48.415000915527344 L 61.27299880981445 51.46500015258789 L 64.3239974975586 51.46500015258789 Z" fill="#3E2F61"/>
				<path d="M 85.6760025024414 48.415000915527344 L 82.6259994506836 48.415000915527344 L 82.6259994506836 51.46500015258789 L 85.6760025024414 51.46500015258789 L 88.72699737548828 51.46500015258789 L 88.72699737548828 48.415000915527344 Z" fill="#3E2F61"/>
				<path d="M 82.625999 57.563999 H 85.675999 V 60.614999 H 82.625999 V 57.563999 Z" fill="#3E2F61"/>
				<path d="M 82.625999 39.264 H 85.675999 V 42.314 H 82.625999 V 39.264 Z" fill="#3E2F61"/>
				<path d="M 73.4749984741211 39.263999938964844 L 73.4749984741211 42.3129997253418 L 76.5250015258789 42.3129997253418 L 76.5250015258789 39.263999938964844 L 76.5250015258789 36.2140007019043 L 73.4749984741211 36.2140007019043 Z" fill="#3E2F61"/>
				<path d="M 64.323997 57.563999 H 67.373997 V 60.614999 H 64.323997 V 57.563999 Z" fill="#3E2F61"/>
				<path d="M 64.323997 39.264 H 67.373997 V 42.314 H 64.323997 V 39.264 Z" fill="#3E2F61"/>
			</g>
		</g>
	</g><g transform="matrix(6.53333330154419, 0, 0, 6.53333330154419, 210.00003051757824, 0.000004155192101507055)">
		<path fill="#9BBF43" d="M51.205,115.238c-0.408,1.401-1.834,2.405-3.285,2.405c-1.921,0-3.495-1.551-3.495-3.483&#10;&#9;&#9;&#9;c0-1.835,1.45-3.508,3.335-3.508c0.743,0,1.4,0.297,1.896,0.83v-0.633h1.302v2.207h-1.413c-0.186-0.273-0.434-0.496-0.706-0.658&#10;&#9;&#9;&#9;c-0.285-0.16-0.607-0.247-0.942-0.247c-1.128,0-1.958,0.905-1.958,2.009c0,1.128,0.892,1.996,1.995,1.996&#10;&#9;&#9;&#9;c0.645,0,1.302-0.335,1.587-0.918H51.205z"/>
		<path fill="#9BBF43" d="M52.853,114.135c0-1.934,1.573-3.482,3.495-3.482c1.909,0,3.446,1.586,3.446,3.47&#10;&#9;&#9;&#9;c0,1.935-1.537,3.521-3.483,3.521C54.377,117.644,52.853,116.044,52.853,114.135z M58.307,114.16c0-1.078-0.855-2.021-1.959-2.021&#10;&#9;&#9;&#9;c-1.091,0-2.008,0.881-2.008,1.983c0,1.092,0.843,2.034,1.971,2.034C57.413,116.156,58.307,115.263,58.307,114.16z"/>
		<path fill="#9BBF43" d="M62.234,112.264h-0.856v-1.414h2.232v0.992c0.421-0.694,1.066-1.154,1.909-1.154&#10;&#9;&#9;&#9;c0.917,0,1.686,0.559,2.058,1.389c0.359-0.842,1.252-1.389,2.169-1.389c0.719,0,1.426,0.299,1.909,0.844&#10;&#9;&#9;&#9;c0.521,0.607,0.521,1.265,0.521,2.021v2.505h0.855v1.413h-3.223v-1.413h0.854v-2.133c0-0.434,0-0.818-0.198-1.203&#10;&#9;&#9;&#9;c-0.247-0.358-0.656-0.545-1.078-0.545c-0.409,0-0.855,0.174-1.116,0.496c-0.309,0.396-0.309,0.77-0.309,1.252v2.133h0.854v1.413&#10;&#9;&#9;&#9;h-3.223v-1.413h0.855v-2.033c0-0.396,0-0.894-0.198-1.24c-0.211-0.396-0.645-0.607-1.092-0.607c-0.421,0-0.78,0.149-1.054,0.484&#10;&#9;&#9;&#9;c-0.334,0.408-0.359,0.842-0.359,1.351v2.046h0.855v1.413h-3.224v-1.413h0.856V112.264z"/>
		<path fill="#9BBF43" d="M75.569,112.264h-0.843v-1.414h2.367v1.041c0.483-0.757,1.277-1.116,2.17-1.116&#10;&#9;&#9;&#9;c1.872,0,3.372,1.538,3.372,3.411c0,1.809-1.463,3.383-3.298,3.383c-0.867,0-1.71-0.334-2.244-1.028v1.933h0.855v1.414h-3.223&#10;&#9;&#9;&#9;v-1.414h0.843V112.264z M81.073,114.186c0-1.08-0.855-2.021-1.959-2.021c-1.115,0-2.032,0.868-2.032,2.008&#10;&#9;&#9;&#9;c0,1.104,0.893,1.996,1.996,1.996C80.169,116.168,81.073,115.275,81.073,114.186z"/>
		<path fill="#9BBF43" d="M90.753,116.057h0.855v1.413h-2.244v-0.818c-0.434,0.644-1.228,0.992-1.996,0.992&#10;&#9;&#9;&#9;c-0.706,0-1.375-0.298-1.834-0.843c-0.483-0.57-0.583-1.203-0.583-1.922v-2.615h-0.855v-1.414h2.368v3.582&#10;&#9;&#9;&#9;c0,0.422,0.013,0.881,0.26,1.24c0.248,0.385,0.67,0.57,1.116,0.57c0.421,0,0.855-0.211,1.115-0.545&#10;&#9;&#9;&#9;c0.285-0.397,0.285-0.844,0.285-1.303v-2.131h-0.854v-1.414h2.367V116.057z"/>
		<path fill="#9BBF43" d="M95.809,116.057h1.202v1.413h-2.715v-5.206h-1.041v-1.414h1.041v-2.231h1.513v2.231h1.128v1.414h-1.128&#10;&#9;&#9;&#9;V116.057z"/>
		<path fill="#9BBF43" d="M105.327,115.522c-0.521,1.265-1.748,2.121-3.124,2.121c-1.934,0-3.483-1.513-3.483-3.458&#10;&#9;&#9;&#9;c0-1.96,1.476-3.533,3.446-3.533c0.917,0,1.835,0.408,2.479,1.064c0.657,0.694,0.93,1.537,0.93,2.48l-0.05,0.533h-5.355&#10;&#9;&#9;&#9;c0.198,0.917,1.041,1.586,1.983,1.586c0.657,0,1.228-0.248,1.6-0.794H105.327z M104.174,113.564&#10;&#9;&#9;&#9;c-0.26-0.955-1.103-1.562-2.082-1.562c-0.893,0-1.748,0.695-1.934,1.562H104.174z"/>
	</g><g transform="matrix(6.53333330154419, 0, 0, 6.53333330154419, 210.00003051757824, 0.000004155192101507055)">
		<path d="M 58.85300064086914 100.81700134277344 L 55.91600036621094 100.81700134277344 L 55.91600036621094 97.88099670410156 L 52.97999954223633 97.88099670410156 L 52.97999954223633 94.94499969482422 L 50.04499816894531 94.94499969482422 L 50.04499816894531 92.01000213623047 L 47.108001708984375 92.01000213623047 L 47.108001708984375 89.0739974975586 L 47.108001708984375 86.13800048828125 L 50.04499816894531 86.13800048828125 L 50.04499816894531 83.2020034790039 L 52.97999954223633 83.2020034790039 L 52.97999954223633 80.26599884033203 L 55.91600036621094 80.26599884033203 L 55.91600036621094 77.33000183105469 L 58.85300064086914 77.33000183105469 L 58.85300064086914 74.39399719238281 L 55.91600036621094 74.39399719238281 L 55.91600036621094 74.39399719238281 L 50.04499816894531 74.39399719238281 L 50.04499816894531 77.33000183105469 L 47.108001708984375 77.33000183105469 L 47.108001708984375 80.26599884033203 L 44.17300033569336 80.26599884033203 L 44.17300033569336 83.2020034790039 L 41.23699951171875 83.2020034790039 L 41.23699951171875 80.26599884033203 L 41.23699951171875 74.39399719238281 L 41.23699951171875 68.52100372314453 L 41.23699951171875 68.52100372314453 L 35.3650016784668 68.52100372314453 L 35.3650016784668 68.52100372314453 L 35.3650016784668 74.39399719238281 L 35.3650016784668 80.26599884033203 L 35.3650016784668 86.13800048828125 L 35.3650016784668 92.01000213623047 L 35.3650016784668 97.88099670410156 L 35.3650016784668 103.75399780273438 L 41.23699951171875 103.75399780273438 L 41.23699951171875 97.88099670410156 L 41.23699951171875 94.94499969482422 L 44.17300033569336 94.94499969482422 L 44.17300033569336 97.88099670410156 L 47.108001708984375 97.88099670410156 L 47.108001708984375 100.81700134277344 L 50.04499816894531 100.81700134277344 L 50.04499816894531 103.75399780273438 L 55.91600036621094 103.75399780273438 L 58.85300064086914 103.75399780273438 Z" fill="#3E2F61" style="fill: rgb(255, 255, 255);"/>
		<path d="M 70.59600067138672 100.81700134277344 L 67.65899658203125 100.81700134277344 L 67.65899658203125 97.88099670410156 L 67.65899658203125 92.01000213623047 L 67.65899658203125 86.13800048828125 L 67.65899658203125 83.2020034790039 L 64.7239990234375 83.2020034790039 L 61.78799819946289 83.2020034790039 L 61.78799819946289 86.13800048828125 L 61.78799819946289 92.01000213623047 L 61.78799819946289 97.88099670410156 L 58.85300064086914 97.88099670410156 L 58.85300064086914 100.927001953125 L 61.78799819946289 100.81700134277344 L 61.78799819946289 103.75399780273438 L 67.65899658203125 103.75399780273438 L 67.65899658203125 103.75399780273438 L 70.59600067138672 103.75399780273438 L 70.59600067138672 100.81700134277344 L 73.53099822998047 100.81700134277344 L 73.53099822998047 97.88099670410156 L 70.59600067138672 97.88099670410156 Z" fill="#3E2F61" style="fill: rgb(255, 255, 255);"/>
		<path d="M 102.89199829101562 83.2020034790039 L 99.95600128173828 83.2020034790039 L 97.0199966430664 83.2020034790039 L 97.0199966430664 86.13800048828125 L 97.0199966430664 92.01000213623047 L 97.0199966430664 97.88099670410156 L 94.08300018310547 97.88099670410156 L 91.14700317382812 97.88099670410156 L 91.14700317382812 92.01000213623047 L 91.14700317382812 86.13800048828125 L 91.14700317382812 83.2020034790039 L 88.21099853515625 83.2020034790039 L 85.2750015258789 83.2020034790039 L 85.2750015258789 86.13800048828125 L 85.2750015258789 92.01000213623047 L 85.2750015258789 97.88099670410156 L 82.33999633789062 97.88099670410156 L 79.40399932861328 97.88099670410156 L 79.40399932861328 92.01000213623047 L 79.40399932861328 86.13800048828125 L 79.40399932861328 83.2020034790039 L 76.46800231933594 83.2020034790039 L 73.53099822998047 83.2020034790039 L 73.53099822998047 86.13800048828125 L 73.53099822998047 92.01000213623047 L 73.53099822998047 97.88099670410156 L 76.46800231933594 97.88099670410156 L 76.46800231933594 100.81700134277344 L 79.40399932861328 100.81700134277344 L 79.40399932861328 103.75399780273438 L 82.33999633789062 103.75399780273438 L 85.2750015258789 103.75399780273438 L 85.2750015258789 100.81700134277344 L 88.21099853515625 100.81700134277344 L 91.14700317382812 100.81700134277344 L 91.14700317382812 103.75399780273438 L 94.08300018310547 103.75399780273438 L 97.0199966430664 103.75399780273438 L 97.0199966430664 100.81700134277344 L 99.95600128173828 100.81700134277344 L 99.95600128173828 97.88099670410156 L 102.89199829101562 97.88099670410156 L 102.89199829101562 92.01000213623047 L 102.89199829101562 89.0739974975586 L 105.8270034790039 89.0739974975586 L 105.8270034790039 86.13800048828125 L 102.89199829101562 86.13800048828125 Z" fill="#3E2F61" style="fill: rgb(255, 255, 255);"/>
		<path d="M 61.787998 74.393997 H 67.658998 V 80.265997 H 61.787998 V 74.393997 Z" fill="#3E2F61" style="fill: rgb(255, 255, 255);"/>
		<path d="M 108.76300048828125 83.2020034790039 L 105.8270034790039 83.2020034790039 L 105.8270034790039 86.13800048828125 L 108.76300048828125 86.13800048828125 L 108.76300048828125 92.01000213623047 L 108.76300048828125 97.88099670410156 L 108.76300048828125 103.75399780273438 L 114.63500213623047 103.75399780273438 L 114.63500213623047 97.88099670410156 L 114.63500213623047 92.01000213623047 L 114.63500213623047 86.13800048828125 L 114.63500213623047 83.2020034790039 L 111.697998046875 83.2020034790039 Z" fill="#3E2F61" style="fill: rgb(255, 255, 255);"/>
		<path d="M 108.763 74.393997 H 114.635001 V 80.265997 H 108.763 V 74.393997 Z" fill="#3E2F61" style="fill: rgb(255, 255, 255);"/>
	</g></svg>