<svg width="163" height="157" xmlns="http://www.w3.org/2000/svg"><g fill="none" fill-rule="evenodd"><path d="M162.894 78.952a76.03 76.03 0 0 0-.372-7.799c0-2.547-.636-5.306-1.114-7.587a78.95 78.95 0 0 0-11.566-27.961 80.54 80.54 0 0 0-9.816-11.885C112.997-3.186 70.476-6.6 39.5 15.649c-30.975 22.25-41.318 63.636-24.45 97.84 16.867 34.206 55.997 51.196 92.505 40.168a74.917 74.917 0 0 0 14.007-5.783 78.153 78.153 0 0 0 18.464-13.742 75.606 75.606 0 0 0 5.306-5.73 76.668 76.668 0 0 0 8.489-12.681c1.22-2.281 2.281-4.563 3.29-6.897A77.888 77.888 0 0 0 163 78.952h-.106zM17.57 57.252c.637-1.963 1.326-3.926 2.122-5.783a75.46 75.46 0 0 0-2.122 5.783zm-1.698 6.26c.425-1.856.85-3.713 1.433-5.305-.584 1.592-1.008 3.449-1.433 5.306zm1.433 36.398c-.584-1.857-1.008-3.714-1.433-5.571.425 1.857.85 3.714 1.433 5.571zm2.653 6.526c-.796-1.857-1.486-3.82-2.123-5.783a19.641 19.641 0 0 0 2.123 5.783zm2.97 6.208a59.902 59.902 0 0 1-2.811-5.89 59.901 59.901 0 0 0 2.546 5.837l.266.053zm3.503 5.783a96.042 96.042 0 0 1-3.29-5.306c.743 1.698 2.122 3.502 3.024 5.253l.266.053zm17.986 18.252c-1.433-1.008-2.865-2.017-4.245-3.13 1.008 1.06 2.547 2.068 3.98 3.077l.265.053zm6.579 4.191a56.56 56.56 0 0 1-5.306-3.29c1.38 1.115 3.184 2.229 5.04 3.237l.266.053zm6.208 3.077a72.757 72.757 0 0 1-5.783-2.812c1.591.955 3.554 1.91 5.677 2.76l.106.052zm6.154 2.282a75.46 75.46 0 0 1-5.783-2.122c1.645.742 3.555 1.432 5.518 2.069l.265.053zm6.261 1.645c-1.857-.372-3.714-.85-5.306-1.38 1.327.478 3.396.955 5.04 1.327l.266.053zm6.685 1.167c-1.804 0-3.608-.478-5.305-.849 1.432.318 3.236.69 5.04.69l.265.159zM85.06 8.333zM40.172 24.25c1.38-1.114 2.812-2.122 4.192-3.13-1.698 1.114-3.184 2.122-4.457 3.237l.265-.107zm5.306-4.032c1.804-1.22 3.608-2.281 5.306-3.29a57.355 57.355 0 0 0-5.465 3.396l.16-.106zm5.836-3.555c1.91-1.008 3.82-1.963 5.837-2.812a79.208 79.208 0 0 0-5.996 2.918l.16-.106zm6.155-2.97c1.91-.797 3.873-1.487 5.836-2.123a290.381 290.381 0 0 0-6.207 2.228l.371-.106zm6.526-2.388a87.838 87.838 0 0 1 5.306-1.38c-1.592.478-3.661 1.008-5.465 1.486l.16-.106zm6.791-1.698c1.804-.372 3.608-.637 5.306-.85-1.857.32-3.66.584-5.465.956l.16-.106zm-40.376 24.3a78.147 78.147 0 0 0-3.13 4.191 46.39 46.39 0 0 1 2.97-4.085l.16-.106zM19.798 50.99c.85-1.963 1.751-3.926 2.812-5.836-.955 2.016-1.91 3.98-2.652 5.942l-.16-.106zm3.025-6.207a52.609 52.609 0 0 1 3.29-5.306c-.85 1.75-2.23 3.555-3.237 5.412l-.053-.106zM14.652 71.79c0 2.334-.372 4.722-.372 7.162v.584c0 2.122 0 4.245.319 6.314 0-2.335-.372-4.722-.372-7.11 0-2.387.053-4.616.425-6.95zm1.061-7.004c-.371 1.751-.584 3.608-.796 5.306a31.35 31.35 0 0 1 .637-5.306h.159zm0 28.28c-.371-1.751-.584-3.608-.796-5.306.053 1.698.265 3.555.637 5.306h.159zm11.46 26.528c1.061 1.486 2.07 2.918 3.237 4.298-1.327-1.539-2.335-2.918-3.396-4.35l.16.052zm50.617 29.66c2.219.255 4.451.38 6.685.37h.478a64.783 64.783 0 0 1-7.322-.424l.159.053z" fill="#433731" fill-rule="nonzero" opacity=".15"/><path d="M133.147 22.837c-26.312-26.304-67.54-30.361-98.475-9.691C3.737 33.816-8.292 73.457 5.94 107.833c14.233 34.375 50.763 53.912 87.256 46.665 36.493-7.246 62.786-39.26 62.804-76.465a77.571 77.571 0 0 0-22.853-55.196zm-5.302 105.09c-23.812 23.804-61.122 27.472-89.113 8.761C10.74 117.978-.135 82.1 12.756 50.996 25.646 19.893 58.714 2.228 91.734 8.803c33.02 6.576 56.798 35.562 56.79 69.23a70.095 70.095 0 0 1-20.626 49.894h-.053z" fill="#577233" fill-rule="nonzero"/><path d="M100 146c2.037-.6 4.018-1.25 6-2-1.872.75-3.853 1.4-6 2zm-6 1.35zm12-3.7c2.037-.8 4.073-1.7 6-2.65-1.927.95-3.963 1.8-6 2.65zm6-3.55c1.7-.95 3.4-2 5-3.1-1.8 1.1-3.3 2.15-5 3.1zm-25 8.7c1.7 0 3.4-.45 5-.8-1.6.45-3.3.8-5 .8zm-9 .55zM140 113zm3-7.6c.6-1.4 1.1-2.9 1.65-4.4-.55 1.45-1.05 2.95-1.65 4.4zM11 101c.55 1.5 1.05 3 1.65 4.4-.6-1.4-1.1-2.9-1.65-4.4zm126 17zm-4 5.45c1.2-1.45 2.3-2.95 3.35-4.45-1.05 1.5-2.15 3.05-3.35 4.45zm-14 12.5c1.3-.95 2.65-1.9 3.9-2.95-1.25 1.05-2.6 2-3.9 2.95zM71 149zm-14-3zm-7-2.35zm13 3.7c-2.057-.4-4.057-.85-6-1.35 2.114.5 4.171.95 6 1.35zm-19-7.25zm25 8.7c-1.75 0-3.45-.45-5-.8 1.55.45 3.25.8 5 .8zM37 136c-1.35-1-2.7-1.95-4-3 1.3 1.05 2.65 2 4 3zm-17.7-18a61.398 61.398 0 0 1-3.3-6 68.504 68.504 0 0 0 3.3 6zm-3.7-5a69.708 69.708 0 0 1-2.6-6c.8 2.075 1.5 4.037 2.6 6zM28 128l.35.4h.25zm118.33-30c0 .3 0 .65-.25.95-.25.3.15-.65.25-.95zM10 98c0 .3 0 .6.25.9.25.3-.15-.6-.25-.9zm13.45 25.6c-1.2-1.45-2.35-3-3.45-4.6 1.1 1.6 2.25 3.2 3.45 4.6z" fill="#000" fill-rule="nonzero"/><path d="M125.523 31.477c25.97 25.97 25.97 68.076 0 94.046-25.97 25.97-68.076 25.97-94.046 0-25.97-25.97-25.97-68.076 0-94.046 25.97-25.97 68.076-25.97 94.046 0z" fill="#A7C82A" fill-rule="nonzero"/><path d="M53 28c-16.892 7.91-28.563 23.724-31 42" stroke="#FFF" stroke-width=".63" stroke-linecap="round" stroke-linejoin="round"/><path d="M77.5 12.075c26.871-.021 51.108 16.15 61.406 40.969 10.298 24.82 4.628 53.398-14.365 72.407-18.993 19.008-47.568 24.7-72.395 14.422-24.828-10.278-41.018-34.502-41.018-61.373.03-36.653 29.72-66.366 66.372-66.425zM77.5 8C38.564 8 7 39.564 7 78.5S38.564 149 77.5 149 148 117.436 148 78.5A70.5 70.5 0 0 0 77.5 8z" fill="#FCF7CC" fill-rule="nonzero"/><path d="M110.813 50.498a9.91 9.91 0 0 1-5.798 1.487 9.91 9.91 0 0 1 1.487-5.798 3.072 3.072 0 1 1 4.31 4.311zm-18.057-12.98C92.076 39.866 87.877 42 87.877 42a10.21 10.21 0 0 1-1.872-6.19c.203-1.255 1.153-2.29 2.444-2.664 1.291-.373 2.696-.018 3.614.914.918.932 1.187 2.276.693 3.458zm-23.762-1.849c.073 2.24-.475 4.45-1.568 6.331 0 0-3.625-2.183-4.212-4.585a3.37 3.37 0 0 1 .134-2.673c.411-.82 1.139-1.384 1.972-1.53a2.453 2.453 0 0 1 2.382.216c.72.482 1.198 1.31 1.292 2.24zM49.985 51.985a9.91 9.91 0 0 1-5.798-1.487 3.072 3.072 0 1 1 4.311-4.31 9.91 9.91 0 0 1 1.487 5.797zM36.518 65.24c2.348.67 4.482 4.803 4.482 4.803s-3.842 2.514-6.19 1.843c-1.255-.2-2.29-1.135-2.664-2.406-.373-1.271-.018-2.653.914-3.557a3.197 3.197 0 0 1 3.458-.683zm-1.849 22.768c2.24-.085 4.45.55 6.331 1.82 0 0-2.183 4.267-4.585 4.95a2.999 2.999 0 0 1-2.675-.205 3.245 3.245 0 0 1-1.527-2.298 3.246 3.246 0 0 1 .215-2.768 2.995 2.995 0 0 1 2.24-1.5zm9.518 20.494a9.91 9.91 0 0 1 5.798-1.487 9.91 9.91 0 0 1-1.487 5.798 3.072 3.072 0 1 1-4.31-4.311zm19.027 13.083c.587-2.402 4.212-4.585 4.212-4.585 1.093 1.881 1.64 4.092 1.568 6.331-.094.93-.571 1.76-1.292 2.241a2.453 2.453 0 0 1-2.382.215c-.833-.145-1.56-.709-1.972-1.53a3.37 3.37 0 0 1-.134-2.672zm22.788 1.605a10.511 10.511 0 0 1 1.873-6.19s4.2 2.134 4.881 4.482c.494 1.182.225 2.526-.694 3.458-.918.932-2.323 1.287-3.615.914-1.291-.373-2.241-1.409-2.445-2.665zm20.5-10.377a9.91 9.91 0 0 1-1.487-5.798 9.91 9.91 0 0 1 5.798 1.487 3.072 3.072 0 1 1-4.311 4.31zm13.083-18.035c-2.402-.683-4.585-4.95-4.585-4.95a10.586 10.586 0 0 1 6.331-1.82c.93.108 1.76.663 2.241 1.5.482.836.561 1.86.215 2.767a3.245 3.245 0 0 1-1.527 2.298c-.817.486-1.8.561-2.675.205zm1.605-22.892c-2.348.67-6.19-1.843-6.19-1.843s2.134-4.133 4.482-4.803a3.197 3.197 0 0 1 3.458.683c.932.904 1.287 2.286.914 3.557-.373 1.271-1.409 2.206-2.665 2.406z" fill="#577233" fill-rule="nonzero"/><path d="M41.745 100.723C63.02 88.49 60.309 79.447 36 79.447c24.309 0 26.596-9.15 5.691-21.277 21.277 12.181 27.713 5.32 15.532-15.532C69.404 63.915 78.5 61.308 78.5 37c0 24.309 9.149 26.596 21.277 5.691-12.181 21.011-5.32 27.66 15.532 15.532C94.032 70.351 96.69 79.5 121 79.5c-24.309 0-26.596 9.149-5.691 21.277-21.277-12.181-27.713-5.32-15.532 15.532C87.596 95.032 78.5 97.69 78.5 122c0-24.309-9.149-26.596-21.277-5.691 12.234-21.17 5.798-27.82-15.478-15.586z" fill="#EFED9D" fill-rule="nonzero"/><path d="M133.134 22.847A77.453 77.453 0 0 0 78 0v156c31.539.036 59.988-18.962 72.062-48.122 12.075-29.16 5.391-62.73-16.928-85.031z" fill="#433731" fill-rule="nonzero" opacity=".07"/></g></svg>