<svg width="206" height="206" xmlns="http://www.w3.org/2000/svg"><g fill="none" fill-rule="evenodd"><path d="M175.822 30.157C141.077-4.578 86.635-9.936 45.785 17.36 4.935 44.654-10.95 97.002 7.845 142.395c18.793 45.393 67.032 71.192 115.221 61.622 48.19-9.57 82.91-51.843 82.934-100.973a102.434 102.434 0 0 0-30.178-72.887zm-7.001 138.773c-31.444 31.432-80.712 36.276-117.675 11.568C14.183 155.791-.18 108.414 16.844 67.341c17.023-41.072 60.688-64.4 104.292-55.716 43.604 8.683 75.002 46.96 74.991 91.42a92.561 92.561 0 0 1-27.236 65.885h-.07z" fill="#577233" fill-rule="nonzero"/><path d="M132 194c2.716-.9 5.358-1.875 8-3-2.495 1.125-5.138 2.1-8 3zM125 195zM140 191a99.494 99.494 0 0 0 8-4c-2.569 1.434-5.284 2.717-8 4zM148 185a91.27 91.27 0 0 0 7-4c-2.52 1.42-4.62 2.774-7 4zM115 196.8c2.38 0 4.76-.45 7-.8-2.24.45-4.62.8-7 .8zM103 197.35zM185 150zM189 140c.727-1.91 1.333-3.955 2-6-.667 1.977-1.273 4.023-2 6zM15 134c.667 2.045 1.273 4.09 2 6-.727-1.91-1.333-3.955-2-6zM181 156zM176 164c1.433-1.955 2.746-3.978 4-6-1.254 2.022-2.567 4.112-4 6zM158 180c1.667-1.288 3.397-2.576 5-4-1.603 1.424-3.333 2.712-5 4zM94 197zM76 194zM66 191zM84 195c-2.743-.593-5.41-1.26-8-2 2.819.74 5.562 1.407 8 2zM59 185zM92 196.8c-2.45 0-4.83-.45-7-.8 2.17.45 4.55.8 7 .8zM49 180c-1.688-1.333-3.375-2.6-5-4 1.625 1.4 3.313 2.667 5 4zM25 156a84.654 84.654 0 0 1-4-8 94.452 94.452 0 0 0 4 8zM20 150c-1.103-2.6-2.105-5.27-3-8 .923 2.766 1.73 5.383 3 8zM37 169l.35.4h.25zM193.33 130c0 .298 0 .645-.25.943-.25.297.15-.645.25-.943zM13 130c0 .3 0 .6.25.9.25.3-.15-.6-.25-.9zM32 164a85.985 85.985 0 0 1-5-6c1.594 2.087 3.26 4.174 5 6z" fill="#000" fill-rule="nonzero"/><path d="M166.225 41.775c34.367 34.366 34.367 90.084 0 124.45-34.366 34.367-90.084 34.367-124.45 0-34.367-34.366-34.367-90.084 0-124.45 34.366-34.367 90.084-34.367 124.45 0z" fill="#A7C82A" fill-rule="nonzero"/><path d="M70 37C47.659 47.548 32.223 68.631 29 93" stroke="#FFF" stroke-width=".63" stroke-linecap="round" stroke-linejoin="round"/><path d="M102.5 16.405c35.637-.028 67.782 21.417 81.44 54.334 13.657 32.916 6.137 70.82-19.052 96.029-25.19 25.21-63.087 32.76-96.014 19.128-32.928-13.631-54.399-45.759-54.399-81.396.039-48.61 39.415-88.018 88.025-88.095zm0-5.405C50.861 11 9 52.861 9 104.5S50.861 198 102.5 198s93.5-41.861 93.5-93.5A93.5 93.5 0 0 0 102.5 11z" fill="#FCF7CC" fill-rule="nonzero"/><path d="M146.474 67.069a12.742 12.742 0 0 1-7.454 1.911 12.742 12.742 0 0 1 1.911-7.454 3.95 3.95 0 1 1 5.543 5.543zM122.687 50.024c-.876 3.13-6.274 5.976-6.274 5.976a13.971 13.971 0 0 1-2.407-8.253c.261-1.674 1.483-3.055 3.143-3.552a4.6 4.6 0 0 1 4.646 1.218 4.329 4.329 0 0 1 .892 4.611zM90.991 47.558c.098 2.987-.632 5.934-2.09 8.442 0 0-4.832-2.91-5.616-6.113a4.492 4.492 0 0 1 .18-3.564c.547-1.094 1.517-1.846 2.628-2.04a3.271 3.271 0 0 1 3.177.287c.96.643 1.597 1.748 1.721 2.988zM65.98 68.98a12.742 12.742 0 0 1-7.454-1.911 3.95 3.95 0 1 1 5.543-5.543 12.742 12.742 0 0 1 1.911 7.454zM48.024 86.308c3.13.862 5.976 6.176 5.976 6.176s-5.122 3.232-8.253 2.37a4.424 4.424 0 0 1-3.552-3.094 4.48 4.48 0 0 1 1.218-4.574 4.38 4.38 0 0 1 4.611-.878zM45.558 117.01c2.987-.11 5.934.708 8.442 2.34 0 0-2.91 5.487-6.113 6.364a4.129 4.129 0 0 1-3.566-.263 4.17 4.17 0 0 1-2.037-2.955 4.042 4.042 0 0 1 .286-3.558 4 4 0 0 1 2.988-1.928zM58.526 143.931a12.742 12.742 0 0 1 7.454-1.911 12.742 12.742 0 0 1-1.911 7.454 3.95 3.95 0 1 1-5.543-5.543zM83.285 161.113C84.069 157.91 88.9 155 88.9 155c1.458 2.508 2.188 5.455 2.09 8.442-.124 1.24-.76 2.345-1.721 2.988a3.271 3.271 0 0 1-3.177.286c-1.11-.193-2.08-.945-2.629-2.04a4.492 4.492 0 0 1-.18-3.563zM114.003 163.253a14.386 14.386 0 0 1 2.408-8.253s5.4 2.846 6.276 5.976a4.328 4.328 0 0 1-.893 4.61 4.602 4.602 0 0 1-4.647 1.22c-1.66-.498-2.883-1.879-3.144-3.553zM140.931 149.474a12.742 12.742 0 0 1-1.911-7.454 12.742 12.742 0 0 1 7.454 1.911 3.95 3.95 0 1 1-5.543 5.543zM158.113 125.714c-3.202-.877-6.113-6.364-6.113-6.364a14.498 14.498 0 0 1 8.442-2.34 4 4 0 0 1 2.988 1.928 4.042 4.042 0 0 1 .286 3.558 4.17 4.17 0 0 1-2.037 2.955 4.129 4.129 0 0 1-3.566.263zM160.253 94.854c-3.13.862-8.253-2.37-8.253-2.37s2.846-5.314 5.976-6.176a4.38 4.38 0 0 1 4.61.878 4.48 4.48 0 0 1 1.22 4.574 4.424 4.424 0 0 1-3.553 3.094z" fill="#577233" fill-rule="nonzero"/><path d="M55.57 132.965c28.035-16.12 24.46-28.035-7.57-28.035 32.03 0 35.044-12.055 7.5-28.035 28.034 16.05 36.515 7.009 20.465-20.466C92.015 84.464 104 81.03 104 49c0 32.03 12.055 35.044 28.035 7.5-16.05 27.684-7.009 36.445 20.466 20.465C124.466 92.945 127.97 105 160 105c-32.03 0-35.044 12.055-7.5 28.035-28.034-16.05-36.515-7.009-20.465 20.466C115.985 125.466 104 128.97 104 161c0-32.03-12.055-35.044-28.035-7.5 16.12-27.894 7.64-36.655-20.396-20.535z" fill="#EFED9D" fill-rule="nonzero"/><path d="M175.805 30.17A102.278 102.278 0 0 0 103 0v206c41.647.048 79.215-25.04 95.16-63.546 15.943-38.506 7.118-82.835-22.355-112.285z" fill="#433731" fill-rule="nonzero" opacity=".07"/></g></svg>