<svg id="Layer_1" xmlns="http://www.w3.org/2000/svg" viewBox="0 0 1080 563"><style>.st0{fill:#664e94}.st1{fill:#7d62a9}.st2{fill:#b793c4}.st3{fill:#9169ac}.st4{opacity:.5}.st5,.st6{fill:#3e2e61}.st6{opacity:.5}</style><path class="st0" d="M1061.9 38.7v2.6h-36.1v2.6h-36.1v2.6h.1-36.2V49h-36.1v2.6h-36.1v2.6H845v2.6h-36.1v2.6H673.8h-.1v-2.6h-33.6v.1c-.4 0-.8-.1-1.2-.1h1.2v-2.6h-28.4v-2.6h-23.4.2V49H567c-.6-.1-1.1-.1-1.7-.2v-2.4H547h.3v-2.6h-18.1v.2c-.5-.1-1-.1-1.5-.2h1.5v-2.6h-20.5-.1v-2.6h-18.1v.1c-.3 0-.6-.1-.9-.1h.9V36H469.9v-2.6h-20.6V31h-20.7v.1c-.4 0-.8-.1-1.3-.1h1.3v-2.6h-26.4c-.7-.1-1.3-.1-2-.2v-2.4h-28.9.5v-2.6H324h-1.3v-2.5H175.6v2.6h3.7c-1.2 0-2.5 0-3.7.1v-.1H90.4v2.5c-.8 0-1.5.1-2.3.1H41.3V28c-2.9.2-5.7.3-8.4.5H0V563h1080V38.7h-18.1z"/><path transform="rotate(-180 265.07 18.05)" class="st1" d="M241.8 12.9h46.5v10.3h-46.5z"/><path transform="rotate(-180 252.594 24.503)" class="st1" d="M241.8 23.2h21.5v2.6h-21.5z"/><path transform="rotate(-180 286.153 11.596)" class="st1" d="M273.7 10.3h25v2.6h-25z"/><path transform="rotate(-180 282.711 16.759)" class="st0" d="M281.4 15.5h2.6v2.6h-2.6z"/><path transform="rotate(-180 267.222 19.34)" class="st0" d="M265.9 18h2.6v2.6h-2.6z"/><path transform="rotate(-180 254.315 14.177)" class="st0" d="M253 12.9h2.6v2.6H253z"/><path transform="rotate(-180 277.548 19.34)" class="st0" d="M276.3 18h2.6v2.6h-2.6z"/><path transform="rotate(-180 274.967 16.759)" class="st0" d="M273.7 15.5h2.6v2.6h-2.6z"/><path transform="rotate(-180 262.06 21.922)" class="st0" d="M260.8 20.6h2.6v2.6h-2.6z"/><path transform="rotate(-180 259.478 19.34)" class="st0" d="M258.2 18h2.6v2.6h-2.6z"/><path transform="rotate(-180 293.037 16.759)" class="st1" d="M286.6 7.7h12.9v18.1h-12.9z"/><path transform="rotate(-180 298.2 6.433)" class="st1" d="M296.9 5.1h2.6v2.6h-2.6z"/><path transform="rotate(-180 298.2 11.596)" class="st0" d="M296.9 10.3h2.6v2.6h-2.6z"/><path transform="rotate(-180 295.618 19.34)" class="st0" d="M294.3 18h2.6v2.6h-2.6z"/><path transform="rotate(-180 293.037 14.177)" class="st0" d="M291.7 12.9h2.6v2.6h-2.6z"/><path transform="rotate(-180 290.455 11.596)" class="st0" d="M289.2 10.3h2.6v2.6h-2.6z"/><path transform="rotate(-180 290.455 21.922)" class="st0" d="M289.2 20.6h2.6v2.6h-2.6z"/><path transform="rotate(-180 287.874 19.34)" class="st0" d="M286.6 18h2.6v2.6h-2.6z"/><path transform="rotate(-180 293.037 6.433)" class="st1" d="M291.7 5.1h2.6v2.6h-2.6z"/><path transform="rotate(-180 287.874 6.433)" class="st1" d="M286.6 5.1h2.6v2.6h-2.6z"/><path class="st1" d="M250.4 12.9h2.6v12.9h-2.6zM199.7 12.9h46.5v10.3h-46.5z"/><path class="st1" d="M224.6 23.2h21.5v2.6h-21.5zM189.3 10.3h25v2.6h-25zM238.4 25.8h7.7v2.6h-7.7z"/><path class="st0" d="M204 15.5h2.6v2.6H204zM219.5 18h2.6v2.6h-2.6zM237.5 20.6h2.6v2.6h-2.6zM241 16.3h5.2v2.6H241zM232.4 12.9h2.6v2.6h-2.6zM209.1 18h2.6v2.6h-2.6zM211.7 15.5h2.6v2.6h-2.6zM224.6 20.6h2.6v2.6h-2.6zM227.2 18h2.6v2.6h-2.6z"/><path class="st1" d="M188.5 7.7h12.9v18.1h-12.9zM188.5 5.1h2.6v2.6h-2.6z"/><path class="st0" d="M188.5 10.3h2.6v2.6h-2.6zM191.1 18h2.6v2.6h-2.6zM193.6 12.9h2.6v2.6h-2.6zM196.2 10.3h2.6v2.6h-2.6zM196.2 20.6h2.6v2.6h-2.6zM198.8 18h2.6v2.6h-2.6z"/><path class="st1" d="M193.6 5.1h2.6v2.6h-2.6zM198.8 5.1h2.6v2.6h-2.6z"/><g><path class="st1" d="M237.5 10.3h12.9v18.1h-12.9zM237.5 7.7h2.6v2.6h-2.6z"/><path class="st0" d="M237.5 12.9h2.6v2.6h-2.6zM240.1 20.6h2.6v2.6h-2.6zM232.4 23.2h5.2v2.6h-5.2zM242.7 15.5h2.6v2.6h-2.6zM245.3 12.9h2.6v2.6h-2.6zM245.3 23.2h2.6v2.6h-2.6zM247.9 20.6h2.6v2.6h-2.6z"/><path class="st1" d="M242.7 7.7h2.6v2.6h-2.6zM247.9 7.7h2.6v2.6h-2.6z"/></g><path class="st1" d="M201.4 10.3h2.6v12.9h-2.6z"/><g><path class="st2" d="M191.1 5.1h2.6v2.6h-2.6z"/><path class="st2" d="M191.1 2.6h2.6v2.6h-2.6z"/><path class="st2" d="M193.6 2.6h2.6v2.6h-2.6zM193.6 0h2.6v2.6h-2.6z"/><path transform="rotate(-180 197.522 6.433)" class="st3" d="M196.2 5.1h2.6v2.6h-2.6z"/><path transform="rotate(-180 197.522 3.851)" class="st3" d="M196.2 2.6h2.6v2.6h-2.6z"/></g><g><path class="st2" d="M240.1 7.7h2.6v2.6h-2.6zM240.1 5.1h2.6v2.6h-2.6zM242.7 5.1h2.6v2.6h-2.6z"/><path class="st2" d="M242.7 2.6h2.6v2.6h-2.6z"/><path transform="rotate(-180 246.57 9.014)" class="st3" d="M245.3 7.7h2.6v2.6h-2.6z"/><path transform="rotate(-180 246.57 6.433)" class="st3" d="M245.3 5.1h2.6v2.6h-2.6z"/></g><g><path class="st2" d="M289.2 5.1h2.6v2.6h-2.6z"/><path class="st2" d="M289.2 2.6h2.6v2.6h-2.6z"/><path class="st2" d="M291.7 2.6h2.6v2.6h-2.6zM291.7 0h2.6v2.6h-2.6z"/><path transform="rotate(-180 295.618 6.433)" class="st3" d="M294.3 5.1h2.6v2.6h-2.6z"/><path transform="rotate(-180 295.618 3.851)" class="st3" d="M294.3 2.6h2.6v2.6h-2.6z"/></g><g class="st4"><path class="st5" d="M250.4 25.8h2.6v2.6h-2.6zM253 25.8h2.6v2.6H253zM255.6 25.8h2.6v2.6h-2.6zM258.2 25.8h2.6v2.6h-2.6zM260.8 25.8h2.6v2.6h-2.6z"/><path class="st5" d="M263.3 25.8h2.6v2.6h-2.6z"/><path class="st5" d="M265.9 25.8h2.6v2.6h-2.6zM268.5 25.8h2.6v2.6h-2.6z"/></g><g class="st4"><path class="st5" d="M201.4 23.2h2.6v2.6h-2.6zM204 23.2h2.6v2.6H204zM206.6 23.2h2.6v2.6h-2.6z"/><path class="st5" d="M209.1 23.2h2.6v2.6h-2.6zM211.7 23.2h2.6v2.6h-2.6zM214.3 23.2h2.6v2.6h-2.6zM216.9 23.2h2.6v2.6h-2.6zM219.5 23.2h2.6v2.6h-2.6z"/></g><path class="st6" d="M263.3 23.2h2.6v2.6h-2.6z"/><path class="st6" d="M265.9 23.2h2.6v2.6h-2.6zM268.5 23.2h2.6v2.6h-2.6zM271.1 23.2h2.6v2.6h-2.6z"/><path class="st6" d="M273.7 23.2h2.6v2.6h-2.6z"/><g class="st4"><path class="st5" d="M299.5 23.2h2.6v2.6h-2.6zM302.1 23.2h2.6v2.6h-2.6z"/><path class="st5" d="M304.7 23.2h2.6v2.6h-2.6z"/><path class="st5" d="M307.2 23.2h2.6v2.6h-2.6zM309.8 23.2h2.6v2.6h-2.6z"/><path class="st5" d="M312.4 23.2h2.6v2.6h-2.6zM315 23.2h2.6v2.6H315zM317.6 23.2h2.6v2.6h-2.6z"/></g><g class="st4"><path class="st5" d="M299.5 20.6h2.6v2.6h-2.6zM302.1 20.6h2.6v2.6h-2.6z"/><path class="st5" d="M304.7 20.6h2.6v2.6h-2.6z"/><path class="st5" d="M307.2 20.6h2.6v2.6h-2.6zM309.8 20.6h2.6v2.6h-2.6z"/><path class="st5" d="M312.4 20.6h2.6v2.6h-2.6zM315 20.6h2.6v2.6H315zM317.6 20.6h2.6v2.6h-2.6z"/></g></svg>