<svg id="Layer_1" xmlns="http://www.w3.org/2000/svg" viewBox="0 0 22 22"><style>.st0{fill:#9abe42}</style><path class="st0" d="M9.4 1.6H15.7V0H6.3v1.6h1.6zM6.3 3.1V1.6H3.1v1.5h1.6zM17.3 3.1h1.6V1.6h-3.2v1.5zM3.1 4.7V3.1H1.6v3.2h1.5zM1.6 12.6V6.3H0v9.4h1.6v-1.6zM18.9 6.3h1.5V3.1h-1.5v1.6zM20.4 6.3v9.4H22V6.3z"/><path class="st0" d="M18.9 17.3h-1.6v-1.6h-4.7v-1.6h1.5v-1.5h1.6V6.3h-1.6V4.7H7.9v1.6H6.3V12.6h1.6v1.5h1.5v1.6H4.7v1.6H3.1v-1.6H1.6v3.2h1.5v1.5h3.2V22h9.4v-1.6h3.2v-1.5h1.5v-3.2h-1.5z"/></svg>