<?xml version="1.0" encoding="utf-8"?>
<!-- Generator: Adobe Illustrator 22.1.0, SVG Export Plug-In . SVG Version: 6.00 Build 0)  -->
<svg version="1.1" id="Layer_1" xmlns="http://www.w3.org/2000/svg" xmlns:xlink="http://www.w3.org/1999/xlink" x="0px" y="0px"
	 viewBox="0 0 91.5 29" style="enable-background:new 0 0 91.5 29;" xml:space="preserve">
<style type="text/css">
	.st0{fill:#3E2F61;}
	.st1{fill:#9ABE42;}
	.st2{fill:#3E2E61;}
	.st3{fill:#FAF4A9;}
</style>
<path class="st0" d="M52.7,24.1h-2.1v-2h-2V20h-2v-2h-2.1v-4.1h2.1v-2h2V9.8h2v-2h2.1V5.7h-6.1v2.1h-2.1v2h-2v2.1h-2.1V1.7h-4v24.5
	h4V20h2.1v2.1h2v2h2.1v2.1h6.1V24.1z"/>
<path class="st0" d="M60.8,24.1h-2V11.9h-4.1v10.2h-2v2.1l2-0.1v2.1h6.1V24.1l2.1,0v-2h-2.1V24.1z M83.3,11.9h-4.1v10.2h-4.1V11.9
	h-4v10.2H67V11.9h-4.1v10.2h2v2H67v2.1h4.1v-2.1h4v2.1h4.1v-2.1h2.1v-2h2V16h2v-2.1h-2L83.3,11.9z M54.7,5.7h4.1v4.1h-4.1V5.7z
	 M87.4,11.9h-2.1v2h2.1v12.3h4.1V11.9h-2.1H87.4z M87.4,5.7h4.1v4.1h-4.1V5.7z"/>
<g>
	<path class="st1" d="M29,20.1V8.9h-2.2V4.5h-2.3V2.2h-4.4V0H8.9v2.2H4.5v2.3H2.2v4.4H0v11.2h2.2v4.4h2.3v2.3h4.4V29h11.2v-2.2h4.4
		v-2.3h2.3v-4.4H29z"/>
	<path class="st2" d="M17.8,8.9H20v2.2h-2.2V8.9z M17.8,17.8H20V20h-2.2V17.8z M13.4,6.7V4.5h2.2v4.4h-2.2V6.7z M8.9,8.9h2.2v2.2
		H8.9V8.9z M8.9,17.8h2.2V20H8.9V17.8z M8.9,13.4v2.2H4.5v-2.2h2.2H8.9z"/>
	<path class="st3" d="M17.8,15.6v-2.2h-2.2v-2.2h-2.2v2.2h-2.2v2.2h2.2v2.2h2.2v-2.2L17.8,15.6z"/>
	<path class="st2" d="M22.3,15.6h-2.2v-2.2h4.4v2.2H22.3z M20.1,6.7h2.2v2.2h-2.2V6.7z M20.1,20.1h2.2v2.2h-2.2V20.1z M13.4,22.3
		v-2.2h2.2v4.4h-2.2V22.3z M6.7,6.7h2.2v2.2H6.7V6.7z M6.7,20.1h2.2v2.2H6.7V20.1z"/>
</g>
</svg>
