<svg id="Layer_1" xmlns="http://www.w3.org/2000/svg" viewBox="0 0 305 134"><style>.st0{fill:#664e94}.st1{fill:#7d62a9}.st2{fill:#3e2e61}</style><path class="st0" d="M38.7 46.5h2.6v2.6h-2.6zM20.7 25.8v2.6h5.1v-2.6h-2.6zM25.8 23.2v2.6H31v-2.6h-2.6zM31 20.7v2.5h5.1v-2.5h-2.5z"/><path class="st0" d="M41.3 18.1h-5.2v2.6H43.9v-2.6zM62 20.7H43.9v2.5H64.5v-2.5zM77.4 15.5H80v2.6h-2.6z"/><path class="st0" d="M82.6 28.4v-2.6H80v-5.1h-2.6v-2.6h-2.5v5.1H64.5v2.6h5.2v2.6H80v10.3h2.6V31h2.6v-2.6zM85.2 31h2.6v2.6h-2.6zM87.8 33.6h2.6v2.6h-2.6zM90.4 36.1H93v2.6h-2.6zM92.9 38.7h2.6v2.6h-2.6zM95.5 41.3h2.6v2.6h-2.6zM103.3 43.9h-5.2v2.6h5.2zM28.4 67.1V74.9H31V64.5h-2.6zM31 62v2.5h2.6v-5.1H31zM33.6 56.8v2.6h2.5v-5.2h-2.5zM36.1 51.6v2.6h2.6V49h-2.6zM41.3 43.9h2.6v2.6h-2.6zM43.9 41.3v2.6h2.6v-5.2h-2.6zM46.5 36.1h2.6v2.6h-2.6zM51.6 31H49v5.1h2.6v-2.5h5.2V31h-2.6z"/><path class="st0" d="M64.5 28.4H56.8V31h12.9v-2.6h-2.6zM77.4 41.3V92.9H80V38.7h-2.6zM116.2 72.3v2.6h2.5V67.1h-2.5v2.6zM118.7 80v2.6h2.6v-7.7h-2.6v2.5zM121.3 87.8V95.5h2.6V82.6h-2.6v2.6zM139.4 46.5v-5.2h-5.2v2.6h-2.5v2.6h-5.2V49h-2.6v2.6h-5.2v2.6H111v-2.6h-2.6V49h-2.6v-2.4h-2.5v2.6h2.5v5h2.6v2.6h2.6V62h2.6v5.1h2.6V59.4h5.1v-2.6h5.2v-2.6h5.2v-2.6H142v-5.1zM80 92.9h2.6v2.6H80zM0 43.9V49h2.6V41.3H0zM2.6 38.7h2.6v2.6H2.6zM5.2 36.1h2.6v2.6H5.2z"/><path class="st0" d="M7.7 33.6h2.6v2.6H7.7zM10.3 31v2.6h5.2V31h-2.6zM15.5 28.4V31h5.2v-2.6h-2.6z"/><g><path class="st1" d="M111 51.7v2.5h7.7v-2.6h-5.1v-2.4h-5.2v2.5zM31 59.4h2.6v-5.2h2.5V49h2.6v-2.5h2.6v-2.6h2.6v-5.2h2.6v-2.6H49V31H56.8v-2.6h12.9v-2.6h-5.2v-2.6H43.9v-2.5H36.1v2.5H31v2.6h-5.2v2.6h-5.1V31h-5.2v2.6h-5.2v2.5H7.7v2.6H5.2v2.6H2.6v2.6h5.1v2.6H15.5V49h2.6v2.6h2.6v2.6h2.5v5.2h2.6v5.1H31V62z"/><path class="st1" d="M80 33.6v-5.2H69.7V31H56.8v2.6h-5.2v2.5H49v2.6h-2.5v5.2h-2.6v2.6h-2.6V49h-2.6v5.2h-2.6v5.2h-2.5v5.1H31v5.2H41.3v2.6h15.5v2.6H62v2.5h5.1V80h2.6v2.6h2.6v2.6h2.6v2.6h2.5V38.7H80v-2.6zM118.7 80v-5.1h-2.5V67.1h-2.6V62H111v-5.2h-2.6v-2.6h-2.6v-5h2.6v-2.6h-2.6V49h-2.5v-2.5h-5.2v-2.6h-2.6v-2.6h-2.6v-2.6h-2.5v-2.6h-2.6v-2.5h-2.6V31h-2.6V38.7H80V90.4h2.6v-2.6h2.6v-2.6h5.2v-2.6h5.1V80h12.9v2.6h5.2v2.6h2.6v2.6h2.5v2.6h2.6V82.6h-2.6z"/><path class="st1" d="M144.6 56.8v-5.2h-12.9v2.6h-5.2v2.6h-5.2v2.6h-5.1V67.1h2.5V74.9h2.6V82.6h2.6v5.2h2.6v-2.6h2.6V80h2.6v-2.6h2.5v-5.1h2.6v-2.6h2.6v-2.6h2.6v-2.6h2.6V62h2.5v-5.2z"/></g><g><path class="st0" d="M232.3 100.7v15.5h-2.5v12.9h-2.4v2.6h-2.5v-2.6h2.3v-23.3h-2.6V95.5H222v-5.1h-2.6v-5.2h-2.5v-2.6h-5.2V80h-5.2v-2.6h-7.7v-2.5H191v-2.6h-10.3v-2.6h-41.3v-2.6h-5.2v-2.6h-5.1v9.1h-10.3v3.8h-2.6v5.2H111v2.6h-5.2v-2.6h-5.1v-5.2h-2.6v-5.1h2.6v-2.6h2.6v-2.6h2.5V62h2.6v-5.2h2.6v-2.6h2.6v-2.6h2.6V49h2.6v-2.5h5.1v-2.6h5.2v-2.6h10.3v-2.6h36.1v2.6h5.2v2.6h7.8v2.6h5.1V49h5.2v2.6h5.1v2.6h2.6v2.6h2.6v2.6h2.6V62h2.6v2.5h2.6v2.6h2.5v5.2h2.6v2.6h2.6V80h2.6v7.8h2.6v12.9zM222.3 131.7h2.6v2.6h-2.6z"/><path class="st2" d="M111 51.6h2.6v2.6H111zM118.8 56.8v10.3h-2.6v2.6h-2.6v-2.6H111V62h2.6V54.2h2.6v2.6zM105.8 62v5.1h-2.5v2.6h-2.6v-2.6h-2.6V56.8h2.6v-2.6h2.6V62z"/><path class="st2" d="M103.3 51.6h2.6v2.6h-2.6zM111 72.3h2.6v2.6H111zM103.3 72.3h2.6v2.6h-2.6z"/><g><path class="st1" d="M123.9 41.3h2.6v2.6h-2.6zM121.3 41.3h-2.6v5.2h5.2V38.7h-2.6zM139.4 36.1h2.6v2.6h-2.6zM136.8 36.1h-2.6v5.2h5.2v-7.7h-2.6zM154.9 36.1h2.6v2.6h-2.6zM152.3 33.6h-2.6v5.1h5.2V31h-2.6zM170.4 36.1h2.6v2.6h-2.6zM167.8 33.6h-2.6v5.1h5.2V31h-2.6zM232.3 85.3v-2.6h-2.5v-2.6h-2.6v5.2h2.6zM232.3 95.5h2.6v-2.6h-2.6v-2.5h-2.5v5.1h2.5zM234.9 103.3v-2.6h-2.6v5.1h5.2v-2.5zM232.3 111h2.6v2.6h-2.6zM229.8 118.7h2.6v2.6h-2.6zM229.8 126.5h2.6v2.6h-2.6zM224.8 131.7h2.6v2.6h-2.6z"/></g></g><g><path class="st0" d="M263.3 31h2.6v2.6h-2.6zM281.4 10.3h-2.6v2.6h5.2v-2.6zM276.2 7.7h-2.6v2.6h5.2V7.7zM271.1 5.2h-2.6v2.5h5.1V5.2zM265.9 2.6h-5.2v2.6H268.5V2.6zM255.6 5.2h-15.5v2.5H260.7V5.2h-2.5zM234.9 7.7h-5.1V2.6h-2.6v2.6h-2.6v5.1H222v2.6h-2.6v2.6h2.6v7.7h2.6V12.9h10.3v-2.6h5.2V7.7h-2.6zM224.6 0h2.6v2.6h-2.6zM216.8 15.5h2.6v2.6h-2.6zM214.3 18.1h2.6v2.6h-2.6zM211.7 20.7h2.6v2.6h-2.6zM209.1 23.2h2.6v2.6h-2.6zM206.5 25.8h2.6v2.6h-2.6zM201.4 28.4V31h5.1v-2.6h-2.6zM201.4 31.1v2.6h-2.6v5h-2.6v2.6h-2.6v5.2H191v5.1h-2.5v-7.7h-25.9v-5.2h2.6-5.1v-2.6h20.6v2.6h12.9v-2.6h2.6v-2.5h2.6v-2.5zM273.6 54.2v5.2h2.6V49h-2.6v2.6zM271.1 49h2.5v-5.1h-2.5v2.6zM268.5 43.9h2.6v-5.2h-2.6v2.6zM265.9 38.7h2.6v-5.1h-2.6v2.5zM260.7 28.4h2.6V31h-2.6zM258.2 28.4h2.5v-5.2h-2.5v2.6zM255.6 20.7h2.6v2.6h-2.6zM250.4 18.1h2.6v2.6h2.6v-5.2H247.8v2.6z"/><path class="st0" d="M237.5 15.5h10.3v-2.6H234.9v2.6zM224.6 28.4V77.4h2.6V23.2h-2.6v2.6zM185.9 54.2v5.2h2.6V51.6h-2.6zM183.3 62v5.1h2.6V59.4h-2.6zM180.7 69.7V80h2.6V67.1h-2.6zM222 77.4h2.6V80H222zM302 25.8V33.6h2.6V25.8zM299.5 23.2h2.6v2.6h-2.6zM296.9 20.7h2.6v2.6h-2.6z"/><path class="st0" d="M294.3 18.1h2.6v2.6h-2.6zM291.7 15.5h-2.6v2.6h5.2v-2.6zM286.5 12.9H284v2.6h5.1v-2.6z"/><g><path class="st1" d="M271.1 46.5v-2.6h-2.6v-5.2h-2.6v-5.1h-2.6V31h-2.6v-2.6h-2.5v-5.2h-2.6v-2.5H253v-2.6h-5.2v-2.6H234.9v-2.6H224.6v10.3h2.6V72.3h2.6v-2.6h2.5v-2.6h2.6v-2.6h2.6V62h5.2v-2.6h5.1v-2.6h15.5v-2.6h10.3V49h-2.5zM222 20.7v-5.2h-2.6v2.6h-2.6v2.6h-2.5v2.5h-2.6v2.6h-2.6v2.6h-2.6V31h-5.1v2.6h-2.6v5.1h-2.6v2.6h-2.6v5.2H191v5.1h-2.5V59.4h-2.6V67.1h-2.6V74.9h2.6v-2.6h2.6v-2.6h2.5v-2.6h5.2v-2.6h12.9v2.6h5.2v2.6h5.1v2.6h2.6v2.6h2.6V23.2H222z"/><path class="st1" d="M183.3 62v-2.6h2.6V51.6h2.6V43.9H157.5v2.6h2.6V49h2.5v2.6h2.6v2.6h2.6v2.6h2.6V62h2.6v2.5h2.5v5.2h2.6v2.6h2.6v-5.2h2.6v-2.6zM299.5 25.8v-2.6h-2.6v-2.5h-2.6v-2.6h-5.2v-2.6H284v-2.6h-5.2v-2.6h-5.2V7.7h-5.1V5.2H260.7v2.5h-20.6v2.6h-5.2v2.6h12.9v2.6H255.6v5.2h2.6v2.5h2.5v5.2h2.6V31h2.6v2.6h2.6v5.1h2.6v5.2h2.5V49h5.2v-5.1h2.6v-5.2h2.6v-2.6h2.5v-2.5h2.6V31H296.9v-2.6h5.1v-2.6z"/></g></g></svg>