<svg id="Layer_1" xmlns="http://www.w3.org/2000/svg" viewBox="0 0 1080 454"><style>.st0{fill:#7d62a9}.st1{fill:#664e94}.st2{fill:#3e2e61}</style><g id="Egypt"><path class="st0" d="M1031.2 24.9l-.2.1s-.3 0-1-.1h1.2v-2.6h-41.3c-2.5-.1-5.1-.2-7.8-.3v-2.3H894.5h2.4v-2.6H749.8v2.6h-49v2.6h-28.4v2.6H644v2.6h-20.7v2.6h-20.7v2.6H582v2.6h-18.1v2.4l-1.3.2h-19.4v2.6h-18.1V43H507v2.6h-23.2v2.6h-23.2v2.6h4.3l-4.3.6v-.6h-28.4v2.6h2.5c-.8.1-1.6.1-2.5.2v-.2h-33.6V56h-135v-2.6h-36.1v-2.6h-36.1v-2.6h-36.1v-2.6H119V43H82.9v-2.6H46.8v-2.6H10.6v-2.6H0V454h1080V24.9h-48.8z"/><path class="st1" d="M577.9 69.1h43.9v2.6h-43.9zM598.5 71.7h23.2v2.6h-23.2zM616.6 74.3h5.2v2.6h-5.2z"/><path transform="rotate(-180 643.716 70.41)" class="st2" d="M621.8 69.1h43.9v2.6h-43.9z"/><path transform="rotate(-180 633.39 72.99)" class="st2" d="M621.8 71.7H645v2.6h-23.2z"/><path transform="rotate(-180 624.355 75.572)" class="st2" d="M621.8 74.3h5.2v2.6h-5.2z"/><path class="st1" d="M585.6 48.5h36.1v2.6h-36.1z"/><path class="st1" d="M583.1 51v2.6h-2.6v2.6h-2.6v2.6h-2.6v2.6h-2.6V64h-2.6v2.5h-2.5v2.6h54.2V51z"/><path class="st2" d="M657.9 51v2.6h2.6v2.6h2.6v2.6h2.6v2.6h2.5V64h2.6v2.5h2.6v2.6h-51.6V51z"/><path class="st1" d="M588.2 45.9h33.6v2.6h-33.6zM590.8 43.3h31v2.6h-31z"/><path class="st1" d="M593.4 40.7h28.4v2.6h-28.4zM596 38.1h25.8v2.6H596z"/><path class="st1" d="M598.5 35.6h23.2v2.6h-23.2zM601.1 33h20.7v2.6h-20.7zM603.7 30.4h18.1V33h-18.1z"/><path class="st1" d="M606.3 27.8h15.5v2.6h-15.5zM608.9 25.2h12.9v2.6h-12.9z"/><path class="st1" d="M611.4 22.7h10.3v2.6h-10.3z"/><path class="st1" d="M614 20.1h7.7v2.6H614zM616.6 17.5h5.2v2.6h-5.2zM619.2 14.9h2.6v2.6h-2.6z"/><path class="st2" d="M621.8 17.5V51h33.5v-2.5h-2.5v-2.6h-2.6v-2.6h-2.6v-2.6H645v-2.6h-2.6v-2.5h-2.6V33h-2.5v-2.6h-2.6v-2.6h-2.6v-2.6h-2.6v-2.5h-2.6v-2.6h-2.5v-2.6z"/><path class="st1" d="M624.4 33h2.6v2.6h-2.6zM629.5 27.8h2.6v2.6h-2.6zM639.8 48.5h2.6v2.6h-2.6zM626.9 58.8h2.6v2.6h-2.6zM632.1 71.7h2.6v2.6h-2.6zM632.1 45.9h5.2v2.6h-5.2zM629.5 53.6h5.2v2.6h-5.2zM647.6 51h5.2v2.6h-5.2zM624.4 64h5.2v2.6h-5.2zM626.9 35.6h5.2v2.6h-5.2zM621.8 25.2h5.2v2.6h-5.2zM624.4 43.3h5.2v2.6h-5.2zM639.8 40.7h5.2v2.6h-5.2zM639.8 58.8h5.2v2.6h-5.2zM637.3 66.5h5.2v2.6h-5.2zM652.8 64h5.2v2.6h-5.2z"/><g><path class="st0" d="M598.5 40.7h2.6v2.6h-2.6zM590.8 56.2h2.6v2.6h-2.6zM611.4 68.3h2.6v2.6h-2.6zM596 66.5h2.6v2.6H596zM616.6 56.2h2.6v2.6h-2.6zM614 38.1h2.6v2.6H614zM603.7 35.6h5.2v2.6h-5.2zM606.3 40.7h5.2v2.6h-5.2zM611.4 30.4h5.2V33h-5.2zM614 22.7h5.2v2.6H614zM593.4 45.9h5.2v2.6h-5.2zM614 45.9h5.2v2.6H614zM580.5 58.8h5.2v2.6h-5.2zM601.1 58.8h5.2v2.6h-5.2zM588.2 64h5.2v2.6h-5.2zM606.3 51h5.2v2.6h-5.2z"/></g><g><path class="st1" d="M694.5 54.1h43.9v2.6h-43.9z"/><path class="st1" d="M715.1 56.6h23.2v2.6h-23.2zM733.2 59.2h5.2v2.6h-5.2z"/><path transform="rotate(-180 760.314 55.35)" class="st2" d="M738.4 54.1h43.9v2.6h-43.9z"/><path transform="rotate(-180 749.988 57.932)" class="st2" d="M738.4 56.6h23.2v2.6h-23.2z"/><path transform="rotate(-180 740.952 60.514)" class="st2" d="M738.4 59.2h5.2v2.6h-5.2z"/><path class="st1" d="M702.2 33.4h36.1V36h-36.1zM699.6 36v2.6h-2.5v2.6h-2.6v2.5h-2.6v2.6h-2.6v2.6h-2.6v2.6h-2.5v2.6h54.2V36z"/><path class="st2" d="M774.5 36v2.6h2.6v2.6h2.6v2.5h2.6v2.6h2.5v2.6h2.6v2.6h2.6v2.6h-51.6V36z"/><path class="st1" d="M704.8 30.8h33.6v2.6h-33.6zM707.4 28.2h31v2.6h-31z"/><path class="st1" d="M710 25.7h28.4v2.6H710z"/><path class="st1" d="M712.6 23.1h25.8v2.6h-25.8zM715.1 20.5h23.2v2.6h-23.2zM717.7 17.9h20.7v2.6h-20.7z"/><path class="st1" d="M720.3 15.3h18.1v2.6h-18.1z"/><path class="st1" d="M722.9 12.8h15.5v2.6h-15.5zM725.5 10.2h12.9v2.6h-12.9zM728 7.6h10.3v2.6H728zM730.6 5h7.7v2.6h-7.7zM733.2 2.4h5.2V5h-5.2zM735.8-.2h2.6v2.6h-2.6z"/><path class="st2" d="M738.4 2.4V36h33.5v-2.6h-2.6v-2.6h-2.5v-2.6h-2.6v-2.5h-2.6v-2.6H759v-2.6h-2.6v-2.6h-2.5v-2.6h-2.6v-2.5h-2.6v-2.6h-2.6V7.6h-2.6V5H741V2.4z"/><path class="st1" d="M741 17.9h2.6v2.6H741zM746.1 12.8h2.6v2.6h-2.6zM756.4 33.4h2.6V36h-2.6zM743.5 43.7h2.6v2.6h-2.6zM748.7 56.6h2.6v2.6h-2.6zM748.7 30.8h5.2v2.6h-5.2zM746.1 38.6h5.2v2.6h-5.2zM764.2 36h5.2v2.6h-5.2zM741 48.9h5.2v2.6H741zM743.5 20.5h5.2v2.6h-5.2zM738.4 10.2h5.2v2.6h-5.2zM741 28.2h5.2v2.6H741zM756.4 25.7h5.2v2.6h-5.2zM756.4 43.7h5.2v2.6h-5.2zM753.9 51.5h5.2v2.6h-5.2zM769.3 48.9h5.2v2.6h-5.2z"/><g><path class="st0" d="M715.1 25.7h2.6v2.6h-2.6zM707.4 41.2h2.6v2.6h-2.6zM728 53.2h2.6v2.6H728zM712.6 51.5h2.6v2.6h-2.6zM733.2 41.2h2.6v2.6h-2.6zM730.6 23.1h2.6v2.6h-2.6zM720.3 20.5h5.2v2.6h-5.2zM722.9 25.7h5.2v2.6h-5.2zM728 15.3h5.2v2.6H728zM730.6 7.6h5.2v2.6h-5.2zM710 30.8h5.2v2.6H710zM730.6 30.8h5.2v2.6h-5.2zM697.1 43.7h5.2v2.6h-5.2zM717.7 43.7h5.2v2.6h-5.2zM704.8 48.9h5.2v2.6h-5.2zM722.9 36h5.2v2.6h-5.2z"/></g></g></g><path class="st1" d="M454.6 132.7h33.6v2.6h-33.6zM488.2 135.3h33.6v2.6h-33.6zM521.7 137.9h33.6v2.6h-33.6z"/><path class="st1" d="M555.3 140.4h33.6v2.6h-33.6z"/><path transform="rotate(-180 639.204 139.15)" class="st1" d="M622.4 137.9H656v2.6h-33.6z"/><path transform="rotate(-180 605.644 141.732)" class="st1" d="M588.9 140.4h33.6v2.6h-33.6z"/><path transform="rotate(-180 706.324 133.988)" class="st1" d="M689.5 132.7h33.6v2.6h-33.6z"/><path transform="rotate(-180 672.765 136.57)" class="st1" d="M656 135.3h33.6v2.6H656z"/><path class="st0" d="M485.6 132.7h2.6v2.6h-2.6zM472.7 132.7h2.6v2.6h-2.6zM506.3 135.3h2.6v2.6h-2.6z"/><path class="st1" d="M506.3 137.9h2.6v2.6h-2.6zM449.5 132.7h2.6v2.6h-2.6zM452 135.3h2.6v2.6H452zM454.6 135.3h2.6v2.6h-2.6zM459.8 135.3h2.6v2.6h-2.6zM465 135.3h2.6v2.6H465zM472.7 135.3h2.6v2.6h-2.6zM462.4 137.9h2.6v2.6h-2.6z"/><path class="st1" d="M459.8 140.4h2.6v2.6h-2.6zM465 140.4h2.6v2.6H465zM477.9 143h2.6v2.6h-2.6zM490.8 143h2.6v2.6h-2.6zM501.1 145.6h2.6v2.6h-2.6zM514 145.6h2.6v2.6H514zM526.9 148.2h2.6v2.6h-2.6zM539.8 145.6h2.6v2.6h-2.6zM552.7 150.8h2.6v2.6h-2.6zM563.2 150.8h2.6v2.6h-2.6zM576 150.8h2.6v2.6H576zM576 145.6h2.6v2.6H576zM578.5 148.2h2.6v2.6h-2.6zM578.5 143h2.6v2.6h-2.6zM583.7 148.2h2.6v2.6h-2.6zM590.9 145.6h2.6v2.6h-2.6zM593.6 153.8h2.6v2.6h-2.6zM607.1 150.8h2.6v2.6h-2.6zM628.4 148.2h2.6v2.6h-2.6zM643.1 150.8h2.6v2.6h-2.6zM658.7 148.2h2.6v2.6h-2.6zM475.3 137.9h2.6v2.6h-2.6zM488.2 140.4h2.6v2.6h-2.6zM501.1 140.4h2.6v2.6h-2.6zM506.3 140.4h2.6v2.6h-2.6zM519.2 140.4h2.6v2.6h-2.6zM529.5 143h2.6v2.6h-2.6zM542.4 143h2.6v2.6h-2.6zM558 145.6h2.6v2.6H558zM570.9 145.6h2.6v2.6h-2.6zM586.3 145.6h2.6v2.6h-2.6zM596.2 145.6h2.6v2.6h-2.6zM604.5 145.6h2.6v2.6h-2.6zM598.8 148.2h2.6v2.6h-2.6zM609.7 145.6h2.6v2.6h-2.6zM614.7 145.6h2.6v2.6h-2.6zM623 145.6h2.6v2.6H623zM614.7 148.2h2.6v2.6h-2.6zM635.3 143h2.6v2.6h-2.6zM645.6 143h2.6v2.6h-2.6zM483 135.3h2.6v2.6H483z"/><path class="st1" d="M485.6 137.9h2.6v2.6h-2.6zM490.8 137.9h2.6v2.6h-2.6zM495.9 137.9h2.6v2.6h-2.6zM503.7 137.9h2.6v2.6h-2.6zM514 137.9h2.6v2.6H514zM521.7 140.4h2.6v2.6h-2.6zM526.9 140.4h2.6v2.6h-2.6zM532.1 140.4h2.6v2.6h-2.6zM539.8 140.4h2.6v2.6h-2.6zM550.1 140.4h2.6v2.6h-2.6zM555.3 143h2.6v2.6h-2.6zM560.5 143h2.6v2.6h-2.6zM565.6 143h2.6v2.6h-2.6zM573.4 143h2.6v2.6h-2.6zM583.7 143h2.6v2.6h-2.6zM601.9 143h2.6v2.6h-2.6zM607.1 143h2.6v2.6h-2.6zM612.2 143h2.6v2.6h-2.6zM620 143h2.6v2.6H620zM632.8 140.4h2.6v2.6h-2.6zM637.9 140.4h2.6v2.6h-2.6zM643.1 140.4h2.6v2.6h-2.6zM650.8 140.4h2.6v2.6h-2.6z"/><g><path class="st1" d="M658.7 137.9h2.6v2.6h-2.6zM663.9 137.9h2.6v2.6h-2.6zM669 137.9h2.6v2.6H669zM676.8 137.9h2.6v2.6h-2.6z"/></g><g><path class="st1" d="M689.5 135.3h2.6v2.6h-2.6zM694.7 135.3h2.6v2.6h-2.6zM699.9 135.3h2.6v2.6h-2.6zM707.6 135.3h2.6v2.6h-2.6z"/></g><path class="st1" d="M485.6 135.3h2.6v2.6h-2.6zM436.5 129.7h2.6v2.6h-2.6zM444.3 135.7h2.6v2.6h-2.6zM537.2 135.3h2.6v2.6h-2.6z"/><path class="st0" d="M531.8 137.9h5.4v2.6h-5.4zM547.2 137.9h5.4v2.6h-5.4zM571.5 140.4h5.4v2.6h-5.4z"/><path class="st1" d="M560.4 135.3h5.4v2.6h-5.4zM590.9 143h5.4v2.6h-5.4zM625.5 143h5.4v2.6h-5.4zM656 140.4h2.7v2.6H656z"/><path class="st0" d="M560.4 140.4h2.7v2.6h-2.7zM577 140.4h2.7v2.6H577zM593.6 140.4h2.7v2.6h-2.7zM622.4 137.9h12.9v2.6h-12.9zM653.4 137.9h2.6v2.6h-2.6zM661.1 135.3h2.6v2.6h-2.6zM707.4 132.7h7.8v2.6h-7.8zM493.4 135.3h10.2v2.6h-10.2z"/><g><path class="st1" d="M55.8 122h33.6v2.6H55.8zM89.4 124.5H123v2.6H89.4zM122.9 127.1h33.6v2.6h-33.6zM156.5 129.7h33.6v2.6h-33.6z"/><path transform="rotate(-180 240.369 128.406)" class="st1" d="M223.6 127.1h33.6v2.6h-33.6z"/><path transform="rotate(-180 206.81 130.988)" class="st1" d="M190 129.7h33.6v2.6H190z"/><path transform="rotate(-180 307.489 123.243)" class="st1" d="M290.7 122h33.6v2.6h-33.6z"/><path transform="rotate(-180 273.93 125.825)" class="st1" d="M257.1 124.5h33.6v2.6h-33.6z"/><path class="st0" d="M86.8 122h2.6v2.6h-2.6zM73.9 122h2.6v2.6h-2.6zM107.4 124.5h2.6v2.6h-2.6z"/><path class="st1" d="M107.4 127.1h2.6v2.6h-2.6zM50.6 122h2.6v2.6h-2.6zM53.2 124.5h2.6v2.6h-2.6z"/><path class="st1" d="M55.8 124.5h2.6v2.6h-2.6zM61 124.5h2.6v2.6H61zM66.1 124.5h2.6v2.6h-2.6zM73.9 124.5h2.6v2.6h-2.6zM63.5 127.1h2.6v2.6h-2.6zM61 129.7h2.6v2.6H61zM66.1 129.7h2.6v2.6h-2.6zM79 132.3h2.6v2.6H79zM91.9 132.3h2.6v2.6h-2.6zM102.3 134.9h2.6v2.6h-2.6zM115.2 134.9h2.6v2.6h-2.6zM128.1 137.4h2.6v2.6h-2.6zM141 134.9h2.6v2.6H141zM153.8 140h2.6v2.6h-2.6zM164.4 140h2.6v2.6h-2.6zM177.1 140h2.6v2.6h-2.6zM177.1 134.9h2.6v2.6h-2.6zM179.7 137.4h2.6v2.6h-2.6zM179.7 132.3h2.6v2.6h-2.6zM184.9 137.4h2.6v2.6h-2.6zM192 134.9h2.6v2.6H192zM194.8 143h2.6v2.6h-2.6zM208.2 140h2.6v2.6h-2.6zM229.5 137.4h2.6v2.6h-2.6zM244.2 140h2.6v2.6h-2.6zM259.9 137.4h2.6v2.6h-2.6zM76.4 127.1H79v2.6h-2.6zM89.4 129.7H92v2.6h-2.6zM102.3 129.7h2.6v2.6h-2.6zM107.4 129.7h2.6v2.6h-2.6zM120.3 129.7h2.6v2.6h-2.6zM130.7 132.3h2.6v2.6h-2.6zM143.6 132.3h2.6v2.6h-2.6zM159.2 134.9h2.6v2.6h-2.6zM172.1 134.9h2.6v2.6h-2.6z"/><path class="st1" d="M187.4 134.9h2.6v2.6h-2.6zM197.3 134.9h2.6v2.6h-2.6zM205.6 134.9h2.6v2.6h-2.6zM199.9 137.4h2.6v2.6h-2.6zM210.8 134.9h2.6v2.6h-2.6zM215.9 134.9h2.6v2.6h-2.6zM224.1 134.9h2.6v2.6h-2.6z"/><path class="st1" d="M215.9 137.4h2.6v2.6h-2.6zM236.5 132.3h2.6v2.6h-2.6zM246.8 132.3h2.6v2.6h-2.6zM84.2 124.5h2.6v2.6h-2.6zM86.8 127.1h2.6v2.6h-2.6zM91.9 127.1h2.6v2.6h-2.6zM97.1 127.1h2.6v2.6h-2.6zM104.8 127.1h2.6v2.6h-2.6zM115.2 127.1h2.6v2.6h-2.6zM122.9 129.7h2.6v2.6h-2.6zM128.1 129.7h2.6v2.6h-2.6zM133.2 129.7h2.6v2.6h-2.6zM141 129.7h2.6v2.6H141zM151.3 129.7h2.6v2.6h-2.6zM156.5 132.3h2.6v2.6h-2.6zM161.6 132.3h2.6v2.6h-2.6zM166.8 132.3h2.6v2.6h-2.6zM174.5 132.3h2.6v2.6h-2.6zM184.9 132.3h2.6v2.6h-2.6zM203.1 132.3h2.6v2.6h-2.6zM208.2 132.3h2.6v2.6h-2.6zM213.4 132.3h2.6v2.6h-2.6zM221.2 132.3h2.6v2.6h-2.6zM233.9 129.7h2.6v2.6h-2.6zM239.1 129.7h2.6v2.6h-2.6zM244.2 129.7h2.6v2.6h-2.6zM252 129.7h2.6v2.6H252zM259.9 127.1h2.6v2.6h-2.6zM265 127.1h2.6v2.6H265zM270.2 127.1h2.6v2.6h-2.6zM277.9 127.1h2.6v2.6h-2.6zM290.7 124.5h2.6v2.6h-2.6zM295.9 124.5h2.6v2.6h-2.6zM301 124.5h2.6v2.6H301zM308.8 124.5h2.6v2.6h-2.6zM86.8 124.5h2.6v2.6h-2.6zM37.7 119h2.6v2.6h-2.6zM45.5 125h2.6v2.6h-2.6zM35.1 121.5h2.6v2.6h-2.6zM27.4 119H30v2.6h-2.6z"/><path class="st1" d="M24.8 119h2.6v2.6h-2.6zM11.9 116.4h2.6v2.6h-2.6zM22.2 121.5h2.6v2.6h-2.6zM14.5 119h2.6v2.6h-2.6zM138.4 124.5h2.6v2.6h-2.6z"/><path class="st0" d="M133 127.1h5.4v2.6H133zM148.4 127.1h5.4v2.6h-5.4zM172.7 129.7h5.4v2.6h-5.4z"/><path class="st1" d="M161.5 124.5h5.4v2.6h-5.4zM192 132.3h5.4v2.6H192zM226.7 132.3h5.4v2.6h-5.4zM257.1 129.7h2.7v2.6h-2.7z"/><path class="st0" d="M161.5 129.7h2.7v2.6h-2.7zM178.1 129.7h2.7v2.6h-2.7zM194.7 129.7h2.7v2.6h-2.7zM223.6 127.1h12.9v2.6h-12.9zM254.6 127.1h2.6v2.6h-2.6zM262.3 124.5h2.6v2.6h-2.6zM308.5 122h7.8v2.6h-7.8zM94.5 124.5h10.2v2.6H94.5z"/><path class="st1" d="M329.4 122h2.6v2.6h-2.6z"/><path class="st1" d="M326.9 122h2.6v2.6h-2.6zM334.6 124.5h2.6v2.6h-2.6zM339.8 122h2.6v2.6h-2.6z"/><path class="st1" d="M337.2 122h2.6v2.6h-2.6zM344.9 122h2.6v2.6h-2.6zM350.1 119.4h2.6v2.6h-2.6zM355.2 124.5h2.6v2.6h-2.6zM360.3 122h2.6v2.6h-2.6z"/><path class="st1" d="M362.8 122h2.6v2.6h-2.6z"/><path class="st1" d="M365.4 122h2.6v2.6h-2.6zM368 122h2.6v2.6H368zM370.6 122h2.6v2.6h-2.6zM383.5 124.5h2.6v2.6h-2.6zM386.1 124.5h2.6v2.6h-2.6zM391.2 127.1h2.6v2.6h-2.6zM396.4 129.7h2.6v2.6h-2.6zM396.4 124.5h2.6v2.6h-2.6zM409.3 124.5h2.6v2.6h-2.6zM411.9 129.7h2.6v2.6h-2.6zM422.2 127.1h2.6v2.6h-2.6zM425 129.9h2.6v2.6H425zM401.6 127.1h2.6v2.6h-2.6zM406.7 127.1h2.6v2.6h-2.6zM393.8 127.1h2.6v2.6h-2.6z"/><path class="st1" d="M388.7 124.5h2.6v2.6h-2.6zM378.3 124.5h2.6v2.6h-2.6zM375.7 122h2.6v2.6h-2.6z"/></g><g><path class="st1" d="M362.1 84.3h33.6v2.6h-33.6zM395.7 86.9h33.6v2.6h-33.6zM429.3 89.4h33.6V92h-33.6zM462.8 92h33.6v2.6h-33.6z"/><path class="st0" d="M393.1 84.3h2.6v2.6h-2.6zM380.2 84.3h2.6v2.6h-2.6zM413.8 86.9h2.6v2.6h-2.6z"/><path class="st1" d="M413.8 89.4h2.6V92h-2.6zM357 84.3h2.6v2.6H357zM359.5 86.9h2.6v2.6h-2.6zM362.1 86.9h2.6v2.6h-2.6zM367.3 86.9h2.6v2.6h-2.6zM372.5 86.9h2.6v2.6h-2.6zM380.2 86.9h2.6v2.6h-2.6z"/><path class="st1" d="M369.9 89.4h2.6V92h-2.6zM367.3 92h2.6v2.6h-2.6zM372.5 92h2.6v2.6h-2.6zM385.4 94.6h2.6v2.6h-2.6zM398.3 94.6h2.6v2.6h-2.6zM408.6 97.2h2.6v2.6h-2.6zM421.5 97.2h2.6v2.6h-2.6zM434.4 99.8h2.6v2.6h-2.6zM447.3 97.2h2.6v2.6h-2.6zM460.2 102.4h2.6v2.6h-2.6zM470.7 102.4h2.6v2.6h-2.6zM483.5 102.4h2.6v2.6h-2.6zM483.5 97.2h2.6v2.6h-2.6zM486 99.8h2.6v2.6H486zM486 94.6h2.6v2.6H486zM491.2 99.8h2.6v2.6h-2.6zM382.8 89.4h2.6V92h-2.6zM395.7 92h2.6v2.6h-2.6zM408.6 92h2.6v2.6h-2.6zM413.8 92h2.6v2.6h-2.6zM426.7 92h2.6v2.6h-2.6zM437 94.6h2.6v2.6H437zM449.9 94.6h2.6v2.6h-2.6zM465.5 97.2h2.6v2.6h-2.6zM478.4 97.2h2.6v2.6h-2.6zM390.5 86.9h2.6v2.6h-2.6zM393.1 89.4h2.6V92h-2.6zM398.3 89.4h2.6V92h-2.6zM403.4 89.4h2.6V92h-2.6zM411.2 89.4h2.6V92h-2.6zM421.5 89.4h2.6V92h-2.6zM429.3 92h2.6v2.6h-2.6zM434.4 92h2.6v2.6h-2.6zM439.6 92h2.6v2.6h-2.6zM447.3 92h2.6v2.6h-2.6zM457.6 92h2.6v2.6h-2.6zM462.8 94.6h2.6v2.6h-2.6zM468 94.6h2.6v2.6H468zM473.1 94.6h2.6v2.6h-2.6zM480.9 94.6h2.6v2.6h-2.6zM491.2 94.6h2.6v2.6h-2.6zM496.4 94.6h2.6v2.6h-2.6z"/><path class="st1" d="M498.9 92.1h2.6v2.6h-2.6z"/><path class="st1" d="M501.4 92.1h2.6v2.6h-2.6zM504 94.6h2.6v2.6H504zM509.1 92h2.6v2.6h-2.6zM514.3 89.5h2.6v2.6h-2.6zM516.9 92h2.6v2.6h-2.6zM522 94.6h2.6v2.6H522zM529.8 94.6h2.6v2.6h-2.6zM537.6 94.6h2.6v2.6h-2.6zM545.4 94.6h2.6v2.6h-2.6zM553.1 94.6h2.6v2.6h-2.6zM519.4 97.2h2.6v2.6h-2.6zM532.4 92h2.6v2.6h-2.6z"/><path class="st1" d="M527.2 94.6h2.6v2.6h-2.6zM501.4 97.2h2.6v2.6h-2.6zM509.1 97.2h2.6v2.6h-2.6zM393.1 86.9h2.6v2.6h-2.6zM344 81.3h2.6v2.6H344zM444.7 86.9h2.6v2.6h-2.6z"/><path class="st0" d="M439.3 89.4h5.4V92h-5.4zM454.8 89.4h5.4V92h-5.4zM479.1 92h5.4v2.6h-5.4z"/><path class="st1" d="M467.9 86.9h5.4v2.6h-5.4z"/><path class="st0" d="M467.9 92h2.7v2.6h-2.7zM483.5 92h2.7v2.6h-2.7z"/><g><path transform="rotate(-180 275.65 90.736)" class="st1" d="M258.9 89.4h33.6V92h-33.6z"/><path transform="rotate(-180 242.09 93.318)" class="st1" d="M225.3 92h33.6v2.6h-33.6z"/></g><g><path transform="rotate(-180 342.77 85.573)" class="st1" d="M326 84.3h33.6v2.6H326z"/><path transform="rotate(-180 309.21 88.155)" class="st1" d="M292.4 86.9H326v2.6h-33.6z"/></g><path class="st1" d="M264.8 99.8h2.6v2.6h-2.6zM279.5 102.4h2.6v2.6h-2.6zM295.1 99.8h2.6v2.6h-2.6zM251.2 97.2h2.6v2.6h-2.6zM259.4 97.2h2.6v2.6h-2.6zM251.2 99.8h2.6v2.6h-2.6zM271.8 94.6h2.6v2.6h-2.6zM282 94.6h2.6v2.6H282z"/><g><path class="st1" d="M238.4 94.6h2.6v2.6h-2.6zM243.5 94.6h2.6v2.6h-2.6zM248.7 94.6h2.6v2.6h-2.6zM256.4 94.6h2.6v2.6h-2.6z"/></g><g><path class="st1" d="M269.2 92h2.6v2.6h-2.6zM274.4 92h2.6v2.6h-2.6zM279.5 92h2.6v2.6h-2.6zM287.3 92h2.6v2.6h-2.6z"/></g><g><path class="st1" d="M295.1 89.4h2.6V92h-2.6zM300.3 89.4h2.6V92h-2.6zM305.5 89.4h2.6V92h-2.6zM313.2 89.4h2.6V92h-2.6z"/></g><g><path class="st1" d="M326 86.9h2.6v2.6H326zM331.2 86.9h2.6v2.6h-2.6zM336.3 86.9h2.6v2.6h-2.6zM344.1 86.9h2.6v2.6h-2.6z"/></g><path class="st1" d="M262 94.6h5.4v2.6H262zM292.4 92h2.7v2.6h-2.7z"/><path class="st0" d="M258.9 89.4h12.9V92h-12.9zM289.8 89.4h2.6V92h-2.6zM297.6 86.9h2.6v2.6h-2.6zM343.8 84.3h7.8v2.6h-7.8zM400.9 86.9h10.2v2.6h-10.2z"/></g><g><path class="st1" d="M829.1 157.3h33.6v2.6h-33.6zM862.7 159.9h33.6v2.6h-33.6z"/><path class="st1" d="M896.3 162.4h33.6v2.6h-33.6zM929.8 165h33.6v2.6h-33.6z"/><path class="st0" d="M860.1 157.3h2.6v2.6h-2.6zM847.2 157.3h2.6v2.6h-2.6zM880.8 159.9h2.6v2.6h-2.6z"/><path class="st1" d="M880.8 162.4h2.6v2.6h-2.6zM824 157.3h2.6v2.6H824zM826.5 159.9h2.6v2.6h-2.6zM829.1 159.9h2.6v2.6h-2.6zM834.3 159.9h2.6v2.6h-2.6zM839.5 159.9h2.6v2.6h-2.6zM847.2 159.9h2.6v2.6h-2.6zM836.9 162.4h2.6v2.6h-2.6zM834.3 165h2.6v2.6h-2.6zM839.5 165h2.6v2.6h-2.6zM852.4 167.6h2.6v2.6h-2.6zM865.3 167.6h2.6v2.6h-2.6zM875.6 170.2h2.6v2.6h-2.6zM888.5 170.2h2.6v2.6h-2.6zM901.4 172.8h2.6v2.6h-2.6zM914.3 170.2h2.6v2.6h-2.6zM927.2 175.4h2.6v2.6h-2.6zM937.7 175.4h2.6v2.6h-2.6zM950.5 175.4h2.6v2.6h-2.6zM950.5 170.2h2.6v2.6h-2.6zM953 172.8h2.6v2.6H953zM953 167.6h2.6v2.6H953zM958.2 172.8h2.6v2.6h-2.6z"/><path class="st1" d="M849.8 162.4h2.6v2.6h-2.6zM862.7 165h2.6v2.6h-2.6zM875.6 165h2.6v2.6h-2.6zM880.8 165h2.6v2.6h-2.6zM893.7 165h2.6v2.6h-2.6zM904 167.6h2.6v2.6H904zM916.9 167.6h2.6v2.6h-2.6zM932.5 170.2h2.6v2.6h-2.6zM945.4 170.2h2.6v2.6h-2.6zM857.5 159.9h2.6v2.6h-2.6zM860.1 162.4h2.6v2.6h-2.6zM865.3 162.4h2.6v2.6h-2.6zM870.4 162.4h2.6v2.6h-2.6zM878.2 162.4h2.6v2.6h-2.6zM888.5 162.4h2.6v2.6h-2.6z"/><path class="st1" d="M896.3 165h2.6v2.6h-2.6zM901.4 165h2.6v2.6h-2.6zM906.6 165h2.6v2.6h-2.6zM914.3 165h2.6v2.6h-2.6zM924.6 165h2.6v2.6h-2.6zM929.8 167.6h2.6v2.6h-2.6zM935 167.6h2.6v2.6H935zM940.1 167.6h2.6v2.6h-2.6zM947.9 167.6h2.6v2.6h-2.6zM958.2 167.6h2.6v2.6h-2.6zM963.4 167.6h2.6v2.6h-2.6z"/><path class="st1" d="M965.9 165.1h2.6v2.6h-2.6z"/><path class="st1" d="M968.4 165.1h2.6v2.6h-2.6zM971 167.6h2.6v2.6H971zM976.1 165h2.6v2.6h-2.6zM981.3 162.5h2.6v2.6h-2.6zM983.9 165h2.6v2.6h-2.6zM989 167.6h2.6v2.6H989zM996.8 167.6h2.6v2.6h-2.6zM1004.6 167.6h2.6v2.6h-2.6zM1012.4 167.6h2.6v2.6h-2.6zM1020.1 167.6h2.6v2.6h-2.6zM986.4 170.2h2.6v2.6h-2.6zM999.4 165h2.6v2.6h-2.6z"/><path class="st1" d="M994.2 167.6h2.6v2.6h-2.6zM968.4 170.2h2.6v2.6h-2.6zM976.1 170.2h2.6v2.6h-2.6zM860.1 159.9h2.6v2.6h-2.6zM811 154.3h2.6v2.6H811zM911.7 159.9h2.6v2.6h-2.6z"/><path class="st0" d="M906.3 162.4h5.4v2.6h-5.4zM921.8 162.4h5.4v2.6h-5.4zM946.1 165h5.4v2.6h-5.4z"/><path class="st1" d="M934.9 159.9h5.4v2.6h-5.4z"/><path class="st0" d="M934.9 165h2.7v2.6h-2.7zM950.5 165h2.7v2.6h-2.7z"/><g><path transform="rotate(-180 742.65 163.736)" class="st1" d="M725.9 162.4h33.6v2.6h-33.6z"/><path transform="rotate(-180 709.09 166.318)" class="st1" d="M692.3 165h33.6v2.6h-33.6z"/></g><g><path transform="rotate(-180 809.77 158.573)" class="st1" d="M793 157.3h33.6v2.6H793z"/><path transform="rotate(-180 776.21 161.155)" class="st1" d="M759.4 159.9H793v2.6h-33.6z"/></g><path class="st1" d="M731.8 172.8h2.6v2.6h-2.6zM746.5 175.4h2.6v2.6h-2.6zM762.1 172.8h2.6v2.6h-2.6zM718.2 170.2h2.6v2.6h-2.6zM726.4 170.2h2.6v2.6h-2.6zM718.2 172.8h2.6v2.6h-2.6zM738.8 167.6h2.6v2.6h-2.6zM749 167.6h2.6v2.6H749z"/><g><path class="st1" d="M705.4 167.6h2.6v2.6h-2.6zM710.5 167.6h2.6v2.6h-2.6zM715.7 167.6h2.6v2.6h-2.6zM723.4 167.6h2.6v2.6h-2.6z"/></g><g><path class="st1" d="M736.2 165h2.6v2.6h-2.6zM741.4 165h2.6v2.6h-2.6zM746.5 165h2.6v2.6h-2.6zM754.3 165h2.6v2.6h-2.6z"/></g><g><path class="st1" d="M762.1 162.4h2.6v2.6h-2.6zM767.3 162.4h2.6v2.6h-2.6zM772.5 162.4h2.6v2.6h-2.6zM780.2 162.4h2.6v2.6h-2.6z"/></g><g><path class="st1" d="M793 159.9h2.6v2.6H793zM798.2 159.9h2.6v2.6h-2.6zM803.3 159.9h2.6v2.6h-2.6zM811.1 159.9h2.6v2.6h-2.6z"/></g><path class="st1" d="M729 167.6h5.4v2.6H729zM759.4 165h2.7v2.6h-2.7z"/><path class="st0" d="M725.9 162.4h12.9v2.6h-12.9zM756.8 162.4h2.6v2.6h-2.6zM764.6 159.9h2.6v2.6h-2.6zM810.8 157.3h7.8v2.6h-7.8zM867.9 159.9h10.2v2.6h-10.2z"/></g><g><path class="st1" d="M10.6 67.5h33.6v2.6H10.6zM44.2 70.1h33.6v2.6H44.2z"/><path class="st0" d="M41.6 67.5h2.6v2.6h-2.6zM28.7 67.5h2.6v2.6h-2.6zM62.2 70.1h2.6v2.6h-2.6z"/><path class="st1" d="M62.2 72.7h2.6v2.6h-2.6zM5.4 67.5H8v2.6H5.4zM8 70.1h2.6v2.6H8zM10.6 70.1h2.6v2.6h-2.6zM15.8 70.1h2.6v2.6h-2.6zM20.9 70.1h2.6v2.6h-2.6zM28.7 70.1h2.6v2.6h-2.6zM18.4 72.7H21v2.6h-2.6z"/><path class="st1" d="M15.8 75.2h2.6v2.6h-2.6zM20.9 75.2h2.6v2.6h-2.6zM33.8 77.8h2.6v2.6h-2.6zM46.8 77.8h2.6v2.6h-2.6zM57.1 80.4h2.6V83h-2.6zM70 80.4h2.6V83H70zM82.9 83h2.6v2.6h-2.6zM95.8 80.4h2.6V83h-2.6zM134.5 77.8h2.6v2.6h-2.6zM31.3 72.7h2.6v2.6h-2.6zM44.2 75.2h2.6v2.6h-2.6zM57.1 75.2h2.6v2.6h-2.6zM62.2 75.2h2.6v2.6h-2.6zM75.1 75.2h2.6v2.6h-2.6zM85.5 77.8h2.6v2.6h-2.6zM98.4 77.8h2.6v2.6h-2.6zM114 80.4h2.6V83H114zM126.9 80.4h2.6V83h-2.6zM39 70.1h2.6v2.6H39zM41.6 72.7h2.6v2.6h-2.6z"/><path class="st1" d="M46.8 72.7h2.6v2.6h-2.6zM51.9 72.7h2.6v2.6h-2.6zM59.7 72.7h2.6v2.6h-2.6zM70 72.7h2.6v2.6H70zM77.7 75.2h2.6v2.6h-2.6zM82.9 75.2h2.6v2.6h-2.6zM88.1 75.2h2.6v2.6h-2.6zM95.8 75.2h2.6v2.6h-2.6zM106.1 75.2h2.6v2.6h-2.6zM111.3 77.8h2.6v2.6h-2.6zM116.5 77.8h2.6v2.6h-2.6zM121.6 77.8h2.6v2.6h-2.6zM129.4 77.8h2.6v2.6h-2.6zM139.7 77.8h2.6v2.6h-2.6zM41.6 70.1h2.6v2.6h-2.6zM93.2 70.1h2.6v2.6h-2.6z"/><path class="st0" d="M87.8 72.7h5.4v2.6h-5.4zM103.2 72.7h5.4v2.6h-5.4zM127.5 75.2h5.4v2.6h-5.4z"/><path class="st1" d="M116.3 70.1h5.4v2.6h-5.4z"/><path class="st0" d="M116.3 75.2h2.7v2.6h-2.7zM132.9 75.2h2.7v2.6h-2.7z"/><g><path transform="rotate(-180 4.015 68.794)" class="st1" d="M0 67.5h8v2.6H0z"/></g><path class="st0" d="M49.3 70.1h10.2v2.6H49.3z"/></g><g><path class="st1" d="M980.6 57.5h33.6v2.6h-33.6zM1014.1 60.1h33.6v2.6h-33.6zM1047.7 62.7h28.3v2.6h-28.3z"/><path class="st0" d="M1011.5 57.5h2.6v2.6h-2.6zM998.6 57.5h2.6v2.6h-2.6zM1032.2 60.1h2.6v2.6h-2.6z"/><path class="st1" d="M1032.2 62.7h2.6v2.6h-2.6zM975.4 57.5h2.6v2.6h-2.6zM978 60.1h2.6v2.6H978zM980.6 60.1h2.6v2.6h-2.6zM985.7 60.1h2.6v2.6h-2.6zM990.9 60.1h2.6v2.6h-2.6zM998.6 60.1h2.6v2.6h-2.6zM988.3 62.7h2.6v2.6h-2.6z"/><path class="st1" d="M985.7 65.2h2.6v2.6h-2.6zM990.9 65.2h2.6v2.6h-2.6zM1003.8 67.8h2.6v2.6h-2.6zM1016.7 67.8h2.6v2.6h-2.6zM1027 70.4h2.6V73h-2.6zM1039.9 70.4h2.6V73h-2.6zM1052.8 73h2.6v2.6h-2.6zM1065.8 70.4h2.6V73h-2.6zM1001.2 62.7h2.6v2.6h-2.6zM1014.1 65.2h2.6v2.6h-2.6zM1027 65.2h2.6v2.6h-2.6zM1032.2 65.2h2.6v2.6h-2.6zM1045.1 65.2h2.6v2.6h-2.6zM1055.4 67.8h2.6v2.6h-2.6zM1068.3 67.8h2.6v2.6h-2.6zM1009 60.1h2.6v2.6h-2.6zM1011.5 62.7h2.6v2.6h-2.6zM1016.7 62.7h2.6v2.6h-2.6zM1021.9 62.7h2.6v2.6h-2.6zM1029.6 62.7h2.6v2.6h-2.6zM1039.9 62.7h2.6v2.6h-2.6zM1047.7 65.2h2.6v2.6h-2.6zM1052.8 65.2h2.6v2.6h-2.6zM1058 65.2h2.6v2.6h-2.6zM1065.8 65.2h2.6v2.6h-2.6zM1076.1 65.2h2.6v2.6h-2.6z"/><path class="st1" d="M1011.5 60.1h2.6v2.6h-2.6zM962.5 54.5h2.6v2.6h-2.6zM970.2 60.5h2.6v2.6h-2.6zM1063.2 60.1h2.6v2.6h-2.6z"/><path class="st0" d="M1057.8 62.7h5.4v2.6h-5.4zM1073.2 62.7h5.4v2.6h-5.4zM1019.3 60.1h10.2v2.6h-10.2z"/></g><g><path class="st1" d="M958 113.1h33.6v2.6H958zM991.6 115.7h33.6v2.6h-33.6zM1025.1 118.3h33.6v2.6h-33.6z"/><path class="st0" d="M989 113.1h2.6v2.6H989zM976.1 113.1h2.6v2.6h-2.6zM1009.7 115.7h2.6v2.6h-2.6z"/><path class="st1" d="M1009.7 118.3h2.6v2.6h-2.6zM952.9 113.1h2.6v2.6h-2.6zM955.4 115.7h2.6v2.6h-2.6zM958 115.7h2.6v2.6H958zM963.2 115.7h2.6v2.6h-2.6zM968.3 115.7h2.6v2.6h-2.6zM976.1 115.7h2.6v2.6h-2.6zM965.8 118.3h2.6v2.6h-2.6z"/><path class="st1" d="M963.2 120.8h2.6v2.6h-2.6zM968.3 120.8h2.6v2.6h-2.6zM981.3 123.4h2.6v2.6h-2.6zM994.2 123.4h2.6v2.6h-2.6zM1004.5 126h2.6v2.6h-2.6zM1017.4 126h2.6v2.6h-2.6zM1030.3 128.6h2.6v2.6h-2.6zM1043.2 126h2.6v2.6h-2.6zM1056.1 131.2h2.6v2.6h-2.6zM1066.6 131.2h2.6v2.6h-2.6zM978.7 118.3h2.6v2.6h-2.6zM991.6 120.8h2.6v2.6h-2.6zM1004.5 120.8h2.6v2.6h-2.6zM1009.7 120.8h2.6v2.6h-2.6zM1022.6 120.8h2.6v2.6h-2.6zM1032.9 123.4h2.6v2.6h-2.6zM1045.8 123.4h2.6v2.6h-2.6zM1061.4 126h2.6v2.6h-2.6zM1074.3 126h2.6v2.6h-2.6zM986.4 115.7h2.6v2.6h-2.6zM989 118.3h2.6v2.6H989zM994.2 118.3h2.6v2.6h-2.6zM999.3 118.3h2.6v2.6h-2.6zM1007.1 118.3h2.6v2.6h-2.6zM1017.4 118.3h2.6v2.6h-2.6z"/><path class="st1" d="M1025.1 120.8h2.6v2.6h-2.6zM1030.3 120.8h2.6v2.6h-2.6zM1035.5 120.8h2.6v2.6h-2.6zM1043.2 120.8h2.6v2.6h-2.6zM1053.5 120.8h2.6v2.6h-2.6zM1058.7 123.4h2.6v2.6h-2.6zM1063.9 123.4h2.6v2.6h-2.6zM1069 123.4h2.6v2.6h-2.6zM1076.8 123.4h2.6v2.6h-2.6zM989 115.7h2.6v2.6H989zM939.9 110.1h2.6v2.6h-2.6zM1040.6 115.7h2.6v2.6h-2.6z"/><path class="st0" d="M1035.2 118.3h5.4v2.6h-5.4zM1050.6 118.3h5.4v2.6h-5.4z"/><path class="st1" d="M1063.8 115.7h5.4v2.6h-5.4z"/><path class="st0" d="M1063.8 120.8h2.7v2.6h-2.7z"/><path transform="rotate(-180 871.539 119.551)" class="st1" d="M854.8 118.3h33.6v2.6h-33.6z"/><path transform="rotate(-180 837.98 122.133)" class="st1" d="M821.2 120.8h33.6v2.6h-33.6z"/><path transform="rotate(-180 938.66 114.388)" class="st1" d="M921.9 113.1h33.6v2.6h-33.6z"/><path transform="rotate(-180 905.1 116.97)" class="st1" d="M888.3 115.7h33.6v2.6h-33.6z"/><path class="st1" d="M860.7 128.6h2.6v2.6h-2.6zM875.4 131.2h2.6v2.6h-2.6zM891 128.6h2.6v2.6H891zM847.1 126h2.6v2.6h-2.6zM855.3 126h2.6v2.6h-2.6zM847.1 128.6h2.6v2.6h-2.6zM867.7 123.4h2.6v2.6h-2.6zM877.9 123.4h2.6v2.6h-2.6z"/><g><path class="st1" d="M834.3 123.4h2.6v2.6h-2.6zM839.4 123.4h2.6v2.6h-2.6zM844.6 123.4h2.6v2.6h-2.6zM852.3 123.4h2.6v2.6h-2.6z"/></g><g><path class="st1" d="M865.1 120.8h2.6v2.6h-2.6zM870.2 120.8h2.6v2.6h-2.6zM875.4 120.8h2.6v2.6h-2.6zM883.2 120.8h2.6v2.6h-2.6z"/></g><g><path class="st1" d="M891 118.3h2.6v2.6H891zM896.2 118.3h2.6v2.6h-2.6zM901.4 118.3h2.6v2.6h-2.6zM909.1 118.3h2.6v2.6h-2.6z"/></g><g><path class="st1" d="M921.9 115.7h2.6v2.6h-2.6zM927 115.7h2.6v2.6H927zM932.2 115.7h2.6v2.6h-2.6zM939.9 115.7h2.6v2.6h-2.6z"/></g><path class="st1" d="M857.9 123.4h5.4v2.6h-5.4zM888.3 120.8h2.7v2.6h-2.7z"/><path class="st0" d="M854.8 118.3h12.9v2.6h-12.9zM885.7 118.3h2.6v2.6h-2.6zM893.5 115.7h2.6v2.6h-2.6zM939.7 113.1h7.8v2.6h-7.8zM996.7 115.7h10.2v2.6h-10.2z"/></g><g><path transform="rotate(-180 845.877 88.793)" class="st1" d="M829.1 87.5h33.6v2.6h-33.6z"/><path transform="rotate(-180 812.317 91.374)" class="st1" d="M795.5 90.1h33.6v2.6h-33.6z"/><path transform="rotate(-180 830.388 88.793)" class="st0" d="M829.1 87.5h2.6v2.6h-2.6z"/><path transform="rotate(-180 843.295 88.793)" class="st0" d="M842 87.5h2.6v2.6H842z"/><path transform="rotate(-180 809.736 91.374)" class="st0" d="M808.4 90.1h2.6v2.6h-2.6z"/><path transform="rotate(-180 809.736 93.956)" class="st1" d="M808.4 92.7h2.6v2.6h-2.6z"/><path transform="rotate(-180 866.528 88.793)" class="st1" d="M865.2 87.5h2.6v2.6h-2.6z"/><path transform="rotate(-180 863.947 91.374)" class="st1" d="M862.7 90.1h2.6v2.6h-2.6z"/><path transform="rotate(-180 861.365 91.374)" class="st1" d="M860.1 90.1h2.6v2.6h-2.6z"/><path transform="rotate(-180 856.202 91.374)" class="st1" d="M854.9 90.1h2.6v2.6h-2.6z"/><path transform="rotate(-180 851.04 91.374)" class="st1" d="M849.7 90.1h2.6v2.6h-2.6z"/><path transform="rotate(-180 843.295 91.374)" class="st1" d="M842 90.1h2.6v2.6H842z"/><path transform="rotate(-180 853.62 93.956)" class="st1" d="M852.3 92.7h2.6v2.6h-2.6z"/><path transform="rotate(-180 856.202 96.537)" class="st1" d="M854.9 95.2h2.6v2.6h-2.6z"/><path transform="rotate(-180 851.04 96.537)" class="st1" d="M849.7 95.2h2.6v2.6h-2.6z"/><path transform="rotate(-180 838.132 99.119)" class="st1" d="M836.8 97.8h2.6v2.6h-2.6z"/><path transform="rotate(-180 825.225 99.119)" class="st1" d="M823.9 97.8h2.6v2.6h-2.6z"/><path transform="rotate(-180 814.899 101.7)" class="st1" d="M813.6 100.4h2.6v2.6h-2.6z"/><path transform="rotate(-180 801.991 101.7)" class="st1" d="M800.7 100.4h2.6v2.6h-2.6z"/><path transform="rotate(-180 789.084 104.282)" class="st1" d="M787.8 103h2.6v2.6h-2.6z"/><path transform="rotate(-180 776.176 101.7)" class="st1" d="M774.9 100.4h2.6v2.6h-2.6z"/><path transform="rotate(-180 737.454 99.119)" class="st1" d="M736.2 97.8h2.6v2.6h-2.6z"/><path transform="rotate(-180 840.713 93.956)" class="st1" d="M839.4 92.7h2.6v2.6h-2.6z"/><path transform="rotate(-180 827.806 96.537)" class="st1" d="M826.5 95.2h2.6v2.6h-2.6z"/><path transform="rotate(-180 814.899 96.537)" class="st1" d="M813.6 95.2h2.6v2.6h-2.6z"/><path transform="rotate(-180 809.736 96.537)" class="st1" d="M808.4 95.2h2.6v2.6h-2.6z"/><path transform="rotate(-180 796.828 96.537)" class="st1" d="M795.5 95.2h2.6v2.6h-2.6z"/><path transform="rotate(-180 786.502 99.119)" class="st1" d="M785.2 97.8h2.6v2.6h-2.6z"/><path transform="rotate(-180 773.595 99.119)" class="st1" d="M772.3 97.8h2.6v2.6h-2.6z"/><path transform="rotate(-180 757.965 101.7)" class="st1" d="M756.7 100.4h2.6v2.6h-2.6z"/><path transform="rotate(-180 745.057 101.7)" class="st1" d="M743.8 100.4h2.6v2.6h-2.6z"/><path transform="rotate(-180 832.97 91.374)" class="st1" d="M831.7 90.1h2.6v2.6h-2.6z"/><path transform="rotate(-180 830.388 93.956)" class="st1" d="M829.1 92.7h2.6v2.6h-2.6z"/><path transform="rotate(-180 825.225 93.956)" class="st1" d="M823.9 92.7h2.6v2.6h-2.6z"/><path transform="rotate(-180 820.062 93.956)" class="st1" d="M818.8 92.7h2.6v2.6h-2.6z"/><path transform="rotate(-180 812.317 93.956)" class="st1" d="M811 92.7h2.6v2.6H811z"/><path transform="rotate(-180 801.991 93.956)" class="st1" d="M800.7 92.7h2.6v2.6h-2.6z"/><path transform="rotate(-180 794.247 96.537)" class="st1" d="M793 95.2h2.6v2.6H793z"/><path transform="rotate(-180 789.084 96.537)" class="st1" d="M787.8 95.2h2.6v2.6h-2.6z"/><path transform="rotate(-180 783.92 96.537)" class="st1" d="M782.6 95.2h2.6v2.6h-2.6z"/><path transform="rotate(-180 776.176 96.537)" class="st1" d="M774.9 95.2h2.6v2.6h-2.6z"/><path transform="rotate(-180 765.85 96.537)" class="st1" d="M764.6 95.2h2.6v2.6h-2.6z"/><path transform="rotate(-180 760.687 99.119)" class="st1" d="M759.4 97.8h2.6v2.6h-2.6z"/><path transform="rotate(-180 755.524 99.119)" class="st1" d="M754.2 97.8h2.6v2.6h-2.6z"/><path transform="rotate(-180 750.361 99.119)" class="st1" d="M749.1 97.8h2.6v2.6h-2.6z"/><path transform="rotate(-180 742.617 99.119)" class="st1" d="M741.3 97.8h2.6v2.6h-2.6z"/><path transform="rotate(-180 732.29 99.119)" class="st1" d="M731 97.8h2.6v2.6H731z"/><path transform="rotate(-180 830.388 91.374)" class="st1" d="M829.1 90.1h2.6v2.6h-2.6z"/><path transform="rotate(-180 778.758 91.374)" class="st1" d="M777.5 90.1h2.6v2.6h-2.6z"/><path transform="rotate(-180 782.755 93.956)" class="st0" d="M780 92.7h5.4v2.6H780z"/><path transform="rotate(-180 767.33 93.956)" class="st0" d="M764.6 92.7h5.4v2.6h-5.4z"/><path transform="rotate(-180 743.03 96.538)" class="st0" d="M740.3 95.2h5.4v2.6h-5.4z"/><path transform="rotate(-180 754.218 91.374)" class="st1" d="M751.5 90.1h5.4v2.6h-5.4z"/><path transform="rotate(-180 755.571 96.538)" class="st0" d="M754.2 95.2h2.7v2.6h-2.7z"/><path transform="rotate(-180 738.97 96.538)" class="st0" d="M737.6 95.2h2.7v2.6h-2.7z"/><g><path class="st1" d="M865.2 87.5h8v2.6h-8z"/></g><path transform="rotate(-180 818.82 91.374)" class="st0" d="M813.7 90.1h10.2v2.6h-10.2z"/></g><g><path class="st1" d="M94.6 168.5h33.6v2.6H94.6zM128.1 171.1h33.6v2.6h-33.6zM161.7 173.7H190v2.6h-28.3z"/><path class="st0" d="M125.5 168.5h2.6v2.6h-2.6zM112.6 168.5h2.6v2.6h-2.6zM146.2 171.1h2.6v2.6h-2.6z"/><path class="st1" d="M146.2 173.7h2.6v2.6h-2.6zM89.4 168.5H92v2.6h-2.6zM92 171.1h2.6v2.6H92zM94.6 171.1h2.6v2.6h-2.6zM99.7 171.1h2.6v2.6h-2.6zM104.9 171.1h2.6v2.6h-2.6zM112.6 171.1h2.6v2.6h-2.6zM102.3 173.7h2.6v2.6h-2.6zM99.7 176.2h2.6v2.6h-2.6zM104.9 176.2h2.6v2.6h-2.6zM117.8 178.8h2.6v2.6h-2.6zM130.7 178.8h2.6v2.6h-2.6zM141 181.4h2.6v2.6H141zM153.9 181.4h2.6v2.6h-2.6zM166.8 184h2.6v2.6h-2.6zM179.8 181.4h2.6v2.6h-2.6zM115.2 173.7h2.6v2.6h-2.6zM128.1 176.2h2.6v2.6h-2.6zM141 176.2h2.6v2.6H141z"/><path class="st1" d="M146.2 176.2h2.6v2.6h-2.6zM159.1 176.2h2.6v2.6h-2.6zM169.4 178.8h2.6v2.6h-2.6zM182.3 178.8h2.6v2.6h-2.6zM123 171.1h2.6v2.6H123zM125.5 173.7h2.6v2.6h-2.6zM130.7 173.7h2.6v2.6h-2.6zM135.9 173.7h2.6v2.6h-2.6zM143.6 173.7h2.6v2.6h-2.6zM153.9 173.7h2.6v2.6h-2.6zM161.7 176.2h2.6v2.6h-2.6zM166.8 176.2h2.6v2.6h-2.6zM172 176.2h2.6v2.6H172zM179.8 176.2h2.6v2.6h-2.6zM190.1 176.2h2.6v2.6h-2.6z"/><path class="st1" d="M125.5 171.1h2.6v2.6h-2.6zM76.5 165.5h2.6v2.6h-2.6zM84.2 171.5h2.6v2.6h-2.6zM177.2 171.1h2.6v2.6h-2.6z"/><path class="st0" d="M171.8 173.7h5.4v2.6h-5.4zM187.2 173.7h5.4v2.6h-5.4zM133.3 171.1h10.2v2.6h-10.2z"/></g><g><path class="st1" d="M426 182.1h33.6v2.6H426zM459.6 184.7h33.6v2.6h-33.6zM493.1 187.3h33.6v2.6h-33.6z"/><path class="st0" d="M457 182.1h2.6v2.6H457zM444.1 182.1h2.6v2.6h-2.6zM477.7 184.7h2.6v2.6h-2.6z"/><path class="st1" d="M477.7 187.3h2.6v2.6h-2.6zM420.9 182.1h2.6v2.6h-2.6zM423.4 184.7h2.6v2.6h-2.6zM426 184.7h2.6v2.6H426zM431.2 184.7h2.6v2.6h-2.6zM436.3 184.7h2.6v2.6h-2.6zM444.1 184.7h2.6v2.6h-2.6zM433.8 187.3h2.6v2.6h-2.6zM431.2 189.8h2.6v2.6h-2.6z"/><path class="st1" d="M436.3 189.8h2.6v2.6h-2.6zM449.3 192.4h2.6v2.6h-2.6zM462.2 192.4h2.6v2.6h-2.6zM472.5 195h2.6v2.6h-2.6zM485.4 195h2.6v2.6h-2.6zM498.3 197.6h2.6v2.6h-2.6zM511.2 195h2.6v2.6h-2.6zM524.1 200.2h2.6v2.6h-2.6zM534.6 200.2h2.6v2.6h-2.6zM446.7 187.3h2.6v2.6h-2.6zM459.6 189.8h2.6v2.6h-2.6zM472.5 189.8h2.6v2.6h-2.6zM477.7 189.8h2.6v2.6h-2.6zM490.6 189.8h2.6v2.6h-2.6zM500.9 192.4h2.6v2.6h-2.6zM513.8 192.4h2.6v2.6h-2.6zM529.4 195h2.6v2.6h-2.6zM542.3 195h2.6v2.6h-2.6zM454.4 184.7h2.6v2.6h-2.6zM457 187.3h2.6v2.6H457z"/><path class="st1" d="M462.2 187.3h2.6v2.6h-2.6zM467.3 187.3h2.6v2.6h-2.6zM475.1 187.3h2.6v2.6h-2.6zM485.4 187.3h2.6v2.6h-2.6zM493.1 189.8h2.6v2.6h-2.6zM498.3 189.8h2.6v2.6h-2.6zM503.5 189.8h2.6v2.6h-2.6zM511.2 189.8h2.6v2.6h-2.6zM521.5 189.8h2.6v2.6h-2.6zM526.7 192.4h2.6v2.6h-2.6zM531.9 192.4h2.6v2.6h-2.6zM537 192.4h2.6v2.6H537zM544.8 192.4h2.6v2.6h-2.6zM457 184.7h2.6v2.6H457zM407.9 179.1h2.6v2.6h-2.6zM508.6 184.7h2.6v2.6h-2.6z"/><path class="st0" d="M503.2 187.3h5.4v2.6h-5.4zM518.6 187.3h5.4v2.6h-5.4z"/><path class="st1" d="M531.8 184.7h5.4v2.6h-5.4z"/><path class="st0" d="M531.8 189.8h2.7v2.6h-2.7z"/><path transform="rotate(-180 339.539 188.551)" class="st1" d="M322.8 187.3h33.6v2.6h-33.6z"/><path transform="rotate(-180 305.98 191.133)" class="st1" d="M289.2 189.8h33.6v2.6h-33.6z"/><path transform="rotate(-180 406.66 183.388)" class="st1" d="M389.9 182.1h33.6v2.6h-33.6z"/><path transform="rotate(-180 373.1 185.97)" class="st1" d="M356.3 184.7h33.6v2.6h-33.6z"/><path class="st1" d="M328.7 197.6h2.6v2.6h-2.6zM343.4 200.2h2.6v2.6h-2.6zM359 197.6h2.6v2.6H359zM315.1 195h2.6v2.6h-2.6zM323.3 195h2.6v2.6h-2.6zM315.1 197.6h2.6v2.6h-2.6zM335.7 192.4h2.6v2.6h-2.6zM345.9 192.4h2.6v2.6h-2.6z"/><g><path class="st1" d="M302.3 192.4h2.6v2.6h-2.6zM307.4 192.4h2.6v2.6h-2.6zM312.6 192.4h2.6v2.6h-2.6zM320.3 192.4h2.6v2.6h-2.6z"/></g><g><path class="st1" d="M333.1 189.8h2.6v2.6h-2.6zM338.2 189.8h2.6v2.6h-2.6zM343.4 189.8h2.6v2.6h-2.6zM351.2 189.8h2.6v2.6h-2.6z"/></g><g><path class="st1" d="M359 187.3h2.6v2.6H359zM364.2 187.3h2.6v2.6h-2.6zM369.4 187.3h2.6v2.6h-2.6zM377.1 187.3h2.6v2.6h-2.6z"/></g><g><path class="st1" d="M389.9 184.7h2.6v2.6h-2.6zM395 184.7h2.6v2.6H395zM400.2 184.7h2.6v2.6h-2.6zM407.9 184.7h2.6v2.6h-2.6z"/></g><path class="st1" d="M325.9 192.4h5.4v2.6h-5.4zM356.3 189.8h2.7v2.6h-2.7z"/><path class="st0" d="M322.8 187.3h12.9v2.6h-12.9zM353.7 187.3h2.6v2.6h-2.6zM361.5 184.7h2.6v2.6h-2.6zM407.7 182.1h7.8v2.6h-7.8zM464.7 184.7h10.2v2.6h-10.2z"/></g></svg>