<svg id="Layer_1" xmlns="http://www.w3.org/2000/svg" viewBox="0 0 1080 265"><style>.st1{fill:#56417f}</style><g id="foreground"><path d="M1080 9h-43.2c-.6 0-1.2-.1-1.8-.1V6h-75.6v3h-41v3H891.2v2.9h-24v3h-15.1L852 21l-14.9-.1-.1 3.1h-25.9v3h-14.9v3h-14.9v3h-14.9v3h-12.6v3h-12.6v3h-12.6v3H716v3h-12.6v3h-9.7v3H684v2.6c-.5.1-1 .3-1.5.4h-8.2v2.3c-.8.2-12.7.7-12.7.7v2.9c-.1 0-.2.1-.3.1H652v2.8c-.2.1-12.7.2-12.7.2v3h-9.7v3h-7.7v3h-7.8v3h-7.8v3H599v3c-.1 0-7.8.1-7.8.1V87c-.1 0-7.8.1-7.8.1v3h-7.8v3h-7.8v3h-6v3h-6v3h-6v3h-6l.1 3h-6.1v3h-6v2.9l-6 .1v2.9l-6 .1v2.9l-6 .1v2.9l-6 .1v2.9l-6 .1v3.1l-6-.1v2.8l-6 .2v2.9l-9 .1v2.9l-9 .1v3s.1.1 0 .1v-.1h-9v3h-6v3h-9v3h-6v2.8c-.2.1-9 .2-9 .2v3h-6v2.9l-9 .1v2.9l-9 .1v2.9l-9 .1v2.9l-9 .2v2.8l-9 .3v2.7l-9 .3v2.7c-1.3.4-2.7 0-4 .4h-5v2.6c-1.7.5-3.4-.1-5.1.4h-4v2.6c-2.2.6-4.4-.1-6.5.5H346v2.5c-2.8.8-5.7-.2-8.5.5H334v2.5c-2.6.7-5.2-.1-7.7.5H322v2.5c-2.5.6-5-.1-7.5.5H310v2.5c-2.6.6-5.3-.1-7.9.5H298v2.5c-3 .7-6.1-.1-9.1.5h-3v2.5c-3.7.8-7.4-.2-11 .5H270v2.5c-3.3.7-6.6-.1-9.9.5H246v2.7c-.6.1-24 .3-24 .3v3h-24v3h-24v3h-24v3h-24v3h-24v2.4c-3.4.2-102 1.1-102 1.1v39h1080V9z" fill="#3e2e61"/><path class="st1" d="M694.1 98.8h2.8v2.8h-2.8zM646.1 98.4h3v3h-3zM643 95.4h3v3h-3zM640 92.4h3v3h-3zM637 92.4h3v3h-3zM646.1 101.4h3v3h-3zM646.1 104.4h3v3h-3zM649.1 107.4h3v3h-3zM649.1 110.4h3v3h-3zM652.1 107.4h3v3h-3zM652.1 110.4h3v3h-3zM652.1 101.4h3v3h-3zM652.1 104.4h3v3h-3zM655.1 95.4h3v3h-3zM658.1 92.4h3v3h-3zM655.1 98.4h3v3h-3zM652.1 113.4h3v3h-3zM652.1 116.4h3v3h-3zM655.1 116.4h3v3h-3zM658.1 116.5h3v3h-3zM661.1 113.5h3v3h-3zM652.1 119.4h3v3h-3zM655.1 119.4h3v3h-3zM652.1 122.4h3v3h-3zM649.1 122.4h3v3h-3zM646.1 119.4h3v3h-3zM655.1 122.4h3v3h-3zM652.1 125.4h3v3h-3zM655.1 125.4h3v3h-3zM655.1 128.4h3v3h-3zM655.1 131.4h3v3h-3zM657.9 107.4h3v3h-3zM657.9 104.4h3v3h-3zM660.9 101.4h3v3h-3zM663.9 101.4h3v3h-3zM666.9 104.4h3v3h-3zM655.1 110.4h3v3h-3zM655.1 113.4h3v3h-3zM673.1 74.4h3v3h-3zM670.1 71.4h3v3h-3zM667.1 68.4h3v3h-3zM664.1 68.4h3v3h-3zM673.1 77.4h3v3h-3zM673.1 80.4h3v3h-3zM676.1 83.4h3v3h-3zM676.1 86.4h3v3h-3zM676.1 89.4h3v3h-3zM679.1 83.4h3v3h-3zM679.1 77.4h3v3h-3zM679.1 80.4h3v3h-3zM682.1 71.4h3v3h-3zM685.1 68.4h3v3h-3zM682.1 74.4h3v3h-3z"/><path transform="rotate(-180 674.55 127)" class="st1" d="M673.1 125.5h3v3h-3z"/><path transform="rotate(-180 677.567 124)" class="st1" d="M676.1 122.5h3v3h-3z"/><path transform="rotate(-180 674.55 130)" class="st1" d="M673.1 128.5h3v3h-3z"/><path transform="rotate(-180 674.55 133)" class="st1" d="M673.1 131.5h3v3h-3z"/><path transform="rotate(-180 671.557 136)" class="st1" d="M670.1 134.5h3v3h-3z"/><path transform="rotate(-180 671.557 139)" class="st1" d="M670.1 137.5h3v3h-3z"/><path transform="rotate(-180 671.557 142)" class="st1" d="M670.1 140.5h3v3h-3z"/><path transform="rotate(-180 668.566 136)" class="st1" d="M667.1 134.5h3v3h-3z"/><path transform="rotate(-180 668.566 130)" class="st1" d="M667.1 128.5h3v3h-3z"/><path transform="rotate(-180 668.566 133)" class="st1" d="M667.1 131.5h3v3h-3z"/><path transform="rotate(-180 665.574 124)" class="st1" d="M664.1 122.5h3v3h-3z"/><path transform="rotate(-180 665.574 127)" class="st1" d="M664.1 125.5h3v3h-3z"/><path class="st1" d="M616.4 71.4h2.9v3h-2.9zM613.4 68.4h2.9v3h-2.9zM616.4 74.4h2.9v3h-2.9zM616.4 77.4h2.9v3h-2.9zM619.3 80.4h2.9v3h-2.9zM619.3 83.4h2.9v3h-2.9zM619.3 86.4h2.9v3h-2.9zM622.2 80.4h2.9v3h-2.9zM622.2 74.4h2.9v3h-2.9zM622.2 77.4h2.9v3h-2.9zM625.1 68.4h2.9v3h-2.9zM625.1 71.4h2.9v3h-2.9z"/><g><path class="st1" d="M661.1 155.4h3v3h-3zM661.1 152.4h3v3h-3zM661.1 149.4h3v3h-3zM664.1 149.4h3v3h-3zM667.1 146.4h3v3h-3zM661.1 146.4h3v3h-3zM658.1 143.4h3v3h-3z"/></g><g><path class="st1" d="M628.1 125.4h3v3h-3zM628.1 122.4h3v3h-3zM628.1 119.4h3v3h-3zM631.1 119.4h3v3h-3zM634.1 116.4h3v3h-3zM628.1 116.4h3v3h-3zM625.1 113.4h3v3h-3z"/></g><g><path transform="rotate(-180 647.466 82.503)" class="st1" d="M646.1 81h2.8v3h-2.8z"/><path transform="rotate(-180 647.466 79.503)" class="st1" d="M646.1 78h2.8v3h-2.8z"/><path transform="rotate(-180 647.466 76.503)" class="st1" d="M646.1 75h2.8v3h-2.8z"/><path transform="rotate(-180 644.662 76.503)" class="st1" d="M643.3 75h2.8v3h-2.8z"/><path transform="rotate(-180 641.836 73.503)" class="st1" d="M640.4 72h2.8v3h-2.8z"/><path transform="rotate(-180 647.466 73.503)" class="st1" d="M646.1 72h2.8v3h-2.8z"/><path transform="rotate(-180 650.27 70.527)" class="st1" d="M648.9 69h2.8v3h-2.8z"/></g><g><path class="st1" d="M628.1 101.4h3v3h-3zM628.1 98.4h3v3h-3zM625.1 95.4h3v3h-3zM625.1 92.4h3v3h-3z"/></g><path class="st1" d="M679.1 143.5h3v11.9h-3zM619.2 140.6h3v11.9h-3zM616.3 137.8h2.8v2.8h-2.8z"/><g><path transform="rotate(-180 677.567 111.865)" class="st1" d="M676.1 110.4h3v3h-3z"/><path transform="rotate(-180 677.567 108.9)" class="st1" d="M676.1 107.4h3v3h-3z"/><path transform="rotate(-180 680.558 105.9)" class="st1" d="M679.1 104.4h3v3h-3z"/><path transform="rotate(-180 680.558 102.934)" class="st1" d="M679.1 101.4h3v3h-3z"/></g><g><path class="st1" d="M468.7 137.8h3v3h-3zM465.6 134.8h3v3h-3zM462.6 131.8h3v3h-3zM459.6 131.8h3v3h-3zM468.7 140.8h3v3h-3zM468.7 143.8h3v3h-3zM471.7 146.8h3v3h-3zM471.7 149.8h3v3h-3zM474.7 146.8h3v3h-3zM474.7 149.8h3v3h-3zM474.7 140.8h3v3h-3zM474.7 143.8h3v3h-3zM477.7 134.8h3v3h-3zM480.7 131.8h3v3h-3zM477.7 137.8h3v3h-3zM474.7 152.8h3v3h-3zM474.7 155.8h3v3h-3zM477.7 155.8h3v3h-3zM480.7 155.9h3v3h-3zM483.7 152.9h3v3h-3zM474.7 158.8h3v3h-3zM477.7 158.8h3v3h-3zM474.7 161.8h3v3h-3zM471.7 161.8h3v3h-3zM468.7 158.8h3v3h-3zM477.7 161.8h3v3h-3zM474.7 164.8h3v3h-3zM477.7 164.8h3v3h-3zM477.7 167.8h3v3h-3zM477.7 170.8h3v3h-3zM480.5 146.8h3v3h-3zM480.5 143.8h3v3h-3zM483.5 140.8h3v3h-3zM486.5 140.8h3v3h-3zM489.5 143.8h3v3h-3zM477.7 149.8h3v3h-3zM477.7 152.8h3v3h-3z"/><g><path class="st1" d="M595.3 95.4h3v3h-3zM592.2 92.4h3v3h-3zM589.2 89.4h3v3h-3zM586.2 89.4h3v3h-3zM595.3 98.4h3v3h-3zM595.3 101.4h3v3h-3zM598.3 104.4h3v3h-3zM598.3 107.4h3v3h-3zM598.3 110.4h3v3h-3zM601.3 104.4h3v3h-3zM601.3 98.4h3v3h-3zM601.3 101.4h3v3h-3zM604.3 92.4h3v3h-3zM607.3 89.4h3v3h-3zM604.3 95.4h3v3h-3z"/></g><g><path transform="rotate(-180 581.328 126.6)" class="st1" d="M579.8 125.1h3v3h-3z"/><path transform="rotate(-180 584.346 123.6)" class="st1" d="M582.9 122.1h3v3h-3z"/><path transform="rotate(-180 581.328 129.6)" class="st1" d="M579.8 128.1h3v3h-3z"/><path transform="rotate(-180 581.328 132.6)" class="st1" d="M579.8 131.1h3v3h-3z"/><path transform="rotate(-180 578.337 135.6)" class="st1" d="M576.8 134.1h3v3h-3z"/><path transform="rotate(-180 578.337 138.6)" class="st1" d="M576.8 137.1h3v3h-3z"/><path transform="rotate(-180 578.337 141.6)" class="st1" d="M576.8 140.1h3v3h-3z"/><path transform="rotate(-180 575.345 135.6)" class="st1" d="M573.8 134.1h3v3h-3z"/><path transform="rotate(-180 575.345 129.6)" class="st1" d="M573.8 128.1h3v3h-3z"/><path transform="rotate(-180 575.345 132.6)" class="st1" d="M573.8 131.1h3v3h-3z"/><path transform="rotate(-180 572.353 123.6)" class="st1" d="M570.9 122.1h3v3h-3z"/><path transform="rotate(-180 572.353 126.6)" class="st1" d="M570.9 125.1h3v3h-3z"/></g><g><path class="st1" d="M514.8 119.4h2.9v3h-2.9zM511.8 116.4h2.9v3h-2.9zM514.8 122.4h2.9v3h-2.9zM514.8 125.4h2.9v3h-2.9zM517.7 128.4h2.9v3h-2.9zM517.7 131.4h2.9v3h-2.9zM517.7 134.4h2.9v3h-2.9zM520.6 128.4h2.9v3h-2.9zM520.6 122.4h2.9v3h-2.9zM520.6 125.4h2.9v3h-2.9zM523.5 116.4h2.9v3h-2.9zM523.5 119.4h2.9v3h-2.9z"/></g><g><path class="st1" d="M583.2 176.4h3v3h-3zM583.2 173.4h3v3h-3zM583.2 170.4h3v3h-3zM586.2 170.4h3v3h-3zM589.3 167.4h3v3h-3zM583.2 167.4h3v3h-3zM580.2 164.4h3v3h-3z"/></g><g><path class="st1" d="M550.3 169.4h3v3h-3zM550.3 166.4h3v3h-3zM550.3 163.4h3v3h-3zM553.3 163.4h3v3h-3zM556.3 160.4h3v3h-3zM550.3 160.4h3v3h-3zM547.3 157.4h3v3h-3z"/></g><g><path transform="rotate(-180 569.647 103.503)" class="st1" d="M568.2 102h2.8v3h-2.8z"/><path transform="rotate(-180 569.647 100.503)" class="st1" d="M568.2 99h2.8v3h-2.8z"/><path transform="rotate(-180 569.647 97.503)" class="st1" d="M568.2 96h2.8v3h-2.8z"/><path transform="rotate(-180 566.843 97.503)" class="st1" d="M565.4 96h2.8v3h-2.8z"/><path transform="rotate(-180 564.017 94.503)" class="st1" d="M562.6 93h2.8v3h-2.8z"/><path transform="rotate(-180 569.647 94.503)" class="st1" d="M568.2 93h2.8v3h-2.8z"/><path transform="rotate(-180 572.45 91.527)" class="st1" d="M571 90h2.8v3H571z"/></g><g><path transform="rotate(-180 496.423 195.228)" class="st1" d="M495 193.7h2.8v3H495z"/><path transform="rotate(-180 496.423 192.228)" class="st1" d="M495 190.7h2.8v3H495z"/><path transform="rotate(-180 496.423 189.228)" class="st1" d="M495 187.7h2.8v3H495z"/><path transform="rotate(-180 493.619 189.228)" class="st1" d="M492.2 187.7h2.8v3h-2.8z"/><path transform="rotate(-180 490.793 186.228)" class="st1" d="M489.4 184.7h2.8v3h-2.8z"/><path transform="rotate(-180 496.423 186.228)" class="st1" d="M495 184.7h2.8v3H495z"/><path transform="rotate(-180 499.227 183.252)" class="st1" d="M497.8 181.8h2.8v3h-2.8z"/></g><g><path class="st1" d="M550.3 122.4h3v3h-3zM550.3 119.4h3v3h-3zM547.3 116.4h3v3h-3zM547.3 113.4h3v3h-3z"/></g><g><path class="st1" d="M444.7 178.5h3v3h-3zM444.7 175.5h3v3h-3zM441.7 172.5h3v3h-3zM441.7 169.5h3v3h-3z"/></g><path class="st1" d="M532.4 125.5h3v11.9h-3z"/><g><path transform="rotate(-180 605.913 139.031)" class="st1" d="M604.4 137.5h3v3h-3z"/><path transform="rotate(-180 605.913 136.066)" class="st1" d="M604.4 134.6h3v3h-3z"/><path transform="rotate(-180 608.905 133.066)" class="st1" d="M607.4 131.6h3v3h-3z"/><path transform="rotate(-180 608.905 130.1)" class="st1" d="M607.4 128.6h3v3h-3z"/></g><g><path transform="rotate(-180 520.577 167.466)" class="st1" d="M519.1 166h3v3h-3z"/><path transform="rotate(-180 520.577 164.5)" class="st1" d="M519.1 163h3v3h-3z"/><path transform="rotate(-180 523.568 161.5)" class="st1" d="M522.1 160h3v3h-3z"/><path transform="rotate(-180 523.568 158.535)" class="st1" d="M522.1 157h3v3h-3z"/></g></g><g><path class="st1" d="M494.9 253h3v3h-3zM494.9 250h3v3h-3zM494.9 247h3v3h-3zM497.9 247h3v3h-3zM500.9 244h3v3h-3zM494.9 244h3v3h-3zM491.9 241h3v3h-3z"/><g><path class="st1" d="M389.3 262h3v3h-3zM389.3 259h3v3h-3zM386.3 256h3v3h-3z"/><path class="st1" d="M386.3 253.1h3v3h-3z"/></g></g><g><path class="st1" d="M555.5 199.1h3v3h-3zM552.5 196.1h3v3h-3zM549.5 193.1h3v3h-3zM546.5 193.1h3v3h-3zM555.5 202.1h3v3h-3zM555.5 205.1h3v3h-3zM558.5 208.1h3v3h-3zM558.5 211.1h3v3h-3zM558.5 214.1h3v3h-3zM561.5 208.1h3v3h-3zM561.5 202.1h3v3h-3zM561.5 205.1h3v3h-3zM564.5 196.1h3v3h-3zM567.5 193.1h3v3h-3zM564.5 199.1h3v3h-3z"/></g><g><path class="st1" d="M661 170.4h3v3h-3zM657.9 167.4h3v3h-3zM654.9 164.4h3v3h-3zM651.9 164.4h3v3h-3zM661 173.4h3v3h-3zM661 176.4h3v3h-3zM664 179.4h3v3h-3zM664 182.4h3v3h-3zM664 185.4h3v3h-3zM667 179.4h3v3h-3zM667 173.4h3v3h-3zM667 176.4h3v3h-3zM670 167.4h3v3h-3zM673 164.4h3v3h-3zM670 170.4h3v3h-3z"/></g><g><path transform="rotate(-180 671.416 229.984)" class="st1" d="M669.9 228.5h3v3h-3z"/><path transform="rotate(-180 674.433 226.984)" class="st1" d="M672.9 225.5h3v3h-3z"/><path transform="rotate(-180 671.416 232.984)" class="st1" d="M669.9 231.5h3v3h-3z"/><path transform="rotate(-180 671.416 235.984)" class="st1" d="M669.9 234.5h3v3h-3z"/><path transform="rotate(-180 668.424 238.984)" class="st1" d="M666.9 237.5h3v3h-3z"/><path transform="rotate(-180 668.424 241.984)" class="st1" d="M666.9 240.5h3v3h-3z"/><path transform="rotate(-180 668.424 244.984)" class="st1" d="M666.9 243.5h3v3h-3z"/><path transform="rotate(-180 665.432 238.984)" class="st1" d="M663.9 237.5h3v3h-3z"/><path transform="rotate(-180 665.432 232.984)" class="st1" d="M663.9 231.5h3v3h-3z"/><path transform="rotate(-180 665.432 235.984)" class="st1" d="M663.9 234.5h3v3h-3z"/><path transform="rotate(-180 662.44 226.984)" class="st1" d="M660.9 225.5h3v3h-3z"/><path transform="rotate(-180 662.44 229.984)" class="st1" d="M660.9 228.5h3v3h-3z"/></g><g><path class="st1" d="M616 228.4h3v3h-3zM616 225.4h3v3h-3zM616 222.4h3v3h-3zM619 222.4h3v3h-3zM622 219.4h3v3h-3zM616 219.4h3v3h-3zM613 216.4h3v3h-3z"/></g><g><path transform="rotate(-180 635.333 178.487)" class="st1" d="M633.9 177h2.8v3h-2.8z"/><path transform="rotate(-180 635.333 175.487)" class="st1" d="M633.9 174h2.8v3h-2.8z"/><path transform="rotate(-180 635.333 172.487)" class="st1" d="M633.9 171h2.8v3h-2.8z"/><path transform="rotate(-180 632.529 172.487)" class="st1" d="M631.1 171h2.8v3h-2.8z"/><path transform="rotate(-180 629.702 169.487)" class="st1" d="M628.3 168h2.8v3h-2.8z"/><path transform="rotate(-180 635.333 169.487)" class="st1" d="M633.9 168h2.8v3h-2.8z"/><path transform="rotate(-180 638.137 166.51)" class="st1" d="M636.7 165h2.8v3h-2.8z"/></g><g><path class="st1" d="M616 202.3h3v3h-3z"/><path class="st1" d="M616 199.4h3v3h-3zM613 196.4h3v3h-3zM613 193.4h3v3h-3z"/></g><path class="st1" d="M600.4 193.2h3v11.9h-3zM678.9 182.6h3v11.9h-3z"/><g><path class="st1" d="M531.5 199.3h3v11.9h-3zM528.7 196.5h2.8v2.8h-2.8z"/></g><g><path transform="rotate(-180 665.433 207.85)" class="st1" d="M663.9 206.3h3v3h-3z"/><path transform="rotate(-180 665.433 204.883)" class="st1" d="M663.9 203.4h3v3h-3z"/><path transform="rotate(-180 668.425 201.883)" class="st1" d="M666.9 200.4h3v3h-3z"/><path transform="rotate(-180 668.425 198.918)" class="st1" d="M666.9 197.4h3v3h-3z"/></g><g><path class="st1" d="M717.8 149.5h3v3h-3zM714.8 146.5h3v3h-3zM711.8 143.6h3v3h-3zM708.8 143.6h3v3h-3zM717.8 152.5h3v3h-3zM717.8 155.5h3v3h-3zM720.8 158.5h3v3h-3zM720.8 161.5h3v3h-3zM723.8 158.5h3v3h-3zM723.8 161.5h3v3h-3zM723.8 152.5h3v3h-3zM723.8 155.5h3v3h-3zM726.8 146.5h3v3h-3zM729.8 143.6h3v3h-3zM726.8 149.5h3v3h-3zM723.8 164.5h3v3h-3zM723.8 167.5h3v3h-3zM726.8 167.5h3v3h-3zM729.8 167.7h3v3h-3zM732.8 164.7h3v3h-3zM723.8 170.5h3v3h-3zM726.8 170.5h3v3h-3zM723.8 173.5h3v3h-3zM720.8 173.5h3v3h-3zM717.8 170.5h3v3h-3zM726.8 173.5h3v3h-3zM723.8 176.5h3v3h-3zM726.8 176.5h3v3h-3zM726.8 179.5h3v3h-3zM726.8 182.5h3v3h-3zM729.7 158.5h3v3h-3zM729.7 155.5h3v3h-3zM732.7 152.5h3v3h-3zM735.7 152.5h3v3h-3zM738.7 155.5h3v3h-3zM726.8 161.5h3v3h-3zM726.8 164.5h3v3h-3z"/><g><path class="st1" d="M741.9 131.5h3v3h-3zM738.9 128.5h3v3h-3zM735.9 125.5h3v3h-3zM732.9 125.5h3v3h-3zM741.9 134.5h3v3h-3zM741.9 137.5h3v3h-3zM744.9 140.5h3v3h-3zM744.9 143.5h3v3h-3zM744.9 146.5h3v3h-3zM747.9 140.5h3v3h-3zM747.9 134.5h3v3h-3zM747.9 137.5h3v3h-3zM750.9 128.5h3v3h-3zM753.9 125.5h3v3h-3zM750.9 131.5h3v3h-3z"/></g><g><path transform="rotate(-180 746.335 178.12)" class="st1" d="M744.8 176.6h3v3h-3z"/><path transform="rotate(-180 749.352 175.12)" class="st1" d="M747.9 173.6h3v3h-3z"/><path transform="rotate(-180 746.335 181.12)" class="st1" d="M744.8 179.6h3v3h-3z"/><path transform="rotate(-180 746.335 184.12)" class="st1" d="M744.8 182.6h3v3h-3z"/><path transform="rotate(-180 743.343 187.12)" class="st1" d="M741.8 185.6h3v3h-3z"/><path transform="rotate(-180 743.343 190.12)" class="st1" d="M741.8 188.6h3v3h-3z"/><path transform="rotate(-180 743.343 193.12)" class="st1" d="M741.8 191.6h3v3h-3z"/><path transform="rotate(-180 740.351 187.12)" class="st1" d="M738.9 185.6h3v3h-3z"/><path transform="rotate(-180 740.351 181.12)" class="st1" d="M738.9 179.6h3v3h-3z"/><path transform="rotate(-180 740.351 184.12)" class="st1" d="M738.9 182.6h3v3h-3z"/><path transform="rotate(-180 737.36 175.12)" class="st1" d="M735.9 173.6h3v3h-3z"/><path transform="rotate(-180 737.36 178.12)" class="st1" d="M735.9 176.6h3v3h-3z"/></g><g><path class="st1" d="M732.8 224.5h3v3h-3zM732.8 221.5h3v3h-3zM732.8 218.5h3v3h-3zM735.8 218.5h3v3h-3zM738.9 215.5h3v3h-3zM732.8 215.5h3v3h-3zM729.8 212.5h3v3h-3z"/></g><g><path class="st1" d="M699.9 176.5h3v3h-3zM699.9 173.5h3v3h-3zM699.9 170.5h3v3h-3zM702.9 170.5h3v3h-3zM705.9 167.5h3v3h-3zM699.9 167.5h3v3h-3zM696.9 164.5h3v3h-3z"/></g><g><path transform="rotate(-180 719.252 137.622)" class="st1" d="M717.8 136.1h2.8v3h-2.8z"/><path transform="rotate(-180 719.252 134.622)" class="st1" d="M717.8 133.1h2.8v3h-2.8z"/><path transform="rotate(-180 719.252 131.622)" class="st1" d="M717.8 130.1h2.8v3h-2.8z"/><path transform="rotate(-180 716.448 131.622)" class="st1" d="M715 130.1h2.8v3H715z"/><path transform="rotate(-180 713.622 128.622)" class="st1" d="M712.2 127.1h2.8v3h-2.8z"/><path transform="rotate(-180 719.252 128.622)" class="st1" d="M717.8 127.1h2.8v3h-2.8z"/><path transform="rotate(-180 722.056 125.646)" class="st1" d="M720.7 124.1h2.8v3h-2.8z"/></g><g><path class="st1" d="M699.9 152.5h3v3h-3zM699.9 149.5h3v3h-3zM696.9 146.5h3v3h-3z"/><path class="st1" d="M696.9 143.6h3v3h-3z"/></g><path class="st1" d="M756.8 200.6h3v11.9h-3zM688 155.6h3v11.9h-3z"/><g><path class="st1" d="M690.9 220.7h3v11.9h-3zM688.1 217.9h2.8v2.8h-2.8z"/></g><g><path transform="rotate(-180 749.352 162.984)" class="st1" d="M747.9 161.5h3v3h-3z"/><path transform="rotate(-180 749.352 160.019)" class="st1" d="M747.9 158.5h3v3h-3z"/><path transform="rotate(-180 752.344 157.019)" class="st1" d="M750.8 155.5h3v3h-3z"/><path transform="rotate(-180 752.344 154.053)" class="st1" d="M750.8 152.6h3v3h-3z"/></g></g><g><path class="st1" d="M723.8 59.4h3v3h-3zM720.8 56.4h3v3h-3zM717.8 53.5h3v3h-3zM714.8 53.5h3v3h-3zM723.8 62.4h3v3h-3zM723.8 65.4h3v3h-3zM726.8 68.4h3v3h-3zM726.8 71.4h3v3h-3zM729.8 68.4h3v3h-3zM729.8 71.4h3v3h-3zM729.8 62.4h3v3h-3zM729.8 65.4h3v3h-3zM732.8 56.4h3v3h-3zM735.8 53.5h3v3h-3zM732.8 59.4h3v3h-3zM729.8 74.4h3v3h-3zM729.8 77.4h3v3h-3zM732.8 77.4h3v3h-3zM735.8 77.6h3v3h-3zM738.8 74.6h3v3h-3zM729.8 80.4h3v3h-3zM732.8 80.4h3v3h-3zM729.8 83.4h3v3h-3zM726.8 83.4h3v3h-3zM723.8 80.4h3v3h-3zM732.8 83.4h3v3h-3zM729.8 86.4h3v3h-3zM732.8 86.4h3v3h-3zM732.8 89.4h3v3h-3zM732.8 92.4h3v3h-3zM735.6 68.4h3v3h-3zM735.6 65.4h3v3h-3zM738.6 62.4h3v3h-3zM741.6 62.4h3v3h-3zM744.7 65.4h3v3h-3zM732.8 71.4h3v3h-3zM732.8 74.4h3v3h-3z"/></g><g><path class="st1" d="M711.9 101.4h3v3h-3zM708.9 98.4h3v3h-3zM705.9 95.4h3v3h-3zM702.9 95.4h3v3h-3zM711.9 104.4h3v3h-3zM711.9 107.4h3v3h-3zM714.9 110.4h3v3h-3zM714.9 113.4h3v3h-3zM714.9 116.4h3v3h-3zM717.9 110.4h3v3h-3zM717.9 104.4h3v3h-3zM717.9 107.4h3v3h-3zM720.9 98.4h3v3h-3zM723.9 95.4h3v3h-3zM720.9 101.4h3v3h-3z"/></g><g><path class="st1" d="M750.9 35.4h3v3h-3zM747.8 32.4h3v3h-3zM744.8 29.5h3v3h-3zM741.8 29.5h3v3h-3zM750.9 38.4h3v3h-3zM750.9 41.4h3v3h-3zM753.9 44.4h3v3h-3zM753.9 47.4h3v3h-3zM753.9 50.4h3v3h-3zM756.9 44.4h3v3h-3zM756.9 38.4h3v3h-3zM756.9 41.4h3v3h-3zM759.9 32.4h3v3h-3zM762.9 29.5h3v3h-3zM759.9 35.4h3v3h-3z"/></g><g><path transform="rotate(-180 752.32 88.035)" class="st1" d="M750.8 86.5h3v3h-3z"/><path transform="rotate(-180 755.338 85.035)" class="st1" d="M753.8 83.5h3v3h-3z"/><path transform="rotate(-180 752.32 91.035)" class="st1" d="M750.8 89.5h3v3h-3z"/><path transform="rotate(-180 752.32 94.035)" class="st1" d="M750.8 92.5h3v3h-3z"/><path transform="rotate(-180 749.329 97.035)" class="st1" d="M747.8 95.5h3v3h-3z"/><path transform="rotate(-180 749.329 100.035)" class="st1" d="M747.8 98.5h3v3h-3z"/><path transform="rotate(-180 749.329 103.035)" class="st1" d="M747.8 101.5h3v3h-3z"/><path transform="rotate(-180 746.337 97.035)" class="st1" d="M744.8 95.5h3v3h-3z"/><path transform="rotate(-180 746.337 91.035)" class="st1" d="M744.8 89.5h3v3h-3z"/><path transform="rotate(-180 746.337 94.035)" class="st1" d="M744.8 92.5h3v3h-3z"/><path transform="rotate(-180 743.345 85.035)" class="st1" d="M741.8 83.5h3v3h-3z"/><path transform="rotate(-180 743.345 88.035)" class="st1" d="M741.8 86.5h3v3h-3z"/></g><g><path class="st1" d="M738.8 116.4h3v3h-3zM738.8 113.4h3v3h-3zM738.8 110.4h3v3h-3zM741.8 110.4h3v3h-3zM744.8 107.4h3v3h-3zM738.8 107.4h3v3h-3zM735.8 104.4h3v3h-3z"/></g><g><path class="st1" d="M705.9 86.4h3v3h-3zM705.9 83.4h3v3h-3zM705.9 80.4h3v3h-3zM708.9 80.4h3v3h-3zM711.9 77.4h3v3h-3zM705.9 77.4h3v3h-3zM702.9 74.4h3v3h-3z"/></g><g><path class="st1" d="M705.9 62.4h3v3h-3zM705.9 59.4h3v3h-3zM702.9 56.4h3v3h-3z"/><path class="st1" d="M702.9 53.5h3v3h-3z"/></g><path class="st1" d="M759.8 98.5h3v11.9h-3zM693.9 65.5h3v11.9h-3zM670.1 53.5h3v11.9h-3zM696.9 101.6h3v11.9h-3z"/><g><path transform="rotate(-180 755.338 72.9)" class="st1" d="M753.8 71.4h3v3h-3z"/><path transform="rotate(-180 755.338 69.934)" class="st1" d="M753.8 68.4h3v3h-3z"/><path transform="rotate(-180 758.33 66.934)" class="st1" d="M756.8 65.4h3v3h-3z"/><path transform="rotate(-180 758.33 63.968)" class="st1" d="M756.8 62.5h3v3h-3z"/></g><path class="st1" d="M993.3 45.3h2.8v2.8h-2.8z"/><g><path class="st1" d="M987.2 69.1h3v3h-3zM984.2 66.1h3v3h-3zM987.2 72.1h3v3h-3zM987.2 75.1h3v3h-3zM990.2 78.1h3v3h-3zM990.2 81.1h3v3h-3zM990.2 84.1h3v3h-3zM993.2 78.1h3v3h-3zM993.2 72.1h3v3h-3zM993.2 75.1h3v3h-3zM996.2 66.1h3v3h-3zM996.2 69.1h3v3h-3z"/></g><g><path class="st1" d="M945.2 45h3v3h-3zM942.2 42h3v3h-3zM939.2 39h3v3h-3zM936.2 39h3v3h-3zM945.2 48h3v3h-3zM945.2 51h3v3h-3zM948.2 54h3v3h-3zM948.2 57h3v3h-3zM951.2 54h3v3h-3zM951.2 57h3v3h-3zM951.2 48h3v3h-3zM951.2 51h3v3h-3zM954.2 42h3v3h-3zM957.2 39h3v3h-3zM954.2 45h3v3h-3zM951.2 60h3v3h-3zM951.2 63h3v3h-3zM954.2 63h3v3h-3zM957.2 63.1h3v3h-3zM960.2 60.1h3v3h-3zM951.2 66h3v3h-3zM954.2 66h3v3h-3zM951.2 69h3v3h-3zM948.2 69h3v3h-3zM945.2 66h3v3h-3zM954.2 69h3v3h-3zM951.2 72h3v3h-3zM954.2 72h3v3h-3zM954.2 75h3v3h-3zM954.2 78h3v3h-3zM957 54h3v3h-3zM957 51h3v3h-3zM960 48h3v3h-3zM963 48h3v3h-3zM966 51h3v3h-3zM954.2 57h3v3h-3zM954.2 60h3v3h-3z"/><g><path class="st1" d="M933.3 86.9h3v3h-3zM930.2 83.9h3v3h-3zM927.2 81h3v3h-3zM924.2 81h3v3h-3zM933.3 89.9h3v3h-3zM933.3 92.9h3v3h-3zM936.3 95.9h3v3h-3zM936.3 98.9h3v3h-3zM936.3 101.9h3v3h-3zM939.3 95.9h3v3h-3zM939.3 89.9h3v3h-3zM939.3 92.9h3v3h-3zM942.3 83.9h3v3h-3zM945.3 81h3v3h-3zM942.3 86.9h3v3h-3z"/></g><g><path class="st1" d="M972.2 20.9h3v3h-3zM969.2 17.9h3v3h-3zM966.2 15h3v3h-3zM963.2 15h3v3h-3zM972.2 23.9h3v3h-3zM972.2 26.9h3v3h-3zM975.2 29.9h3v3h-3zM975.2 32.9h3v3h-3zM975.2 35.9h3v3h-3zM978.2 29.9h3v3h-3zM978.2 23.9h3v3h-3zM978.2 26.9h3v3h-3zM981.2 17.9h3v3h-3zM984.2 15h3v3h-3zM981.2 20.9h3v3h-3z"/></g><g><path transform="rotate(-180 973.694 73.562)" class="st1" d="M972.2 72.1h3v3h-3z"/><path transform="rotate(-180 976.711 70.562)" class="st1" d="M975.2 69.1h3v3h-3z"/><path transform="rotate(-180 973.694 76.562)" class="st1" d="M972.2 75.1h3v3h-3z"/><path transform="rotate(-180 973.694 79.562)" class="st1" d="M972.2 78.1h3v3h-3z"/><path transform="rotate(-180 970.702 82.562)" class="st1" d="M969.2 81.1h3v3h-3z"/><path transform="rotate(-180 970.702 85.562)" class="st1" d="M969.2 84.1h3v3h-3z"/><path transform="rotate(-180 970.702 88.562)" class="st1" d="M969.2 87.1h3v3h-3z"/><path transform="rotate(-180 967.71 82.562)" class="st1" d="M966.2 81.1h3v3h-3z"/><path transform="rotate(-180 967.71 76.562)" class="st1" d="M966.2 75.1h3v3h-3z"/><path transform="rotate(-180 967.71 79.562)" class="st1" d="M966.2 78.1h3v3h-3z"/><path transform="rotate(-180 964.718 70.562)" class="st1" d="M963.2 69.1h3v3h-3z"/><path transform="rotate(-180 964.718 73.562)" class="st1" d="M963.2 72.1h3v3h-3z"/></g><g><path class="st1" d="M915.5 17.9h2.9v3h-2.9zM912.6 14.9h2.9v3h-2.9zM915.5 20.9h2.9v3h-2.9zM915.5 23.9h2.9v3h-2.9zM918.4 26.9h2.9v3h-2.9zM918.4 29.9h2.9v3h-2.9zM918.4 32.9h2.9v3h-2.9zM921.4 26.9h2.9v3h-2.9zM921.4 20.9h2.9v3h-2.9zM921.4 23.9h2.9v3h-2.9zM924.3 14.9h2.9v3h-2.9zM924.3 17.9h2.9v3h-2.9z"/></g><g><path class="st1" d="M960.2 101.9h3v3h-3zM960.2 98.9h3v3h-3zM960.2 95.9h3v3h-3zM963.2 95.9h3v3h-3zM966.2 92.9h3v3h-3zM960.2 92.9h3v3h-3zM957.2 89.9h3v3h-3z"/></g><g><path class="st1" d="M927.2 71.9h3v3h-3zM927.2 68.9h3v3h-3zM927.2 65.9h3v3h-3zM930.2 65.9h3v3h-3zM933.3 62.9h3v3h-3zM927.2 62.9h3v3h-3zM924.2 60h3v3h-3z"/></g><g><path transform="rotate(-180 946.61 29.065)" class="st1" d="M945.2 27.6h2.8v3h-2.8z"/><path transform="rotate(-180 946.61 26.065)" class="st1" d="M945.2 24.6h2.8v3h-2.8z"/><path transform="rotate(-180 946.61 23.065)" class="st1" d="M945.2 21.6h2.8v3h-2.8z"/><path transform="rotate(-180 943.807 23.065)" class="st1" d="M942.4 21.6h2.8v3h-2.8z"/><path transform="rotate(-180 940.98 20.065)" class="st1" d="M939.6 18.6h2.8v3h-2.8z"/><path transform="rotate(-180 946.61 20.065)" class="st1" d="M945.2 18.6h2.8v3h-2.8z"/><path transform="rotate(-180 949.415 17.089)" class="st1" d="M948 15.6h2.8v3H948z"/></g><g><path class="st1" d="M927.2 47.9h3v3h-3z"/><path class="st1" d="M927.2 45h3v3h-3zM924.3 42h3v3h-3zM924.3 39h3v3h-3z"/></g><path class="st1" d="M978.2 90.1h3V102h-3zM915.3 45h3v11.9h-3zM924.2 93h3v11.9h-3zM921.4 90.2h2.8V93h-2.8z"/><g><path transform="rotate(-180 976.711 58.427)" class="st1" d="M975.2 56.9h3v3h-3z"/><path transform="rotate(-180 976.711 55.461)" class="st1" d="M975.2 54h3v3h-3z"/><path transform="rotate(-180 979.703 52.461)" class="st1" d="M978.2 51h3v3h-3z"/><path transform="rotate(-180 979.703 49.496)" class="st1" d="M978.2 48h3v3h-3z"/></g></g><g><path class="st1" d="M861.3 26.9h3v3h-3zM858.3 23.9h3v3h-3zM855.3 20.9h3v3h-3zM852.3 20.9h3v3h-3zM861.3 29.9h3v3h-3zM861.3 32.9h3v3h-3zM864.3 35.9h3v3h-3zM864.3 38.9h3v3h-3zM864.3 41.9h3v3h-3zM867.3 35.9h3v3h-3zM867.3 29.9h3v3h-3zM867.3 32.9h3v3h-3zM870.3 23.9h3v3h-3zM873.3 20.9h3v3h-3zM870.3 26.9h3v3h-3z"/><g><path transform="rotate(-180 901.718 13.52)" class="st1" d="M900.2 12h3v3h-3z"/><path transform="rotate(-180 904.735 10.52)" class="st1" d="M903.2 9h3v3h-3z"/><path transform="rotate(-180 901.718 16.52)" class="st1" d="M900.2 15h3v3h-3z"/><path transform="rotate(-180 901.718 19.52)" class="st1" d="M900.2 18h3v3h-3z"/><path transform="rotate(-180 898.726 22.52)" class="st1" d="M897.2 21h3v3h-3z"/><path transform="rotate(-180 898.726 25.52)" class="st1" d="M897.2 24h3v3h-3z"/><path transform="rotate(-180 898.726 28.52)" class="st1" d="M897.2 27h3v3h-3z"/><path transform="rotate(-180 895.734 22.52)" class="st1" d="M894.2 21h3v3h-3z"/><path transform="rotate(-180 895.734 16.52)" class="st1" d="M894.2 15h3v3h-3z"/><path transform="rotate(-180 895.734 19.52)" class="st1" d="M894.2 18h3v3h-3z"/><path transform="rotate(-180 892.742 10.52)" class="st1" d="M891.2 9h3v3h-3z"/><path transform="rotate(-180 892.742 13.52)" class="st1" d="M891.2 12h3v3h-3z"/></g><g><path class="st1" d="M888.2 41.9h3v3h-3zM888.2 38.9h3v3h-3zM888.2 35.9h3v3h-3zM891.2 35.9h3v3h-3zM894.2 32.9h3v3h-3zM888.2 32.9h3v3h-3zM885.2 29.9h3v3h-3z"/></g><path class="st1" d="M906.2 30h3v11.9h-3zM852.2 33h3v11.9h-3zM849.4 30.2h2.8V33h-2.8z"/></g><g><path class="st1" d="M787.2 41.6h3v3h-3zM784.2 38.6h3v3h-3zM781.2 35.6h3v3h-3zM778.2 35.6h3v3h-3zM787.2 44.6h3v3h-3zM787.2 47.6h3v3h-3zM790.2 50.6h3v3h-3zM790.2 53.6h3v3h-3zM790.2 56.6h3v3h-3zM793.2 50.6h3v3h-3zM793.2 44.6h3v3h-3zM793.2 47.6h3v3h-3zM796.2 38.6h3v3h-3zM799.2 35.6h3v3h-3zM796.2 41.6h3v3h-3z"/><g><path transform="rotate(-180 836.63 28.221)" class="st1" d="M835.1 26.7h3v3h-3z"/><path transform="rotate(-180 839.647 25.221)" class="st1" d="M838.2 23.7h3v3h-3z"/><path transform="rotate(-180 836.63 31.221)" class="st1" d="M835.1 29.7h3v3h-3z"/><path transform="rotate(-180 836.63 34.221)" class="st1" d="M835.1 32.7h3v3h-3z"/><path transform="rotate(-180 833.637 37.221)" class="st1" d="M832.1 35.7h3v3h-3z"/><path transform="rotate(-180 833.637 40.221)" class="st1" d="M832.1 38.7h3v3h-3z"/><path transform="rotate(-180 833.637 43.221)" class="st1" d="M832.1 41.7h3v3h-3z"/><path transform="rotate(-180 830.645 37.221)" class="st1" d="M829.1 35.7h3v3h-3z"/><path transform="rotate(-180 830.645 31.221)" class="st1" d="M829.1 29.7h3v3h-3z"/><path transform="rotate(-180 830.645 34.221)" class="st1" d="M829.1 32.7h3v3h-3z"/><path transform="rotate(-180 827.654 25.221)" class="st1" d="M826.2 23.7h3v3h-3z"/><path transform="rotate(-180 827.654 28.221)" class="st1" d="M826.2 26.7h3v3h-3z"/></g><g><path class="st1" d="M814.1 56.6h3v3h-3zM814.1 53.6h3v3h-3zM814.1 50.6h3v3h-3zM817.1 50.6h3v3h-3zM820.2 47.6h3v3h-3zM814.1 47.6h3v3h-3zM811.1 44.6h3v3h-3z"/></g><path class="st1" d="M841.1 44.7h3v11.9h-3zM778.1 47.7h3v11.9h-3zM775.3 44.9h2.8v2.8h-2.8z"/></g><g><path class="st1" d="M933.1 140.9h3v3h-3zM930 137.9h3v3h-3zM927 135h3v3h-3zM924 135h3v3h-3zM933.1 143.9h3v3h-3zM933.1 146.9h3v3h-3zM936.1 149.9h3v3h-3zM936.1 152.9h3v3h-3zM939.1 149.9h3v3h-3zM939.1 152.9h3v3h-3zM939.1 143.9h3v3h-3zM939.1 146.9h3v3h-3zM942.1 137.9h3v3h-3zM945.1 135h3v3h-3zM942.1 140.9h3v3h-3zM939.1 155.9h3v3h-3zM939.1 158.9h3v3h-3zM942.1 158.9h3v3h-3zM945.1 159.1h3v3h-3zM948.1 156.1h3v3h-3zM939.1 161.9h3v3h-3zM942.1 161.9h3v3h-3zM939.1 164.9h3v3h-3zM936.1 164.9h3v3h-3zM933.1 161.9h3v3h-3zM942.1 164.9h3v3h-3zM939.1 167.9h3v3h-3zM942.1 167.9h3v3h-3zM942.1 170.9h3v3h-3zM942.1 173.9h3v3h-3zM944.9 149.9h3v3h-3zM944.9 146.9h3v3h-3zM947.9 143.9h3v3h-3zM950.9 143.9h3v3h-3zM953.9 146.9h3v3h-3zM942.1 152.9h3v3h-3zM942.1 155.9h3v3h-3z"/></g><g><path class="st1" d="M990.1 171h3v3h-3zM987.1 168h3v3h-3zM984.1 165.1h3v3h-3zM981.1 165.1h3v3h-3zM990.1 174h3v3h-3zM990.1 177h3v3h-3zM993.1 180h3v3h-3zM993.1 183h3v3h-3zM996.1 180h3v3h-3zM996.1 183h3v3h-3zM996.1 174h3v3h-3zM996.1 177h3v3h-3zM999.1 168h3v3h-3zM1002.1 165.1h3v3h-3zM999.1 171h3v3h-3zM996.1 186h3v3h-3zM996.1 189h3v3h-3zM999.1 189h3v3h-3zM1002.1 189.2h3v3h-3zM1005.1 186.2h3v3h-3zM996.1 192h3v3h-3zM999.1 192h3v3h-3zM996.1 195h3v3h-3zM993.1 195h3v3h-3zM990.1 192h3v3h-3zM999.1 195h3v3h-3zM996.1 198h3v3h-3zM999.1 198h3v3h-3zM999.1 201h3v3h-3zM999.1 204h3v3h-3zM1001.9 180h3v3h-3zM1001.9 177h3v3h-3zM1004.9 174h3v3h-3zM1007.9 174h3v3h-3zM1011 177h3v3h-3zM999.1 183h3v3h-3zM999.1 186h3v3h-3z"/></g><g><path class="st1" d="M960.1 116.9h3v3h-3zM957.1 113.9h3v3h-3zM954.1 111h3v3h-3zM951.1 111h3v3h-3zM960.1 119.9h3v3h-3zM960.1 122.9h3v3h-3zM963.1 125.9h3v3h-3zM963.1 128.9h3v3h-3zM963.1 131.9h3v3h-3zM966.1 125.9h3v3h-3zM966.1 119.9h3v3h-3zM966.1 122.9h3v3h-3zM969.1 113.9h3v3h-3zM972.1 111h3v3h-3zM969.1 116.9h3v3h-3z"/></g><g><path transform="rotate(-180 967.56 175.546)" class="st1" d="M966.1 174h3v3h-3z"/><path transform="rotate(-180 970.577 172.546)" class="st1" d="M969.1 171h3v3h-3z"/><path transform="rotate(-180 967.56 178.546)" class="st1" d="M966.1 177h3v3h-3z"/><path transform="rotate(-180 967.56 181.546)" class="st1" d="M966.1 180h3v3h-3z"/><path transform="rotate(-180 964.568 184.546)" class="st1" d="M963.1 183h3v3h-3z"/><path transform="rotate(-180 964.568 187.546)" class="st1" d="M963.1 186h3v3h-3z"/><path transform="rotate(-180 964.568 190.546)" class="st1" d="M963.1 189h3v3h-3z"/><path transform="rotate(-180 961.576 184.546)" class="st1" d="M960.1 183h3v3h-3z"/><path transform="rotate(-180 961.576 178.546)" class="st1" d="M960.1 177h3v3h-3z"/><path transform="rotate(-180 961.576 181.546)" class="st1" d="M960.1 180h3v3h-3z"/><path transform="rotate(-180 958.585 172.546)" class="st1" d="M957.1 171h3v3h-3z"/><path transform="rotate(-180 958.585 175.546)" class="st1" d="M957.1 174h3v3h-3z"/></g><g><path transform="rotate(-180 934.477 125.048)" class="st1" d="M933.1 123.5h2.8v3h-2.8z"/><path transform="rotate(-180 934.477 122.048)" class="st1" d="M933.1 120.5h2.8v3h-2.8z"/><path transform="rotate(-180 934.477 119.048)" class="st1" d="M933.1 117.5h2.8v3h-2.8z"/><path transform="rotate(-180 931.673 119.048)" class="st1" d="M930.3 117.5h2.8v3h-2.8z"/><path transform="rotate(-180 928.847 116.048)" class="st1" d="M927.4 114.5h2.8v3h-2.8z"/><path transform="rotate(-180 934.477 116.048)" class="st1" d="M933.1 114.5h2.8v3h-2.8z"/><path transform="rotate(-180 937.281 113.072)" class="st1" d="M935.9 111.6h2.8v3h-2.8z"/></g><path class="st1" d="M978 129.2h3v11.9h-3z"/><g><path transform="rotate(-180 964.577 154.41)" class="st1" d="M963.1 152.9h3v3h-3z"/><path transform="rotate(-180 964.577 151.445)" class="st1" d="M963.1 149.9h3v3h-3z"/><path transform="rotate(-180 967.57 148.445)" class="st1" d="M966.1 146.9h3v3h-3z"/><path transform="rotate(-180 967.57 145.48)" class="st1" d="M966.1 144h3v3h-3z"/></g><g><path class="st1" d="M1017 96.1h3v3h-3zM1014 93.1h3v3h-3zM1011 90.1h3v3h-3zM1008 90.1h3v3h-3zM1017 99.1h3v3h-3zM1017 102.1h3v3h-3zM1020 105.1h3v3h-3zM1020 108.1h3v3h-3zM1023 105.1h3v3h-3zM1023 108.1h3v3h-3zM1023 99.1h3v3h-3zM1023 102.1h3v3h-3zM1026 93.1h3v3h-3zM1029 90.1h3v3h-3zM1026 96.1h3v3h-3zM1023 111.1h3v3h-3zM1023 114.1h3v3h-3zM1026 114.1h3v3h-3zM1029 114.2h3v3h-3zM1032 111.2h3v3h-3zM1023 117.1h3v3h-3zM1026 117.1h3v3h-3zM1023 120.1h3v3h-3zM1020 120.1h3v3h-3zM1017 117.1h3v3h-3zM1026 120.1h3v3h-3zM1023 123.1h3v3h-3zM1026 123.1h3v3h-3zM1026 126.1h3v3h-3zM1026 129.1h3v3h-3zM1028.8 105.1h3v3h-3zM1028.8 102.1h3v3h-3zM1031.8 99.1h3v3h-3zM1034.8 99.1h3v3h-3zM1037.8 102.1h3v3h-3zM1026 108.1h3v3h-3zM1026 111.1h3v3h-3z"/><g><path class="st1" d="M1005.1 138h3v3h-3zM1002 135h3v3h-3zM999 132.1h3v3h-3zM996 132.1h3v3h-3zM1005.1 141h3v3h-3zM1005.1 144h3v3h-3zM1008.1 147h3v3h-3zM1008.1 150h3v3h-3zM1008.1 153h3v3h-3zM1011.1 147h3v3h-3zM1011.1 141h3v3h-3zM1011.1 144h3v3h-3zM1014.1 135h3v3h-3zM1017.1 132.1h3v3h-3zM1014.1 138h3v3h-3z"/></g><g><path class="st1" d="M1065 125.9h3v3h-3zM1062 122.9h3v3h-3zM1059 119.9h3v3h-3zM1056 119.9h3v3h-3zM1065 128.9h3v3h-3zM1065 131.9h3v3h-3zM1068 134.9h3v3h-3zM1068 137.9h3v3h-3zM1068 140.9h3v3h-3zM1071 134.9h3v3h-3zM1071 128.9h3v3h-3zM1071 131.9h3v3h-3zM1074 122.9h3v3h-3zM1077 119.9h3v3h-3zM1074 125.9h3v3h-3z"/></g><g><path class="st1" d="M1041 78.1h3v3h-3zM1038 75.1h3v3h-3zM1035 72.1h3v3h-3zM1032 72.1h3v3h-3zM1041 81.1h3v3h-3zM1041 84.1h3v3h-3zM1044 87.1h3v3h-3zM1044 90.1h3v3h-3zM1044 93.1h3v3h-3zM1047 87.1h3v3h-3zM1047 81.1h3v3h-3zM1047 84.1h3v3h-3zM1050 75.1h3v3h-3zM1053 72.1h3v3h-3zM1050 78.1h3v3h-3z"/></g><g><path transform="rotate(-180 1045.48 124.682)" class="st1" d="M1044 123.2h3v3h-3z"/><path transform="rotate(-180 1048.497 121.682)" class="st1" d="M1047 120.2h3v3h-3z"/><path transform="rotate(-180 1045.48 127.682)" class="st1" d="M1044 126.2h3v3h-3z"/><path transform="rotate(-180 1045.48 130.681)" class="st1" d="M1044 129.2h3v3h-3z"/><path transform="rotate(-180 1042.487 133.681)" class="st1" d="M1041 132.2h3v3h-3z"/><path transform="rotate(-180 1042.487 136.681)" class="st1" d="M1041 135.2h3v3h-3z"/><path transform="rotate(-180 1042.487 139.681)" class="st1" d="M1041 138.2h3v3h-3z"/><path transform="rotate(-180 1039.496 133.681)" class="st1" d="M1038 132.2h3v3h-3z"/><path transform="rotate(-180 1039.496 127.682)" class="st1" d="M1038 126.2h3v3h-3z"/><path transform="rotate(-180 1039.496 130.681)" class="st1" d="M1038 129.2h3v3h-3z"/><path transform="rotate(-180 1036.504 121.682)" class="st1" d="M1035 120.2h3v3h-3z"/><path transform="rotate(-180 1036.504 124.682)" class="st1" d="M1035 123.2h3v3h-3z"/></g><g><path class="st1" d="M1032 153h3v3h-3zM1032 150h3v3h-3zM1032 147h3v3h-3zM1035 147h3v3h-3zM1038 144h3v3h-3zM1032 144h3v3h-3zM1029 141.1h3v3h-3z"/></g><g><path class="st1" d="M1048.5 214.2h3v3h-3zM1048.5 211.2h3v3h-3zM1048.5 208.2h3v3h-3zM1051.5 208.2h3v3h-3zM1054.5 205.2h3v3h-3zM1048.5 205.2h3v3h-3zM1045.5 202.3h3v3h-3z"/></g><g><path class="st1" d="M999 123.1h3v3h-3zM999 120.1h3v3h-3zM999 117.1h3v3h-3zM1002 117.1h3v3h-3zM1005.1 114.1h3v3h-3zM999 114.1h3v3h-3zM996 111.1h3v3h-3z"/></g><g><path transform="rotate(-180 1018.396 84.184)" class="st1" d="M1017 82.7h2.8v3h-2.8z"/><path transform="rotate(-180 1018.396 81.184)" class="st1" d="M1017 79.7h2.8v3h-2.8z"/><path transform="rotate(-180 1018.396 78.184)" class="st1" d="M1017 76.7h2.8v3h-2.8z"/><path transform="rotate(-180 1015.592 78.184)" class="st1" d="M1014.2 76.7h2.8v3h-2.8z"/><path transform="rotate(-180 1012.766 75.184)" class="st1" d="M1011.4 73.7h2.8v3h-2.8z"/><path transform="rotate(-180 1018.396 75.184)" class="st1" d="M1017 73.7h2.8v3h-2.8z"/><path transform="rotate(-180 1021.2 72.208)" class="st1" d="M1019.8 70.7h2.8v3h-2.8z"/></g><g><path class="st1" d="M999 99h3v3h-3z"/><path class="st1" d="M999 96.1h3v3h-3zM996 93.1h3v3h-3zM996 90.1h3v3h-3z"/></g><path class="st1" d="M1050 141.2h3v11.9h-3zM1029 178.4h3v11.9h-3zM1062 99h3v11.9h-3zM987.1 102.1h3V114h-3z"/><g><path class="st1" d="M990.1 138.2h3v11.9h-3zM987.3 135.4h2.8v2.8h-2.8z"/></g><g><path class="st1" d="M966 213.9h3v11.9h-3zM963.2 211.1h2.8v2.8h-2.8z"/></g><g><path transform="rotate(-180 1048.497 109.546)" class="st1" d="M1047 108h3v3h-3z"/><path transform="rotate(-180 1048.497 106.58)" class="st1" d="M1047 105.1h3v3h-3z"/><path transform="rotate(-180 1051.489 103.58)" class="st1" d="M1050 102.1h3v3h-3z"/><path transform="rotate(-180 1051.489 100.615)" class="st1" d="M1050 99.1h3v3h-3z"/></g></g><g><path class="st1" d="M1023 6h3v3h-3zM1019.9 3h3v3h-3zM1016.9 0h3v3h-3zM1013.9 0h3v3h-3zM1023 9h3v3h-3zM1023 12h3v3h-3zM1026 15h3v3h-3zM1026 18h3v3h-3zM1029 15h3v3h-3zM1029 18h3v3h-3zM1029 9h3v3h-3zM1029 12h3v3h-3zM1032 3h3v3h-3zM1035 0h3v3h-3zM1032 6h3v3h-3zM1029 21h3v3h-3zM1029 24h3v3h-3zM1032 24h3v3h-3zM1035 24.1h3v3h-3zM1038 21.1h3v3h-3zM1029 27h3v3h-3zM1032 27h3v3h-3zM1029 30h3v3h-3zM1026 30h3v3h-3zM1023 27h3v3h-3zM1032 30h3v3h-3zM1029 33h3v3h-3zM1032 33h3v3h-3zM1032 36h3v3h-3zM1032 39h3v3h-3zM1034.8 15h3v3h-3zM1034.8 12h3v3h-3zM1037.8 9h3v3h-3zM1040.8 9h3v3h-3zM1043.8 12h3v3h-3zM1032 18h3v3h-3zM1032 21h3v3h-3z"/></g><g><path class="st1" d="M1011 48h3v3h-3zM1008 45h3v3h-3zM1005 42h3v3h-3zM1002 42h3v3h-3zM1011 51h3v3h-3zM1011 54h3v3h-3zM1014 57h3v3h-3zM1014 60h3v3h-3zM1014 63h3v3h-3zM1017 57h3v3h-3zM1017 51h3v3h-3zM1017 54h3v3h-3zM1020 45h3v3h-3zM1023 42h3v3h-3zM1020 48h3v3h-3z"/></g><g><path transform="rotate(-180 1051.465 34.597)" class="st1" d="M1050 33.1h3v3h-3z"/><path transform="rotate(-180 1054.483 31.597)" class="st1" d="M1053 30.1h3v3h-3z"/><path transform="rotate(-180 1051.465 37.597)" class="st1" d="M1050 36.1h3v3h-3z"/><path transform="rotate(-180 1051.465 40.597)" class="st1" d="M1050 39.1h3v3h-3z"/><path transform="rotate(-180 1048.473 43.597)" class="st1" d="M1047 42.1h3v3h-3z"/><path transform="rotate(-180 1048.473 46.597)" class="st1" d="M1047 45.1h3v3h-3z"/><path transform="rotate(-180 1048.473 49.597)" class="st1" d="M1047 48.1h3v3h-3z"/><path transform="rotate(-180 1045.481 43.597)" class="st1" d="M1044 42.1h3v3h-3z"/><path transform="rotate(-180 1045.481 37.597)" class="st1" d="M1044 36.1h3v3h-3z"/><path transform="rotate(-180 1045.481 40.597)" class="st1" d="M1044 39.1h3v3h-3z"/><path transform="rotate(-180 1042.49 31.597)" class="st1" d="M1041 30.1h3v3h-3z"/><path transform="rotate(-180 1042.49 34.597)" class="st1" d="M1041 33.1h3v3h-3z"/></g><g><path transform="rotate(-180 1066.475 64.665)" class="st1" d="M1065 63.2h3v3h-3z"/><path transform="rotate(-180 1069.492 61.665)" class="st1" d="M1068 60.2h3v3h-3z"/><path transform="rotate(-180 1066.475 67.665)" class="st1" d="M1065 66.2h3v3h-3z"/><path transform="rotate(-180 1066.475 70.665)" class="st1" d="M1065 69.2h3v3h-3z"/><path transform="rotate(-180 1063.483 73.665)" class="st1" d="M1062 72.2h3v3h-3z"/><path transform="rotate(-180 1063.483 76.665)" class="st1" d="M1062 75.2h3v3h-3z"/><path transform="rotate(-180 1063.483 79.665)" class="st1" d="M1062 78.2h3v3h-3z"/><path transform="rotate(-180 1060.491 73.665)" class="st1" d="M1059 72.2h3v3h-3z"/><path transform="rotate(-180 1060.491 67.665)" class="st1" d="M1059 66.2h3v3h-3z"/><path transform="rotate(-180 1060.491 70.665)" class="st1" d="M1059 69.2h3v3h-3z"/><path transform="rotate(-180 1057.5 61.665)" class="st1" d="M1056 60.2h3v3h-3z"/><path transform="rotate(-180 1057.5 64.665)" class="st1" d="M1056 63.2h3v3h-3z"/></g><g><path class="st1" d="M1038 62.9h3v3h-3zM1038 59.9h3v3h-3zM1038 56.9h3v3h-3zM1041 56.9h3v3h-3zM1044 53.9h3v3h-3zM1038 53.9h3v3h-3zM1035 51h3v3h-3z"/></g><g><path class="st1" d="M1065 42.1h3v3h-3zM1065 39.1h3v3h-3zM1065 36.1h3v3h-3zM1068 36.1h3v3h-3zM1071 33.1h3v3h-3zM1065 33.1h3v3h-3zM1062 30.1h3v3h-3z"/></g><g><path class="st1" d="M1005 33h3v3h-3zM1005 30h3v3h-3zM1005 27h3v3h-3zM1008 27h3v3h-3zM1011 24h3v3h-3zM1005 24h3v3h-3zM1002 21h3v3h-3z"/></g><g><path class="st1" d="M1005 14.9h3v3h-3z"/><path class="st1" d="M1005 12h3v3h-3zM1002 9h3v3h-3zM1002 6h3v3h-3z"/></g><path class="st1" d="M993.1 12.1h3V24h-3zM953.8 6.7h3v11.9h-3zM996.1 48.2h3v11.9h-3z"/><g><path transform="rotate(-180 1054.483 19.461)" class="st1" d="M1053 18h3v3h-3z"/><path transform="rotate(-180 1054.483 16.496)" class="st1" d="M1053 15h3v3h-3z"/><path transform="rotate(-180 1057.474 13.496)" class="st1" d="M1056 12h3v3h-3z"/><path transform="rotate(-180 1057.474 10.53)" class="st1" d="M1056 9h3v3h-3z"/></g><g><path class="st1" d="M843.6 122.8h3v3h-3zM840.6 119.8h3v3h-3zM843.6 125.8h3v3h-3zM843.6 128.8h3v3h-3zM846.6 131.8h3v3h-3zM846.6 134.8h3v3h-3zM846.6 137.8h3v3h-3zM849.6 131.8h3v3h-3zM849.6 125.8h3v3h-3zM849.6 128.8h3v3h-3zM852.6 119.8h3v3h-3zM852.6 122.8h3v3h-3z"/></g><g><path class="st1" d="M801.6 98.7h3v3h-3zM798.6 95.7h3v3h-3zM795.6 92.7h3v3h-3zM792.6 92.7h3v3h-3zM801.6 101.7h3v3h-3zM801.6 104.7h3v3h-3zM804.6 107.7h3v3h-3zM804.6 110.7h3v3h-3zM807.6 107.7h3v3h-3zM807.6 110.7h3v3h-3zM807.6 101.7h3v3h-3zM807.6 104.7h3v3h-3zM810.6 95.7h3v3h-3zM813.6 92.7h3v3h-3zM810.6 98.7h3v3h-3zM807.6 113.7h3v3h-3zM807.6 116.7h3v3h-3zM810.6 116.7h3v3h-3zM813.6 116.8h3v3h-3zM816.6 113.8h3v3h-3zM807.6 119.7h3v3h-3zM810.6 119.7h3v3h-3zM807.6 122.7h3v3h-3zM804.6 122.7h3v3h-3zM801.6 119.7h3v3h-3zM810.6 122.7h3v3h-3zM807.6 125.7h3v3h-3zM810.6 125.7h3v3h-3zM810.6 128.7h3v3h-3zM810.6 131.7h3v3h-3zM813.4 107.7h3v3h-3zM813.4 104.7h3v3h-3zM816.4 101.7h3v3h-3zM819.4 101.7h3v3h-3zM822.5 104.7h3v3h-3zM810.6 110.7h3v3h-3zM810.6 113.7h3v3h-3z"/><g><path class="st1" d="M789.7 140.6h3v3h-3zM786.7 137.6h3v3h-3zM783.7 134.7h3v3h-3zM780.7 134.7h3v3h-3zM789.7 143.6h3v3h-3zM789.7 146.6h3v3h-3zM792.7 149.6h3v3h-3zM792.7 152.6h3v3h-3zM792.7 155.6h3v3h-3zM795.7 149.6h3v3h-3zM795.7 143.6h3v3h-3zM795.7 146.6h3v3h-3zM798.7 137.6h3v3h-3zM801.7 134.7h3v3h-3zM798.7 140.6h3v3h-3z"/></g><g><path class="st1" d="M828.6 74.7h3v3h-3zM825.6 71.7h3v3h-3zM822.6 68.7h3v3h-3zM819.6 68.7h3v3h-3zM828.6 77.7h3v3h-3zM828.6 80.7h3v3h-3zM831.6 83.7h3v3h-3zM831.6 86.7h3v3h-3zM831.6 89.7h3v3h-3zM834.6 83.7h3v3h-3zM834.6 77.7h3v3h-3zM834.6 80.7h3v3h-3zM837.6 71.7h3v3h-3zM840.6 68.7h3v3h-3zM837.6 74.7h3v3h-3z"/></g><g><path transform="rotate(-180 830.102 127.27)" class="st1" d="M828.6 125.8h3v3h-3z"/><path transform="rotate(-180 833.12 124.27)" class="st1" d="M831.6 122.8h3v3h-3z"/><path transform="rotate(-180 830.102 130.27)" class="st1" d="M828.6 128.8h3v3h-3z"/><path transform="rotate(-180 830.102 133.27)" class="st1" d="M828.6 131.8h3v3h-3z"/><path transform="rotate(-180 827.11 136.27)" class="st1" d="M825.6 134.8h3v3h-3z"/><path transform="rotate(-180 827.11 139.27)" class="st1" d="M825.6 137.8h3v3h-3z"/><path transform="rotate(-180 827.11 142.27)" class="st1" d="M825.6 140.8h3v3h-3z"/><path transform="rotate(-180 824.119 136.27)" class="st1" d="M822.6 134.8h3v3h-3z"/><path transform="rotate(-180 824.119 130.27)" class="st1" d="M822.6 128.8h3v3h-3z"/><path transform="rotate(-180 824.119 133.27)" class="st1" d="M822.6 131.8h3v3h-3z"/><path transform="rotate(-180 821.127 124.27)" class="st1" d="M819.6 122.8h3v3h-3z"/><path transform="rotate(-180 821.127 127.27)" class="st1" d="M819.6 125.8h3v3h-3z"/></g><g><path class="st1" d="M771.9 71.7h2.9v3h-2.9zM769 68.7h2.9v3H769zM771.9 74.7h2.9v3h-2.9zM771.9 77.7h2.9v3h-2.9zM774.9 80.7h2.9v3h-2.9zM774.9 83.7h2.9v3h-2.9zM774.9 86.7h2.9v3h-2.9zM777.8 80.7h2.9v3h-2.9zM777.8 74.7h2.9v3h-2.9zM777.8 77.7h2.9v3h-2.9zM780.7 68.7h2.9v3h-2.9zM780.7 71.7h2.9v3h-2.9z"/></g><g><path class="st1" d="M816.6 155.6h3v3h-3zM816.6 152.6h3v3h-3zM816.6 149.6h3v3h-3zM819.6 149.6h3v3h-3zM822.6 146.6h3v3h-3zM816.6 146.6h3v3h-3zM813.6 143.6h3v3h-3z"/></g><g><path class="st1" d="M783.7 125.6h3v3h-3zM783.7 122.6h3v3h-3zM783.7 119.6h3v3h-3zM786.7 119.6h3v3h-3zM789.7 116.6h3v3h-3zM783.7 116.6h3v3h-3zM780.7 113.7h3v3h-3z"/></g><g><path transform="rotate(-180 803.02 82.773)" class="st1" d="M801.6 81.3h2.8v3h-2.8z"/><path transform="rotate(-180 803.02 79.773)" class="st1" d="M801.6 78.3h2.8v3h-2.8z"/><path transform="rotate(-180 803.02 76.773)" class="st1" d="M801.6 75.3h2.8v3h-2.8z"/><path transform="rotate(-180 800.215 76.773)" class="st1" d="M798.8 75.3h2.8v3h-2.8z"/><path transform="rotate(-180 797.39 73.773)" class="st1" d="M796 72.3h2.8v3H796z"/><path transform="rotate(-180 803.02 73.773)" class="st1" d="M801.6 72.3h2.8v3h-2.8z"/><path transform="rotate(-180 805.823 70.797)" class="st1" d="M804.4 69.3h2.8v3h-2.8z"/></g><g><path class="st1" d="M783.7 101.6h3v3h-3z"/><path class="st1" d="M783.7 98.7h3v3h-3zM780.7 95.7h3v3h-3zM780.7 92.7h3v3h-3z"/></g><path class="st1" d="M834.6 143.8h3v11.9h-3zM768.5 116.4h3v11.9h-3z"/><g><path transform="rotate(-180 833.12 112.135)" class="st1" d="M831.6 110.6h3v3h-3z"/><path transform="rotate(-180 833.12 109.17)" class="st1" d="M831.6 107.7h3v3h-3z"/><path transform="rotate(-180 836.111 106.17)" class="st1" d="M834.6 104.7h3v3h-3z"/><path transform="rotate(-180 836.111 103.204)" class="st1" d="M834.6 101.7h3v3h-3z"/></g></g><g><path class="st1" d="M789.5 194.7h3v3h-3zM786.4 191.7h3v3h-3zM783.4 188.7h3v3h-3zM780.4 188.7h3v3h-3zM789.5 197.7h3v3h-3zM789.5 200.7h3v3h-3zM792.5 203.7h3v3h-3zM792.5 206.7h3v3h-3zM795.5 203.7h3v3h-3zM795.5 206.7h3v3h-3zM795.5 197.7h3v3h-3zM795.5 200.7h3v3h-3zM798.5 191.7h3v3h-3zM801.5 188.7h3v3h-3zM798.5 194.7h3v3h-3zM795.5 209.7h3v3h-3zM795.5 212.7h3v3h-3zM798.5 212.7h3v3h-3zM801.5 212.8h3v3h-3zM804.5 209.8h3v3h-3zM795.5 215.7h3v3h-3zM798.5 215.7h3v3h-3zM795.5 218.7h3v3h-3zM792.5 218.7h3v3h-3zM789.5 215.7h3v3h-3zM798.5 218.7h3v3h-3zM795.5 221.7h3v3h-3zM798.5 221.7h3v3h-3zM798.5 224.7h3v3h-3zM798.5 227.7h3v3h-3zM801.3 203.7h3v3h-3zM801.3 200.7h3v3h-3zM804.3 197.7h3v3h-3zM807.3 197.7h3v3h-3zM810.3 200.7h3v3h-3zM798.5 206.7h3v3h-3zM798.5 209.7h3v3h-3z"/></g><g><path class="st1" d="M816.5 170.6h3v3h-3zM813.5 167.6h3v3h-3zM810.5 164.7h3v3h-3zM807.5 164.7h3v3h-3zM816.5 173.6h3v3h-3zM816.5 176.6h3v3h-3zM819.5 179.6h3v3h-3zM819.5 182.6h3v3h-3zM819.5 185.6h3v3h-3zM822.5 179.6h3v3h-3zM822.5 173.6h3v3h-3zM822.5 176.6h3v3h-3zM825.5 167.6h3v3h-3zM828.5 164.7h3v3h-3zM825.5 170.6h3v3h-3z"/></g><g><path class="st1" d="M759.8 167.6h2.9v3h-2.9zM756.9 164.6h2.9v3h-2.9zM759.8 170.6h2.9v3h-2.9zM759.8 173.6h2.9v3h-2.9zM762.7 176.6h2.9v3h-2.9zM762.7 179.6h2.9v3h-2.9zM762.7 182.6h2.9v3h-2.9zM765.6 176.6h2.9v3h-2.9zM765.6 170.6h2.9v3h-2.9zM765.6 173.6h2.9v3h-2.9zM768.6 164.6h2.9v3h-2.9zM768.6 167.6h2.9v3h-2.9z"/></g><g><path transform="rotate(-180 790.885 178.757)" class="st1" d="M789.5 177.3h2.8v3h-2.8z"/><path transform="rotate(-180 790.885 175.757)" class="st1" d="M789.5 174.3h2.8v3h-2.8z"/><path transform="rotate(-180 790.885 172.757)" class="st1" d="M789.5 171.3h2.8v3h-2.8z"/><path transform="rotate(-180 788.082 172.757)" class="st1" d="M786.7 171.3h2.8v3h-2.8z"/><path transform="rotate(-180 785.255 169.757)" class="st1" d="M783.9 168.3h2.8v3h-2.8z"/><path transform="rotate(-180 790.885 169.757)" class="st1" d="M789.5 168.3h2.8v3h-2.8z"/><path transform="rotate(-180 793.69 166.78)" class="st1" d="M792.3 165.3h2.8v3h-2.8z"/></g><g><path class="st1" d="M771.5 197.6h3v3h-3z"/><path class="st1" d="M771.5 194.7h3v3h-3zM768.5 191.7h3v3h-3zM768.5 188.7h3v3h-3z"/></g><path class="st1" d="M834.4 182.9h3v11.9h-3z"/><g><path transform="rotate(-180 823.986 217.119)" class="st1" d="M822.5 215.6h3v3h-3z"/><path transform="rotate(-180 823.986 214.153)" class="st1" d="M822.5 212.7h3v3h-3z"/><path transform="rotate(-180 826.978 211.153)" class="st1" d="M825.5 209.7h3v3h-3z"/><path transform="rotate(-180 826.978 208.188)" class="st1" d="M825.5 206.7h3v3h-3z"/></g><g><path class="st1" d="M873.4 149.8h3v3h-3zM870.4 146.8h3v3h-3zM867.4 143.8h3v3h-3zM864.4 143.8h3v3h-3zM873.4 152.8h3v3h-3zM873.4 155.8h3v3h-3zM876.4 158.8h3v3h-3zM876.4 161.8h3v3h-3zM879.4 158.8h3v3h-3zM879.4 161.8h3v3h-3zM879.4 152.8h3v3h-3zM879.4 155.8h3v3h-3zM882.4 146.8h3v3h-3zM885.4 143.8h3v3h-3zM882.4 149.8h3v3h-3zM879.4 164.8h3v3h-3zM879.4 167.8h3v3h-3zM882.4 167.8h3v3h-3zM885.4 167.9h3v3h-3zM888.4 164.9h3v3h-3zM879.4 170.8h3v3h-3zM882.4 170.8h3v3h-3zM879.4 173.8h3v3h-3zM876.4 173.8h3v3h-3zM873.4 170.8h3v3h-3zM882.4 173.8h3v3h-3zM879.4 176.8h3v3h-3zM882.4 176.8h3v3h-3zM882.4 179.8h3v3h-3zM882.4 182.8h3v3h-3zM885.2 158.8h3v3h-3zM885.2 155.8h3v3h-3zM888.2 152.8h3v3h-3zM891.2 152.8h3v3h-3zM894.2 155.8h3v3h-3zM882.4 161.8h3v3h-3zM882.4 164.8h3v3h-3z"/><g><path class="st1" d="M861.5 191.8h3v3h-3zM858.4 188.8h3v3h-3zM855.4 185.8h3v3h-3zM852.4 185.8h3v3h-3zM861.5 194.8h3v3h-3zM861.5 197.8h3v3h-3zM864.5 200.8h3v3h-3zM864.5 203.8h3v3h-3zM864.5 206.8h3v3h-3zM867.5 200.8h3v3h-3zM867.5 194.8h3v3h-3zM867.5 197.8h3v3h-3zM870.5 188.8h3v3h-3zM873.5 185.8h3v3h-3zM870.5 191.8h3v3h-3z"/></g><g><path class="st1" d="M897.4 131.8h3v3h-3zM894.4 128.8h3v3h-3zM891.4 125.8h3v3h-3zM888.4 125.8h3v3h-3zM897.4 134.8h3v3h-3zM897.4 137.8h3v3h-3zM900.4 140.8h3v3h-3zM900.4 143.8h3v3h-3zM900.4 146.8h3v3h-3zM903.4 140.8h3v3h-3zM903.4 134.8h3v3h-3zM903.4 137.8h3v3h-3zM906.4 128.8h3v3h-3zM909.4 125.8h3v3h-3zM906.4 131.8h3v3h-3z"/></g><g><path transform="rotate(-180 904.888 181.39)" class="st1" d="M903.4 179.9h3v3h-3z"/><path transform="rotate(-180 907.905 178.39)" class="st1" d="M906.4 176.9h3v3h-3z"/><path transform="rotate(-180 904.888 184.39)" class="st1" d="M903.4 182.9h3v3h-3z"/><path transform="rotate(-180 904.888 187.39)" class="st1" d="M903.4 185.9h3v3h-3z"/><path transform="rotate(-180 901.896 190.39)" class="st1" d="M900.4 188.9h3v3h-3z"/><path transform="rotate(-180 901.896 193.39)" class="st1" d="M900.4 191.9h3v3h-3z"/><path transform="rotate(-180 901.896 196.39)" class="st1" d="M900.4 194.9h3v3h-3z"/><path transform="rotate(-180 898.904 190.39)" class="st1" d="M897.4 188.9h3v3h-3z"/><path transform="rotate(-180 898.904 184.39)" class="st1" d="M897.4 182.9h3v3h-3z"/><path transform="rotate(-180 898.904 187.39)" class="st1" d="M897.4 185.9h3v3h-3z"/><path transform="rotate(-180 895.912 178.39)" class="st1" d="M894.4 176.9h3v3h-3z"/><path transform="rotate(-180 895.912 181.39)" class="st1" d="M894.4 179.9h3v3h-3z"/></g><g><path transform="rotate(-180 932.167 187.546)" class="st1" d="M930.7 186h3v3h-3z"/><path transform="rotate(-180 935.184 184.546)" class="st1" d="M933.7 183h3v3h-3z"/><path transform="rotate(-180 932.167 190.546)" class="st1" d="M930.7 189h3v3h-3z"/><path transform="rotate(-180 932.167 193.546)" class="st1" d="M930.7 192h3v3h-3z"/><path transform="rotate(-180 929.175 196.546)" class="st1" d="M927.7 195h3v3h-3z"/><path transform="rotate(-180 929.175 199.546)" class="st1" d="M927.7 198h3v3h-3z"/><path transform="rotate(-180 929.175 202.546)" class="st1" d="M927.7 201h3v3h-3z"/><path transform="rotate(-180 926.183 196.546)" class="st1" d="M924.7 195h3v3h-3z"/><path transform="rotate(-180 926.183 190.546)" class="st1" d="M924.7 189h3v3h-3z"/><path transform="rotate(-180 926.183 193.546)" class="st1" d="M924.7 192h3v3h-3z"/><path transform="rotate(-180 923.191 184.546)" class="st1" d="M921.7 183h3v3h-3z"/><path transform="rotate(-180 923.191 187.546)" class="st1" d="M921.7 186h3v3h-3z"/></g><g><path class="st1" d="M888.4 214.7h3v3h-3zM888.4 211.7h3v3h-3zM888.4 208.7h3v3h-3zM891.4 208.7h3v3h-3zM894.4 205.7h3v3h-3zM888.4 205.7h3v3h-3zM885.4 202.8h3v3h-3z"/></g><g><path class="st1" d="M828.6 257.7h3v3h-3zM828.6 254.7h3v3h-3zM828.6 251.7h3v3h-3zM831.6 251.7h3v3h-3zM834.6 248.7h3v3h-3zM828.6 248.7h3v3h-3zM825.6 245.8h3v3h-3z"/></g><g><path class="st1" d="M855.4 152.8h3v3h-3zM855.4 149.8h3v3h-3zM852.5 146.8h3v3h-3zM852.5 143.8h3v3h-3z"/></g><path class="st1" d="M912.4 212.9h3v11.9h-3zM867.5 221.7h3v11.9h-3zM843.5 155.9h3v11.9h-3zM846.5 210h3v11.9h-3zM843.7 207.1h2.8v2.8h-2.8z"/><g><path transform="rotate(-180 904.905 163.254)" class="st1" d="M903.4 161.8h3v3h-3z"/><path transform="rotate(-180 904.905 160.289)" class="st1" d="M903.4 158.8h3v3h-3z"/><path transform="rotate(-180 907.897 157.289)" class="st1" d="M906.4 155.8h3v3h-3z"/><path transform="rotate(-180 907.897 154.323)" class="st1" d="M906.4 152.8h3v3h-3z"/></g><g><path transform="rotate(-180 927.68 253.213)" class="st1" d="M926.2 251.7h3v3h-3z"/><path transform="rotate(-180 927.68 250.247)" class="st1" d="M926.2 248.7h3v3h-3z"/><path transform="rotate(-180 930.67 247.247)" class="st1" d="M929.2 245.7h3v3h-3z"/><path transform="rotate(-180 930.67 244.281)" class="st1" d="M929.2 242.8h3v3h-3z"/></g></g><g><path class="st1" d="M879.4 59.7h3v3h-3zM876.4 56.7h3v3h-3zM873.4 53.7h3v3h-3zM870.4 53.7h3v3h-3zM879.4 62.7h3v3h-3zM879.4 65.7h3v3h-3zM882.4 68.7h3v3h-3zM882.4 71.7h3v3h-3zM885.4 68.7h3v3h-3zM885.4 71.7h3v3h-3zM885.4 62.7h3v3h-3zM885.4 65.7h3v3h-3zM888.4 56.7h3v3h-3zM891.4 53.7h3v3h-3zM888.4 59.7h3v3h-3zM885.4 74.7h3v3h-3zM885.4 77.7h3v3h-3zM888.4 77.7h3v3h-3zM891.4 77.8h3v3h-3zM894.4 74.8h3v3h-3zM885.4 80.7h3v3h-3zM888.4 80.7h3v3h-3zM885.4 83.7h3v3h-3zM882.4 83.7h3v3h-3zM879.4 80.7h3v3h-3zM888.4 83.7h3v3h-3zM885.4 86.7h3v3h-3zM888.4 86.7h3v3h-3zM888.4 89.7h3v3h-3zM888.4 92.7h3v3h-3zM891.2 68.7h3v3h-3zM891.2 65.7h3v3h-3zM894.2 62.7h3v3h-3zM897.2 62.7h3v3h-3zM900.2 65.7h3v3h-3zM888.4 71.7h3v3h-3zM888.4 74.7h3v3h-3z"/></g><g><path class="st1" d="M867.5 101.7h3v3h-3zM864.4 98.7h3v3h-3zM861.4 95.7h3v3h-3zM858.4 95.7h3v3h-3zM867.5 104.7h3v3h-3zM867.5 107.7h3v3h-3zM870.5 110.7h3v3h-3zM870.5 113.7h3v3h-3zM870.5 116.7h3v3h-3zM873.5 110.7h3v3h-3zM873.5 104.7h3v3h-3zM873.5 107.7h3v3h-3zM876.5 98.7h3v3h-3zM879.5 95.7h3v3h-3zM876.5 101.7h3v3h-3z"/></g><g><path transform="rotate(-180 907.874 88.305)" class="st1" d="M906.4 86.8h3v3h-3z"/><path transform="rotate(-180 910.891 85.305)" class="st1" d="M909.4 83.8h3v3h-3z"/><path transform="rotate(-180 907.874 91.305)" class="st1" d="M906.4 89.8h3v3h-3z"/><path transform="rotate(-180 907.874 94.305)" class="st1" d="M906.4 92.8h3v3h-3z"/><path transform="rotate(-180 904.882 97.305)" class="st1" d="M903.4 95.8h3v3h-3z"/><path transform="rotate(-180 904.882 100.305)" class="st1" d="M903.4 98.8h3v3h-3z"/><path transform="rotate(-180 904.882 103.305)" class="st1" d="M903.4 101.8h3v3h-3z"/><path transform="rotate(-180 901.89 97.305)" class="st1" d="M900.4 95.8h3v3h-3z"/><path transform="rotate(-180 901.89 91.305)" class="st1" d="M900.4 89.8h3v3h-3z"/><path transform="rotate(-180 901.89 94.305)" class="st1" d="M900.4 92.8h3v3h-3z"/><path transform="rotate(-180 898.898 85.305)" class="st1" d="M897.4 83.8h3v3h-3z"/><path transform="rotate(-180 898.898 88.305)" class="st1" d="M897.4 86.8h3v3h-3z"/></g><g><path class="st1" d="M894.4 116.7h3v3h-3zM894.4 113.7h3v3h-3zM894.4 110.7h3v3h-3zM897.4 110.7h3v3h-3zM900.4 107.7h3v3h-3zM894.4 107.7h3v3h-3zM891.4 104.7h3v3h-3z"/></g><g><path class="st1" d="M861.4 86.7h3v3h-3zM861.4 83.7h3v3h-3zM861.4 80.7h3v3h-3zM864.4 80.7h3v3h-3zM867.5 77.7h3v3h-3zM861.4 77.7h3v3h-3zM858.4 74.7h3v3h-3z"/></g><g><path class="st1" d="M861.4 62.7h3v3h-3zM861.4 59.7h3v3h-3zM858.4 56.7h3v3h-3zM858.4 53.7h3v3h-3z"/></g><path class="st1" d="M912.4 104.8h3v11.9h-3zM849.5 65.8h3v11.9h-3zM825.6 53.7h3v11.9h-3zM852.5 101.9h3v11.9h-3z"/><g><path transform="rotate(-180 910.891 73.17)" class="st1" d="M909.4 71.7h3v3h-3z"/><path transform="rotate(-180 910.891 70.204)" class="st1" d="M909.4 68.7h3v3h-3z"/><path transform="rotate(-180 913.883 67.204)" class="st1" d="M912.4 65.7h3v3h-3z"/><path transform="rotate(-180 913.883 64.238)" class="st1" d="M912.4 62.7h3v3h-3z"/></g></g></svg>