<?xml version="1.0" encoding="utf-8"?>
<svg id="master-artboard" viewBox="0 0 459.11962890625 453.2197265625" xmlns="http://www.w3.org/2000/svg" width="459.11962890625px" height="453.2197265625px" version="1.1" style="shape-rendering:geometricPrecision; text-rendering:geometricPrecision; image-rendering:optimizeQuality; fill-rule:evenodd; clip-rule:evenodd"><rect id="ee-background" x="0" y="0" width="459.11962890625" height="453.2197265625" style="fill: white; fill-opacity: 0; pointer-events: none;"/><defs><clipPath id="clip1">
  <path d="M 55 432 L 158 432 L 158 719 L 55 719 Z M 55 432 " id="svg_1"/>
</clipPath><clipPath id="clip2">
  <path d="M 151.210938 658.28125 C 142.679688 661.21875 138.144531 670.519531 141.085938 679.050781 C 144.023438 687.582031 153.324219 692.113281 161.855469 689.175781 C 170.386719 686.238281 174.921875 676.9375 171.980469 668.40625 C 169.042969 659.875 159.742188 655.339844 151.210938 658.28125 Z M 81.753906 456.65625 C 73.222656 459.597656 68.6875 468.894531 71.628906 477.425781 C 74.566406 485.960938 83.867188 490.492188 92.398438 487.554688 C 100.929688 484.613281 105.464844 475.316406 102.523438 466.785156 C 99.585938 458.253906 90.285156 453.71875 81.753906 456.65625 Z M 93.316406 418.554688 L 143.875 565.3125 L 194.429688 712.070312 L 150.292969 727.277344 L 107.339844 602.589844 L 116.164062 599.546875 C 123.46875 597.03125 127.359375 589.046875 124.847656 581.742188 L 118.765625 564.089844 C 116.25 556.789062 108.261719 552.894531 100.960938 555.410156 L 92.132812 558.449219 L 49.179688 433.761719 Z M 93.316406 418.554688 " id="svg_2"/>
</clipPath><clipPath id="clip3">
  <path d="M 65 429 L 168 429 L 168 716 L 65 716 Z M 65 429 " id="svg_3"/>
</clipPath><clipPath id="clip4">
  <path d="M 151.210938 658.28125 C 142.679688 661.21875 138.144531 670.519531 141.085938 679.050781 C 144.023438 687.582031 153.324219 692.113281 161.855469 689.175781 C 170.386719 686.238281 174.921875 676.9375 171.980469 668.40625 C 169.042969 659.875 159.742188 655.339844 151.210938 658.28125 Z M 81.753906 456.65625 C 73.222656 459.597656 68.6875 468.894531 71.628906 477.425781 C 74.566406 485.960938 83.867188 490.492188 92.398438 487.554688 C 100.929688 484.613281 105.464844 475.316406 102.523438 466.785156 C 99.585938 458.253906 90.285156 453.71875 81.753906 456.65625 Z M 93.316406 418.554688 L 143.875 565.3125 L 194.429688 712.070312 L 150.292969 727.277344 L 107.339844 602.589844 L 116.164062 599.546875 C 123.46875 597.03125 127.359375 589.046875 124.847656 581.742188 L 118.765625 564.089844 C 116.25 556.789062 108.261719 552.894531 100.960938 555.410156 L 92.132812 558.449219 L 49.179688 433.761719 Z M 93.316406 418.554688 " id="svg_4"/>
</clipPath><clipPath id="clip5">
  <path d="M 74 425 L 177 425 L 177 712 L 74 712 Z M 74 425 " id="svg_5"/>
</clipPath><clipPath id="clip6">
  <path d="M 151.210938 658.28125 C 142.679688 661.21875 138.144531 670.519531 141.085938 679.050781 C 144.023438 687.582031 153.324219 692.113281 161.855469 689.175781 C 170.386719 686.238281 174.921875 676.9375 171.980469 668.40625 C 169.042969 659.875 159.742188 655.339844 151.210938 658.28125 Z M 81.753906 456.65625 C 73.222656 459.597656 68.6875 468.894531 71.628906 477.425781 C 74.566406 485.960938 83.867188 490.492188 92.398438 487.554688 C 100.929688 484.613281 105.464844 475.316406 102.523438 466.785156 C 99.585938 458.253906 90.285156 453.71875 81.753906 456.65625 Z M 93.316406 418.554688 L 143.875 565.3125 L 194.429688 712.070312 L 150.292969 727.277344 L 107.339844 602.589844 L 116.164062 599.546875 C 123.46875 597.03125 127.359375 589.046875 124.847656 581.742188 L 118.765625 564.089844 C 116.25 556.789062 108.261719 552.894531 100.960938 555.410156 L 92.132812 558.449219 L 49.179688 433.761719 Z M 93.316406 418.554688 " id="svg_6"/>
</clipPath><clipPath id="clip7">
  <path d="M 84 422 L 187 422 L 187 709 L 84 709 Z M 84 422 " id="svg_7"/>
</clipPath><clipPath id="clip8">
  <path d="M 151.210938 658.28125 C 142.679688 661.21875 138.144531 670.519531 141.085938 679.050781 C 144.023438 687.582031 153.324219 692.113281 161.855469 689.175781 C 170.386719 686.238281 174.921875 676.9375 171.980469 668.40625 C 169.042969 659.875 159.742188 655.339844 151.210938 658.28125 Z M 81.753906 456.65625 C 73.222656 459.597656 68.6875 468.894531 71.628906 477.425781 C 74.566406 485.960938 83.867188 490.492188 92.398438 487.554688 C 100.929688 484.613281 105.464844 475.316406 102.523438 466.785156 C 99.585938 458.253906 90.285156 453.71875 81.753906 456.65625 Z M 93.316406 418.554688 L 143.875 565.3125 L 194.429688 712.070312 L 150.292969 727.277344 L 107.339844 602.589844 L 116.164062 599.546875 C 123.46875 597.03125 127.359375 589.046875 124.847656 581.742188 L 118.765625 564.089844 C 116.25 556.789062 108.261719 552.894531 100.960938 555.410156 L 92.132812 558.449219 L 49.179688 433.761719 Z M 93.316406 418.554688 " id="svg_8"/>
</clipPath><clipPath id="clip9">
  <path d="M 268 475 L 291 475 L 291 506 L 268 506 Z M 268 475 " id="svg_9"/>
</clipPath><clipPath id="clip10">
  <path d="M 305.6875 427.519531 L 269.992188 523.152344 L 263.171875 520.605469 L 298.867188 424.976562 L 304.027344 421.558594 Z M 305.6875 427.519531 " id="svg_10"/>
</clipPath><clipPath id="clip11">
  <path d="M 273 461 L 296 461 L 296 491 L 273 491 Z M 273 461 " id="svg_11"/>
</clipPath><clipPath id="clip12">
  <path d="M 305.6875 427.519531 L 269.992188 523.152344 L 263.171875 520.605469 L 298.867188 424.976562 L 304.027344 421.558594 Z M 305.6875 427.519531 " id="svg_12"/>
</clipPath><clipPath id="clip13">
  <path d="M 278 447 L 302 447 L 302 477 L 278 477 Z M 278 447 " id="svg_13"/>
</clipPath><clipPath id="clip14">
  <path d="M 305.6875 427.519531 L 269.992188 523.152344 L 263.171875 520.605469 L 298.867188 424.976562 L 304.027344 421.558594 Z M 305.6875 427.519531 " id="svg_14"/>
</clipPath><clipPath id="clip15">
  <path d="M 284 432 L 306 432 L 306 463 L 284 463 Z M 284 432 " id="svg_15"/>
</clipPath><clipPath id="clip16">
  <path d="M 305.6875 427.519531 L 269.992188 523.152344 L 263.171875 520.605469 L 298.867188 424.976562 L 304.027344 421.558594 Z M 305.6875 427.519531 " id="svg_16"/>
</clipPath><clipPath id="clip17">
  <path d="M 289 421 L 306 421 L 306 448 L 289 448 Z M 289 421 " id="svg_17"/>
</clipPath><clipPath id="clip18">
  <path d="M 305.6875 427.519531 L 269.992188 523.152344 L 263.171875 520.605469 L 298.867188 424.976562 L 304.027344 421.558594 Z M 305.6875 427.519531 " id="svg_18"/>
</clipPath><clipPath id="clip19">
  <path d="M 238 537 L 251 537 L 251 556 L 238 556 Z M 238 537 " id="svg_19"/>
</clipPath><clipPath id="clip20">
  <path d="M 267.988281 577.097656 L 277.324219 552.089844 L 238.671875 537.660156 L 229.339844 562.671875 Z M 267.988281 577.097656 " id="svg_20"/>
</clipPath><clipPath id="clip21">
  <path d="M 249 537 L 262 537 L 262 560 L 249 560 Z M 249 537 " id="svg_21"/>
</clipPath><clipPath id="clip22">
  <path d="M 267.988281 577.097656 L 277.324219 552.089844 L 238.671875 537.660156 L 229.339844 562.671875 Z M 267.988281 577.097656 " id="svg_22"/>
</clipPath><clipPath id="clip23">
  <path d="M 261 541 L 274 541 L 274 564 L 261 564 Z M 261 541 " id="svg_23"/>
</clipPath><clipPath id="clip24">
  <path d="M 267.988281 577.097656 L 277.324219 552.089844 L 238.671875 537.660156 L 229.339844 562.671875 Z M 267.988281 577.097656 " id="svg_24"/>
</clipPath><clipPath id="clip25">
  <path d="M 178 706 L 185 706 L 185 727 L 178 727 Z M 178 706 " id="svg_25"/>
</clipPath><clipPath id="clip26">
  <path d="M 211.417969 718.242188 C 208.140625 727.03125 198.355469 731.496094 189.566406 728.214844 C 180.773438 724.9375 176.308594 715.152344 179.589844 706.359375 Z M 211.417969 718.242188 " id="svg_26"/>
</clipPath><clipPath id="clip27">
  <path d="M 181 709 L 194 709 L 194 730 L 181 730 Z M 181 709 " id="svg_27"/>
</clipPath><clipPath id="clip28">
  <path d="M 211.417969 718.242188 C 208.140625 727.03125 198.355469 731.496094 189.566406 728.214844 C 180.773438 724.9375 176.308594 715.152344 179.589844 706.359375 Z M 211.417969 718.242188 " id="svg_28"/>
</clipPath><clipPath id="clip29">
  <path d="M 190 713 L 203 713 L 203 730 L 190 730 Z M 190 713 " id="svg_29"/>
</clipPath><clipPath id="clip30">
  <path d="M 211.417969 718.242188 C 208.140625 727.03125 198.355469 731.496094 189.566406 728.214844 C 180.773438 724.9375 176.308594 715.152344 179.589844 706.359375 Z M 211.417969 718.242188 " id="svg_30"/>
</clipPath><clipPath id="clip31">
  <path d="M 199 716 L 212 716 L 212 730 L 199 730 Z M 199 716 " id="svg_31"/>
</clipPath><clipPath id="clip32">
  <path d="M 211.417969 718.242188 C 208.140625 727.03125 198.355469 731.496094 189.566406 728.214844 C 180.773438 724.9375 176.308594 715.152344 179.589844 706.359375 Z M 211.417969 718.242188 " id="svg_32"/>
</clipPath></defs><g transform="matrix(1, 0, 0, 1, -419.73406982421875, -414.1000213623047)"><g class="currentLayer" style="" transform="matrix(1.107517123222351, 0, 0, 1.107517123222351, 387.0327148437502, -39.438079833984375)"><title>Layer 1</title>














































































































<g class="selected" id="svg_33"><path style=" stroke:none;fill-rule:nonzero;fill:rgb(85.9375%,85.9375%,85.9375%);fill-opacity:1;" d="M 412 789 C 412 804.738281 327.382812 817.5 223 817.5 C 118.617188 817.5 34 804.738281 34 789 C 34 773.261719 118.617188 760.5 223 760.5 C 327.382812 760.5 412 773.261719 412 789 " id="svg_34" class=""/><path style=" stroke:none;fill-rule:nonzero;fill:rgb(85.9375%,29.026794%,8.616638%);fill-opacity:1;" d="M 53 654 L 85 654 L 85 538 L 53 538 Z M 53 654 " id="svg_35" class=""/><path style=" stroke:none;fill-rule:nonzero;fill:rgb(85.9375%,29.026794%,8.616638%);fill-opacity:1;" d="M 325 654 L 357 654 L 357 538 L 325 538 Z M 325 654 " id="svg_36" class=""/><path style=" stroke:none;fill-rule:nonzero;fill:rgb(72.068787%,24.31488%,7.054138%);fill-opacity:1;" d="M 325 654 L 357 644.667969 L 357 605.105469 L 325 654 " id="svg_37" class=""/><path style=" stroke:none;fill-rule:nonzero;fill:rgb(85.9375%,29.026794%,8.616638%);fill-opacity:1;" d="M 85 596 L 325 596 L 325 564 L 85 564 Z M 85 596 " id="svg_38" class=""/><path style=" stroke:none;fill-rule:nonzero;fill:rgb(92.96875%,53.709412%,39.988708%);fill-opacity:1;" d="M 315 574.5 L 132 574.5 C 130.617188 574.5 129.5 573.382812 129.5 572 C 129.5 570.617188 130.617188 569.5 132 569.5 L 315 569.5 C 316.382812 569.5 317.5 570.617188 317.5 572 C 317.5 573.382812 316.382812 574.5 315 574.5 " id="svg_39" class=""/><path style=" stroke:none;fill-rule:nonzero;fill:rgb(92.96875%,53.709412%,39.988708%);fill-opacity:1;" d="M 76.5 546.5 L 61.5 546.5 C 60.117188 546.5 59 545.382812 59 544 C 59 542.617188 60.117188 541.5 61.5 541.5 L 76.5 541.5 C 77.882812 541.5 79 542.617188 79 544 C 79 545.382812 77.882812 546.5 76.5 546.5 " id="svg_40" class=""/><path style=" stroke:none;fill-rule:nonzero;fill:rgb(95.3125%,87.109375%,61.131287%);fill-opacity:1;" d="M 348.5 546.5 L 333.5 546.5 C 332.117188 546.5 331 545.382812 331 544 C 331 542.617188 332.117188 541.5 333.5 541.5 L 348.5 541.5 C 349.882812 541.5 351 542.617188 351 544 C 351 545.382812 349.882812 546.5 348.5 546.5 " id="svg_41" class=""/><path style=" stroke:none;fill-rule:nonzero;fill:rgb(72.068787%,24.31488%,7.054138%);fill-opacity:1;" d="M 95.964844 586 C 92.753906 586 89.953125 583.8125 89.175781 580.699219 L 85 564 L 85 596 L 325 596 L 325 586 L 95.964844 586 " id="svg_42" class=""/><path style=" stroke:none;fill-rule:nonzero;fill:rgb(50.976562%,87.889099%,2.745056%);fill-opacity:1;" d="M 126.800781 616.078125 L 117.972656 619.121094 L 94.402344 550.707031 L 103.230469 547.664062 L 126.800781 616.078125 " id="svg_43" class=""/><path style=" stroke:none;fill-rule:nonzero;fill:rgb(67.771912%,92.96875%,34.521484%);fill-opacity:1;" d="M 123.488281 617.21875 L 120.179688 618.359375 L 96.609375 549.945312 L 99.921875 548.804688 L 123.488281 617.21875 " id="svg_44" class=""/><path style=" stroke:none;fill-rule:nonzero;fill:rgb(96.875%,69.334412%,5.099487%);fill-opacity:1;" d="M 92.398438 487.558594 C 83.863281 490.496094 74.5625 485.964844 71.621094 477.429688 C 68.683594 468.898438 73.21875 459.597656 81.75 456.65625 C 90.285156 453.714844 99.585938 458.253906 102.527344 466.785156 C 105.464844 475.316406 100.929688 484.617188 92.398438 487.558594 Z M 161.855469 689.183594 C 153.320312 692.121094 144.019531 687.585938 141.078125 679.054688 C 138.140625 670.519531 142.675781 661.21875 151.210938 658.28125 C 159.742188 655.339844 169.042969 659.875 171.984375 668.40625 C 174.921875 676.941406 170.386719 686.242188 161.855469 689.183594 Z M 49.171875 433.757812 L 92.128906 558.457031 L 100.960938 555.414062 C 108.269531 552.898438 116.246094 556.785156 118.761719 564.09375 L 124.84375 581.746094 C 127.355469 589.039062 123.472656 597.027344 116.164062 599.546875 L 107.332031 602.589844 L 150.285156 727.277344 L 194.429688 712.070312 L 93.316406 418.550781 L 49.171875 433.757812 " id="svg_45" class=""/><g clip-path="url(#clip1)" clip-rule="nonzero" id="svg_46" class="">
<g clip-path="url(#clip2)" clip-rule="nonzero" id="svg_47">
<path style=" stroke:none;fill-rule:nonzero;fill:rgb(82.029724%,54.492188%,0%);fill-opacity:1;" d="M 157.859375 716.988281 L 153.445312 718.511719 L 55.457031 434.066406 L 59.871094 432.546875 L 157.859375 716.988281 " id="svg_48"/>
</g>
</g><g clip-path="url(#clip3)" clip-rule="nonzero" id="svg_49" class="">
<g clip-path="url(#clip4)" clip-rule="nonzero" id="svg_50">
<path style=" stroke:none;fill-rule:nonzero;fill:rgb(82.029724%,54.492188%,0%);fill-opacity:1;" d="M 167.421875 713.695312 L 163.007812 715.214844 L 65.019531 430.773438 L 69.433594 429.253906 L 167.421875 713.695312 " id="svg_51"/>
</g>
</g><g clip-path="url(#clip5)" clip-rule="nonzero" id="svg_52" class="">
<g clip-path="url(#clip6)" clip-rule="nonzero" id="svg_53">
<path style=" stroke:none;fill-rule:nonzero;fill:rgb(82.029724%,54.492188%,0%);fill-opacity:1;" d="M 176.984375 710.398438 L 172.570312 711.921875 L 74.582031 427.480469 L 78.996094 425.957031 L 176.984375 710.398438 " id="svg_54"/>
</g>
</g><g clip-path="url(#clip7)" clip-rule="nonzero" id="svg_55" class="">
<g clip-path="url(#clip8)" clip-rule="nonzero" id="svg_56">
<path style=" stroke:none;fill-rule:nonzero;fill:rgb(82.029724%,54.492188%,0%);fill-opacity:1;" d="M 186.546875 707.105469 L 182.132812 708.625 L 84.148438 424.183594 L 88.558594 422.664062 L 186.546875 707.105469 " id="svg_57"/>
</g>
</g><path style=" stroke:none;fill-rule:nonzero;fill:rgb(21.166992%,21.166992%,21.166992%);fill-opacity:1;" d="M 93.5 437.007812 L 60.398438 448.410156 L 54.695312 431.859375 L 87.800781 420.457031 L 93.5 437.007812 " id="svg_58" class=""/><path style=" stroke:none;fill-rule:nonzero;fill:rgb(21.166992%,21.166992%,21.166992%);fill-opacity:1;" d="M 188.914062 713.972656 L 155.808594 725.375 L 150.109375 708.824219 L 183.210938 697.421875 L 188.914062 713.972656 " id="svg_59" class=""/><path style=" stroke:none;fill-rule:nonzero;fill:rgb(21.166992%,21.166992%,21.166992%);fill-opacity:1;" d="M 100.960938 555.410156 L 92.132812 558.449219 L 94.035156 563.96875 L 102.863281 560.925781 C 107.128906 559.457031 111.777344 561.722656 113.246094 565.988281 L 119.328125 583.644531 C 120.796875 587.910156 118.53125 592.558594 114.265625 594.03125 L 105.4375 597.070312 L 107.339844 602.589844 L 116.164062 599.546875 C 123.46875 597.03125 127.359375 589.046875 124.847656 581.742188 L 118.765625 564.089844 C 116.25 556.789062 108.261719 552.894531 100.960938 555.410156 " id="svg_60" class=""/><path style=" stroke:none;fill-rule:nonzero;fill:rgb(50.976562%,87.889099%,2.745056%);fill-opacity:1;" d="M 166.269531 687.65625 L 157.441406 690.695312 L 146.796875 659.800781 L 155.625 656.757812 L 166.269531 687.65625 " id="svg_61" class=""/><path style=" stroke:none;fill-rule:nonzero;fill:rgb(67.771912%,92.96875%,34.521484%);fill-opacity:1;" d="M 162.40625 688.984375 L 159.097656 690.125 L 148.453125 659.230469 L 151.765625 658.089844 L 162.40625 688.984375 " id="svg_62" class=""/><path style=" stroke:none;fill-rule:nonzero;fill:rgb(21.166992%,21.166992%,21.166992%);fill-opacity:1;" d="M 152.160156 661.039062 C 145.164062 663.449219 141.433594 671.101562 143.84375 678.101562 C 146.253906 685.097656 153.90625 688.828125 160.90625 686.417969 C 167.902344 684.007812 171.632812 676.355469 169.222656 669.355469 C 166.8125 662.359375 159.160156 658.628906 152.160156 661.039062 Z M 162.804688 691.933594 C 152.765625 695.394531 141.785156 690.039062 138.324219 680 C 134.867188 669.960938 140.222656 658.980469 150.261719 655.519531 C 160.300781 652.0625 171.28125 657.417969 174.738281 667.457031 C 178.199219 677.496094 172.84375 688.476562 162.804688 691.933594 " id="svg_63" class=""/><path style=" stroke:none;fill-rule:nonzero;fill:rgb(50.976562%,87.889099%,2.745056%);fill-opacity:1;" d="M 104.046875 471.199219 L 73.148438 481.839844 L 70.105469 473.015625 L 101.003906 462.371094 L 104.046875 471.199219 " id="svg_64" class=""/><path style=" stroke:none;fill-rule:nonzero;fill:rgb(67.771912%,92.96875%,34.521484%);fill-opacity:1;" d="M 102.714844 467.335938 L 71.816406 477.980469 L 70.675781 474.667969 L 101.574219 464.023438 L 102.714844 467.335938 " id="svg_65" class=""/><path style=" stroke:none;fill-rule:nonzero;fill:rgb(21.166992%,21.166992%,21.166992%);fill-opacity:1;" d="M 82.703125 459.414062 C 75.707031 461.828125 71.976562 469.480469 74.386719 476.476562 C 76.796875 483.472656 84.449219 487.207031 91.449219 484.796875 C 98.445312 482.382812 102.175781 474.730469 99.765625 467.734375 C 97.355469 460.738281 89.703125 457.003906 82.703125 459.414062 Z M 93.347656 490.3125 C 83.308594 493.769531 72.328125 488.417969 68.867188 478.378906 C 65.410156 468.339844 70.765625 457.355469 80.804688 453.898438 C 90.84375 450.441406 101.824219 455.792969 105.28125 465.835938 C 108.742188 475.871094 103.386719 486.855469 93.347656 490.3125 " id="svg_66" class=""/><path style=" stroke:none;fill-rule:nonzero;fill:rgb(59.959412%,59.959412%,59.959412%);fill-opacity:1;" d="M 250.199219 711.820312 L 255.464844 704.921875 C 256.980469 702.9375 259.816406 702.558594 261.800781 704.074219 C 263.785156 705.589844 264.167969 708.425781 262.652344 710.410156 L 257.386719 717.304688 C 255.875 719.289062 253.035156 719.671875 251.050781 718.15625 C 249.066406 716.640625 248.683594 713.804688 250.199219 711.820312 Z M 260.953125 737.863281 L 385.105469 575.222656 L 346.042969 514.742188 L 312.945312 519.183594 L 317.726562 526.863281 L 305.964844 528.820312 L 312.285156 538.945312 L 300.515625 540.914062 L 306.8125 551.046875 L 295.066406 553.011719 L 301.375 563.128906 L 289.613281 565.105469 L 295.925781 575.222656 L 284.152344 577.191406 L 290.464844 587.332031 L 278.703125 589.289062 L 285 599.417969 L 273.242188 601.398438 L 279.550781 611.515625 L 267.792969 613.492188 L 274.101562 623.609375 L 262.34375 625.589844 L 268.652344 635.703125 L 256.878906 637.675781 L 263.203125 647.800781 L 251.429688 649.769531 L 257.730469 659.898438 L 245.980469 661.867188 L 252.277344 671.996094 L 240.519531 673.976562 L 246.820312 684.105469 L 235.058594 686.082031 L 241.367188 696.199219 L 229.601562 698.191406 L 235.910156 708.308594 L 224.140625 710.300781 L 230.890625 721.148438 L 260.953125 737.863281 " id="svg_67" class=""/><path style=" stroke:none;fill-rule:nonzero;fill:rgb(96.875%,69.334412%,5.099487%);fill-opacity:1;" d="M 379.140625 549.195312 L 355.113281 525.933594 C 351.160156 522.109375 350.773438 515.988281 354.03125 511.726562 C 354.289062 511.390625 354.558594 511.0625 354.851562 510.757812 C 358.988281 506.492188 365.78125 506.386719 370.039062 510.503906 L 394.070312 533.765625 C 398.339844 537.890625 398.4375 544.699219 394.320312 548.957031 C 390.207031 553.214844 383.402344 553.335938 379.140625 549.195312 Z M 385.101562 586.125 L 429.480469 527.984375 C 430.515625 526.628906 430.777344 524.84375 430.195312 523.257812 C 429.679688 521.820312 428.492188 520.71875 427.058594 520.253906 C 426.917969 520.203125 426.742188 520.148438 426.585938 520.125 L 407.960938 516.105469 C 405.285156 515.539062 402.820312 514.230469 400.878906 512.3125 L 386.21875 498.128906 C 384.472656 496.445312 383.175781 494.328125 382.4375 492.019531 L 376.121094 471.882812 C 375.984375 471.441406 375.769531 471.023438 375.53125 470.664062 C 374.800781 469.535156 373.609375 468.726562 372.25 468.492188 C 370.417969 468.160156 368.5625 468.890625 367.445312 470.355469 L 325.5625 525.222656 L 331.792969 558.933594 L 385.101562 586.125 " id="svg_68" class=""/><path style=" stroke:none;fill-rule:nonzero;fill:rgb(21.166992%,21.166992%,21.166992%);fill-opacity:1;" d="M 379.140625 549.195312 L 355.113281 525.933594 C 351.160156 522.109375 350.773438 515.988281 354.03125 511.726562 C 354.289062 511.390625 354.558594 511.0625 354.851562 510.757812 C 358.988281 506.492188 365.78125 506.386719 370.039062 510.503906 L 394.070312 533.765625 C 398.339844 537.890625 398.4375 544.699219 394.320312 548.957031 C 390.207031 553.214844 383.402344 553.335938 379.140625 549.195312 Z M 390.261719 557.703125 C 395.796875 557.285156 400.90625 554.511719 404.277344 550.097656 L 427.058594 520.253906 C 426.917969 520.203125 426.742188 520.148438 426.585938 520.125 L 407.960938 516.105469 C 405.285156 515.539062 402.820312 514.230469 400.878906 512.3125 L 386.21875 498.128906 C 384.472656 496.445312 383.175781 494.328125 382.4375 492.019531 L 376.121094 471.882812 C 375.984375 471.441406 375.769531 471.023438 375.53125 470.664062 L 348.089844 506.617188 C 343.238281 512.972656 343.910156 521.96875 349.667969 527.523438 L 375.234375 552.277344 C 379.246094 556.148438 384.703125 558.128906 390.261719 557.703125 " id="svg_69" class=""/><path style=" stroke:none;fill-rule:nonzero;fill:rgb(95.3125%,87.109375%,61.131287%);fill-opacity:1;" d="M 380.578125 563.449219 C 378.402344 561.789062 375.289062 562.207031 373.628906 564.382812 C 371.96875 566.558594 372.386719 569.667969 374.5625 571.332031 C 376.738281 572.992188 379.851562 572.574219 381.511719 570.398438 C 383.171875 568.222656 382.753906 565.109375 380.578125 563.449219 " id="svg_70" class=""/><path style=" stroke:none;fill-rule:nonzero;fill:rgb(30.200195%,30.200195%,30.200195%);fill-opacity:1;" d="M 381.0625 564.859375 C 379.25 563.472656 376.65625 563.820312 375.273438 565.636719 C 373.886719 567.449219 374.234375 570.042969 376.050781 571.425781 C 377.863281 572.808594 380.453125 572.460938 381.839844 570.648438 C 383.222656 568.835938 382.875 566.242188 381.0625 564.859375 " id="svg_71" class=""/><path style=" stroke:none;fill-rule:nonzero;fill:rgb(95.3125%,87.109375%,61.131287%);fill-opacity:1;" d="M 350.449219 547.726562 C 348.273438 546.066406 345.164062 546.484375 343.503906 548.660156 C 341.839844 550.835938 342.257812 553.945312 344.433594 555.605469 C 346.609375 557.269531 349.722656 556.851562 351.382812 554.675781 C 353.042969 552.5 352.625 549.386719 350.449219 547.726562 " id="svg_72" class=""/><path style=" stroke:none;fill-rule:nonzero;fill:rgb(30.200195%,30.200195%,30.200195%);fill-opacity:1;" d="M 350.933594 549.136719 C 349.121094 547.75 346.527344 548.097656 345.144531 549.914062 C 343.757812 551.726562 344.105469 554.316406 345.921875 555.703125 C 347.734375 557.085938 350.324219 556.738281 351.710938 554.925781 C 353.09375 553.113281 352.746094 550.519531 350.933594 549.136719 " id="svg_73" class=""/><path style=" stroke:none;fill-rule:nonzero;fill:rgb(95.3125%,87.109375%,61.131287%);fill-opacity:1;" d="M 342.84375 525.289062 C 340.664062 523.628906 337.554688 524.046875 335.894531 526.222656 C 334.230469 528.398438 334.648438 531.507812 336.824219 533.171875 C 339.003906 534.832031 342.113281 534.414062 343.773438 532.238281 C 345.433594 530.0625 345.019531 526.949219 342.84375 525.289062 " id="svg_74" class=""/><path style=" stroke:none;fill-rule:nonzero;fill:rgb(30.200195%,30.200195%,30.200195%);fill-opacity:1;" d="M 343.324219 526.699219 C 341.511719 525.3125 338.921875 525.660156 337.535156 527.476562 C 336.152344 529.289062 336.5 531.882812 338.3125 533.265625 C 340.125 534.648438 342.71875 534.300781 344.101562 532.488281 C 345.488281 530.675781 345.140625 528.082031 343.324219 526.699219 " id="svg_75" class=""/><path style=" stroke:none;fill-rule:nonzero;fill:rgb(50.193787%,50.193787%,50.193787%);fill-opacity:1;" d="M 372.402344 486.183594 C 372.613281 485.902344 372.910156 485.679688 373.265625 485.554688 C 374.242188 485.203125 375.320312 485.710938 375.671875 486.691406 L 379.941406 498.621094 L 400.75 518.757812 C 401.496094 519.480469 401.523438 520.679688 400.792969 521.421875 C 400.070312 522.171875 398.878906 522.191406 398.128906 521.46875 L 377.007812 501.023438 C 376.800781 500.824219 376.640625 500.578125 376.542969 500.304688 L 372.125 487.960938 C 371.902344 487.339844 372.027344 486.671875 372.402344 486.183594 " id="svg_76" class=""/><path style=" stroke:none;fill-rule:nonzero;fill:rgb(80.076599%,80.076599%,80.076599%);fill-opacity:1;" d="M 368.425781 584.816406 L 301.28125 672.777344 L 277.265625 630.148438 L 314.867188 547.414062 L 326.15625 567.117188 L 368.425781 584.816406 " id="svg_77" class=""/><path style=" stroke:none;fill-rule:nonzero;fill:rgb(59.959412%,59.959412%,59.959412%);fill-opacity:1;" d="M 285.414062 597.011719 L 290.605469 593.945312 L 323.277344 649.230469 L 318.089844 652.296875 L 285.414062 597.011719 " id="svg_78" class=""/><path style=" stroke:none;fill-rule:nonzero;fill:rgb(59.959412%,59.959412%,59.959412%);fill-opacity:1;" d="M 291.203125 579.523438 L 298.988281 574.921875 L 336.011719 637.566406 L 328.226562 642.167969 L 291.203125 579.523438 " id="svg_79" class=""/><path style=" stroke:none;fill-rule:nonzero;fill:rgb(50.193787%,50.193787%,50.193787%);fill-opacity:1;" d="M 305.6875 427.519531 L 269.992188 523.152344 L 263.171875 520.605469 L 298.867188 424.976562 L 304.027344 421.558594 L 305.6875 427.519531 " id="svg_80" class=""/><g clip-path="url(#clip9)" clip-rule="nonzero" id="svg_81" class="">
<g clip-path="url(#clip10)" clip-rule="nonzero" id="svg_82">
<path style=" stroke:none;fill-rule:nonzero;fill:rgb(80.076599%,80.076599%,80.076599%);fill-opacity:1;" d="M 290.308594 502.460938 L 286.316406 505.214844 L 268 478.695312 L 271.992188 475.9375 L 290.308594 502.460938 " id="svg_83"/>
</g>
</g><g clip-path="url(#clip11)" clip-rule="nonzero" id="svg_84" class="">
<g clip-path="url(#clip12)" clip-rule="nonzero" id="svg_85">
<path style=" stroke:none;fill-rule:nonzero;fill:rgb(80.076599%,80.076599%,80.076599%);fill-opacity:1;" d="M 295.660156 488.121094 L 291.667969 490.878906 L 273.351562 464.359375 L 277.347656 461.601562 L 295.660156 488.121094 " id="svg_86"/>
</g>
</g><g clip-path="url(#clip13)" clip-rule="nonzero" id="svg_87" class="">
<g clip-path="url(#clip14)" clip-rule="nonzero" id="svg_88">
<path style=" stroke:none;fill-rule:nonzero;fill:rgb(80.076599%,80.076599%,80.076599%);fill-opacity:1;" d="M 301.011719 473.785156 L 297.019531 476.539062 L 278.703125 450.023438 L 282.695312 447.265625 L 301.011719 473.785156 " id="svg_89"/>
</g>
</g><g clip-path="url(#clip15)" clip-rule="nonzero" id="svg_90" class="">
<g clip-path="url(#clip16)" clip-rule="nonzero" id="svg_91">
<path style=" stroke:none;fill-rule:nonzero;fill:rgb(80.076599%,80.076599%,80.076599%);fill-opacity:1;" d="M 306.363281 459.445312 L 302.371094 462.203125 L 284.054688 435.683594 L 288.050781 432.925781 L 306.363281 459.445312 " id="svg_92"/>
</g>
</g><g clip-path="url(#clip17)" clip-rule="nonzero" id="svg_93" class="">
<g clip-path="url(#clip18)" clip-rule="nonzero" id="svg_94">
<path style=" stroke:none;fill-rule:nonzero;fill:rgb(80.076599%,80.076599%,80.076599%);fill-opacity:1;" d="M 311.714844 445.109375 L 307.722656 447.867188 L 289.40625 421.347656 L 293.402344 418.589844 L 311.714844 445.109375 " id="svg_95"/>
</g>
</g><path style=" stroke:none;fill-rule:nonzero;fill:rgb(21.166992%,21.166992%,21.166992%);fill-opacity:1;" d="M 286.742188 583.960938 L 282.496094 595.328125 L 272.59375 591.632812 L 268.351562 603 L 278.253906 606.695312 L 274.011719 618.0625 L 279.214844 620.003906 L 281.253906 614.542969 C 281.617188 613.574219 282.371094 612.804688 283.332031 612.429688 C 284.292969 612.050781 285.367188 612.097656 286.292969 612.558594 C 296.746094 617.765625 305.628906 621.445312 314.609375 624.796875 C 324.769531 628.589844 335.105469 631.980469 348.589844 635.246094 L 346.417969 641.066406 L 353.808594 643.824219 L 363.902344 616.78125 L 356.511719 614.023438 L 354.339844 619.84375 C 342.011719 613.472656 331.980469 609.265625 321.820312 605.472656 C 312.84375 602.121094 303.722656 599.082031 292.410156 596.164062 C 291.410156 595.90625 290.570312 595.238281 290.09375 594.320312 C 289.613281 593.40625 289.546875 592.332031 289.90625 591.363281 L 291.945312 585.902344 L 286.742188 583.960938 " id="svg_96" class=""/><path style=" stroke:none;fill-rule:nonzero;fill:rgb(50.193787%,50.193787%,50.193787%);fill-opacity:1;" d="M 344.253906 620.265625 C 344.019531 620.894531 343.320312 621.214844 342.691406 620.980469 L 294.292969 602.914062 C 293.664062 602.679688 293.34375 601.980469 293.578125 601.351562 C 293.8125 600.722656 294.511719 600.40625 295.140625 600.640625 L 343.539062 618.707031 C 344.167969 618.941406 344.488281 619.640625 344.253906 620.265625 " id="svg_97" class=""/><path style=" stroke:none;fill-rule:nonzero;fill:rgb(50.193787%,50.193787%,50.193787%);fill-opacity:1;" d="M 282.496094 595.328125 L 278.253906 606.695312 L 268.351562 603 L 272.59375 591.632812 L 282.496094 595.328125 " id="svg_98" class=""/><path style=" stroke:none;fill-rule:nonzero;fill:rgb(80.076599%,80.076599%,80.076599%);fill-opacity:1;" d="M 281.878906 596.984375 L 280.90625 599.589844 L 271.003906 595.894531 L 271.976562 593.289062 L 281.878906 596.984375 " id="svg_99" class=""/><path style=" stroke:none;fill-rule:nonzero;fill:rgb(21.166992%,21.166992%,21.166992%);fill-opacity:1;" d="M 288.597656 750.027344 L 288.765625 749.570312 C 290.488281 744.960938 288.484375 739.789062 284.101562 737.539062 L 241.417969 715.648438 C 238.335938 714.066406 234.722656 713.878906 231.492188 715.128906 C 228.265625 716.382812 225.722656 718.953125 224.511719 722.199219 L 223.410156 725.148438 C 217.496094 741 199.847656 749.054688 183.996094 743.136719 C 168.144531 737.21875 160.089844 719.570312 166.007812 703.71875 L 209.917969 586.074219 L 217.414062 565.988281 L 274.8125 587.414062 L 267.324219 607.5 L 249.160156 656.167969 C 249.375 660.382812 252.027344 664.273438 256.234375 665.84375 C 259.617188 667.109375 263.230469 666.570312 266.035156 664.734375 L 262.542969 674.09375 C 261.46875 676.976562 262.71875 680.207031 265.457031 681.613281 L 296.601562 697.585938 C 299.066406 698.851562 301.957031 699.003906 304.539062 698 C 307.125 697 309.15625 694.941406 310.128906 692.34375 L 288.597656 750.027344 " id="svg_100" class=""/><path style=" stroke:none;fill-rule:nonzero;fill:rgb(50.193787%,50.193787%,50.193787%);fill-opacity:1;" d="M 261.398438 671.207031 C 261.230469 671.660156 260.792969 671.988281 260.28125 671.996094 C 258.25 672.023438 256.246094 671.675781 254.324219 670.960938 C 252.222656 670.175781 250.34375 669 248.738281 667.464844 C 248.253906 667 248.234375 666.230469 248.699219 665.746094 C 249.160156 665.261719 249.929688 665.246094 250.414062 665.707031 C 251.78125 667.015625 253.382812 668.015625 255.171875 668.683594 C 256.808594 669.296875 258.515625 669.59375 260.242188 669.570312 C 260.914062 669.558594 261.464844 670.09375 261.476562 670.765625 C 261.476562 670.921875 261.449219 671.070312 261.398438 671.207031 " id="svg_101" class=""/><path style=" stroke:none;fill-rule:nonzero;fill:rgb(21.166992%,21.166992%,21.166992%);fill-opacity:1;" d="M 267.988281 577.097656 L 277.324219 552.089844 L 238.671875 537.660156 L 229.339844 562.671875 L 267.988281 577.097656 " id="svg_102" class=""/><g clip-path="url(#clip19)" clip-rule="nonzero" id="svg_103" class="">
<g clip-path="url(#clip20)" clip-rule="nonzero" id="svg_104">
<path style=" stroke:none;fill-rule:nonzero;fill:rgb(30.200195%,30.200195%,30.200195%);fill-opacity:1;" d="M 250.296875 537.46875 L 244.359375 553.382812 C 243.773438 554.953125 242.023438 555.75 240.453125 555.164062 C 238.886719 554.578125 238.089844 552.832031 238.675781 551.261719 L 244.613281 535.347656 C 245.199219 533.777344 246.945312 532.980469 248.515625 533.566406 C 250.085938 534.152344 250.882812 535.898438 250.296875 537.46875 " id="svg_105"/>
</g>
</g><g clip-path="url(#clip21)" clip-rule="nonzero" id="svg_106" class="">
<g clip-path="url(#clip22)" clip-rule="nonzero" id="svg_107">
<path style=" stroke:none;fill-rule:nonzero;fill:rgb(30.200195%,30.200195%,30.200195%);fill-opacity:1;" d="M 261.757812 541.746094 L 255.816406 557.660156 C 255.230469 559.230469 253.484375 560.027344 251.914062 559.441406 C 250.34375 558.855469 249.546875 557.109375 250.132812 555.539062 L 256.074219 539.621094 C 256.660156 538.054688 258.40625 537.257812 259.976562 537.84375 C 261.546875 538.429688 262.34375 540.175781 261.757812 541.746094 " id="svg_108"/>
</g>
</g><g clip-path="url(#clip23)" clip-rule="nonzero" id="svg_109" class="">
<g clip-path="url(#clip24)" clip-rule="nonzero" id="svg_110">
<path style=" stroke:none;fill-rule:nonzero;fill:rgb(30.200195%,30.200195%,30.200195%);fill-opacity:1;" d="M 273.214844 546.023438 L 267.273438 561.9375 C 266.6875 563.507812 264.941406 564.304688 263.371094 563.71875 C 261.804688 563.132812 261.007812 561.386719 261.59375 559.816406 L 267.53125 543.902344 C 268.117188 542.332031 269.863281 541.535156 271.433594 542.121094 C 273.003906 542.703125 273.800781 544.453125 273.214844 546.023438 " id="svg_111"/>
</g>
</g><path style=" stroke:none;fill-rule:nonzero;fill:rgb(21.166992%,21.166992%,21.166992%);fill-opacity:1;" d="M 238.675781 537.65625 L 277.324219 552.085938 L 275.679688 530.746094 L 275.0625 522.746094 L 259.605469 516.976562 L 253.898438 522.617188 L 238.675781 537.65625 " id="svg_112" class=""/><path style=" stroke:none;fill-rule:nonzero;fill:rgb(59.959412%,59.959412%,59.959412%);fill-opacity:1;" d="M 265.714844 576.246094 L 263.167969 583.070312 L 229.066406 570.339844 L 231.613281 563.519531 L 265.714844 576.246094 " id="svg_113" class=""/><path style=" stroke:none;fill-rule:nonzero;fill:rgb(59.959412%,59.959412%,59.959412%);fill-opacity:1;" d="M 253.898438 522.617188 L 258.285156 524.257812 L 263.9375 518.59375 L 259.605469 516.976562 L 253.898438 522.617188 " id="svg_114" class=""/><path style=" stroke:none;fill-rule:nonzero;fill:rgb(59.959412%,59.959412%,59.959412%);fill-opacity:1;" d="M 266.210938 519.441406 L 261.492188 525.453125 L 275.679688 530.746094 L 275.0625 522.746094 L 266.210938 519.441406 " id="svg_115" class=""/><path style=" stroke:none;fill-rule:nonzero;fill:rgb(59.959412%,59.959412%,59.959412%);fill-opacity:1;" d="M 262.226562 517.957031 L 264.347656 512.273438 L 268.324219 513.757812 L 266.203125 519.441406 L 262.226562 517.957031 " id="svg_116" class=""/><path style=" stroke:none;fill-rule:nonzero;fill:rgb(59.959412%,59.959412%,59.959412%);fill-opacity:1;" d="M 270.601562 514.605469 L 274.578125 516.089844 L 272.457031 521.773438 L 268.476562 520.289062 L 270.601562 514.605469 " id="svg_117" class=""/><path style=" stroke:none;fill-rule:nonzero;fill:rgb(59.959412%,59.959412%,59.959412%);fill-opacity:1;" d="M 187.730469 736.597656 C 187.496094 737.226562 186.796875 737.546875 186.171875 737.308594 C 177.304688 734.003906 170.800781 726.148438 169.191406 716.8125 C 169.078125 716.148438 169.519531 715.523438 170.179688 715.410156 C 170.839844 715.296875 171.46875 715.738281 171.582031 716.398438 C 173.042969 724.886719 178.960938 732.027344 187.019531 735.035156 C 187.648438 735.269531 187.964844 735.96875 187.730469 736.597656 " id="svg_118" class=""/><path style=" stroke:none;fill-rule:nonzero;fill:rgb(9.423828%,52.929688%,34.910583%);fill-opacity:1;" d="M 293.96875 735.632812 C 295.042969 732.75 293.792969 729.519531 291.054688 728.113281 L 239.421875 701.628906 C 237.878906 700.839844 236.074219 700.746094 234.457031 701.371094 C 232.84375 701.996094 231.574219 703.285156 230.96875 704.90625 L 223.410156 725.148438 L 166.007812 703.71875 L 209.917969 586.074219 L 267.324219 607.5 L 238.230469 685.449219 C 237.152344 688.332031 238.40625 691.5625 241.144531 692.96875 L 292.777344 719.453125 C 294.320312 720.242188 296.125 720.335938 297.738281 719.710938 C 299.355469 719.085938 300.625 717.800781 301.230469 716.175781 L 310.324219 691.816406 C 312.199219 686.792969 317.789062 684.242188 322.8125 686.117188 L 322.710938 686.078125 L 297.589844 753.386719 L 288.597656 750.027344 L 293.96875 735.632812 " id="svg_119" class=""/><path style=" stroke:none;fill-rule:nonzero;fill:rgb(96.875%,69.334412%,5.099487%);fill-opacity:1;" d="M 188.292969 731.628906 C 198.964844 735.609375 210.847656 730.1875 214.828125 719.515625 C 218.8125 708.84375 213.390625 696.960938 202.71875 692.976562 C 192.046875 688.992188 180.164062 694.414062 176.179688 705.089844 C 172.195312 715.761719 177.617188 727.644531 188.292969 731.628906 " id="svg_120" class=""/><g clip-path="url(#clip25)" clip-rule="nonzero" id="svg_121" class="">
<g clip-path="url(#clip26)" clip-rule="nonzero" id="svg_122">
<path style=" stroke:none;fill-rule:nonzero;fill:rgb(21.166992%,21.166992%,21.166992%);fill-opacity:1;" d="M 177.214844 726.601562 L 184.136719 708.058594 L 179.589844 706.359375 L 172.667969 724.90625 L 177.214844 726.601562 " id="svg_123"/>
</g>
</g><g clip-path="url(#clip27)" clip-rule="nonzero" id="svg_124" class="">
<g clip-path="url(#clip28)" clip-rule="nonzero" id="svg_125">
<path style=" stroke:none;fill-rule:nonzero;fill:rgb(21.166992%,21.166992%,21.166992%);fill-opacity:1;" d="M 186.308594 729.996094 L 193.230469 711.453125 L 188.683594 709.757812 L 181.761719 728.300781 L 186.308594 729.996094 " id="svg_126"/>
</g>
</g><g clip-path="url(#clip29)" clip-rule="nonzero" id="svg_127" class="">
<g clip-path="url(#clip30)" clip-rule="nonzero" id="svg_128">
<path style=" stroke:none;fill-rule:nonzero;fill:rgb(21.166992%,21.166992%,21.166992%);fill-opacity:1;" d="M 195.402344 733.390625 L 202.324219 714.847656 L 197.777344 713.148438 L 190.855469 731.695312 L 195.402344 733.390625 " id="svg_129"/>
</g>
</g><g clip-path="url(#clip31)" clip-rule="nonzero" id="svg_130" class="">
<g clip-path="url(#clip32)" clip-rule="nonzero" id="svg_131">
<path style=" stroke:none;fill-rule:nonzero;fill:rgb(21.166992%,21.166992%,21.166992%);fill-opacity:1;" d="M 204.496094 736.785156 L 211.417969 718.242188 L 206.871094 716.546875 L 199.949219 735.089844 L 204.496094 736.785156 " id="svg_132"/>
</g>
</g><path style=" stroke:none;fill-rule:nonzero;fill:rgb(50.193787%,50.193787%,50.193787%);fill-opacity:1;" d="M 288.578125 733.1875 C 288.550781 733.253906 288.523438 733.316406 288.488281 733.382812 C 288.03125 734.277344 286.933594 734.628906 286.039062 734.171875 L 247.308594 714.304688 C 246.414062 713.847656 246.058594 712.75 246.519531 711.855469 C 246.976562 710.960938 248.074219 710.605469 248.96875 711.066406 L 287.699219 730.933594 C 288.53125 731.359375 288.894531 732.332031 288.578125 733.1875 " id="svg_133" class=""/><path style=" stroke:none;fill-rule:nonzero;fill:rgb(12.547302%,69.726562%,46.263123%);fill-opacity:1;" d="M 214.867188 595.367188 C 215.808594 595.71875 216.289062 596.765625 215.9375 597.710938 L 177.039062 701.914062 C 176.6875 702.855469 175.640625 703.332031 174.699219 702.980469 C 173.757812 702.632812 173.28125 701.582031 173.632812 700.640625 L 212.527344 596.4375 C 212.878906 595.496094 213.925781 595.015625 214.867188 595.367188 " id="svg_134" class=""/><path style=" stroke:none;fill-rule:nonzero;fill:rgb(12.547302%,69.726562%,46.263123%);fill-opacity:1;" d="M 210.8125 608.832031 C 212.695312 609.535156 214.792969 608.578125 215.496094 606.695312 C 216.199219 604.8125 215.242188 602.714844 213.359375 602.011719 C 211.476562 601.308594 209.378906 602.265625 208.675781 604.148438 C 207.972656 606.03125 208.929688 608.128906 210.8125 608.832031 " id="svg_135" class=""/><path style=" stroke:none;fill-rule:nonzero;fill:rgb(21.166992%,21.166992%,21.166992%);fill-opacity:1;" d="M 210.171875 607.945312 C 211.742188 608.53125 213.488281 607.734375 214.074219 606.164062 C 214.660156 604.59375 213.863281 602.847656 212.292969 602.261719 C 210.726562 601.675781 208.976562 602.472656 208.390625 604.042969 C 207.804688 605.613281 208.601562 607.359375 210.171875 607.945312 " id="svg_136" class=""/><path style=" stroke:none;fill-rule:nonzero;fill:rgb(95.3125%,87.109375%,61.131287%);fill-opacity:1;" d="M 177.136719 699.054688 C 179.019531 699.757812 181.117188 698.800781 181.820312 696.914062 C 182.523438 695.03125 181.566406 692.933594 179.683594 692.230469 C 177.800781 691.527344 175.703125 692.484375 175 694.371094 C 174.296875 696.253906 175.253906 698.351562 177.136719 699.054688 " id="svg_137" class=""/><path style=" stroke:none;fill-rule:nonzero;fill:rgb(21.166992%,21.166992%,21.166992%);fill-opacity:1;" d="M 176.496094 698.164062 C 178.066406 698.753906 179.8125 697.953125 180.398438 696.386719 C 180.984375 694.816406 180.1875 693.066406 178.617188 692.480469 C 177.050781 691.898438 175.300781 692.695312 174.714844 694.265625 C 174.128906 695.832031 174.929688 697.578125 176.496094 698.164062 " id="svg_138" class=""/><path style=" stroke:none;fill-rule:nonzero;fill:rgb(7.054138%,41.184998%,27.050781%);fill-opacity:1;" d="M 211.1875 710.46875 L 248.710938 609.941406 L 223.519531 600.539062 L 185.996094 701.0625 L 211.1875 710.46875 " id="svg_139" class=""/><path style=" stroke:none;fill-rule:nonzero;fill:rgb(95.3125%,87.109375%,61.131287%);fill-opacity:1;" d="M 241.5625 666.804688 L 237.957031 676.464844 C 237.371094 678.035156 235.625 678.832031 234.054688 678.246094 C 232.484375 677.660156 231.6875 675.914062 232.273438 674.34375 L 235.882812 664.683594 C 236.46875 663.113281 238.214844 662.316406 239.78125 662.902344 C 241.351562 663.488281 242.148438 665.234375 241.5625 666.804688 " id="svg_140" class=""/><path style=" stroke:none;fill-rule:nonzero;fill:rgb(21.166992%,21.166992%,21.166992%);fill-opacity:1;" d="M 240.429688 666.378906 L 236.820312 676.042969 C 236.234375 677.613281 234.488281 678.410156 232.917969 677.824219 C 231.347656 677.238281 230.550781 675.488281 231.136719 673.921875 L 234.742188 664.257812 C 235.328125 662.6875 237.078125 661.890625 238.648438 662.476562 C 240.214844 663.0625 241.011719 664.808594 240.429688 666.378906 " id="svg_141" class=""/><path style=" stroke:none;fill-rule:nonzero;fill:rgb(80.076599%,80.076599%,80.076599%);fill-opacity:1;" d="M 237.023438 573.308594 L 239.570312 566.488281 L 235.023438 564.792969 L 232.476562 571.613281 L 237.023438 573.308594 " id="svg_142" class=""/><path style=" stroke:none;fill-rule:nonzero;fill:rgb(80.076599%,80.076599%,80.076599%);fill-opacity:1;" d="M 243.367188 575.675781 L 245.914062 568.855469 L 242.503906 567.585938 L 239.957031 574.402344 L 243.367188 575.675781 " id="svg_143" class=""/><path style=" stroke:none;fill-rule:nonzero;fill:rgb(80.076599%,80.076599%,80.076599%);fill-opacity:1;" d="M 258.285156 524.257812 L 261.492188 525.453125 L 266.210938 519.441406 L 263.9375 518.59375 L 258.285156 524.257812 " id="svg_144" class=""/><path style=" stroke:none;fill-rule:nonzero;fill:rgb(59.959412%,59.959412%,59.959412%);fill-opacity:1;" d="M 243.222656 539.355469 L 248.90625 541.476562 L 261.492188 525.453125 L 258.285156 524.257812 L 243.222656 539.355469 " id="svg_145" class=""/><path style=" stroke:none;fill-rule:nonzero;fill:rgb(80.076599%,80.076599%,80.076599%);fill-opacity:1;" d="M 272.734375 529.648438 L 268.777344 528.171875 L 271.324219 521.351562 L 272.175781 521.671875 L 272.734375 529.648438 " id="svg_146" class=""/><path style=" stroke:none;fill-rule:nonzero;fill:rgb(30.200195%,30.200195%,30.200195%);fill-opacity:1;" d="M 274.222656 550.925781 L 261.988281 546.359375 L 268.777344 528.171875 L 272.734375 529.648438 L 274.222656 550.925781 " id="svg_147" class=""/><path style=" stroke:none;fill-rule:nonzero;fill:rgb(9.423828%,52.929688%,34.910583%);fill-opacity:1;" d="M 233.21875 599.625 L 192.835938 707.808594 L 190.5625 706.960938 L 230.941406 598.777344 L 233.21875 599.625 " id="svg_148" class=""/><path style=" stroke:none;fill-rule:nonzero;fill:rgb(14.501953%,53.318787%,63.867188%);fill-opacity:1;" d="M 159.859375 599.921875 L 194.519531 599.921875 L 194.519531 607.132812 L 193.25 607.132812 C 191.90625 607.132812 190.632812 607.703125 189.734375 608.699219 C 188.839844 609.695312 188.40625 611.027344 188.550781 612.359375 C 190.136719 627.445312 190.578125 639.917969 190.578125 652.363281 C 190.578125 666.445312 190.011719 680.558594 187.863281 698.445312 L 195.925781 698.445312 L 195.925781 708.6875 L 158.449219 708.6875 L 158.449219 698.445312 L 166.511719 698.445312 C 164.363281 680.558594 163.796875 666.445312 163.796875 652.363281 C 163.796875 639.917969 164.238281 627.445312 165.828125 612.359375 C 165.96875 611.027344 165.535156 609.699219 164.640625 608.703125 C 163.742188 607.707031 162.464844 607.132812 161.128906 607.132812 L 159.859375 607.132812 L 159.859375 599.921875 " id="svg_149" class=""/><path style=" stroke:none;fill-rule:nonzero;fill:rgb(33.714294%,69.334412%,78.904724%);fill-opacity:1;" d="M 171.609375 687.15625 C 172.914062 687.15625 173.972656 686.097656 173.972656 684.792969 L 173.972656 617.714844 C 173.972656 616.410156 172.914062 615.351562 171.609375 615.351562 C 170.304688 615.351562 169.246094 616.410156 169.246094 617.714844 L 169.246094 684.792969 C 169.246094 686.097656 170.304688 687.15625 171.609375 687.15625 " id="svg_150" class=""/><path style=" stroke:none;fill-rule:nonzero;fill:rgb(50.193787%,50.193787%,50.193787%);fill-opacity:1;" d="M 169.308594 599.921875 L 185.066406 599.921875 L 185.066406 543.894531 L 169.308594 543.894531 Z M 169.308594 599.921875 " id="svg_151" class=""/><path style=" stroke:none;fill-rule:nonzero;fill:rgb(80.076599%,80.076599%,80.076599%);fill-opacity:1;" d="M 171.609375 599.921875 L 175.21875 599.921875 L 175.21875 543.894531 L 171.609375 543.894531 Z M 171.609375 599.921875 " id="svg_152" class=""/><path style=" stroke:none;fill-rule:nonzero;fill:rgb(21.166992%,21.166992%,21.166992%);fill-opacity:1;" d="M 146.589844 518.6875 L 219.382812 518.6875 L 219.382812 547.046875 L 146.589844 547.046875 L 112.738281 536.742188 C 111.03125 536.222656 109.863281 534.648438 109.863281 532.867188 C 109.863281 531.085938 111.03125 529.511719 112.738281 528.992188 L 146.589844 518.6875 " id="svg_153" class=""/><path style=" stroke:none;fill-rule:nonzero;fill:rgb(50.193787%,50.193787%,50.193787%);fill-opacity:1;" d="M 132.242188 531.875 C 132.386719 531.875 132.53125 531.851562 132.679688 531.8125 L 148.179688 527.351562 L 205.203125 527.351562 C 206.074219 527.351562 206.777344 526.648438 206.777344 525.777344 C 206.777344 524.90625 206.074219 524.203125 205.203125 524.203125 L 147.957031 524.203125 C 147.808594 524.203125 147.660156 524.222656 147.519531 524.261719 L 131.808594 528.785156 C 130.972656 529.023438 130.488281 529.898438 130.730469 530.734375 C 130.929688 531.425781 131.558594 531.875 132.242188 531.875 " id="svg_154" class=""/><path style=" stroke:none;fill-rule:nonzero;fill:rgb(85.9375%,29.026794%,8.616638%);fill-opacity:1;" d="M 53 789 L 357 789 L 357 654 L 53 654 Z M 53 789 " id="svg_155" class=""/><path style=" stroke:none;fill-rule:nonzero;fill:rgb(72.068787%,24.31488%,7.054138%);fill-opacity:1;" d="M 85 780 L 325 780 L 325 673 L 85 673 Z M 85 780 " id="svg_156" class=""/><path style=" stroke:none;fill-rule:nonzero;fill:rgb(92.96875%,53.709412%,39.988708%);fill-opacity:1;" d="M 315 664.5 L 95 664.5 C 93.617188 664.5 92.5 663.382812 92.5 662 C 92.5 660.617188 93.617188 659.5 95 659.5 L 315 659.5 C 316.382812 659.5 317.5 660.617188 317.5 662 C 317.5 663.382812 316.382812 664.5 315 664.5 " id="svg_157" class=""/><path style=" stroke:none;fill-rule:nonzero;fill:rgb(85.9375%,29.026794%,8.616638%);fill-opacity:1;" d="M 78 708.6875 L 333.5 708.6875 L 333.5 695.644531 L 78 695.644531 Z M 78 708.6875 " id="svg_158" class=""/><path style=" stroke:none;fill-rule:nonzero;fill:rgb(96.875%,69.334412%,5.099487%);fill-opacity:1;" d="M 240.839844 801.363281 L 309.886719 801.363281 L 309.886719 779.757812 L 240.839844 779.757812 Z M 240.839844 801.363281 " id="svg_159" class=""/><path style=" stroke:none;fill-rule:nonzero;fill:rgb(59.959412%,59.959412%,59.959412%);fill-opacity:1;" d="M 309.121094 770.1875 C 307.351562 770.1875 305.914062 768.75 305.914062 766.980469 C 305.914062 759.859375 307.914062 752.933594 311.695312 746.941406 C 312.640625 745.445312 314.621094 744.996094 316.121094 745.941406 C 317.617188 746.886719 318.066406 748.867188 317.121094 750.367188 C 313.988281 755.332031 312.328125 761.074219 312.328125 766.980469 C 312.328125 768.75 310.894531 770.1875 309.121094 770.1875 " id="svg_160" class=""/><path style=" stroke:none;fill-rule:nonzero;fill:rgb(21.166992%,21.166992%,21.166992%);fill-opacity:1;" d="M 377.121094 766.980469 C 377.121094 748.414062 362.070312 733.363281 343.503906 733.363281 C 324.9375 733.363281 309.886719 748.414062 309.886719 766.980469 L 309.886719 801.363281 L 377.121094 801.363281 L 377.121094 766.980469 " id="svg_161" class=""/><path style=" stroke:none;fill-rule:nonzero;fill:rgb(17.651367%,59.959412%,87.889099%);fill-opacity:1;" d="M 374.066406 766.980469 C 374.066406 783.859375 360.382812 797.542969 343.503906 797.542969 C 326.625 797.542969 312.941406 783.859375 312.941406 766.980469 C 312.941406 750.101562 326.625 736.417969 343.503906 736.417969 C 360.382812 736.417969 374.066406 750.101562 374.066406 766.980469 " id="svg_162" class=""/><path style=" stroke:none;fill-rule:nonzero;fill:rgb(21.166992%,21.166992%,21.166992%);fill-opacity:1;" d="M 321.65625 754.429688 C 319.527344 758.128906 318.289062 762.40625 318.289062 766.980469 C 318.289062 780.90625 329.578125 792.191406 343.503906 792.191406 C 357.429688 792.191406 368.71875 780.90625 368.71875 766.980469 C 368.71875 762.40625 367.480469 758.128906 365.351562 754.429688 L 321.65625 754.429688 " id="svg_163" class=""/><path style=" stroke:none;fill-rule:nonzero;fill:rgb(95.3125%,87.109375%,61.131287%);fill-opacity:1;" d="M 335.554688 774.027344 L 326.40625 774.027344 L 326.40625 772.101562 L 329.691406 768.78125 C 330.664062 767.785156 331.300781 767.09375 331.597656 766.707031 C 331.898438 766.324219 332.113281 765.964844 332.242188 765.636719 C 332.375 765.308594 332.441406 764.96875 332.441406 764.617188 C 332.441406 764.09375 332.296875 763.699219 332.007812 763.445312 C 331.714844 763.1875 331.328125 763.058594 330.847656 763.058594 C 330.339844 763.058594 329.847656 763.175781 329.367188 763.40625 C 328.890625 763.640625 328.394531 763.972656 327.875 764.402344 L 326.371094 762.621094 C 327.015625 762.070312 327.546875 761.683594 327.972656 761.457031 C 328.394531 761.230469 328.859375 761.054688 329.359375 760.933594 C 329.863281 760.808594 330.421875 760.75 331.042969 760.75 C 331.859375 760.75 332.585938 760.898438 333.210938 761.195312 C 333.835938 761.496094 334.324219 761.914062 334.671875 762.449219 C 335.015625 762.988281 335.1875 763.601562 335.1875 764.292969 C 335.1875 764.898438 335.082031 765.464844 334.871094 765.992188 C 334.660156 766.519531 334.328125 767.0625 333.886719 767.617188 C 333.441406 768.171875 332.65625 768.964844 331.535156 769.988281 L 329.851562 771.574219 L 329.851562 771.699219 L 335.554688 771.699219 L 335.554688 774.027344 " id="svg_164" class=""/><path style=" stroke:none;fill-rule:nonzero;fill:rgb(95.3125%,87.109375%,61.131287%);fill-opacity:1;" d="M 339.550781 767.480469 C 339.550781 769.089844 339.6875 770.238281 339.964844 770.933594 C 340.242188 771.628906 340.710938 771.976562 341.367188 771.976562 C 342.011719 771.976562 342.476562 771.625 342.761719 770.917969 C 343.050781 770.214844 343.195312 769.070312 343.195312 767.480469 C 343.195312 765.875 343.050781 764.722656 342.757812 764.023438 C 342.46875 763.320312 342.003906 762.96875 341.367188 762.96875 C 340.714844 762.96875 340.25 763.320312 339.96875 764.023438 C 339.691406 764.722656 339.550781 765.875 339.550781 767.480469 Z M 345.949219 767.480469 C 345.949219 769.769531 345.578125 771.460938 344.828125 772.558594 C 344.078125 773.65625 342.925781 774.207031 341.367188 774.207031 C 339.855469 774.207031 338.71875 773.640625 337.949219 772.503906 C 337.183594 771.371094 336.800781 769.695312 336.800781 767.480469 C 336.800781 765.171875 337.171875 763.46875 337.921875 762.375 C 338.667969 761.277344 339.816406 760.730469 341.367188 760.730469 C 342.878906 760.730469 344.019531 761.304688 344.792969 762.449219 C 345.566406 763.597656 345.949219 765.273438 345.949219 767.480469 " id="svg_165" class=""/><path style=" stroke:none;fill-rule:nonzero;fill:rgb(95.3125%,87.109375%,61.131287%);fill-opacity:1;" d="M 357 774.027344 L 354.269531 774.027344 L 354.269531 768.179688 C 354.269531 767.460938 354.148438 766.917969 353.90625 766.554688 C 353.664062 766.195312 353.285156 766.015625 352.765625 766.015625 C 352.066406 766.015625 351.558594 766.269531 351.242188 766.785156 C 350.925781 767.296875 350.769531 768.140625 350.769531 769.316406 L 350.769531 774.027344 L 348.035156 774.027344 L 348.035156 764.015625 L 350.125 764.015625 L 350.492188 765.296875 L 350.644531 765.296875 C 350.910156 764.839844 351.300781 764.476562 351.808594 764.21875 C 352.316406 763.960938 352.894531 763.828125 353.554688 763.828125 C 355.050781 763.828125 356.066406 764.316406 356.597656 765.296875 L 356.839844 765.296875 C 357.109375 764.832031 357.503906 764.46875 358.027344 764.214844 C 358.550781 763.957031 359.136719 763.828125 359.796875 763.828125 C 360.929688 763.828125 361.785156 764.121094 362.367188 764.703125 C 362.949219 765.285156 363.242188 766.21875 363.242188 767.5 L 363.242188 774.027344 L 360.5 774.027344 L 360.5 768.179688 C 360.5 767.460938 360.382812 766.917969 360.140625 766.554688 C 359.898438 766.195312 359.515625 766.015625 358.996094 766.015625 C 358.328125 766.015625 357.828125 766.253906 357.496094 766.730469 C 357.164062 767.207031 357 767.964844 357 769.003906 L 357 774.027344 " id="svg_166" class=""/><path style=" stroke:none;fill-rule:nonzero;fill:rgb(21.166992%,21.166992%,21.166992%);fill-opacity:1;" d="M 240.839844 801.363281 L 257.535156 801.363281 L 257.535156 779.757812 L 240.839844 779.757812 Z M 240.839844 801.363281 " id="svg_167" class=""/><path style=" stroke:none;fill-rule:nonzero;fill:rgb(82.029724%,54.492188%,0%);fill-opacity:1;" d="M 262.105469 789.03125 L 264.667969 789.03125 L 264.667969 779.757812 L 262.105469 779.757812 Z M 262.105469 789.03125 " id="svg_168" class=""/><path style=" stroke:none;fill-rule:nonzero;fill:rgb(82.029724%,54.492188%,0%);fill-opacity:1;" d="M 269.015625 789.03125 L 271.578125 789.03125 L 271.578125 779.757812 L 269.015625 779.757812 Z M 269.015625 789.03125 " id="svg_169" class=""/><path style=" stroke:none;fill-rule:nonzero;fill:rgb(82.029724%,54.492188%,0%);fill-opacity:1;" d="M 275.921875 789.03125 L 278.488281 789.03125 L 278.488281 779.757812 L 275.921875 779.757812 Z M 275.921875 789.03125 " id="svg_170" class=""/><path style=" stroke:none;fill-rule:nonzero;fill:rgb(82.029724%,54.492188%,0%);fill-opacity:1;" d="M 282.832031 789.03125 L 285.398438 789.03125 L 285.398438 779.757812 L 282.832031 779.757812 Z M 282.832031 789.03125 " id="svg_171" class=""/><path style=" stroke:none;fill-rule:nonzero;fill:rgb(82.029724%,54.492188%,0%);fill-opacity:1;" d="M 289.742188 789.03125 L 292.304688 789.03125 L 292.304688 779.757812 L 289.742188 779.757812 Z M 289.742188 789.03125 " id="svg_172" class=""/><path style=" stroke:none;fill-rule:nonzero;fill:rgb(82.029724%,54.492188%,0%);fill-opacity:1;" d="M 296.648438 789.03125 L 299.214844 789.03125 L 299.214844 779.757812 L 296.648438 779.757812 Z M 296.648438 789.03125 " id="svg_173" class=""/><path style=" stroke:none;fill-rule:nonzero;fill:rgb(82.029724%,54.492188%,0%);fill-opacity:1;" d="M 303.558594 789.03125 L 306.125 789.03125 L 306.125 779.757812 L 303.558594 779.757812 Z M 303.558594 789.03125 " id="svg_174" class=""/></g></g></g></svg>