<svg xmlns="http://www.w3.org/2000/svg" viewBox="0 0 115.572 115.572"><g fill-rule="evenodd" clip-rule="evenodd"><g fill="#e7831e"><path d="M70.191 114.09a1.483 1.483 0 0 1-2.965 0v-9.222a1.483 1.483 0 0 1 2.965 0v9.222z"/><path d="M76.489 110.034a1.482 1.482 0 1 1-2.011 2.178l-6.775-6.256a1.482 1.482 0 1 1 2.011-2.178l6.775 6.256z"/><path d="M60.926 110.034a1.482 1.482 0 1 0 2.012 2.178l6.775-6.256a1.482 1.482 0 1 0-2.011-2.178l-6.776 6.256z"/><g><path d="M48.557 114.09a1.483 1.483 0 0 1-2.965 0v-9.222a1.482 1.482 0 1 1 2.965 0v9.222z"/><path d="M54.856 110.034a1.482 1.482 0 1 1-2.012 2.178l-6.775-6.256a1.482 1.482 0 1 1 2.011-2.178l6.776 6.256z"/><path d="M39.292 110.034a1.482 1.482 0 1 0 2.012 2.178l6.775-6.256a1.482 1.482 0 1 0-2.011-2.178l-6.776 6.256z"/></g></g><path d="M90.383 73.638c0 17.674-14.327 32-32 32H57.19c-17.673 0-32-14.326-32-32v-36.25c0-17.674 14.327-32 32-32h1.193c17.673 0 32 14.326 32 32v36.25z" fill="#fdbd2c"/><path d="M57.19 5.388S71.705 5.444 74.208 0c0 0 1.926 2.22 0 5.388 0 0 .169 1.165 3.17 0 0 0 1.668.608-4.667 3.388" fill="#fdbd2c"/><path d="M77.643 85.781c0 10.966-8.89 19.856-19.856 19.856-10.967 0-19.856-8.891-19.856-19.856v-6.476c0-10.967 8.89-19.857 19.856-19.857 10.967 0 19.856 8.891 19.856 19.857v6.476z" fill="#f4c778"/><g fill="#f2b02a"><path d="M82.053 61.017l4.084 14.867a6.4 6.4 0 0 0 7.869 4.477 6.4 6.4 0 0 0 4.476-7.868s-.992-4.628-1.66-6.046c-1.675-3.559-4.693-6.683-14.769-5.43zM33.519 61.017l-4.083 14.867a6.4 6.4 0 0 1-7.868 4.477 6.401 6.401 0 0 1-4.478-7.868s.994-4.628 1.661-6.046c1.675-3.559 4.693-6.683 14.768-5.43z"/></g><g><circle cx="43.294" cy="40.091" r="3.965" fill="#1a1a1a"/><path d="M43.294 39.327a1.497 1.497 0 1 1 2.994 0 1.496 1.496 0 1 1-2.994 0z" fill="#fff"/><g><circle cx="72.278" cy="40.091" r="3.964" fill="#1a1a1a"/><path d="M72.279 39.327a1.497 1.497 0 1 1 2.993 0 1.497 1.497 0 0 1-2.993 0z" fill="#fff"/></g><path fill="#e7831e" d="M57.786 57.386l-3.781-6.549-3.781-6.549h15.125l-3.781 6.549z"/></g></g></svg>