<svg xmlns="http://www.w3.org/2000/svg" viewBox="0 0 136.394 136.394"><g fill-rule="evenodd" clip-rule="evenodd"><g fill="#cc4428"><path d="M106.796 78.378c2.753-4.492 8.627-5.903 13.118-3.149a9.54 9.54 0 0 1 3.15 13.118M100.892 95.112c3.721-3.731 9.761-3.739 13.491-.02 3.73 3.722 3.738 9.761.018 13.492M88.089 106.11c4.731-2.316 10.445-.359 12.763 4.373 2.317 4.732.358 10.445-4.372 12.763"/><g><path d="M30.072 78.378c-2.753-4.492-8.626-5.903-13.118-3.149-4.492 2.753-5.901 8.625-3.149 13.118M37.529 95.112c-3.72-3.731-9.761-3.739-13.491-.02-3.73 3.722-3.738 9.761-.018 13.492M50.331 106.11c-4.731-2.316-10.445-.359-12.763 4.373-2.316 4.732-.358 10.445 4.373 12.763"/></g></g><path d="M115.488 48.326L103.67 65.784c-1.598 2.429-3.709 1.17-5.75-.176-2.042-1.345 2.372-10.309 3.972-12.737l6.2-9.414" fill="#cc4428"/><path d="M132.772 26.126c5.275 5.956 4.724 15.061-1.23 20.335-5.957 5.275-15.061 4.722-20.336-1.232" fill="#e4552c"/><path d="M129.043 15.65c-8.301-4.982-19.068-2.294-24.052 6.008-4.982 8.3-2.291 19.066 6.009 24.05" fill="#e4552c"/><g><path d="M20.906 48.326l11.816 17.458c1.6 2.429 3.709 1.17 5.751-.176 2.042-1.345-2.373-10.309-3.971-12.737l-6.201-9.414" fill="#cc4428"/><path d="M3.623 26.126c-5.276 5.956-4.725 15.061 1.228 20.335 5.957 5.275 15.06 4.722 20.336-1.232" fill="#e4552c"/><path d="M7.351 15.65c8.302-4.982 19.069-2.294 24.051 6.008 4.983 8.3 2.291 19.066-6.008 24.05" fill="#e4552c"/></g><g><path d="M100.349 48.483a40.702 40.702 0 0 1 8.689 25.201c0 22.573-18.299 40.874-40.873 40.874S27.291 96.257 27.291 73.684c0-9.91 3.526-18.997 9.393-26.072" fill="#e4552c"/><path d="M57.826 56.442a4.544 4.544 0 0 1-4.543 4.543h-1.328a4.543 4.543 0 0 1-4.541-4.543V38.78a4.54 4.54 0 0 1 4.541-4.541h1.328a4.541 4.541 0 0 1 4.543 4.541v17.662zM89.836 56.442a4.542 4.542 0 0 1-4.541 4.543h-1.328a4.543 4.543 0 0 1-4.541-4.543V38.78a4.54 4.54 0 0 1 4.541-4.541h1.328a4.54 4.54 0 0 1 4.541 4.541v17.662z" fill="#e4552c"/><circle cx="84.632" cy="39.953" r="3.514" fill="#434849"/><path d="M84.632 39.276a1.327 1.327 0 1 1 2.654 0 1.326 1.326 0 1 1-2.654 0z" fill="#fff"/><g><circle cx="52.62" cy="39.953" r="3.514" fill="#434849"/><path d="M52.62 39.276a1.328 1.328 0 1 1 2.654 0 1.328 1.328 0 1 1-2.654 0z" fill="#fff"/></g></g></g></svg>