<svg xmlns="http://www.w3.org/2000/svg" viewBox="0 0 115.277 115.277"><g fill-rule="evenodd" clip-rule="evenodd"><path d="M101.616 72.315c0 19.176 0 34.936-42.545 34.722h-.777c-42.543 2.382-42.543-15.546-42.543-34.722v-.566c0-19.176 19.047-34.721 42.543-34.721h.777c23.496 0 42.545 15.545 42.545 34.721v.566z" fill="#898179"/><path d="M75.256 89.267c-4.614 7.734-4.903 20.135 2.177 24.357 7.079 4.226 18.849-1.328 23.463-9.061 4.614-7.736 6.349-14.238-4.465-21.654-9.164-6.283-16.56-1.377-21.175 6.358z" fill="#938b82"/><path d="M74.359 90.94c-4.172 6.994-3.931 18.506 3.148 22.729 7.08 4.224 18.319-.439 22.491-7.434 4.173-6.992 5.588-12.963-5.265-20.311-9.199-6.226-16.201-1.978-20.374 5.016z" fill="#7a7169"/><g><path d="M40.021 89.267c4.613 7.734 4.902 20.135-2.178 24.357-7.078 4.226-18.848-1.328-23.463-9.061-4.613-7.736-6.348-14.238 4.465-21.654 9.164-6.283 16.561-1.377 21.176 6.358z" fill="#938b82"/><path d="M40.917 90.94c4.172 6.994 3.932 18.506-3.148 22.729-7.08 4.224-18.318-.439-22.49-7.434-4.174-6.992-5.588-12.963 5.264-20.311 9.198-6.226 16.2-1.978 20.374 5.016z" fill="#7a7169"/></g></g><circle cx="85.044" cy="10.69" r="7.5" fill="#938b82"/><circle cx="85.044" cy="10.69" r="4.324" fill="#595048"/><circle cx="31.544" cy="10.69" r="7.5" fill="#938b82"/><circle cx="31.544" cy="10.69" r="4.324" fill="#595048"/><ellipse cx="57.857" cy="34.229" rx="36.777" ry="34.229" fill-rule="evenodd" clip-rule="evenodd" fill="#938b82"/><g fill-rule="evenodd" clip-rule="evenodd"><circle cx="42.107" cy="27.702" r="4.074" fill="#434849"/><path d="M42.279 26.917a1.538 1.538 0 1 1 3.076 0 1.538 1.538 0 1 1-3.076 0z" fill="#fff"/><g><circle cx="73.609" cy="27.702" r="4.074" fill="#434849"/><path d="M73.779 26.917a1.539 1.539 0 1 1 3.078 0 1.538 1.538 0 1 1-3.078 0z" fill="#fff"/></g></g><path d="M92.544 52.876c0 10.64-9.989 19.264-22.311 19.264H47.428c-12.321 0-22.309-8.624-22.309-19.264 0-10.639 9.988-19.264 22.309-19.264h22.806c12.321 0 22.31 8.625 22.31 19.264z" fill-rule="evenodd" clip-rule="evenodd" fill="#b7b1ab"/><path d="M25.445 56.146s33.953 12.079 66.937-.952c0 0 .402 14.405-20.264 16.945H43.661c0 .001-16.129-2.989-18.216-15.993z" fill-rule="evenodd" clip-rule="evenodd" fill="#afa7a0"/><circle cx="49.057" cy="44.903" r="2.981" fill-rule="evenodd" clip-rule="evenodd" fill="#595048"/><circle cx="66.657" cy="44.903" r="2.981" fill-rule="evenodd" clip-rule="evenodd" fill="#595048"/><path d="M70.275 43.255l.306.381c.107.114.188.284.28.491l.148.33.078.387c.077.271.053.57.053.891a3.754 3.754 0 0 1-.208.98c-.13.325-.272.66-.503.951-.186.323-.494.551-.747.825-.346.214-.56.426-.942.566-.344.178-.701.251-1.044.314a3.8 3.8 0 0 1-1.003.013c-.313-.063-.612-.099-.863-.227l-.363-.153-.291-.207c-.182-.127-.334-.241-.43-.372l-.314-.375.379.303c.108.109.273.194.463.286.094.046.191.096.297.149l.352.104c.236.097.517.099.802.129.286.002.593-.023.896-.082l.461-.121c.151-.046.285-.129.434-.187.283-.085.597-.371.851-.525.225-.243.509-.437.674-.724.209-.255.355-.54.484-.826.117-.286.203-.582.257-.863.025-.285.078-.561.029-.813l-.032-.365a21.37 21.37 0 0 1-.086-.313c-.051-.201-.103-.382-.191-.513l-.227-.434zM45.622 43.255l-.224.434c-.089.131-.141.312-.19.513-.027.099-.057.203-.086.313-.012.116-.021.238-.033.365-.049.252.004.527.029.813.053.281.14.577.257.863.128.286.276.571.484.826.165.287.449.48.674.724.255.154.568.44.853.525.147.058.281.141.434.187l.459.121c.304.059.611.084.896.082.285-.03.565-.032.803-.129l.352-.104.295-.149c.19-.092.355-.177.463-.286l.381-.303-.316.375c-.094.131-.246.245-.43.372l-.289.207-.365.153c-.25.128-.549.163-.863.227a3.792 3.792 0 0 1-1.002-.013c-.344-.063-.701-.137-1.043-.314-.383-.141-.598-.352-.943-.566-.254-.274-.56-.502-.746-.825-.232-.291-.375-.626-.504-.951a3.796 3.796 0 0 1-.208-.98c0-.32-.024-.62.054-.891l.078-.387.148-.33c.09-.207.172-.377.279-.491l.303-.381z" fill="#a3a3a3"/><g fill-rule="evenodd" clip-rule="evenodd" fill="#fff"><path d="M52.398 66.768h-6.684v-6.305s2.633.306 3.467.355c1.463.085 3.217.248 3.217.248v5.702zM64.933 66.768h6.684v-6.305s-2.633.306-3.467.355c-1.461.085-3.217.248-3.217.248v5.702z"/></g></svg>