<svg xmlns="http://www.w3.org/2000/svg" viewBox="0 0 121.021 121.021"><g fill-rule="evenodd" clip-rule="evenodd"><path d="M96.575 81.31c0 19.176 0 34.936-34.724 34.721h-.636c-34.721 2.383-34.721-15.545-34.721-34.721v-.566c0-19.176 15.545-34.721 34.721-34.721h.636c19.177 0 34.724 15.545 34.724 34.721v.566z" fill="#8c8b88"/><path d="M88.702 81.469c0 19.079 7.873 34.389-25.977 35.878-33.986 2-25.977-16.799-25.977-35.878v-.563c0-19.077 11.524-34.542 25.74-34.542h.471c14.218 0 25.743 15.465 25.743 34.542v.563z" fill="#e2e2e2"/><g><path d="M49.704 95.011c4.614 7.734 4.903 20.135-2.177 24.357-7.079 4.225-18.849-1.328-23.463-9.062-4.614-7.735-6.349-14.237 4.465-21.653 9.164-6.283 16.56-1.377 21.175 6.358z" fill="#9d9d9d"/><path d="M50.602 96.685c4.172 6.993 3.931 18.506-3.148 22.729-7.08 4.223-18.319-.439-22.491-7.434-4.173-6.992-5.588-12.963 5.265-20.311 9.198-6.227 16.2-1.979 20.374 5.016z" fill="#8c8b88"/><g><path d="M75.902 95.011c-4.614 7.734-4.903 20.135 2.177 24.357 7.079 4.225 18.849-1.328 23.463-9.062 4.614-7.735 6.349-14.237-4.465-21.653-9.164-6.283-16.559-1.377-21.175 6.358z" fill="#9d9d9d"/><path d="M75.005 96.685c-4.172 6.993-3.931 18.506 3.148 22.729 7.08 4.223 18.319-.439 22.491-7.434 4.173-6.992 5.588-12.963-5.265-20.311-9.198-6.227-16.2-1.979-20.374 5.016z" fill="#8c8b88"/></g></g><g><circle cx="96.81" cy="20.857" r="20.857" fill="#9d9d9d"/><circle cx="24.21" cy="20.857" r="20.856" fill="#9d9d9d"/><ellipse cx="25.168" cy="28.202" rx="15.644" ry="14.791" fill="#e2e2e2"/><ellipse cx="96.575" cy="28.202" rx="15.644" ry="14.791" fill="#e2e2e2"/><path d="M24.21 38.21c0-18.68 16.711-33.822 37.325-33.822C82.15 4.388 98.86 19.53 98.86 38.21s-9.247 33.822-37.325 33.822c-29.976 0-37.325-15.142-37.325-33.822z" fill="#9d9d9d"/><g><circle cx="42.522" cy="39.882" r="4.074" fill="#434849"/><path d="M42.693 39.095a1.539 1.539 0 1 1 3.076 0 1.538 1.538 0 1 1-3.076 0z" fill="#fff"/><g><circle cx="80.027" cy="39.882" r="4.074" fill="#434849"/><path d="M80.198 39.095a1.54 1.54 0 1 1 3.077 0 1.538 1.538 0 1 1-3.077 0z" fill="#fff"/></g><g><path d="M68.598 55.45a5.649 5.649 0 0 1-5.65 5.649h-2.823a5.649 5.649 0 0 1-5.65-5.649V41.458a5.65 5.65 0 0 1 5.65-5.65h2.823a5.65 5.65 0 0 1 5.65 5.65V55.45z" fill="#434849"/><circle cx="59.346" cy="57.946" r=".933"/><circle cx="63.659" cy="57.946" r=".934"/></g></g></g></g></svg>