<svg xmlns="http://www.w3.org/2000/svg" xmlns:xlink="http://www.w3.org/1999/xlink" viewBox="0 0 110.927 110.927"><path d="M81.869 73.463c0 20.565 0 37.465-37.236 37.235h-.682C6.714 113.254 6.714 94.029 6.714 73.463v-.607c0-20.564 16.672-37.235 37.236-37.235h.682c20.563 0 37.236 16.67 37.236 37.235v.607z" fill-rule="evenodd" clip-rule="evenodd" fill="#f68084"/><path d="M75.334 92.353c4.51 3.805 11.985 4.545 17.303 2.087 3.139-1.448 10.792-7.838 3.886-9.813-3.745-1.07-7.313 1.399-6.898 5.273.58 5.448 6.193 8.135 11.068 7.882 1.736-.088 5.601-2.866 2.105-2.686-4.256.219-8.486-3.479-7.969-7.986.035-.159.08-.316.123-.476-2.436-.004-2.711.57-.825 1.725.619 1.466-2.435 3.529-3.265 4.073-2.986 1.962-8.184.046-10.65-2.038-1.304-1.098-6.121.913-4.878 1.959z" fill="#f68084"/><g fill-rule="evenodd" clip-rule="evenodd"><path d="M58.057 18.108S60.282 6.268 72.523.598c0 0 6.578 10.972 2.889 23.519" fill="#f6a3a5"/><path d="M59.375 20.656s1.724-9.178 11.213-13.573c0 0 5.1 8.505 2.239 18.232" fill="#f68084"/><g><path d="M30.885 17.51S28.66 5.67 16.419 0c0 0-6.578 10.972-2.889 23.519" fill="#f6a3a5"/><path d="M29.567 20.057s-1.724-9.178-11.213-13.573c0 0-5.1 8.505-2.239 18.231" fill="#f68084"/></g></g><defs><path id="a" d="M6.966 42.382c0-18.68 16.711-33.822 37.325-33.822 20.615 0 37.325 15.142 37.325 33.822 0 18.679-9.247 33.822-37.325 33.822-29.976 0-37.325-15.142-37.325-33.822z"/></defs><use xlink:href="#a" overflow="visible" fill-rule="evenodd" clip-rule="evenodd" fill="#f6a3a5"/><g fill-rule="evenodd" clip-rule="evenodd"><circle cx="26.237" cy="38.385" r="3.832" fill="#434849"/><circle cx="27.685" cy="37.646" r="1.447" fill="#fff"/><g><circle cx="61.889" cy="37.675" r="3.832" fill="#434849"/><circle cx="63.337" cy="36.936" r="1.447" fill="#fff"/></g><g><circle cx="44.292" cy="51.733" r="13.037" fill="#f68084"/><g fill="#db6971"><circle cx="38.541" cy="51.733" r="1.663"/><circle cx="50.041" cy="51.733" r="1.663"/></g></g></g></svg>