<svg xmlns="http://www.w3.org/2000/svg" xmlns:xlink="http://www.w3.org/1999/xlink" viewBox="0 0 116.667 116.667"><path d="M111.345 110.98a4.607 4.607 0 0 1-4.608 4.607H56.32a4.607 4.607 0 0 1 0-9.214h50.417a4.608 4.608 0 0 1 4.608 4.607z" fill="#c7631b"/><g fill="#333"><path d="M106.737 106.372a4.607 4.607 0 1 1 0 9.215M96.888 106.373h3.333v9.214h-3.333zM88.888 106.373h3.333v9.214h-3.333zM80.888 106.373h3.333v9.214h-3.333z"/></g><path d="M81.304 79.202c0 20.565 0 37.465-37.236 37.236h-.682C6.15 118.993 6.15 99.768 6.15 79.202v-.607c0-20.564 16.672-37.235 37.236-37.235h.682c20.563 0 37.236 16.67 37.236 37.235v.607z" fill-rule="evenodd" clip-rule="evenodd" fill="#c56a27"/><circle cx="68.313" cy="11.816" r="11.817" fill="#e38032"/><circle cx="68.313" cy="11.816" r="6.813" fill="#754c24"/><circle cx="17.139" cy="11.816" r="11.817" fill="#e38032"/><circle cx="17.139" cy="11.816" r="6.813" fill="#754c24"/><defs><path id="a" d="M6.402 36.167c0-18.68 16.711-33.822 37.325-33.822 20.615 0 37.325 15.142 37.325 33.822 0 18.679-9.247 33.822-37.325 33.822-29.976 0-37.325-15.142-37.325-33.822z"/></defs><use xlink:href="#a" overflow="visible" fill-rule="evenodd" clip-rule="evenodd" fill="#e38032"/><g fill-rule="evenodd" clip-rule="evenodd"><circle cx="29.389" cy="28.234" r="4.074" fill="#333"/><path d="M29.56 27.448a1.54 1.54 0 1 1 3.077 0 1.538 1.538 0 1 1-3.077 0z" fill="#fff"/><g><circle cx="59.638" cy="28.234" r="4.074" fill="#333"/><path d="M59.809 27.448a1.54 1.54 0 1 1 3.077 0 1.539 1.539 0 1 1-3.077 0z" fill="#fff"/></g></g><g fill-rule="evenodd" clip-rule="evenodd" fill="#333"><path d="M7.436 28.234l11.699 6.243-12.618 5.578s-.612-8.335.919-11.821zM6.814 43.289l18.501-.954-13.683 15.16s-3.766-4.858-4.818-14.206z"/><g><path d="M80.012 28.234l-11.699 6.243 12.618 5.578s.613-8.335-.919-11.821zM80.634 43.289l-18.501-.954 13.269 14.701s4.181-4.399 5.232-13.747z"/></g></g><path fill-rule="evenodd" clip-rule="evenodd" fill="#f3ab32" d="M38.699 24.161h12.625l6.625 26.393H32.637z"/><path d="M57.949 50.554c0 5.699-5.666 10.319-12.656 10.319-6.989 0-12.655-4.62-12.655-10.319" fill-rule="evenodd" clip-rule="evenodd" fill="#333"/><path d="M37.407 68.527c-1.22 0-2.571-.165-4.052-.494a.502.502 0 0 1 .217-.977c3.983.888 6.909.523 8.699-1.082 2.288-2.05 1.935-5.52 1.931-5.555a.5.5 0 0 1 .994-.112c.019.162.42 4.005-2.25 6.405-1.343 1.209-3.198 1.815-5.539 1.815z" fill="#333"/><path d="M52.044 68.18c-2.342 0-4.196-.605-5.539-1.813-2.67-2.4-2.269-6.243-2.25-6.405a.49.49 0 0 1 .553-.44.5.5 0 0 1 .441.552c-.004.035-.358 3.505 1.931 5.555 1.788 1.605 4.718 1.969 8.699 1.082a.501.501 0 0 1 .217.977c-1.48.327-2.833.492-4.052.492z" fill="#333"/></svg>