<svg xmlns:dc="http://purl.org/dc/elements/1.1/" xmlns:cc="http://creativecommons.org/ns#" xmlns:rdf="http://www.w3.org/1999/02/22-rdf-syntax-ns#" xmlns:svg="http://www.w3.org/2000/svg" xmlns="http://www.w3.org/2000/svg" height="26" width="27" xml:space="preserve" version="1.1"><rect id="backgroundrect" width="100%" height="100%" x="0" y="0" fill="none" stroke="none" class="" style=""/><metadata id="metadata8"><rdf:RDF><cc:Work rdf:about=""><dc:format>image/svg+xml</dc:format><dc:type rdf:resource="http://purl.org/dc/dcmitype/StillImage"/></cc:Work></rdf:RDF></metadata><defs id="defs6"/><g class="currentLayer" style=""><title>Layer 1</title><path id="path14" style="fill:#FFFFFF;fill-opacity:1;fill-rule:nonzero;stroke:none" d="m23.193502398504915,22.53344311984597 h-4.033718331457947 v-6.13619819092569 c0,-1.4634061535985192 -0.028581118866519924,-3.346617857232955 -2.0979146139430194,-3.346617857232955 c-2.1014683509449408,0 -2.4219095725224844,1.5939388679316469 -2.4219095725224844,3.2403993401110065 V22.53344311984597 H10.60775377763498 V9.914095631445225 h3.8700952065183998 v1.724177755108144 h0.05519634066814695 c0.5381265158016456,-0.9924746783088847 1.8563361092379105,-2.038425899124531 3.820418499917067,-2.038425899124531 c4.084831655145162,0 4.8400385737663285,2.613225274283071 4.8400385737663285,6.011703624661319 zM6.0557040015903425,8.188742567710559 c-1.2974996239718741,0 -2.342472208815696,-1.0192129495622655 -2.342472208815696,-2.2748833034229765 c0,-1.2539808477100853 1.044972584843823,-2.273414167639824 2.342472208815696,-2.273414167639824 c1.2913070482174611,0 2.3398106866355337,1.0194333199297385 2.3398106866355337,2.273414167639824 c0,1.2556703538607112 -1.0485036384180728,2.2748833034229765 -2.3398106866355337,2.2748833034229765 zM8.075073466648334,22.53344311984597 H4.033695697779866 V9.914095631445225 H8.075073466648334 zM25.204312650188065,8.27842399075962e-8 H2.0075438878479943 C0.9002523660470629,8.27842399075962e-8 4.974958756065462e-8,0.8536414295851813 4.974958756065462e-8,1.9052488231659694 V24.536286550302542 C4.974958756065462e-8,25.589363079666477 0.9002523660470629,26.444444179534912 2.0075438878479943,26.444444179534912 H25.204312650188065 c1.1099757274087623,0 2.016707942877828,-0.8550810998684333 2.016707942877828,-1.9081576292323708 V1.9052488231659694 C27.221020593065894,0.8536414295851813 26.314288377596828,8.27842399075962e-8 25.204312650188065,8.27842399075962e-8 " class=""/></g></svg>